<svg xmlns="http://www.w3.org/2000/svg" viewBox="0 0 1 1" width="800" height="800">
  <path style="fill:#33CC80; stroke-width:0.002; stroke:#000000; stroke-opacity:1; stroke-linecap:round; fill-opacity:0.7;" d="M 0.36670547681732135 0.5 C NaN NaN, NaN NaN, 0.36670547681732135 0.5 C 0.3947825523166857 0.44615608483541014, 1.7715535930530504 1.1640775869760094, 1.743476517553686 1.217921502140599 C 1.7102160304210827 1.2631560240866357, 0.269707084057649 0.20396434450885625, 0.3029675711902523 0.15872982256281926 C 0.4376181423748437 0.11438845319298052, 0.6346505711845913 0.7127129852983454, 0.5 0.757054354668184 C 0.4934226703525406 0.7624130989989364, 0.40656390490693495 0.6558025391652493, 0.41314123455439433 0.650443794834497 C 0.44927906881950797 0.7368010403084593, -0.18198409876470892 1.0009651368197046, -0.21812193302982252 0.9146078913457423 C -0.22712769526962523 0.9075361813131791, 0.09844016969699172 0.4929282899674369, 0.10744593193679441 0.5 C 0.0943212233605728 0.5154098438660492, -0.7317537540638693 -0.18816596358854107, -0.7186290454876476 -0.20357580745459014 C -0.542639756215132 -0.5064538126861136, 0.6799135007266667 0.20391892838671016, 0.5039242114541511 0.5067969336182334 C 0.5256577818451623 0.507162768648633, 0.5217335703910112 0.7402927829473301, 0.5 0.7399269479169306 C 0.49755896977917563 0.7401078514869971, 0.4818008364308714 0.5274747911617749, 0.4842418666516958 0.5272938875917084 C 0.45177954476282095 0.4779795372420484, 0.6766341617236865 0.3299637385500234, 0.7090964836125613 0.3792780888996834 Z" />
</svg>