<svg xmlns="http://www.w3.org/2000/svg" viewBox="0 0 1 1" width="800" height="800">
  <path style="fill:none; stroke-width:0.003; stroke:#26D9D9; stroke-opacity:1; stroke-linecap:round;" d="M 0.1 0.5 L 0.12340552632628381 0.5113521671483535 L 0.13512836546245427 0.5173054596200941 L 0.14297035951727272 0.5216439331313398 L 0.14953212252699283 0.525628939587463 L 0.15481365449161463 0.529260478988464 L 0.15968182675655607 0.5329590019694667 L 0.1641366393218171 0.536724508530471 L 0.16817809218739777 0.5405569986714773 L 0.17180618535329806 0.5444564723924855 L 0.17530987593465727 0.5485630799052035 L 0.17868916393147538 0.5528768212096313 L 0.18194404934375244 0.557397696305769 L 0.1850745321714884 0.5621257051936166 L 0.1880806124146833 0.567060847873174 L 0.19096229007333712 0.5722031243444414 L 0.19371956514744987 0.5775525346074186 L 0.19635243763702148 0.5831090786621058 L 0.19910610692410657 0.5882284008213021 L 0.2019805730087051 0.5929105010850078 L 0.20497583589081703 0.5971553794532227 L 0.20809189557044244 0.6009630359259468 L 0.21132875204758123 0.6043334705031802 L 0.2146864053222335 0.6072666831849229 L 0.21816485539439912 0.6097626739711748 L 0.22176410226407822 0.6118214428619357 L 0.22548414593127072 0.6134429898572061 L 0.22932498639597668 0.6146273149569859 L 0.23328662365819605 0.6153744181612748 L 0.23736905771792885 0.615684299470073 L 0.24157228857517507 0.6155569588833805 L 0.2458963162299347 0.6149923964011971 L 0.2503411406822078 0.613990612023523 L 0.2549067619319943 0.6125516057503583 L 0.2594167926491745 0.6110003355254473 L 0.26387123283374836 0.6093368013487902 L 0.26827008248571593 0.6075610032203871 L 0.2726133416050771 0.6056729411402377 L 0.27690101019183205 0.6036726151083424 L 0.28113308824598066 0.6015600251247007 L 0.2853095757675229 0.599335171189313 L 0.28943047275645883 0.5969980533021793 L 0.29349577921278847 0.5945486714632993 L 0.29750549513651176 0.5919870256726731 L 0.30145962052762876 0.5893131159303009 L 0.3053581553861394 0.5865269422361826 L 0.30920109971204374 0.5836285045903181 L 0.31298845350534177 0.5806178029927075 L 0.31672021676603346 0.5774948374433507 L 0.32039638949411886 0.5742596079422478 L 0.3242322505067192 0.5713789599688078 L 0.32822779980383443 0.5688528935230308 L 0.33238303738546465 0.5666814086049167 L 0.3366979632516098 0.5648645052144654 L 0.34117257740226986 0.5634021833516771 L 0.3458068798374449 0.5622944430165516 L 0.3506008705571349 0.5615412842090891 L 0.3555545495613398 0.5611427069292896 L 0.36066791685005967 0.5610987111771528 L 0.3659409724232945 0.5614092969526792 L 0.3713737162810442 0.5620744642558682 L 0.376966148423309 0.5630942130867203 L 0.38271826885008864 0.5644685434452351 L 0.3886300775613832 0.566197455331413 L 0.3947015745571927 0.5682809487452537 L 0.4009327598375172 0.5707190236867574 L 0.40697309317360336 0.5732711004852903 L 0.41282257456545135 0.5759371791408525 L 0.418481204013061 0.578717259653444 L 0.42394898151643245 0.5816113420230647 L 0.4292259070755656 0.5846194262497149 L 0.4343119806904605 0.5877415123333941 L 0.4392072023611172 0.5909776002741027 L 0.4439115720875356 0.5943276900718405 L 0.44842508986971574 0.5977917817266076 L 0.4527477557076577 0.6013698752384041 L 0.4568795696013613 0.6050619706072298 L 0.46082053155082664 0.6088680678330848 L 0.46457064155605376 0.6127881669159689 L 0.46812989961704254 0.6168222678558826 L 0.47149830573379314 0.6209703706528253 L 0.4746758599063055 0.6252324753067974 L 0.4778433278282924 0.6294434297914979 L 0.4810007094997539 0.6336032341069266 L 0.48414800492068993 0.637711888253084 L 0.4872852140911006 0.6417693922299696 L 0.4904123370109858 0.6457757460375838 L 0.49352937368034566 0.6497309496759263 L 0.49663632409918 0.6536350031449971 L 0.499733188267489 0.6574879064447965 L 0.5028199661852726 0.6612896595753242 L 0.5058966578525307 0.6650402625365802 L 0.5089632632692634 0.6687397153285648 L 0.5120197824354706 0.6723880179512776 L 0.5150662153511525 0.6759851704047188 L 0.518102562016309 0.6795311726888886 L 0.52112882243094 0.6830260248037867 L 0.5241449965950455 0.6864697267494131 L 0.5270794819499621 0.6893975066058422 L 0.5299322784956896 0.6918093643730739 L 0.5327033862322279 0.6937053000511082 L 0.5353928051595773 0.6950853136399453 L 0.5380005352777375 0.6959494051395848 L 0.5405265765867086 0.6962975745500269 L 0.5429709290864906 0.6961298218712717 L 0.5453335927770837 0.6954461471033193 L 0.5476145676584876 0.6942465502461693 L 0.5498138537307024 0.692531031299822 L 0.5519314509937281 0.6902995902642772 L 0.5539673594475648 0.687552227139535 L 0.5559215790922124 0.6842889419255955 L 0.5577941099276709 0.6805097346224586 L 0.5595849519539403 0.6762146052301243 L 0.5612941051710207 0.6714035537485926 L 0.5632653066813891 0.6670063075737861 L 0.5654985564850453 0.6630228667057046 L 0.5679938545819897 0.6594532311443484 L 0.570751200972222 0.6562974008897171 L 0.5737705956557423 0.6535553759418111 L 0.5770520386325506 0.6512271563006301 L 0.5805955299026468 0.6493127419661743 L 0.5844010694660312 0.6478121329384435 L 0.5884686573227035 0.646725329217438 L 0.5927982934726637 0.6460523308031574 L 0.597389977915912 0.6457931376956021 L 0.6022437106524481 0.6459477498947719 L 0.6073594916822723 0.6465161674006668 L 0.6127373210053846 0.6474983902132868 L 0.6183771986217848 0.648894418332632 L 0.6242791245314728 0.6507042517587022 L 0.6301526069395025 0.6524725642322404 L 0.6359976458458735 0.6541993557532464 L 0.6418142412505861 0.6558846263217204 L 0.6476023931536399 0.6575283759376622 L 0.6533621015550353 0.659130604601072 L 0.6590933664547721 0.6606913123119497 L 0.6647961878528503 0.6622104990702953 L 0.6704705657492699 0.6636881648761087 L 0.676116500144031 0.6651243097293901 L 0.6817339910371335 0.6665189336301394 L 0.6873230384285776 0.6678720365783566 L 0.6928836423183629 0.6691836185740416 L 0.6984158027064897 0.6704536796171947 L 0.7039195195929581 0.6716822197078156 L 0.7093947929777678 0.6728692388459043 L 0.7148416228609187 0.6740147370314611 L 0.7202757346474677 0.6749432299021789 L 0.7256971283374148 0.6756547174580583 L 0.7311058039307597 0.6761491996990987 L 0.7365017614275027 0.6764266766253003 L 0.7418850008276434 0.6764871482366632 L 0.7472555221311823 0.6763306145331875 L 0.752613325338119 0.6759570755148729 L 0.7579584104484536 0.6753665311817197 L 0.7632907774621862 0.6745589815337276 L 0.7686104263793166 0.6735344265708969 L 0.7739173571998451 0.6722928662932273 L 0.7792115699237715 0.6708343007007191 L 0.7844930645510958 0.6691587297933721 L 0.7897618410818181 0.6672661535711861 L 0.7950178995159383 0.6651565720341617 L 0.8002612398534565 0.6628299851822983 L 0.8055598952343188 0.6604273108855134 L 0.8109138656585254 0.6579485491438066 L 0.8163231511260762 0.6553936999571783 L 0.8217877516369712 0.6527627633256281 L 0.8273076671912104 0.6500557392491564 L 0.8328828977887938 0.647272627727763 L 0.8385134434297215 0.6444134287614478 L 0.8441993041139932 0.641478142350211 L 0.8499404798416094 0.6384667684940524 L 0.8557369706125696 0.6353793071929721 L 0.861588776426874 0.6322157584469701 L 0.8674958972845228 0.6289761222560466 L 0.8734583331855157 0.6256603986202012 L 0.8794760841298528 0.6222685875394341 L 0.8855491501175341 0.6188006890137454 L 0.8916775311485597 0.615256703043135 L 0.8975832942957958 0.6116658063134602 L 0.9032664395592421 0.608027998824721 L 0.9087269669388991 0.6043432805769176 L 0.9139648764347663 0.6006116515700496 L 0.9189801680468441 0.5968331118041174 L 0.9237728417751324 0.5930076612791207 L 0.9283428976196311 0.5891352999950598 L 0.93269033558034 0.5852160279519345 L 0.9368151556572596 0.5812498451497448 L 0.9407173578503896 0.5772367515884907 L 0.94439694215973 0.5731767472681724 L 0.947853908585281 0.5690698321887895 L 0.9510882571270423 0.5649160063503424 L 0.954099987785014 0.5607152697528308 L 0.9568891005591963 0.556467622396255 L 0.9594555954495889 0.5521730642806149 L 0.9619107496655521 0.5484595599462245 L 0.964254563207086 0.5453271093930843 L 0.9664870360741904 0.5427757126211938 L 0.9686081682668652 0.5408053696305534 L 0.9706179597851108 0.5394160804211628 L 0.9725164106289269 0.5386078449930223 L 0.9743035207983135 0.5383806633461317 L 0.9759792902932707 0.5387345354804909 L 0.9775437191137984 0.5396694613961002 L 0.9789968072598968 0.5411854410929593 L 0.9803385547315657 0.5432824745710685 L 0.9815689615288052 0.5459605618304275 L 0.9826880276516153 0.5492197028710366 L 0.9836957530999959 0.5530598976928955 L 0.9845921378739471 0.5574811462960043 L 0.9853771819734689 0.5624834486803632 L 0.9862095591246884 0.5672099843644083 L 0.987089269327606 0.5716607533481398 L 0.9880163125822213 0.5758357556315578 L 0.9889906888885345 0.5797349912146621 L 0.9900123982465456 0.5833584600974527 L 0.9910814406562545 0.5867061622799298 L 0.9921978161176613 0.5897780977620932 L 0.9933615246307661 0.5925742665439431 L 0.9946689645034865 0.595131545824188 L 0.9961201357358229 0.5974499356028281 L 0.9977150383277751 0.5995294358798634 L 0.999453672279343 0.6013700466552938 L 1.001625232514281 0.6030823995252459 L 1.0042297190325882 0.6046664944897193 L 1.0081347166055274 0.6064542263370937 L 1.0159429795468833 0.6094412794325061" />
</svg>