<svg xmlns="http://www.w3.org/2000/svg" viewBox="0 0 1 1" width="800" height="800">
  <gundefined>
    <path style="fill:#EB4747; stroke-width:0.002; stroke:#000000; stroke-opacity:1; stroke-linecap:round; fill-opacity:0.7;" d="M 0 0 L 0.4 0 L 0.3 -0.1 Z" />
  </g>
  <gundefined>
    <path style="fill:#EB9947; stroke-width:0.002; stroke:#000000; stroke-opacity:1; stroke-linecap:round; fill-opacity:0.7;" d="M 0 0 L 0.4 0 L 0.3 -0.1 Z" />
  </g>
  <gundefined>
    <path style="fill:#EBEB47; stroke-width:0.002; stroke:#000000; stroke-opacity:1; stroke-linecap:round; fill-opacity:0.7;" d="M 0 0 L 0.4 0 L 0.3 -0.1 Z" />
  </g>
  <gundefined>
    <path style="fill:#99EB47; stroke-width:0.002; stroke:#000000; stroke-opacity:1; stroke-linecap:round; fill-opacity:0.7;" d="M 0 0 L 0.4 0 L 0.3 -0.1 Z" />
  </g>
  <gundefined>
    <path style="fill:#47EB47; stroke-width:0.002; stroke:#000000; stroke-opacity:1; stroke-linecap:round; fill-opacity:0.7;" d="M 0 0 L 0.4 0 L 0.3 -0.1 Z" />
  </g>
  <gundefined>
    <path style="fill:#47EB99; stroke-width:0.002; stroke:#000000; stroke-opacity:1; stroke-linecap:round; fill-opacity:0.7;" d="M 0 0 L 0.4 0 L 0.3 -0.1 Z" />
  </g>
  <gundefined>
    <path style="fill:#47EBEB; stroke-width:0.002; stroke:#000000; stroke-opacity:1; stroke-linecap:round; fill-opacity:0.7;" d="M 0 0 L 0.4 0 L 0.3 -0.1 Z" />
  </g>
  <gundefined>
    <path style="fill:#4799EB; stroke-width:0.002; stroke:#000000; stroke-opacity:1; stroke-linecap:round; fill-opacity:0.7;" d="M 0 0 L 0.4 0 L 0.3 -0.1 Z" />
  </g>
  <gundefined>
    <path style="fill:#4747EB; stroke-width:0.002; stroke:#000000; stroke-opacity:1; stroke-linecap:round; fill-opacity:0.7;" d="M 0 0 L 0.4 0 L 0.3 -0.1 Z" />
  </g>
  <gundefined>
    <path style="fill:#9947EB; stroke-width:0.002; stroke:#000000; stroke-opacity:1; stroke-linecap:round; fill-opacity:0.7;" d="M 0 0 L 0.4 0 L 0.3 -0.1 Z" />
  </g>
  <gundefined>
    <path style="fill:#EB47EB; stroke-width:0.002; stroke:#000000; stroke-opacity:1; stroke-linecap:round; fill-opacity:0.7;" d="M 0 0 L 0.4 0 L 0.3 -0.1 Z" />
  </g>
  <gundefined>
    <path style="fill:#EB4799; stroke-width:0.002; stroke:#000000; stroke-opacity:1; stroke-linecap:round; fill-opacity:0.7;" d="M 0 0 L 0.4 0 L 0.3 -0.1 Z" />
  </g>
</svg>