<svg xmlns="http://www.w3.org/2000/svg" viewBox="0 0 1 1" width="800" height="800">
  <path style="fill:#D92626; stroke-width:0.001; stroke:#000000; stroke-opacity:1; stroke-linecap:round; fill-opacity:0.3;" d="M 0.1 0.3 L 0.1 0.15939137303230744 L 0.10138888888888889 0.1162086968774489 L 0.10416666666666669 0.12358242921286021 L 0.10833333333333334 0.16588938926435332 L 0.1138888888888889 0.24312957703192817 L 0.12083333333333333 0.35009526559085546 L 0.12916666666666665 0.4867864549411352 L 0.1388888888888889 0.6532031450827673 L 0.15 0.8493453360157519 L 0.1611111111111111 0.992377442739915 L 0.17222222222222222 1.0822994652552569 L 0.18333333333333332 1.119111403561777 L 0.19444444444444445 1.1028132576594762 L 0.20555555555555555 1.0334050275483537 L 0.21666666666666667 0.9108867132284098 L 0.22777777777777777 0.7352583146996445 L 0.23888888888888887 0.5065198319620581 L 0.25 0.3165473972586647 L 0.2611111111111111 0.1653410105894647 L 0.27222222222222225 0.05290067195445797 L 0.2833333333333333 -0.020773618646355435 L 0.29444444444444445 -0.055681861212975484 L 0.3055555555555556 -0.051824055745402206 L 0.31666666666666665 -0.009200202243635602 L 0.32777777777777783 0.07218969929232433 L 0.3388888888888889 0.14210372526477405 L 0.35000000000000003 0.20054187567371362 L 0.36111111111111116 0.24750415051914298 L 0.37222222222222223 0.28299054980106214 L 0.38333333333333336 0.30700107351947115 L 0.3944444444444445 0.3195357216743699 L 0.40555555555555556 0.3205944942657585 L 0.41666666666666674 0.310177391293637 L 0.4277777777777778 0.3113045863774098 L 0.43888888888888894 0.3239760795170772 L 0.45000000000000007 0.348191870712639 L 0.46111111111111114 0.38395195996409526 L 0.47222222222222227 0.43125634727144607 L 0.4833333333333334 0.4901050326346913 L 0.49444444444444446 0.560498016053831 L 0.5055555555555556 0.6424352975288652 L 0.5166666666666667 0.7073075795284532 L 0.5277777777777778 0.7551148620525951 L 0.5388888888888889 0.785857145101291 L 0.55 0.7995344286745405 L 0.5611111111111111 0.7961467127723441 L 0.5722222222222222 0.7756939973947015 L 0.5833333333333333 0.7381762825416127 L 0.5944444444444446 0.6835935682130777 L 0.6055555555555556 0.6516867798450781 L 0.6166666666666667 0.6424559174376135 L 0.6277777777777778 0.6559009809906843 L 0.638888888888889 0.6920219705042903 L 0.65 0.7508188859784314 L 0.6611111111111111 0.8322917274131079 L 0.6722222222222222 0.9364404948083194 L 0.6833333333333333 1.0632651881640662 L 0.6944444444444444 1.1521274192594464 L 0.7055555555555555 1.2030271880944603 L 0.7166666666666666 1.2159644946691075 L 0.7277777777777779 1.1909393389833884 L 0.7388888888888889 1.1279517210373027 L 0.75 1.0270016408308504 L 0.7611111111111111 0.8880890983640317 L 0.7722222222222223 0.7112140936368463 L 0.7833333333333333 0.5528222375472994 L 0.7944444444444445 0.4129135300953908 L 0.8055555555555556 0.2914879712811206 L 0.8166666666666667 0.18854556110448864 L 0.8291666666666666 0.10046007261223522 L 0.8430555555555557 0.027231505804360318 L 0.8625 -0.04201882017891552 L 0.9 -0.13992694791693067" />
  <path style="fill:#D9D926; stroke-width:0.001; stroke:#000000; stroke-opacity:1; stroke-linecap:round; fill-opacity:0.3;" d="M 0.1 0.38 L 0.1 0.28232907498736837 L 0.10138888888888889 0.23956733470363914 L 0.10416666666666669 0.2191578041446019 L 0.10833333333333334 0.21024815830885304 L 0.1138888888888889 0.2128383971963926 L 0.12083333333333333 0.22331107914008608 L 0.12916666666666665 0.24166620413993345 L 0.1388888888888889 0.2679037721959347 L 0.15 0.3020237833080899 L 0.1611111111111111 0.34279291311431526 L 0.17222222222222222 0.3902111616146108 L 0.18333333333333332 0.44427852880897656 L 0.19444444444444445 0.5049950146974125 L 0.20555555555555555 0.5723606192799187 L 0.21666666666666667 0.646375342556495 L 0.22777777777777777 0.7270391845271416 L 0.23888888888888887 0.8143521451918584 L 0.25 0.9049598893224321 L 0.2611111111111111 0.9988624169188628 L 0.27222222222222225 1.0960597279811506 L 0.2833333333333333 1.1965518225092953 L 0.29444444444444445 1.3003387005032971 L 0.3055555555555556 1.4074203619631556 L 0.31666666666666665 1.5177968068888714 L 0.32777777777777783 1.631468035280444 L 0.3388888888888889 1.680162273179707 L 0.35000000000000003 1.6638795205866597 L 0.36111111111111116 1.5826197775013027 L 0.37222222222222223 1.4363830439236358 L 0.38333333333333336 1.2251693198536588 L 0.3944444444444445 0.9489786052913722 L 0.40555555555555556 0.6078109002367758 L 0.41666666666666674 0.2016662046898693 L 0.4277777777777778 -0.09790062105210626 L 0.43888888888888894 -0.29088957698915097 L 0.45000000000000007 -0.37730066312126476 L 0.46111111111111114 -0.35713387944844766 L 0.47222222222222227 -0.23038922597069955 L 0.4833333333333334 0.0029332973119794437 L 0.49444444444444446 0.34283369039958933 L 0.5055555555555556 0.7893119532921301 L 0.5166666666666667 1.1476996546400995 L 0.5277777777777778 1.4179967944434975 L 0.5388888888888889 1.600203372702324 L 0.55 1.694319389416579 L 0.5611111111111111 1.7003448445862623 L 0.5722222222222222 1.6182797382113745 L 0.5833333333333333 1.448124070291915 L 0.5944444444444446 1.1898778408278843 L 0.6055555555555556 0.993194204721082 L 0.6166666666666667 0.8580731619715087 L 0.6277777777777778 0.784514712579164 L 0.638888888888889 0.7725188565440483 L 0.65 0.8220855938661611 L 0.6611111111111111 0.9332149245455028 L 0.6722222222222222 1.105906848582073 L 0.6833333333333333 1.340161365975872 L 0.6944444444444444 1.512997437083768 L 0.7055555555555555 1.6244150619057605 L 0.7166666666666666 1.6744142404418496 L 0.7277777777777779 1.6629949726920357 L 0.7388888888888889 1.5901572586563182 L 0.75 1.4559010983346976 L 0.7611111111111111 1.2602264917271737 L 0.7722222222222223 1.0031334388337467 L 0.7833333333333333 0.7914332925714785 L 0.7944444444444445 0.6251260529403692 L 0.8055555555555556 0.5042117199404186 L 0.8166666666666667 0.4286902935716269 L 0.8291666666666666 0.4118180488534745 L 0.8430555555555557 0.4535949857859614 L 0.8625 0.5937899294275291 L 0.9 0.9517093549535016" />
  <path style="fill:#26D926; stroke-width:0.001; stroke:#000000; stroke-opacity:1; stroke-linecap:round; fill-opacity:0.3;" d="M 0.1 0.45999999999999996 L 0.1 0.5792664830157824 L 0.10138888888888889 0.6205430692386205 L 0.10416666666666669 0.6235852530071084 L 0.10833333333333334 0.6016448657674441 L 0.1138888888888889 0.5547219075196277 L 0.12083333333333333 0.48723365541239183 L 0.12916666666666665 0.39918010944573645 L 0.1388888888888889 0.2905612696196616 L 0.15 0.1613771359341673 L 0.1611111111111111 0.08534876249821031 L 0.17222222222222222 0.062476149311790644 L 0.18333333333333332 0.09275929637490829 L 0.19444444444444445 0.17619820368756325 L 0.20555555555555555 0.3127928712497556 L 0.21666666666666667 0.5025432990614852 L 0.22777777777777777 0.7454494871227522 L 0.23888888888888887 1.0415114354335566 L 0.25 1.2977535469251573 L 0.2611111111111111 1.5141758215975547 L 0.27222222222222225 1.6907782594507483 L 0.2833333333333333 1.8275608604847386 L 0.29444444444444445 1.9245236246995252 L 0.3055555555555556 1.9816665520951084 L 0.31666666666666665 1.998989642671488 L 0.32777777777777783 1.976492896428664 L 0.3388888888888889 1.9176791118384535 L 0.35000000000000003 1.8225482889008566 L 0.36111111111111116 1.6911004276158734 L 0.37222222222222223 1.5233355279835037 L 0.38333333333333336 1.3192535900037476 L 0.3944444444444445 1.078854613676605 L 0.40555555555555556 0.8021385990020761 L 0.41666666666666674 0.48910554598016065 L 0.4277777777777778 0.21682420242281011 L 0.43888888888888894 -0.01470543166997551 L 0.45000000000000007 -0.20548335629819625 L 0.46111111111111114 -0.3555095714618521 L 0.47222222222222227 -0.46478407716094305 L 0.4833333333333334 -0.5333068733954691 L 0.49444444444444446 -0.5610779601654302 L 0.5055555555555556 -0.5480973374708263 L 0.5166666666666667 -0.5335768807085425 L 0.5277777777777778 -0.5175165898785787 L 0.5388888888888889 -0.4999164649809349 L 0.55 -0.48077650601561106 L 0.5611111111111111 -0.46009671298260724 L 0.5722222222222222 -0.4378770858819234 L 0.5833333333333333 -0.4141176247135596 L 0.5944444444444446 -0.3888183294775157 L 0.6055555555555556 -0.3558106842840273 L 0.6166666666666667 -0.31509468913309424 L 0.6277777777777778 -0.26667034402471657 L 0.638888888888889 -0.2105376489588942 L 0.65 -0.14669660393562728 L 0.6611111111111111 -0.07514720895491576 L 0.6722222222222222 0.004110535983240404 L 0.6833333333333333 0.09107663087884117 L 0.6944444444444444 0.1713759654336639 L 0.7055555555555555 0.24500853964770852 L 0.7166666666666666 0.31197435352097513 L 0.7277777777777779 0.37227340705346373 L 0.7388888888888889 0.4259057002451742 L 0.75 0.4728712330961066 L 0.7611111111111111 0.513170005606261 L 0.7722222222222223 0.5468020177756373 L 0.7833333333333333 0.5771213736936636 L 0.7944444444444445 0.60412807336034 L 0.8055555555555556 0.6278221167756664 L 0.8166666666666667 0.648203503939643 L 0.8291666666666666 0.6661635801220915 L 0.8430555555555557 0.6817023453230121 L 0.8625 0.6974938353518711 L 0.9 0.721560157637067" />
  <path style="fill:#26D9D9; stroke-width:0.001; stroke:#000000; stroke-opacity:1; stroke-linecap:round; fill-opacity:0.3;" d="M 0.1 0.54 L 0.1 -0.09537665291905906 L 0.10138888888888889 -0.35464813423473757 L 0.10416666666666669 -0.44960666158672186 L 0.10833333333333334 -0.4508496408549074 L 0.1138888888888889 -0.35837707203929425 L 0.12083333333333333 -0.1957214237665142 L 0.12916666666666665 0.037117303963432824 L 0.1388888888888889 0.34013911115054674 L 0.15 0.7133439977948275 L 0.1611111111111111 1.0122099093913746 L 0.17222222222222222 1.2367368459401873 L 0.18333333333333332 1.3869248074412666 L 0.19444444444444445 1.4627737938946117 L 0.20555555555555555 1.464283805300223 L 0.21666666666666667 1.3914548416581005 L 0.22777777777777777 1.2442869029682437 L 0.23888888888888887 1.0227799892306533 L 0.25 0.7956765830437633 L 0.2611111111111111 0.5629766844075743 L 0.27222222222222225 0.32468029332208614 L 0.2833333333333333 0.08078740978729876 L 0.29444444444444445 -0.16870196619678782 L 0.3055555555555556 -0.42378783463017355 L 0.31666666666666665 -0.6844701955128585 L 0.32777777777777783 -0.9507490488448426 L 0.3388888888888889 -1.1428736722994726 L 0.35000000000000003 -1.2608440658767486 L 0.36111111111111116 -1.3046602295766703 L 0.37222222222222223 -1.2743221633992383 L 0.38333333333333336 -1.1698298673444518 L 0.3944444444444445 -0.9911833414123116 L 0.40555555555555556 -0.7383825856028171 L 0.41666666666666674 -0.41142759991596856 L 0.4277777777777778 -0.10853104268222571 L 0.43888888888888894 0.1703070860984114 L 0.45000000000000007 0.42508678642594283 L 0.46111111111111114 0.6558080583003685 L 0.47222222222222227 0.8624709017216885 L 0.4833333333333334 1.045075316689903 L 0.49444444444444446 1.2036213032050114 L 0.5055555555555556 1.3381088612670142 L 0.5166666666666667 1.4358889677289954 L 0.5277777777777778 1.4969616225909554 L 0.5388888888888889 1.5213268258528934 L 0.55 1.50898457751481 L 0.5611111111111111 1.4599348775767051 L 0.5722222222222222 1.3741777260385786 L 0.5833333333333333 1.2517131229004308 L 0.5944444444444446 1.092541068162261 L 0.6055555555555556 0.9263025270042704 L 0.6166666666666667 0.752997499426459 L 0.6277777777777778 0.5726259854288264 L 0.638888888888889 0.38518798501137275 L 0.65 0.19068349817409808 L 0.6611111111111111 -0.010887475082997644 L 0.6722222222222222 -0.21952493475991436 L 0.6833333333333333 -0.43522888085665207 L 0.6944444444444444 -0.5695458389147148 L 0.7055555555555555 -0.6224758089341025 L 0.7166666666666666 -0.5940187909148151 L 0.7277777777777779 -0.48417478485685284 L 0.7388888888888889 -0.2929437907602154 L 0.75 -0.020325808624902963 L 0.7611111111111111 0.3336791615490845 L 0.7722222222222223 0.769071119761747 L 0.7833333333333333 1.1185375394124009 L 0.7944444444444445 1.382078420501046 L 0.8055555555555556 1.5596937630276824 L 0.8166666666666667 1.65138356699231 L 0.8291666666666666 1.6256462886095033 L 0.8430555555555557 1.4824819278792618 L 0.8625 1.1273858534453083 L 0.9 0.2768441712388099" />
  <path style="fill:#2626D9; stroke-width:0.001; stroke:#000000; stroke-opacity:1; stroke-linecap:round; fill-opacity:0.3;" d="M 0.1 0.62 L 0.1 0.9014680100045466 L 0.10138888888888889 1.022084225129762 L 0.10416666666666669 1.0756713153771613 L 0.10833333333333334 1.0935035040805836 L 0.1138888888888889 1.0755807912400284 L 0.12083333333333333 1.0323279179667755 L 0.12916666666666665 0.9637448842608249 L 0.1388888888888889 0.8698316901221765 L 0.15 0.7505883355508305 L 0.1611111111111111 0.6525540592563787 L 0.17222222222222222 0.5757288612388213 L 0.18333333333333332 0.5201127414981582 L 0.19444444444444445 0.4857057000343896 L 0.20555555555555555 0.4725077368475154 L 0.21666666666666667 0.4805188519375355 L 0.22777777777777777 0.5097390453044501 L 0.23888888888888887 0.560168316948259 L 0.25 0.6032717086696914 L 0.2611111111111111 0.6390492204687472 L 0.27222222222222225 0.6675008523454264 L 0.2833333333333333 0.6886266042997293 L 0.29444444444444445 0.7024264763316556 L 0.3055555555555556 0.7089004684412052 L 0.31666666666666665 0.7080485806283785 L 0.32777777777777783 0.6998708128931752 L 0.3388888888888889 0.6973478441123202 L 0.35000000000000003 0.7004796742858135 L 0.36111111111111116 0.709266303413655 L 0.37222222222222223 0.7237077314958448 L 0.38333333333333336 0.7438039585323829 L 0.3944444444444445 0.7695549845232693 L 0.40555555555555556 0.800960809468504 L 0.41666666666666674 0.838021433368087 L 0.4277777777777778 0.8388647864816136 L 0.43888888888888894 0.8034908688090836 L 0.45000000000000007 0.7318996803504972 L 0.46111111111111114 0.6240912211058545 L 0.47222222222222227 0.48006549107515517 L 0.4833333333333334 0.29982249025839947 L 0.49444444444444446 0.0833622186555873 L 0.5055555555555556 -0.16931532373328134 L 0.5166666666666667 -0.37296483690033166 L 0.5277777777777778 -0.5275863208455636 L 0.5388888888888889 -0.6331797755689773 L 0.55 -0.6897452010705728 L 0.5611111111111111 -0.69728259735035 L 0.5722222222222222 -0.6557919644083088 L 0.5833333333333333 -0.5652733022444495 L 0.5944444444444446 -0.4257266108587719 L 0.6055555555555556 -0.2748112604880758 L 0.6166666666666667 -0.11252725113236117 L 0.6277777777777778 0.061125417208372 L 0.638888888888889 0.24614674453412363 L 0.65 0.44253673084489387 L 0.6611111111111111 0.6502953761406826 L 0.6722222222222222 0.8694226804214897 L 0.6833333333333333 1.0999186436873156 L 0.6944444444444444 1.2761978611008447 L 0.7055555555555555 1.3982603326620775 L 0.7166666666666666 1.4661060583710135 L 0.7277777777777779 1.479735038227653 L 0.7388888888888889 1.4391472722319962 L 0.75 1.3443427603840425 L 0.7611111111111111 1.1953215026837927 L 0.7722222222222223 0.9920834991312464 L 0.7833333333333333 0.790655398344389 L 0.7944444444444445 0.5910372003232209 L 0.8055555555555556 0.3932289050677419 L 0.8166666666666667 0.19723051257795204 L 0.8291666666666666 -0.020552824824527735 L 0.8430555555555557 -0.2601211071396975 L 0.8625 -0.5922588774026947 L 0.9 -1.2293197647189316" />
</svg>