<svg xmlns="http://www.w3.org/2000/svg" viewBox="0 0 1 1" width="800" height="800">
  <gundefined>
    <path style="fill:#E05252; stroke-width:0.005; stroke:#000000; stroke-opacity:1; stroke-linecap:round; fill-opacity:0.3;" d="M 0.3 NaN A 0.05 NaN 0 0 0 0.25 NaN A 0.05 NaN 0 0 0 0.35 NaN A 0.05 NaN 0 0 0 0.25 NaN A 0.05 NaN 0 0 0 0.35 NaN" />
  </g>
  <gundefined>
    <path style="fill:#E06952; stroke-width:0.005; stroke:#000000; stroke-opacity:1; stroke-linecap:round; fill-opacity:0.3;" d="M 0.3 NaN A 0.05 NaN 0 0 0 0.25 NaN A 0.05 NaN 0 0 0 0.35 NaN A 0.05 NaN 0 0 0 0.25 NaN A 0.05 NaN 0 0 0 0.35 NaN" />
  </g>
  <gundefined>
    <path style="fill:#E08152; stroke-width:0.005; stroke:#000000; stroke-opacity:1; stroke-linecap:round; fill-opacity:0.3;" d="M 0.3 NaN A 0.05 NaN 0 0 0 0.25 NaN A 0.05 NaN 0 0 0 0.35 NaN A 0.05 NaN 0 0 0 0.25 NaN A 0.05 NaN 0 0 0 0.35 NaN" />
  </g>
  <gundefined>
    <path style="fill:#E09952; stroke-width:0.005; stroke:#000000; stroke-opacity:1; stroke-linecap:round; fill-opacity:0.3;" d="M 0.3 NaN A 0.05 NaN 0 0 0 0.25 NaN A 0.05 NaN 0 0 0 0.35 NaN A 0.05 NaN 0 0 0 0.25 NaN A 0.05 NaN 0 0 0 0.35 NaN" />
  </g>
  <gundefined>
    <path style="fill:#E0B152; stroke-width:0.005; stroke:#000000; stroke-opacity:1; stroke-linecap:round; fill-opacity:0.3;" d="M 0.3 NaN A 0.05 NaN 0 0 0 0.25 NaN A 0.05 NaN 0 0 0 0.35 NaN A 0.05 NaN 0 0 0 0.25 NaN A 0.05 NaN 0 0 0 0.35 NaN" />
  </g>
  <gundefined>
    <path style="fill:#E0C952; stroke-width:0.005; stroke:#000000; stroke-opacity:1; stroke-linecap:round; fill-opacity:0.3;" d="M 0.3 NaN A 0.05 NaN 0 0 0 0.25 NaN A 0.05 NaN 0 0 0 0.35 NaN A 0.05 NaN 0 0 0 0.25 NaN A 0.05 NaN 0 0 0 0.35 NaN" />
  </g>
  <gundefined>
    <path style="fill:#E0E052; stroke-width:0.005; stroke:#000000; stroke-opacity:1; stroke-linecap:round; fill-opacity:0.3;" d="M 0.3 NaN A 0.05 NaN 0 0 0 0.25 NaN A 0.05 NaN 0 0 0 0.35 NaN A 0.05 NaN 0 0 0 0.25 NaN A 0.05 NaN 0 0 0 0.35 NaN" />
  </g>
  <gundefined>
    <path style="fill:#C9E052; stroke-width:0.005; stroke:#000000; stroke-opacity:1; stroke-linecap:round; fill-opacity:0.3;" d="M 0.3 NaN A 0.05 NaN 0 0 0 0.25 NaN A 0.05 NaN 0 0 0 0.35 NaN A 0.05 NaN 0 0 0 0.25 NaN A 0.05 NaN 0 0 0 0.35 NaN" />
  </g>
  <gundefined>
    <path style="fill:#B1E052; stroke-width:0.005; stroke:#000000; stroke-opacity:1; stroke-linecap:round; fill-opacity:0.3;" d="M 0.3 NaN A 0.05 NaN 0 0 0 0.25 NaN A 0.05 NaN 0 0 0 0.35 NaN A 0.05 NaN 0 0 0 0.25 NaN A 0.05 NaN 0 0 0 0.35 NaN" />
  </g>
  <gundefined>
    <path style="fill:#99E052; stroke-width:0.005; stroke:#000000; stroke-opacity:1; stroke-linecap:round; fill-opacity:0.3;" d="M 0.3 NaN A 0.05 NaN 0 0 0 0.25 NaN A 0.05 NaN 0 0 0 0.35 NaN A 0.05 NaN 0 0 0 0.25 NaN A 0.05 NaN 0 0 0 0.35 NaN" />
  </g>
  <gundefined>
    <path style="fill:#81E052; stroke-width:0.005; stroke:#000000; stroke-opacity:1; stroke-linecap:round; fill-opacity:0.3;" d="M 0.3 NaN A 0.05 NaN 0 0 0 0.25 NaN A 0.05 NaN 0 0 0 0.35 NaN A 0.05 NaN 0 0 0 0.25 NaN A 0.05 NaN 0 0 0 0.35 NaN" />
  </g>
  <gundefined>
    <path style="fill:#69E052; stroke-width:0.005; stroke:#000000; stroke-opacity:1; stroke-linecap:round; fill-opacity:0.3;" d="M 0.3 NaN A 0.05 NaN 0 0 0 0.25 NaN A 0.05 NaN 0 0 0 0.35 NaN A 0.05 NaN 0 0 0 0.25 NaN A 0.05 NaN 0 0 0 0.35 NaN" />
  </g>
  <gundefined>
    <path style="fill:#52E052; stroke-width:0.005; stroke:#000000; stroke-opacity:1; stroke-linecap:round; fill-opacity:0.3;" d="M 0.3 NaN A 0.05 NaN 0 0 0 0.25 NaN A 0.05 NaN 0 0 0 0.35 NaN A 0.05 NaN 0 0 0 0.25 NaN A 0.05 NaN 0 0 0 0.35 NaN" />
  </g>
  <gundefined>
    <path style="fill:#52E069; stroke-width:0.005; stroke:#000000; stroke-opacity:1; stroke-linecap:round; fill-opacity:0.3;" d="M 0.3 NaN A 0.05 NaN 0 0 0 0.25 NaN A 0.05 NaN 0 0 0 0.35 NaN A 0.05 NaN 0 0 0 0.25 NaN A 0.05 NaN 0 0 0 0.35 NaN" />
  </g>
  <gundefined>
    <path style="fill:#52E081; stroke-width:0.005; stroke:#000000; stroke-opacity:1; stroke-linecap:round; fill-opacity:0.3;" d="M 0.3 NaN A 0.05 NaN 0 0 0 0.25 NaN A 0.05 NaN 0 0 0 0.35 NaN A 0.05 NaN 0 0 0 0.25 NaN A 0.05 NaN 0 0 0 0.35 NaN" />
  </g>
  <gundefined>
    <path style="fill:#52E099; stroke-width:0.005; stroke:#000000; stroke-opacity:1; stroke-linecap:round; fill-opacity:0.3;" d="M 0.3 NaN A 0.05 NaN 0 0 0 0.25 NaN A 0.05 NaN 0 0 0 0.35 NaN A 0.05 NaN 0 0 0 0.25 NaN A 0.05 NaN 0 0 0 0.35 NaN" />
  </g>
  <gundefined>
    <path style="fill:#52E0B1; stroke-width:0.005; stroke:#000000; stroke-opacity:1; stroke-linecap:round; fill-opacity:0.3;" d="M 0.3 NaN A 0.05 NaN 0 0 0 0.25 NaN A 0.05 NaN 0 0 0 0.35 NaN A 0.05 NaN 0 0 0 0.25 NaN A 0.05 NaN 0 0 0 0.35 NaN" />
  </g>
  <gundefined>
    <path style="fill:#52E0C9; stroke-width:0.005; stroke:#000000; stroke-opacity:1; stroke-linecap:round; fill-opacity:0.3;" d="M 0.3 NaN A 0.05 NaN 0 0 0 0.25 NaN A 0.05 NaN 0 0 0 0.35 NaN A 0.05 NaN 0 0 0 0.25 NaN A 0.05 NaN 0 0 0 0.35 NaN" />
  </g>
  <gundefined>
    <path style="fill:#52E0E0; stroke-width:0.005; stroke:#000000; stroke-opacity:1; stroke-linecap:round; fill-opacity:0.3;" d="M 0.3 NaN A 0.05 NaN 0 0 0 0.25 NaN A 0.05 NaN 0 0 0 0.35 NaN A 0.05 NaN 0 0 0 0.25 NaN A 0.05 NaN 0 0 0 0.35 NaN" />
  </g>
  <gundefined>
    <path style="fill:#52C9E0; stroke-width:0.005; stroke:#000000; stroke-opacity:1; stroke-linecap:round; fill-opacity:0.3;" d="M 0.3 NaN A 0.05 NaN 0 0 0 0.25 NaN A 0.05 NaN 0 0 0 0.35 NaN A 0.05 NaN 0 0 0 0.25 NaN A 0.05 NaN 0 0 0 0.35 NaN" />
  </g>
  <gundefined>
    <path style="fill:#52B1E0; stroke-width:0.005; stroke:#000000; stroke-opacity:1; stroke-linecap:round; fill-opacity:0.3;" d="M 0.3 NaN A 0.05 NaN 0 0 0 0.25 NaN A 0.05 NaN 0 0 0 0.35 NaN A 0.05 NaN 0 0 0 0.25 NaN A 0.05 NaN 0 0 0 0.35 NaN" />
  </g>
  <gundefined>
    <path style="fill:#5299E0; stroke-width:0.005; stroke:#000000; stroke-opacity:1; stroke-linecap:round; fill-opacity:0.3;" d="M 0.3 NaN A 0.05 NaN 0 0 0 0.25 NaN A 0.05 NaN 0 0 0 0.35 NaN A 0.05 NaN 0 0 0 0.25 NaN A 0.05 NaN 0 0 0 0.35 NaN" />
  </g>
  <gundefined>
    <path style="fill:#5281E0; stroke-width:0.005; stroke:#000000; stroke-opacity:1; stroke-linecap:round; fill-opacity:0.3;" d="M 0.3 NaN A 0.05 NaN 0 0 0 0.25 NaN A 0.05 NaN 0 0 0 0.35 NaN A 0.05 NaN 0 0 0 0.25 NaN A 0.05 NaN 0 0 0 0.35 NaN" />
  </g>
  <gundefined>
    <path style="fill:#5269E0; stroke-width:0.005; stroke:#000000; stroke-opacity:1; stroke-linecap:round; fill-opacity:0.3;" d="M 0.3 NaN A 0.05 NaN 0 0 0 0.25 NaN A 0.05 NaN 0 0 0 0.35 NaN A 0.05 NaN 0 0 0 0.25 NaN A 0.05 NaN 0 0 0 0.35 NaN" />
  </g>
  <gundefined>
    <path style="fill:#5252E0; stroke-width:0.005; stroke:#000000; stroke-opacity:1; stroke-linecap:round; fill-opacity:0.3;" d="M 0.3 NaN A 0.05 NaN 0 0 0 0.25 NaN A 0.05 NaN 0 0 0 0.35 NaN A 0.05 NaN 0 0 0 0.25 NaN A 0.05 NaN 0 0 0 0.35 NaN" />
  </g>
  <gundefined>
    <path style="fill:#6952E0; stroke-width:0.005; stroke:#000000; stroke-opacity:1; stroke-linecap:round; fill-opacity:0.3;" d="M 0.3 NaN A 0.05 NaN 0 0 0 0.25 NaN A 0.05 NaN 0 0 0 0.35 NaN A 0.05 NaN 0 0 0 0.25 NaN A 0.05 NaN 0 0 0 0.35 NaN" />
  </g>
  <gundefined>
    <path style="fill:#8152E0; stroke-width:0.005; stroke:#000000; stroke-opacity:1; stroke-linecap:round; fill-opacity:0.3;" d="M 0.3 NaN A 0.05 NaN 0 0 0 0.25 NaN A 0.05 NaN 0 0 0 0.35 NaN A 0.05 NaN 0 0 0 0.25 NaN A 0.05 NaN 0 0 0 0.35 NaN" />
  </g>
  <gundefined>
    <path style="fill:#9952E0; stroke-width:0.005; stroke:#000000; stroke-opacity:1; stroke-linecap:round; fill-opacity:0.3;" d="M 0.3 NaN A 0.05 NaN 0 0 0 0.25 NaN A 0.05 NaN 0 0 0 0.35 NaN A 0.05 NaN 0 0 0 0.25 NaN A 0.05 NaN 0 0 0 0.35 NaN" />
  </g>
  <gundefined>
    <path style="fill:#B152E0; stroke-width:0.005; stroke:#000000; stroke-opacity:1; stroke-linecap:round; fill-opacity:0.3;" d="M 0.3 NaN A 0.05 NaN 0 0 0 0.25 NaN A 0.05 NaN 0 0 0 0.35 NaN A 0.05 NaN 0 0 0 0.25 NaN A 0.05 NaN 0 0 0 0.35 NaN" />
  </g>
  <gundefined>
    <path style="fill:#C952E0; stroke-width:0.005; stroke:#000000; stroke-opacity:1; stroke-linecap:round; fill-opacity:0.3;" d="M 0.3 NaN A 0.05 NaN 0 0 0 0.25 NaN A 0.05 NaN 0 0 0 0.35 NaN A 0.05 NaN 0 0 0 0.25 NaN A 0.05 NaN 0 0 0 0.35 NaN" />
  </g>
  <gundefined>
    <path style="fill:#E052E0; stroke-width:0.005; stroke:#000000; stroke-opacity:1; stroke-linecap:round; fill-opacity:0.3;" d="M 0.3 NaN A 0.05 NaN 0 0 0 0.25 NaN A 0.05 NaN 0 0 0 0.35 NaN A 0.05 NaN 0 0 0 0.25 NaN A 0.05 NaN 0 0 0 0.35 NaN" />
  </g>
  <gundefined>
    <path style="fill:#E052C9; stroke-width:0.005; stroke:#000000; stroke-opacity:1; stroke-linecap:round; fill-opacity:0.3;" d="M 0.3 NaN A 0.05 NaN 0 0 0 0.25 NaN A 0.05 NaN 0 0 0 0.35 NaN A 0.05 NaN 0 0 0 0.25 NaN A 0.05 NaN 0 0 0 0.35 NaN" />
  </g>
  <gundefined>
    <path style="fill:#E052B1; stroke-width:0.005; stroke:#000000; stroke-opacity:1; stroke-linecap:round; fill-opacity:0.3;" d="M 0.3 NaN A 0.05 NaN 0 0 0 0.25 NaN A 0.05 NaN 0 0 0 0.35 NaN A 0.05 NaN 0 0 0 0.25 NaN A 0.05 NaN 0 0 0 0.35 NaN" />
  </g>
  <gundefined>
    <path style="fill:#E05299; stroke-width:0.005; stroke:#000000; stroke-opacity:1; stroke-linecap:round; fill-opacity:0.3;" d="M 0.3 NaN A 0.05 NaN 0 0 0 0.25 NaN A 0.05 NaN 0 0 0 0.35 NaN A 0.05 NaN 0 0 0 0.25 NaN A 0.05 NaN 0 0 0 0.35 NaN" />
  </g>
  <gundefined>
    <path style="fill:#E05281; stroke-width:0.005; stroke:#000000; stroke-opacity:1; stroke-linecap:round; fill-opacity:0.3;" d="M 0.3 NaN A 0.05 NaN 0 0 0 0.25 NaN A 0.05 NaN 0 0 0 0.35 NaN A 0.05 NaN 0 0 0 0.25 NaN A 0.05 NaN 0 0 0 0.35 NaN" />
  </g>
  <gundefined>
    <path style="fill:#E05269; stroke-width:0.005; stroke:#000000; stroke-opacity:1; stroke-linecap:round; fill-opacity:0.3;" d="M 0.3 NaN A 0.05 NaN 0 0 0 0.25 NaN A 0.05 NaN 0 0 0 0.35 NaN A 0.05 NaN 0 0 0 0.25 NaN A 0.05 NaN 0 0 0 0.35 NaN" />
  </g>
</svg>