<svg xmlns="http://www.w3.org/2000/svg" viewBox="0 0 1 1" width="800" height="800">
  <path style="fill:#0D1526; stroke-width:0.005; stroke:#000000; stroke-opacity:1; stroke-linecap:round;" d="M 0.5 NaN A 0.025 NaN 0 0 0 0.475 NaN A 0.025 NaN 0 0 0 0.525 NaN A 0.025 NaN 0 0 0 0.475 NaN A 0.025 NaN 0 0 0 0.525 NaN" />
  <path style="fill:#172645; stroke-width:0.005; stroke:#000000; stroke-opacity:1; stroke-linecap:round;" d="M 0.5 NaN A 0.045 NaN 0 0 0 0.455 NaN A 0.045 NaN 0 0 0 0.545 NaN A 0.045 NaN 0 0 0 0.455 NaN A 0.045 NaN 0 0 0 0.545 NaN" />
  <path style="fill:#213763; stroke-width:0.005; stroke:#000000; stroke-opacity:1; stroke-linecap:round;" d="M 0.5 NaN A 0.065 NaN 0 0 0 0.435 NaN A 0.065 NaN 0 0 0 0.565 NaN A 0.065 NaN 0 0 0 0.435 NaN A 0.065 NaN 0 0 0 0.565 NaN" />
  <path style="fill:#2B4882; stroke-width:0.005; stroke:#000000; stroke-opacity:1; stroke-linecap:round;" d="M 0.5 NaN A 0.08499999999999999 NaN 0 0 0 0.41500000000000004 NaN A 0.08499999999999999 NaN 0 0 0 0.585 NaN A 0.08499999999999999 NaN 0 0 0 0.41500000000000004 NaN A 0.08499999999999999 NaN 0 0 0 0.585 NaN" />
  <path style="fill:#3659A1; stroke-width:0.005; stroke:#000000; stroke-opacity:1; stroke-linecap:round;" d="M 0.5 NaN A 0.10500000000000001 NaN 0 0 0 0.395 NaN A 0.10500000000000001 NaN 0 0 0 0.605 NaN A 0.10500000000000001 NaN 0 0 0 0.395 NaN A 0.10500000000000001 NaN 0 0 0 0.605 NaN" />
  <path style="fill:#406ABF; stroke-width:0.005; stroke:#000000; stroke-opacity:1; stroke-linecap:round;" d="M 0.5 NaN A 0.125 NaN 0 0 0 0.375 NaN A 0.125 NaN 0 0 0 0.625 NaN A 0.125 NaN 0 0 0 0.375 NaN A 0.125 NaN 0 0 0 0.625 NaN" />
  <path style="fill:#5E82C9; stroke-width:0.005; stroke:#000000; stroke-opacity:1; stroke-linecap:round;" d="M 0.5 NaN A 0.145 NaN 0 0 0 0.355 NaN A 0.145 NaN 0 0 0 0.645 NaN A 0.145 NaN 0 0 0 0.355 NaN A 0.145 NaN 0 0 0 0.645 NaN" />
  <path style="fill:#7D9AD4; stroke-width:0.005; stroke:#000000; stroke-opacity:1; stroke-linecap:round;" d="M 0.5 NaN A 0.165 NaN 0 0 0 0.33499999999999996 NaN A 0.165 NaN 0 0 0 0.665 NaN A 0.165 NaN 0 0 0 0.33499999999999996 NaN A 0.165 NaN 0 0 0 0.665 NaN" />
  <path style="fill:#9CB2DE; stroke-width:0.005; stroke:#000000; stroke-opacity:1; stroke-linecap:round;" d="M 0.5 NaN A 0.185 NaN 0 0 0 0.315 NaN A 0.185 NaN 0 0 0 0.685 NaN A 0.185 NaN 0 0 0 0.315 NaN A 0.185 NaN 0 0 0 0.685 NaN" />
  <path style="fill:#BAC9E8; stroke-width:0.005; stroke:#000000; stroke-opacity:1; stroke-linecap:round;" d="M 0.5 NaN A 0.205 NaN 0 0 0 0.29500000000000004 NaN A 0.205 NaN 0 0 0 0.705 NaN A 0.205 NaN 0 0 0 0.29500000000000004 NaN A 0.205 NaN 0 0 0 0.705 NaN" />
</svg>