<svg xmlns="http://www.w3.org/2000/svg" viewBox="0 0 1 1" width="800" height="800">
  <path style="fill:#339933; stroke-width:0.002; stroke:#5C7A1F; stroke-opacity:1; stroke-linecap:round;" d="M 0 0.7 L 0 0.47501637303230737 L 0.0008223684210526315 0.39120869687744886 L 0.0024671052631578946 0.3735824292128601 L 0.004934210526315789 0.3971393892643532 L 0.008223684210526315 0.46187957703192817 L 0.012335526315789474 0.5594702655908554 L 0.01726973684210526 0.6899114549411351 L 0.023026315789473683 0.8532031450827673 L 0.029605263157894735 1.0493453360157519 L 0.03618421052631579 1.192377442739915 L 0.042763157894736836 1.2822994652552568 L 0.049342105263157895 1.3191114035617773 L 0.05592105263157894 1.302813257659476 L 0.0625 1.2334050275483537 L 0.06907894736842106 1.1108867132284097 L 0.0756578947368421 0.9352583146996445 L 0.08223684210526315 0.706519831962058 L 0.08881578947368421 0.5165473972586647 L 0.09539473684210525 0.36534101058946467 L 0.10197368421052631 0.252900671954458 L 0.10855263157894736 0.17922638135364458 L 0.11513157894736842 0.14431813878702454 L 0.12171052631578946 0.1481759442545978 L 0.12828947368421054 0.1907997977563644 L 0.13486842105263158 0.27218969929232434 L 0.14144736842105265 0.34210372526477406 L 0.14802631578947367 0.40054187567371363 L 0.15460526315789475 0.44750415051914294 L 0.16118421052631576 0.4829905498010621 L 0.16776315789473684 0.507001073519471 L 0.17434210526315788 0.5195357216743699 L 0.18092105263157893 0.5205944942657584 L 0.1875 0.5101773912936369 L 0.19407894736842105 0.5113045863774098 L 0.2006578947368421 0.5239760795170771 L 0.20723684210526316 0.548191870712639 L 0.21381578947368418 0.5839519599640953 L 0.22039473684210525 0.6312563472714461 L 0.2269736842105263 0.6901050326346913 L 0.23355263157894735 0.760498016053831 L 0.24013157894736842 0.8424352975288651 L 0.24671052631578944 0.9073075795284533 L 0.2532894736842105 0.9551148620525951 L 0.2598684210526315 0.985857145101291 L 0.26644736842105265 0.9995344286745405 L 0.2730263157894737 0.996146712772344 L 0.27960526315789475 0.9756939973947014 L 0.28618421052631576 0.9381762825416127 L 0.29276315789473684 0.8835935682130777 L 0.29934210526315785 0.851686779845078 L 0.305921052631579 0.8424559174376135 L 0.3125 0.8559009809906842 L 0.319078947368421 0.8920219705042902 L 0.32565789473684204 0.9508188859784313 L 0.33223684210526316 1.0322917274131078 L 0.3388157894736842 1.1364404948083193 L 0.34539473684210525 1.2632651881640662 L 0.35197368421052627 1.3521274192594464 L 0.35855263157894735 1.4030271880944603 L 0.36513157894736836 1.4159644946691075 L 0.3717105263157895 1.3909393389833884 L 0.3782894736842105 1.3279517210373026 L 0.3848684210526316 1.2270016408308504 L 0.3914473684210526 1.0880890983640317 L 0.3980263157894737 0.9112140936368462 L 0.4046052631578947 0.7528222375472994 L 0.4111842105263158 0.6129135300953907 L 0.41776315789473684 0.49148797128112054 L 0.42434210526315785 0.38854556110448857 L 0.43092105263157887 0.30408629956549504 L 0.4375 0.23811018666413977 L 0.444078947368421 0.19061722240042286 L 0.4506578947368421 0.1616074067743443 L 0.4572368421052631 0.1394802349955931 L 0.4638157894736842 0.12423570706416924 L 0.4703947368421052 0.11587382298007276 L 0.4769736842105263 0.11439458274330361 L 0.48355263157894735 0.11979798635386184 L 0.49013157894736836 0.1320840338117474 L 0.4967105263157894 0.15125272511696033 L 0.5032894736842105 0.1773040602695006 L 0.5098684210526315 0.20436397991699273 L 0.5164473684210525 0.23243248405943676 L 0.5230263157894737 0.2615095726968326 L 0.5296052631578947 0.29159524582918034 L 0.5361842105263158 0.32268950345647995 L 0.5427631578947368 0.35479234557873135 L 0.5493421052631579 0.38790377219593464 L 0.555921052631579 0.4220237833080899 L 0.5625 0.4627929131143152 L 0.569078947368421 0.5102111616146108 L 0.575657894736842 0.5642785288089764 L 0.5822368421052632 0.6249950146974125 L 0.5888157894736842 0.6923606192799185 L 0.5953947368421052 0.766375342556495 L 0.6019736842105263 0.8470391845271414 L 0.6085526315789473 0.9343521451918583 L 0.6151315789473685 1.024959889322432 L 0.6217105263157895 1.1188624169188626 L 0.6282894736842105 1.2160597279811505 L 0.6348684210526316 1.3165518225092951 L 0.6414473684210527 1.4203387005032968 L 0.6480263157894737 1.5274203619631557 L 0.6546052631578947 1.6377968068888713 L 0.6611842105263158 1.7514680352804441 L 0.6677631578947368 1.8001622731797071 L 0.6743421052631579 1.7838795205866598 L 0.680921052631579 1.7026197775013028 L 0.6875 1.556383043923636 L 0.6940789473684211 1.345169319853659 L 0.7006578947368421 1.0689786052913723 L 0.7072368421052632 0.7278109002367759 L 0.7138157894736842 0.3216662046898694 L 0.7203947368421052 0.02209937894789385 L 0.7269736842105262 -0.17088957698915086 L 0.7335526315789473 -0.2573006631212647 L 0.7401315789473684 -0.23713387944844755 L 0.7467105263157895 -0.11038922597069947 L 0.7532894736842105 0.12293329731197952 L 0.7598684210526315 0.46283369039958944 L 0.7664473684210527 0.9093119532921302 L 0.7730263157894737 1.2676996546400996 L 0.7796052631578947 1.5379967944434976 L 0.7861842105263157 1.720203372702324 L 0.7927631578947368 1.814319389416579 L 0.7993421052631579 1.8203448445862624 L 0.8059210526315789 1.7382797382113746 L 0.8125 1.568124070291915 L 0.819078947368421 1.3098778408278844 L 0.8256578947368421 1.113194204721082 L 0.8322368421052632 0.9780731619715088 L 0.8388157894736842 0.9045147125791642 L 0.8453947368421053 0.8925188565440483 L 0.8519736842105263 0.9420855938661612 L 0.8585526315789473 1.0532149245455027 L 0.8651315789473684 1.2259068485820732 L 0.8717105263157895 1.460161365975872 L 0.8782894736842105 1.632997437083768 L 0.8848684210526315 1.7444150619057606 L 0.8914473684210527 1.7944142404418497 L 0.8980263157894737 1.7829949726920358 L 0.9046052631578948 1.7101572586563183 L 0.9111842105263158 1.5759010983346977 L 0.9177631578947368 1.3802264917271738 L 0.9243421052631579 1.1231334388337468 L 0.9309210526315789 0.9114332925714786 L 0.9374999999999999 0.7451260529403692 L 0.944078947368421 0.6242117199404186 L 0.950657894736842 0.5486902935716269 L 0.9572368421052632 0.518561773833994 L 0.9638157894736842 0.53382616072752 L 0.9703947368421052 0.5944834542522048 L 0.9769736842105263 0.7005336544080487 L 0.9827302631578947 0.7875196208732634 L 0.9876644736842105 0.8554413536478492 L 0.9917763157894737 0.9042988527318061 L 0.9950657894736842 0.9340921181251343 L 0.9975328947368421 0.9448211498278333 L 0.9991776315789473 0.9364859478399034 L 1 0.9090865121613445 L 1 0.862622842792157 L 1 0.8266546320941177 L 1 0.8011818800672268 L 1 0.7862045867114845 L 1 0.7817227520268907 L 1 0.7877363760134453 L 1 0.8042454586711485 L 1 0.83125 L 1 0.8687499999999999 L 0.984375 0.9015625 L 0.953125 0.9296875 L 0.90625 0.953125 L 0.84375 0.971875 L 0.75 0.9859374999999999 L 0.625 0.9953125 L 0.421875 1 L 0 1 Z" />
</svg>