<svg xmlns="http://www.w3.org/2000/svg" viewBox="0 0 1 1" width="800" height="800">
  <path style="fill:#E61919; stroke-width:0.005; stroke:#000000; stroke-opacity:1; stroke-linecap:round;" d="M 0.25 NaN A 0.075 NaN 0 0 0 0.175 NaN A 0.075 NaN 0 0 0 0.325 NaN A 0.075 NaN 0 0 0 0.175 NaN A 0.075 NaN 0 0 0 0.325 NaN" />
  <path style="fill:#19E619; stroke-width:0.005; stroke:#000000; stroke-opacity:1; stroke-linecap:round;" d="M 0.5 NaN A 0.075 NaN 0 0 0 0.425 NaN A 0.075 NaN 0 0 0 0.575 NaN A 0.075 NaN 0 0 0 0.425 NaN A 0.075 NaN 0 0 0 0.575 NaN" />
  <path style="fill:#1919E6; stroke-width:0.005; stroke:#000000; stroke-opacity:1; stroke-linecap:round;" d="M 0.75 NaN A 0.075 NaN 0 0 0 0.675 NaN A 0.075 NaN 0 0 0 0.825 NaN A 0.075 NaN 0 0 0 0.675 NaN A 0.075 NaN 0 0 0 0.825 NaN" />
</svg>