<svg xmlns="http://www.w3.org/2000/svg" viewBox="0 0 1 1" width="800" height="800">
  <path style="fill:none; stroke-width:0.005; stroke:#000000; stroke-opacity:1; stroke-linecap:round;" d="M 0.7397302147566239 0.679392270986327 A 0.3184706164251584 0.2651312533886405 0 0 0 0.42125959833146553 0.9445235243749676" />
  <path style="fill:none; stroke-width:0.005; stroke:#000000; stroke-opacity:1; stroke-linecap:round;" d="M 0.7304993999658423 0.3848794981468161 A 0.14231176347218255 0.14369785823504588 0 0 0 0.5881876364936598 0.24118163991177022" />
  <path style="fill:none; stroke-width:0.005; stroke:#000000; stroke-opacity:1; stroke-linecap:round;" d="M 0.9969896448519155 0.6950459953202928 A 0.48858097724994354 0.1459223769974728 0 0 0 0.508408667601972 0.8409683723177656" />
  <path style="fill:none; stroke-width:0.005; stroke:#000000; stroke-opacity:1; stroke-linecap:round;" d="M 0.4825878662568962 0.7754961556501202 A 0.2091233515240375 0.6603802741726543 0 0 0 0.2734645147328587 0.11511588147746588" />
  <path style="fill:none; stroke-width:0.005; stroke:#000000; stroke-opacity:1; stroke-linecap:round;" d="M 0.9443081455501072 0.6447866740856201 A 0.07281536424592516 0.053146819241084 0 0 0 0.8714927813041821 0.5916398548445361" />
  <path style="fill:none; stroke-width:0.005; stroke:#000000; stroke-opacity:1; stroke-linecap:round;" d="M 0.8389344540029023 0.3138730518509365 A 0.1416065109611856 0.09739192949977094 0 0 0 0.9805409649640879 0.21648112235116557" />
  <path style="fill:none; stroke-width:0.005; stroke:#000000; stroke-opacity:1; stroke-linecap:round;" d="M 0.4106391824628256 0.15643535074878212 A 0.2850321265393436 0.7437488399999235 0 0 0 0.12560705592348198 0.9001841907487056" />
  <path style="fill:none; stroke-width:0.005; stroke:#000000; stroke-opacity:1; stroke-linecap:round;" d="M 0.2467796682700114 0.5472028143472593 A 0.15989504858202996 0.4725856462345326 0 0 0 0.08688461968798145 0.07461716811272667" />
  <path style="fill:none; stroke-width:0.005; stroke:#000000; stroke-opacity:1; stroke-linecap:round;" d="M 0.9909687075364513 0.37290042565115833 A 0.9450486569649965 0.5043659790363256 0 0 0 0.04592005057145476 0.877266404687484" />
  <path style="fill:none; stroke-width:0.005; stroke:#000000; stroke-opacity:1; stroke-linecap:round;" d="M 0.8421691193898784 0.6717541955686 A 0.06365432336006194 0.57145912695874 0 0 0 0.7785147960298164 0.10029506860986004" />
  <path style="fill:none; stroke-width:0.005; stroke:#000000; stroke-opacity:1; stroke-linecap:round;" d="M 0.8436812706187168 0.16943452088712252 A 0.4762236262877756 0.49155473278925677 0 0 0 0.3674576443309412 0.6609892536763793" />
  <path style="fill:none; stroke-width:0.005; stroke:#000000; stroke-opacity:1; stroke-linecap:round;" d="M 0.2223022362964846 0.9413390004966 A 0.2128921965950591 0.11334867798558357 0 0 0 0.00941003970142551 0.8279903225110165" />
  <path style="fill:none; stroke-width:0.005; stroke:#000000; stroke-opacity:1; stroke-linecap:round;" d="M 0.5381027429765688 0.5463006193774211 A 0.07859781135276123 0.013691313823552487 0 0 0 0.61670055432933 0.5326093055538687" />
  <path style="fill:none; stroke-width:0.005; stroke:#000000; stroke-opacity:1; stroke-linecap:round;" d="M 0.7368725647925024 0.5371476233025734 A 0.11969644284226633 0.2023891255517315 0 0 0 0.6171761219502361 0.7395367488543049" />
  <path style="fill:none; stroke-width:0.005; stroke:#000000; stroke-opacity:1; stroke-linecap:round;" d="M 0.9793023409713884 0.0014998477543917144 A 0.5805102000687242 0.7793942391448083 0 0 0 0.3987921409026641 0.7808940868992" />
  <path style="fill:none; stroke-width:0.005; stroke:#000000; stroke-opacity:1; stroke-linecap:round;" d="M 0.27013077416598064 0.44047329037614635 A 0.04287450217516853 0.4018759681935359 0 0 0 0.31300527634114916 0.03859732218261047" />
  <path style="fill:none; stroke-width:0.005; stroke:#000000; stroke-opacity:1; stroke-linecap:round;" d="M 0.8546737765984842 0.33739191682671255 A 0.8254553207202543 0.23010036553260782 0 0 0 0.02921845587822991 0.5674922823593204" />
  <path style="fill:none; stroke-width:0.005; stroke:#000000; stroke-opacity:1; stroke-linecap:round;" d="M 0.7504305600036459 0.2090310413313915 A 0.40717320004403124 0.12621257437342737 0 0 0 0.3432573599596147 0.08281846695796413" />
  <path style="fill:none; stroke-width:0.005; stroke:#000000; stroke-opacity:1; stroke-linecap:round;" d="M 0.6683480319737021 0.7491913598974667 A 0.4923903865249546 0.188489671651616 0 0 0 0.17595764544874748 0.5607016882458506" />
  <path style="fill:none; stroke-width:0.005; stroke:#000000; stroke-opacity:1; stroke-linecap:round;" d="M 0.10851503393298678 0.09367033364605382 A 0.0585643457833076 0.1785417333450381 0 0 0 0.16707937971629439 0.2722120669910919" />
  <path style="fill:none; stroke-width:0.005; stroke:#000000; stroke-opacity:1; stroke-linecap:round;" d="M 0.7885472109253844 0.040420261839264504 A 0.05938426074663883 0.2927768178289599 0 0 0 0.8479314716720232 0.3331970796682244" />
  <path style="fill:none; stroke-width:0.005; stroke:#000000; stroke-opacity:1; stroke-linecap:round;" d="M 0.45582771364603425 0.23516510936416368 A 0.5333265581839872 0.571238153928164 0 0 0 0.9891542718300215 0.8064032632923277" />
  <path style="fill:none; stroke-width:0.005; stroke:#000000; stroke-opacity:1; stroke-linecap:round;" d="M 0.9151969900850352 0.9046921507309845 A 0.7462539940746373 0.3284729217251582 0 0 0 0.16894299601039786 0.5762192290058263" />
  <path style="fill:none; stroke-width:0.005; stroke:#000000; stroke-opacity:1; stroke-linecap:round;" d="M 0.45925536265297073 0.676292792827382 A 0.07428861533102427 0.6169053275224692 0 0 0 0.38496674732194647 0.05938746530491279" />
  <path style="fill:none; stroke-width:0.005; stroke:#000000; stroke-opacity:1; stroke-linecap:round;" d="M 0.24092532758212104 0.7177780433142404 A 0.06034894620116904 0.2226595041653544 0 0 0 0.180576381380952 0.49511853914888604" />
  <path style="fill:none; stroke-width:0.005; stroke:#000000; stroke-opacity:1; stroke-linecap:round;" d="M 0.5323458138348043 0.3042205390309969 A 0.06131235249673839 0.2081234173187484 0 0 0 0.4710334613380659 0.5123439563497453" />
  <path style="fill:none; stroke-width:0.005; stroke:#000000; stroke-opacity:1; stroke-linecap:round;" d="M 0.7092577474708792 0.6084477461353882 A 0.13105713742214076 0.5126197523346834 0 0 0 0.5782006100487385 0.09582799380070484" />
  <path style="fill:none; stroke-width:0.005; stroke:#000000; stroke-opacity:1; stroke-linecap:round;" d="M 0.35939450767043735 0.0684111317559466 A 0.4975641593726453 0.16877442321849778 0 0 0 0.8569586670430827 0.23718555497444438" />
  <path style="fill:none; stroke-width:0.005; stroke:#000000; stroke-opacity:1; stroke-linecap:round;" d="M 0.2393518224758321 0.10424748719273103 A 0.47707986158503457 0.24303451945111854 0 0 0 0.7164316840608667 0.34728200664384956" />
  <path style="fill:none; stroke-width:0.005; stroke:#000000; stroke-opacity:1; stroke-linecap:round;" d="M 0.9522817874156652 0.48554504955938615 A 0.5003098480700684 0.02943223540669726 0 0 0 0.45197193934559676 0.5149772849660834" />
  <path style="fill:none; stroke-width:0.005; stroke:#000000; stroke-opacity:1; stroke-linecap:round;" d="M 0.5839274456291631 0.02867573379353916 A 0.13617637340612043 0.274286932418464 0 0 0 0.44775107222304267 0.3029626662120032" />
  <path style="fill:none; stroke-width:0.005; stroke:#000000; stroke-opacity:1; stroke-linecap:round;" d="M 0.2666221860676846 0.8830285467181012 A 0.005844054306421875 0.5838575201021344 0 0 0 0.26077813176126274 0.29917102661596673" />
  <path style="fill:none; stroke-width:0.005; stroke:#000000; stroke-opacity:1; stroke-linecap:round;" d="M 0.9944994284651942 0.9187603314384823 A 0.16447623566803993 0.32448857210410653 0 0 0 0.8300231927971543 0.5942717593343758" />
  <path style="fill:none; stroke-width:0.005; stroke:#000000; stroke-opacity:1; stroke-linecap:round;" d="M 0.8625013351733157 0.543268724601877 A 0.06849646141345866 0.3515951645679778 0 0 0 0.7940048737598571 0.8948638891698548" />
  <path style="fill:none; stroke-width:0.005; stroke:#000000; stroke-opacity:1; stroke-linecap:round;" d="M 0.361882122207279 0.013041839560541724 A 0.16594105007051962 0.0020504367934168766 0 0 0 0.19594107213675938 0.0150922763539586" />
  <path style="fill:none; stroke-width:0.005; stroke:#000000; stroke-opacity:1; stroke-linecap:round;" d="M 0.8969940372501922 0.09796893073795143 A 0.5604267967907873 0.1179454988486931 0 0 0 0.3365672404594049 0.21591442958664453" />
  <path style="fill:none; stroke-width:0.005; stroke:#000000; stroke-opacity:1; stroke-linecap:round;" d="M 0.20971434231615393 0.6549274891771841 A 0.15105777436550516 0.28853377622546494 0 0 0 0.3607721166816591 0.9434612654026491" />
  <path style="fill:none; stroke-width:0.005; stroke:#000000; stroke-opacity:1; stroke-linecap:round;" d="M 0.6591079480287482 0.9541050101764935 A 0.3455847430237077 0.8341019414424607 0 0 0 0.3135232050050405 0.12000306873403277" />
  <path style="fill:none; stroke-width:0.005; stroke:#000000; stroke-opacity:1; stroke-linecap:round;" d="M 0.7181543626077599 0.4578131358336869 A 0.6637811507976744 0.1423569359151844 0 0 0 0.054373211810085476 0.3154561999185025" />
  <path style="fill:none; stroke-width:0.005; stroke:#000000; stroke-opacity:1; stroke-linecap:round;" d="M 0.7319884011369798 0.11697669388322007 A 0.6857855673301424 0.11313189407313451 0 0 0 0.04620283380683743 0.23010858795635458" />
  <path style="fill:none; stroke-width:0.005; stroke:#000000; stroke-opacity:1; stroke-linecap:round;" d="M 0.1865101484378714 0.5626874516769959 A 0.08258151323845941 0.11222609816091167 0 0 0 0.2690916616763308 0.4504613535160842" />
  <path style="fill:none; stroke-width:0.005; stroke:#000000; stroke-opacity:1; stroke-linecap:round;" d="M 0.9003054408907301 0.26266554250875707 A 0.268216714754136 0.5234393845767649 0 0 0 0.6320887261365941 0.7861049270855219" />
  <path style="fill:none; stroke-width:0.005; stroke:#000000; stroke-opacity:1; stroke-linecap:round;" d="M 0.850238793255192 0.006059276075789377 A 0.46320838648901985 0.542871839065494 0 0 0 0.3870304067661722 0.5489311151412833" />
  <path style="fill:none; stroke-width:0.005; stroke:#000000; stroke-opacity:1; stroke-linecap:round;" d="M 0.09811315699553647 0.0364164494252055 A 0.5245257406854585 0.6829342557121845 0 0 0 0.622638897680995 0.71935070513739" />
  <path style="fill:none; stroke-width:0.005; stroke:#000000; stroke-opacity:1; stroke-linecap:round;" d="M 0.9228231102822164 0.9737981035380612 A 0.02177290555208966 0.9348743753674158 0 0 0 0.9010502047301268 0.03892372817064538" />
  <path style="fill:none; stroke-width:0.005; stroke:#000000; stroke-opacity:1; stroke-linecap:round;" d="M 0.5956180454482531 0.5930223635878547 A 0.18475059682111228 0.3916065735031289 0 0 0 0.7803686422693654 0.20141579008472577" />
  <path style="fill:none; stroke-width:0.005; stroke:#000000; stroke-opacity:1; stroke-linecap:round;" d="M 0.8697457463821965 0.48905135807726674 A 0.8035556262200895 0.41011119277877117 0 0 0 0.06619012016210701 0.07894016529849557" />
  <path style="fill:none; stroke-width:0.005; stroke:#000000; stroke-opacity:1; stroke-linecap:round;" d="M 0.1605288806868388 0.7080663779894467 A 0.2985178551243537 0.09054488768732882 0 0 0 0.4590467358111925 0.7986112656767755" />
  <path style="fill:none; stroke-width:0.005; stroke:#000000; stroke-opacity:1; stroke-linecap:round;" d="M 0.9133948371595133 0.3029507847728873 A 0.721205495737029 0.14365339660969112 0 0 0 0.19218934142248434 0.15929738816319616" />
  <path style="fill:none; stroke-width:0.005; stroke:#000000; stroke-opacity:1; stroke-linecap:round;" d="M 0.8197614911587333 0.8396346425136665 A 0.01933751175453957 0.2225665696222373 0 0 0 0.8390990029132729 0.6170680728914292" />
</svg>