<svg xmlns="http://www.w3.org/2000/svg" viewBox="0 0 1 1" width="800" height="800">
  <path style="fill:none; stroke-width:0.001; stroke:#D92626; stroke-opacity:1; stroke-linecap:round;" d="M 0.5 NaN A 0.025 NaN 0 0 0 0.475 NaN A 0.025 NaN 0 0 0 0.525 NaN A 0.025 NaN 0 0 0 0.475 NaN A 0.025 NaN 0 0 0 0.525 NaN" />
  <path style="fill:none; stroke-width:0.001; stroke:#D94426; stroke-opacity:1; stroke-linecap:round;" d="M 0.5 NaN A 0.035 NaN 0 0 0 0.46499999999999997 NaN A 0.035 NaN 0 0 0 0.535 NaN A 0.035 NaN 0 0 0 0.46499999999999997 NaN A 0.035 NaN 0 0 0 0.535 NaN" />
  <path style="fill:none; stroke-width:0.001; stroke:#D96226; stroke-opacity:1; stroke-linecap:round;" d="M 0.5 NaN A 0.045 NaN 0 0 0 0.455 NaN A 0.045 NaN 0 0 0 0.545 NaN A 0.045 NaN 0 0 0 0.455 NaN A 0.045 NaN 0 0 0 0.545 NaN" />
  <path style="fill:none; stroke-width:0.001; stroke:#D97F26; stroke-opacity:1; stroke-linecap:round;" d="M 0.5 NaN A 0.055 NaN 0 0 0 0.445 NaN A 0.055 NaN 0 0 0 0.555 NaN A 0.055 NaN 0 0 0 0.445 NaN A 0.055 NaN 0 0 0 0.555 NaN" />
  <path style="fill:none; stroke-width:0.001; stroke:#D99D26; stroke-opacity:1; stroke-linecap:round;" d="M 0.5 NaN A 0.065 NaN 0 0 0 0.435 NaN A 0.065 NaN 0 0 0 0.565 NaN A 0.065 NaN 0 0 0 0.435 NaN A 0.065 NaN 0 0 0 0.565 NaN" />
  <path style="fill:none; stroke-width:0.001; stroke:#D9BB26; stroke-opacity:1; stroke-linecap:round;" d="M 0.5 NaN A 0.07500000000000001 NaN 0 0 0 0.425 NaN A 0.07500000000000001 NaN 0 0 0 0.575 NaN A 0.07500000000000001 NaN 0 0 0 0.425 NaN A 0.07500000000000001 NaN 0 0 0 0.575 NaN" />
  <path style="fill:none; stroke-width:0.001; stroke:#D9D926; stroke-opacity:1; stroke-linecap:round;" d="M 0.5 NaN A 0.08499999999999999 NaN 0 0 0 0.41500000000000004 NaN A 0.08499999999999999 NaN 0 0 0 0.585 NaN A 0.08499999999999999 NaN 0 0 0 0.41500000000000004 NaN A 0.08499999999999999 NaN 0 0 0 0.585 NaN" />
  <path style="fill:none; stroke-width:0.001; stroke:#BBD926; stroke-opacity:1; stroke-linecap:round;" d="M 0.5 NaN A 0.095 NaN 0 0 0 0.405 NaN A 0.095 NaN 0 0 0 0.595 NaN A 0.095 NaN 0 0 0 0.405 NaN A 0.095 NaN 0 0 0 0.595 NaN" />
  <path style="fill:none; stroke-width:0.001; stroke:#9DD926; stroke-opacity:1; stroke-linecap:round;" d="M 0.5 NaN A 0.10500000000000001 NaN 0 0 0 0.395 NaN A 0.10500000000000001 NaN 0 0 0 0.605 NaN A 0.10500000000000001 NaN 0 0 0 0.395 NaN A 0.10500000000000001 NaN 0 0 0 0.605 NaN" />
  <path style="fill:none; stroke-width:0.001; stroke:#80D926; stroke-opacity:1; stroke-linecap:round;" d="M 0.5 NaN A 0.11499999999999999 NaN 0 0 0 0.385 NaN A 0.11499999999999999 NaN 0 0 0 0.615 NaN A 0.11499999999999999 NaN 0 0 0 0.385 NaN A 0.11499999999999999 NaN 0 0 0 0.615 NaN" />
  <path style="fill:none; stroke-width:0.001; stroke:#62D926; stroke-opacity:1; stroke-linecap:round;" d="M 0.5 NaN A 0.125 NaN 0 0 0 0.375 NaN A 0.125 NaN 0 0 0 0.625 NaN A 0.125 NaN 0 0 0 0.375 NaN A 0.125 NaN 0 0 0 0.625 NaN" />
  <path style="fill:none; stroke-width:0.001; stroke:#44D926; stroke-opacity:1; stroke-linecap:round;" d="M 0.5 NaN A 0.135 NaN 0 0 0 0.365 NaN A 0.135 NaN 0 0 0 0.635 NaN A 0.135 NaN 0 0 0 0.365 NaN A 0.135 NaN 0 0 0 0.635 NaN" />
  <path style="fill:none; stroke-width:0.001; stroke:#26D926; stroke-opacity:1; stroke-linecap:round;" d="M 0.5 NaN A 0.145 NaN 0 0 0 0.355 NaN A 0.145 NaN 0 0 0 0.645 NaN A 0.145 NaN 0 0 0 0.355 NaN A 0.145 NaN 0 0 0 0.645 NaN" />
  <path style="fill:none; stroke-width:0.001; stroke:#26D944; stroke-opacity:1; stroke-linecap:round;" d="M 0.5 NaN A 0.155 NaN 0 0 0 0.345 NaN A 0.155 NaN 0 0 0 0.655 NaN A 0.155 NaN 0 0 0 0.345 NaN A 0.155 NaN 0 0 0 0.655 NaN" />
  <path style="fill:none; stroke-width:0.001; stroke:#26D962; stroke-opacity:1; stroke-linecap:round;" d="M 0.5 NaN A 0.165 NaN 0 0 0 0.33499999999999996 NaN A 0.165 NaN 0 0 0 0.665 NaN A 0.165 NaN 0 0 0 0.33499999999999996 NaN A 0.165 NaN 0 0 0 0.665 NaN" />
  <path style="fill:none; stroke-width:0.001; stroke:#26D980; stroke-opacity:1; stroke-linecap:round;" d="M 0.5 NaN A 0.175 NaN 0 0 0 0.325 NaN A 0.175 NaN 0 0 0 0.675 NaN A 0.175 NaN 0 0 0 0.325 NaN A 0.175 NaN 0 0 0 0.675 NaN" />
  <path style="fill:none; stroke-width:0.001; stroke:#26D99D; stroke-opacity:1; stroke-linecap:round;" d="M 0.5 NaN A 0.185 NaN 0 0 0 0.315 NaN A 0.185 NaN 0 0 0 0.685 NaN A 0.185 NaN 0 0 0 0.315 NaN A 0.185 NaN 0 0 0 0.685 NaN" />
  <path style="fill:none; stroke-width:0.001; stroke:#26D9BB; stroke-opacity:1; stroke-linecap:round;" d="M 0.5 NaN A 0.195 NaN 0 0 0 0.305 NaN A 0.195 NaN 0 0 0 0.6950000000000001 NaN A 0.195 NaN 0 0 0 0.305 NaN A 0.195 NaN 0 0 0 0.6950000000000001 NaN" />
  <path style="fill:none; stroke-width:0.001; stroke:#26D9D9; stroke-opacity:1; stroke-linecap:round;" d="M 0.5 NaN A 0.205 NaN 0 0 0 0.29500000000000004 NaN A 0.205 NaN 0 0 0 0.705 NaN A 0.205 NaN 0 0 0 0.29500000000000004 NaN A 0.205 NaN 0 0 0 0.705 NaN" />
  <path style="fill:none; stroke-width:0.001; stroke:#26BBD9; stroke-opacity:1; stroke-linecap:round;" d="M 0.5 NaN A 0.215 NaN 0 0 0 0.28500000000000003 NaN A 0.215 NaN 0 0 0 0.715 NaN A 0.215 NaN 0 0 0 0.28500000000000003 NaN A 0.215 NaN 0 0 0 0.715 NaN" />
</svg>