<svg xmlns="http://www.w3.org/2000/svg" viewBox="0 0 1 1" width="800" height="800">
  <path style="fill:#26CFD9; stroke-width:0.005; stroke:#000000; stroke-opacity:1; stroke-linecap:round;" d="M 0.14 NaN A 0.0037811948210964594 NaN 0 0 0 0.13621880517890356 NaN A 0.0037811948210964594 NaN 0 0 0 0.14378119482109647 NaN A 0.0037811948210964594 NaN 0 0 0 0.13621880517890356 NaN A 0.0037811948210964594 NaN 0 0 0 0.14378119482109647 NaN" />
  <path style="fill:#26D9AA; stroke-width:0.005; stroke:#000000; stroke-opacity:1; stroke-linecap:round;" d="M 0.14 NaN A 0.005054315919048275 NaN 0 0 0 0.13494568408095173 NaN A 0.005054315919048275 NaN 0 0 0 0.1450543159190483 NaN A 0.005054315919048275 NaN 0 0 0 0.13494568408095173 NaN A 0.005054315919048275 NaN 0 0 0 0.1450543159190483 NaN" />
  <path style="fill:#26D97A; stroke-width:0.005; stroke:#000000; stroke-opacity:1; stroke-linecap:round;" d="M 0.14 NaN A 0.00611619506465248 NaN 0 0 0 0.13388380493534754 NaN A 0.00611619506465248 NaN 0 0 0 0.14611619506465248 NaN A 0.00611619506465248 NaN 0 0 0 0.13388380493534754 NaN A 0.00611619506465248 NaN 0 0 0 0.14611619506465248 NaN" />
  <path style="fill:#26D958; stroke-width:0.005; stroke:#000000; stroke-opacity:1; stroke-linecap:round;" d="M 0.14 NaN A 0.006892640338715067 NaN 0 0 0 0.13310735966128495 NaN A 0.006892640338715067 NaN 0 0 0 0.14689264033871507 NaN A 0.006892640338715067 NaN 0 0 0 0.13310735966128495 NaN A 0.006892640338715067 NaN 0 0 0 0.14689264033871507 NaN" />
  <path style="fill:#26D945; stroke-width:0.005; stroke:#000000; stroke-opacity:1; stroke-linecap:round;" d="M 0.14 NaN A 0.0073068302673880816 NaN 0 0 0 0.13269316973261194 NaN A 0.0073068302673880816 NaN 0 0 0 0.14730683026738808 NaN A 0.0073068302673880816 NaN 0 0 0 0.13269316973261194 NaN A 0.0073068302673880816 NaN 0 0 0 0.14730683026738808 NaN" />
  <path style="fill:#26D945; stroke-width:0.005; stroke:#000000; stroke-opacity:1; stroke-linecap:round;" d="M 0.14 NaN A 0.0073068302673880816 NaN 0 0 0 0.13269316973261194 NaN A 0.0073068302673880816 NaN 0 0 0 0.14730683026738808 NaN A 0.0073068302673880816 NaN 0 0 0 0.13269316973261194 NaN A 0.0073068302673880816 NaN 0 0 0 0.14730683026738808 NaN" />
  <path style="fill:#26D958; stroke-width:0.005; stroke:#000000; stroke-opacity:1; stroke-linecap:round;" d="M 0.14 NaN A 0.006892640338715068 NaN 0 0 0 0.13310735966128495 NaN A 0.006892640338715068 NaN 0 0 0 0.14689264033871507 NaN A 0.006892640338715068 NaN 0 0 0 0.13310735966128495 NaN A 0.006892640338715068 NaN 0 0 0 0.14689264033871507 NaN" />
  <path style="fill:#26D97A; stroke-width:0.005; stroke:#000000; stroke-opacity:1; stroke-linecap:round;" d="M 0.14 NaN A 0.006116195064652478 NaN 0 0 0 0.13388380493534754 NaN A 0.006116195064652478 NaN 0 0 0 0.14611619506465248 NaN A 0.006116195064652478 NaN 0 0 0 0.13388380493534754 NaN A 0.006116195064652478 NaN 0 0 0 0.14611619506465248 NaN" />
  <path style="fill:#26D9AA; stroke-width:0.005; stroke:#000000; stroke-opacity:1; stroke-linecap:round;" d="M 0.14 NaN A 0.005054315919048275 NaN 0 0 0 0.13494568408095173 NaN A 0.005054315919048275 NaN 0 0 0 0.1450543159190483 NaN A 0.005054315919048275 NaN 0 0 0 0.13494568408095173 NaN A 0.005054315919048275 NaN 0 0 0 0.1450543159190483 NaN" />
  <path style="fill:#26CFD9; stroke-width:0.005; stroke:#000000; stroke-opacity:1; stroke-linecap:round;" d="M 0.14 NaN A 0.0037811948210964594 NaN 0 0 0 0.13621880517890356 NaN A 0.0037811948210964594 NaN 0 0 0 0.14378119482109647 NaN A 0.0037811948210964594 NaN 0 0 0 0.13621880517890356 NaN A 0.0037811948210964594 NaN 0 0 0 0.14378119482109647 NaN" />
  <path style="fill:#26D9AA; stroke-width:0.005; stroke:#000000; stroke-opacity:1; stroke-linecap:round;" d="M 0.22 NaN A 0.005054315919048275 NaN 0 0 0 0.21494568408095172 NaN A 0.005054315919048275 NaN 0 0 0 0.2250543159190483 NaN A 0.005054315919048275 NaN 0 0 0 0.21494568408095172 NaN A 0.005054315919048275 NaN 0 0 0 0.2250543159190483 NaN" />
  <path style="fill:#26D969; stroke-width:0.005; stroke:#000000; stroke-opacity:1; stroke-linecap:round;" d="M 0.22 NaN A 0.0064964848608528 NaN 0 0 0 0.2135035151391472 NaN A 0.0064964848608528 NaN 0 0 0 0.2264964848608528 NaN A 0.0064964848608528 NaN 0 0 0 0.2135035151391472 NaN A 0.0064964848608528 NaN 0 0 0 0.2264964848608528 NaN" />
  <path style="fill:#26D932; stroke-width:0.005; stroke:#000000; stroke-opacity:1; stroke-linecap:round;" d="M 0.22 NaN A 0.007741767743639077 NaN 0 0 0 0.21225823225636092 NaN A 0.007741767743639077 NaN 0 0 0 0.22774176774363908 NaN A 0.007741767743639077 NaN 0 0 0 0.21225823225636092 NaN A 0.007741767743639077 NaN 0 0 0 0.22774176774363908 NaN" />
  <path style="fill:#45D926; stroke-width:0.005; stroke:#000000; stroke-opacity:1; stroke-linecap:round;" d="M 0.22 NaN A 0.008688857818370649 NaN 0 0 0 0.21131114218162936 NaN A 0.008688857818370649 NaN 0 0 0 0.22868885781837064 NaN A 0.008688857818370649 NaN 0 0 0 0.21131114218162936 NaN A 0.008688857818370649 NaN 0 0 0 0.22868885781837064 NaN" />
  <path style="fill:#5CD926; stroke-width:0.005; stroke:#000000; stroke-opacity:1; stroke-linecap:round;" d="M 0.22 NaN A 0.009211774900609144 NaN 0 0 0 0.21078822509939085 NaN A 0.009211774900609144 NaN 0 0 0 0.22921177490060915 NaN A 0.009211774900609144 NaN 0 0 0 0.21078822509939085 NaN A 0.009211774900609144 NaN 0 0 0 0.22921177490060915 NaN" />
  <path style="fill:#5CD926; stroke-width:0.005; stroke:#000000; stroke-opacity:1; stroke-linecap:round;" d="M 0.22 NaN A 0.009211774900609144 NaN 0 0 0 0.21078822509939085 NaN A 0.009211774900609144 NaN 0 0 0 0.22921177490060915 NaN A 0.009211774900609144 NaN 0 0 0 0.21078822509939085 NaN A 0.009211774900609144 NaN 0 0 0 0.22921177490060915 NaN" />
  <path style="fill:#45D926; stroke-width:0.005; stroke:#000000; stroke-opacity:1; stroke-linecap:round;" d="M 0.22 NaN A 0.008688857818370649 NaN 0 0 0 0.21131114218162936 NaN A 0.008688857818370649 NaN 0 0 0 0.22868885781837064 NaN A 0.008688857818370649 NaN 0 0 0 0.21131114218162936 NaN A 0.008688857818370649 NaN 0 0 0 0.22868885781837064 NaN" />
  <path style="fill:#26D932; stroke-width:0.005; stroke:#000000; stroke-opacity:1; stroke-linecap:round;" d="M 0.22 NaN A 0.007741767743639077 NaN 0 0 0 0.21225823225636092 NaN A 0.007741767743639077 NaN 0 0 0 0.22774176774363908 NaN A 0.007741767743639077 NaN 0 0 0 0.21225823225636092 NaN A 0.007741767743639077 NaN 0 0 0 0.22774176774363908 NaN" />
  <path style="fill:#26D969; stroke-width:0.005; stroke:#000000; stroke-opacity:1; stroke-linecap:round;" d="M 0.22 NaN A 0.0064964848608528 NaN 0 0 0 0.2135035151391472 NaN A 0.0064964848608528 NaN 0 0 0 0.2264964848608528 NaN A 0.0064964848608528 NaN 0 0 0 0.2135035151391472 NaN A 0.0064964848608528 NaN 0 0 0 0.2264964848608528 NaN" />
  <path style="fill:#26D9AA; stroke-width:0.005; stroke:#000000; stroke-opacity:1; stroke-linecap:round;" d="M 0.22 NaN A 0.005054315919048275 NaN 0 0 0 0.21494568408095172 NaN A 0.005054315919048275 NaN 0 0 0 0.2250543159190483 NaN A 0.005054315919048275 NaN 0 0 0 0.21494568408095172 NaN A 0.005054315919048275 NaN 0 0 0 0.2250543159190483 NaN" />
  <path style="fill:#26D97A; stroke-width:0.005; stroke:#000000; stroke-opacity:1; stroke-linecap:round;" d="M 0.3 NaN A 0.00611619506465248 NaN 0 0 0 0.2938838049353475 NaN A 0.00611619506465248 NaN 0 0 0 0.3061161950646525 NaN A 0.00611619506465248 NaN 0 0 0 0.2938838049353475 NaN A 0.00611619506465248 NaN 0 0 0 0.3061161950646525 NaN" />
  <path style="fill:#26D932; stroke-width:0.005; stroke:#000000; stroke-opacity:1; stroke-linecap:round;" d="M 0.3 NaN A 0.007741767743639077 NaN 0 0 0 0.29225823225636094 NaN A 0.007741767743639077 NaN 0 0 0 0.30774176774363904 NaN A 0.007741767743639077 NaN 0 0 0 0.29225823225636094 NaN A 0.007741767743639077 NaN 0 0 0 0.30774176774363904 NaN" />
  <path style="fill:#5CD926; stroke-width:0.005; stroke:#000000; stroke-opacity:1; stroke-linecap:round;" d="M 0.3 NaN A 0.009211774900609144 NaN 0 0 0 0.29078822509939084 NaN A 0.009211774900609144 NaN 0 0 0 0.30921177490060914 NaN A 0.009211774900609144 NaN 0 0 0 0.29078822509939084 NaN A 0.009211774900609144 NaN 0 0 0 0.30921177490060914 NaN" />
  <path style="fill:#91D926; stroke-width:0.005; stroke:#000000; stroke-opacity:1; stroke-linecap:round;" d="M 0.3 NaN A 0.010402286180948512 NaN 0 0 0 0.28959771381905147 NaN A 0.010402286180948512 NaN 0 0 0 0.3104022861809485 NaN A 0.010402286180948512 NaN 0 0 0 0.28959771381905147 NaN A 0.010402286180948512 NaN 0 0 0 0.3104022861809485 NaN" />
  <path style="fill:#B1D926; stroke-width:0.005; stroke:#000000; stroke-opacity:1; stroke-linecap:round;" d="M 0.3 NaN A 0.011104941266950925 NaN 0 0 0 0.28889505873304905 NaN A 0.011104941266950925 NaN 0 0 0 0.31110494126695093 NaN A 0.011104941266950925 NaN 0 0 0 0.28889505873304905 NaN A 0.011104941266950925 NaN 0 0 0 0.31110494126695093 NaN" />
  <path style="fill:#B1D926; stroke-width:0.005; stroke:#000000; stroke-opacity:1; stroke-linecap:round;" d="M 0.3 NaN A 0.011104941266950925 NaN 0 0 0 0.28889505873304905 NaN A 0.011104941266950925 NaN 0 0 0 0.31110494126695093 NaN A 0.011104941266950925 NaN 0 0 0 0.28889505873304905 NaN A 0.011104941266950925 NaN 0 0 0 0.31110494126695093 NaN" />
  <path style="fill:#91D926; stroke-width:0.005; stroke:#000000; stroke-opacity:1; stroke-linecap:round;" d="M 0.3 NaN A 0.010402286180948512 NaN 0 0 0 0.28959771381905147 NaN A 0.010402286180948512 NaN 0 0 0 0.3104022861809485 NaN A 0.010402286180948512 NaN 0 0 0 0.28959771381905147 NaN A 0.010402286180948512 NaN 0 0 0 0.3104022861809485 NaN" />
  <path style="fill:#5CD926; stroke-width:0.005; stroke:#000000; stroke-opacity:1; stroke-linecap:round;" d="M 0.3 NaN A 0.009211774900609144 NaN 0 0 0 0.29078822509939084 NaN A 0.009211774900609144 NaN 0 0 0 0.30921177490060914 NaN A 0.009211774900609144 NaN 0 0 0 0.29078822509939084 NaN A 0.009211774900609144 NaN 0 0 0 0.30921177490060914 NaN" />
  <path style="fill:#26D932; stroke-width:0.005; stroke:#000000; stroke-opacity:1; stroke-linecap:round;" d="M 0.3 NaN A 0.007741767743639077 NaN 0 0 0 0.29225823225636094 NaN A 0.007741767743639077 NaN 0 0 0 0.30774176774363904 NaN A 0.007741767743639077 NaN 0 0 0 0.29225823225636094 NaN A 0.007741767743639077 NaN 0 0 0 0.30774176774363904 NaN" />
  <path style="fill:#26D97A; stroke-width:0.005; stroke:#000000; stroke-opacity:1; stroke-linecap:round;" d="M 0.3 NaN A 0.00611619506465248 NaN 0 0 0 0.2938838049353475 NaN A 0.00611619506465248 NaN 0 0 0 0.3061161950646525 NaN A 0.00611619506465248 NaN 0 0 0 0.2938838049353475 NaN A 0.00611619506465248 NaN 0 0 0 0.3061161950646525 NaN" />
  <path style="fill:#26D958; stroke-width:0.005; stroke:#000000; stroke-opacity:1; stroke-linecap:round;" d="M 0.37999999999999995 NaN A 0.006892640338715067 NaN 0 0 0 0.3731073596612849 NaN A 0.006892640338715067 NaN 0 0 0 0.386892640338715 NaN A 0.006892640338715067 NaN 0 0 0 0.3731073596612849 NaN A 0.006892640338715067 NaN 0 0 0 0.386892640338715 NaN" />
  <path style="fill:#45D926; stroke-width:0.005; stroke:#000000; stroke-opacity:1; stroke-linecap:round;" d="M 0.37999999999999995 NaN A 0.008688857818370649 NaN 0 0 0 0.3713111421816293 NaN A 0.008688857818370649 NaN 0 0 0 0.3886888578183706 NaN A 0.008688857818370649 NaN 0 0 0 0.3713111421816293 NaN A 0.008688857818370649 NaN 0 0 0 0.3886888578183706 NaN" />
  <path style="fill:#91D926; stroke-width:0.005; stroke:#000000; stroke-opacity:1; stroke-linecap:round;" d="M 0.37999999999999995 NaN A 0.010402286180948512 NaN 0 0 0 0.36959771381905143 NaN A 0.010402286180948512 NaN 0 0 0 0.39040228618094847 NaN A 0.010402286180948512 NaN 0 0 0 0.36959771381905143 NaN A 0.010402286180948512 NaN 0 0 0 0.39040228618094847 NaN" />
  <path style="fill:#D5D926; stroke-width:0.005; stroke:#000000; stroke-opacity:1; stroke-linecap:round;" d="M 0.37999999999999995 NaN A 0.011927064940365485 NaN 0 0 0 0.36807293505963445 NaN A 0.011927064940365485 NaN 0 0 0 0.39192706494036544 NaN A 0.011927064940365485 NaN 0 0 0 0.36807293505963445 NaN A 0.011927064940365485 NaN 0 0 0 0.39192706494036544 NaN" />
  <path style="fill:#D9AE26; stroke-width:0.005; stroke:#000000; stroke-opacity:1; stroke-linecap:round;" d="M 0.37999999999999995 NaN A 0.012964213446238354 NaN 0 0 0 0.36703578655376157 NaN A 0.012964213446238354 NaN 0 0 0 0.39296421344623833 NaN A 0.012964213446238354 NaN 0 0 0 0.36703578655376157 NaN A 0.012964213446238354 NaN 0 0 0 0.39296421344623833 NaN" />
  <path style="fill:#D9AE26; stroke-width:0.005; stroke:#000000; stroke-opacity:1; stroke-linecap:round;" d="M 0.37999999999999995 NaN A 0.012964213446238354 NaN 0 0 0 0.36703578655376157 NaN A 0.012964213446238354 NaN 0 0 0 0.39296421344623833 NaN A 0.012964213446238354 NaN 0 0 0 0.36703578655376157 NaN A 0.012964213446238354 NaN 0 0 0 0.39296421344623833 NaN" />
  <path style="fill:#D5D926; stroke-width:0.005; stroke:#000000; stroke-opacity:1; stroke-linecap:round;" d="M 0.37999999999999995 NaN A 0.011927064940365486 NaN 0 0 0 0.36807293505963445 NaN A 0.011927064940365486 NaN 0 0 0 0.39192706494036544 NaN A 0.011927064940365486 NaN 0 0 0 0.36807293505963445 NaN A 0.011927064940365486 NaN 0 0 0 0.39192706494036544 NaN" />
  <path style="fill:#91D926; stroke-width:0.005; stroke:#000000; stroke-opacity:1; stroke-linecap:round;" d="M 0.37999999999999995 NaN A 0.01040228618094851 NaN 0 0 0 0.36959771381905143 NaN A 0.01040228618094851 NaN 0 0 0 0.39040228618094847 NaN A 0.01040228618094851 NaN 0 0 0 0.36959771381905143 NaN A 0.01040228618094851 NaN 0 0 0 0.39040228618094847 NaN" />
  <path style="fill:#45D926; stroke-width:0.005; stroke:#000000; stroke-opacity:1; stroke-linecap:round;" d="M 0.37999999999999995 NaN A 0.008688857818370649 NaN 0 0 0 0.3713111421816293 NaN A 0.008688857818370649 NaN 0 0 0 0.3886888578183706 NaN A 0.008688857818370649 NaN 0 0 0 0.3713111421816293 NaN A 0.008688857818370649 NaN 0 0 0 0.3886888578183706 NaN" />
  <path style="fill:#26D958; stroke-width:0.005; stroke:#000000; stroke-opacity:1; stroke-linecap:round;" d="M 0.37999999999999995 NaN A 0.006892640338715067 NaN 0 0 0 0.3731073596612849 NaN A 0.006892640338715067 NaN 0 0 0 0.386892640338715 NaN A 0.006892640338715067 NaN 0 0 0 0.3731073596612849 NaN A 0.006892640338715067 NaN 0 0 0 0.386892640338715 NaN" />
  <path style="fill:#26D945; stroke-width:0.005; stroke:#000000; stroke-opacity:1; stroke-linecap:round;" d="M 0.46 NaN A 0.0073068302673880816 NaN 0 0 0 0.4526931697326119 NaN A 0.0073068302673880816 NaN 0 0 0 0.4673068302673881 NaN A 0.0073068302673880816 NaN 0 0 0 0.4526931697326119 NaN A 0.0073068302673880816 NaN 0 0 0 0.4673068302673881 NaN" />
  <path style="fill:#5CD926; stroke-width:0.005; stroke:#000000; stroke-opacity:1; stroke-linecap:round;" d="M 0.46 NaN A 0.009211774900609144 NaN 0 0 0 0.45078822509939087 NaN A 0.009211774900609144 NaN 0 0 0 0.46921177490060917 NaN A 0.009211774900609144 NaN 0 0 0 0.45078822509939087 NaN A 0.009211774900609144 NaN 0 0 0 0.46921177490060917 NaN" />
  <path style="fill:#B1D926; stroke-width:0.005; stroke:#000000; stroke-opacity:1; stroke-linecap:round;" d="M 0.46 NaN A 0.011104941266950925 NaN 0 0 0 0.4488950587330491 NaN A 0.011104941266950925 NaN 0 0 0 0.47110494126695096 NaN A 0.011104941266950925 NaN 0 0 0 0.4488950587330491 NaN A 0.011104941266950925 NaN 0 0 0 0.47110494126695096 NaN" />
  <path style="fill:#D9AE26; stroke-width:0.005; stroke:#000000; stroke-opacity:1; stroke-linecap:round;" d="M 0.46 NaN A 0.012964213446238354 NaN 0 0 0 0.44703578655376164 NaN A 0.012964213446238354 NaN 0 0 0 0.4729642134462384 NaN A 0.012964213446238354 NaN 0 0 0 0.44703578655376164 NaN A 0.012964213446238354 NaN 0 0 0 0.4729642134462384 NaN" />
  <path style="fill:#D96326; stroke-width:0.005; stroke:#000000; stroke-opacity:1; stroke-linecap:round;" d="M 0.46 NaN A 0.014642354980121829 NaN 0 0 0 0.4453576450198782 NaN A 0.014642354980121829 NaN 0 0 0 0.47464235498012186 NaN A 0.014642354980121829 NaN 0 0 0 0.4453576450198782 NaN A 0.014642354980121829 NaN 0 0 0 0.47464235498012186 NaN" />
  <path style="fill:#D96326; stroke-width:0.005; stroke:#000000; stroke-opacity:1; stroke-linecap:round;" d="M 0.46 NaN A 0.014642354980121829 NaN 0 0 0 0.4453576450198782 NaN A 0.014642354980121829 NaN 0 0 0 0.47464235498012186 NaN A 0.014642354980121829 NaN 0 0 0 0.4453576450198782 NaN A 0.014642354980121829 NaN 0 0 0 0.47464235498012186 NaN" />
  <path style="fill:#D9AE26; stroke-width:0.005; stroke:#000000; stroke-opacity:1; stroke-linecap:round;" d="M 0.46 NaN A 0.012964213446238356 NaN 0 0 0 0.44703578655376164 NaN A 0.012964213446238356 NaN 0 0 0 0.4729642134462384 NaN A 0.012964213446238356 NaN 0 0 0 0.44703578655376164 NaN A 0.012964213446238356 NaN 0 0 0 0.4729642134462384 NaN" />
  <path style="fill:#B1D926; stroke-width:0.005; stroke:#000000; stroke-opacity:1; stroke-linecap:round;" d="M 0.46 NaN A 0.011104941266950925 NaN 0 0 0 0.4488950587330491 NaN A 0.011104941266950925 NaN 0 0 0 0.47110494126695096 NaN A 0.011104941266950925 NaN 0 0 0 0.4488950587330491 NaN A 0.011104941266950925 NaN 0 0 0 0.47110494126695096 NaN" />
  <path style="fill:#5CD926; stroke-width:0.005; stroke:#000000; stroke-opacity:1; stroke-linecap:round;" d="M 0.46 NaN A 0.009211774900609144 NaN 0 0 0 0.45078822509939087 NaN A 0.009211774900609144 NaN 0 0 0 0.46921177490060917 NaN A 0.009211774900609144 NaN 0 0 0 0.45078822509939087 NaN A 0.009211774900609144 NaN 0 0 0 0.46921177490060917 NaN" />
  <path style="fill:#26D945; stroke-width:0.005; stroke:#000000; stroke-opacity:1; stroke-linecap:round;" d="M 0.46 NaN A 0.0073068302673880816 NaN 0 0 0 0.4526931697326119 NaN A 0.0073068302673880816 NaN 0 0 0 0.4673068302673881 NaN A 0.0073068302673880816 NaN 0 0 0 0.4526931697326119 NaN A 0.0073068302673880816 NaN 0 0 0 0.4673068302673881 NaN" />
  <path style="fill:#26D945; stroke-width:0.005; stroke:#000000; stroke-opacity:1; stroke-linecap:round;" d="M 0.54 NaN A 0.0073068302673880816 NaN 0 0 0 0.5326931697326119 NaN A 0.0073068302673880816 NaN 0 0 0 0.5473068302673881 NaN A 0.0073068302673880816 NaN 0 0 0 0.5326931697326119 NaN A 0.0073068302673880816 NaN 0 0 0 0.5473068302673881 NaN" />
  <path style="fill:#5CD926; stroke-width:0.005; stroke:#000000; stroke-opacity:1; stroke-linecap:round;" d="M 0.54 NaN A 0.009211774900609144 NaN 0 0 0 0.5307882250993909 NaN A 0.009211774900609144 NaN 0 0 0 0.5492117749006091 NaN A 0.009211774900609144 NaN 0 0 0 0.5307882250993909 NaN A 0.009211774900609144 NaN 0 0 0 0.5492117749006091 NaN" />
  <path style="fill:#B1D926; stroke-width:0.005; stroke:#000000; stroke-opacity:1; stroke-linecap:round;" d="M 0.54 NaN A 0.011104941266950925 NaN 0 0 0 0.5288950587330491 NaN A 0.011104941266950925 NaN 0 0 0 0.551104941266951 NaN A 0.011104941266950925 NaN 0 0 0 0.5288950587330491 NaN A 0.011104941266950925 NaN 0 0 0 0.551104941266951 NaN" />
  <path style="fill:#D9AE26; stroke-width:0.005; stroke:#000000; stroke-opacity:1; stroke-linecap:round;" d="M 0.54 NaN A 0.012964213446238354 NaN 0 0 0 0.5270357865537617 NaN A 0.012964213446238354 NaN 0 0 0 0.5529642134462384 NaN A 0.012964213446238354 NaN 0 0 0 0.5270357865537617 NaN A 0.012964213446238354 NaN 0 0 0 0.5529642134462384 NaN" />
  <path style="fill:#D96326; stroke-width:0.005; stroke:#000000; stroke-opacity:1; stroke-linecap:round;" d="M 0.54 NaN A 0.014642354980121829 NaN 0 0 0 0.5253576450198782 NaN A 0.014642354980121829 NaN 0 0 0 0.5546423549801218 NaN A 0.014642354980121829 NaN 0 0 0 0.5253576450198782 NaN A 0.014642354980121829 NaN 0 0 0 0.5546423549801218 NaN" />
  <path style="fill:#D96326; stroke-width:0.005; stroke:#000000; stroke-opacity:1; stroke-linecap:round;" d="M 0.54 NaN A 0.014642354980121829 NaN 0 0 0 0.5253576450198782 NaN A 0.014642354980121829 NaN 0 0 0 0.5546423549801218 NaN A 0.014642354980121829 NaN 0 0 0 0.5253576450198782 NaN A 0.014642354980121829 NaN 0 0 0 0.5546423549801218 NaN" />
  <path style="fill:#D9AE26; stroke-width:0.005; stroke:#000000; stroke-opacity:1; stroke-linecap:round;" d="M 0.54 NaN A 0.012964213446238356 NaN 0 0 0 0.5270357865537617 NaN A 0.012964213446238356 NaN 0 0 0 0.5529642134462384 NaN A 0.012964213446238356 NaN 0 0 0 0.5270357865537617 NaN A 0.012964213446238356 NaN 0 0 0 0.5529642134462384 NaN" />
  <path style="fill:#B1D926; stroke-width:0.005; stroke:#000000; stroke-opacity:1; stroke-linecap:round;" d="M 0.54 NaN A 0.011104941266950923 NaN 0 0 0 0.5288950587330491 NaN A 0.011104941266950923 NaN 0 0 0 0.551104941266951 NaN A 0.011104941266950923 NaN 0 0 0 0.5288950587330491 NaN A 0.011104941266950923 NaN 0 0 0 0.551104941266951 NaN" />
  <path style="fill:#5CD926; stroke-width:0.005; stroke:#000000; stroke-opacity:1; stroke-linecap:round;" d="M 0.54 NaN A 0.009211774900609144 NaN 0 0 0 0.5307882250993909 NaN A 0.009211774900609144 NaN 0 0 0 0.5492117749006091 NaN A 0.009211774900609144 NaN 0 0 0 0.5307882250993909 NaN A 0.009211774900609144 NaN 0 0 0 0.5492117749006091 NaN" />
  <path style="fill:#26D945; stroke-width:0.005; stroke:#000000; stroke-opacity:1; stroke-linecap:round;" d="M 0.54 NaN A 0.0073068302673880816 NaN 0 0 0 0.5326931697326119 NaN A 0.0073068302673880816 NaN 0 0 0 0.5473068302673881 NaN A 0.0073068302673880816 NaN 0 0 0 0.5326931697326119 NaN A 0.0073068302673880816 NaN 0 0 0 0.5473068302673881 NaN" />
  <path style="fill:#26D958; stroke-width:0.005; stroke:#000000; stroke-opacity:1; stroke-linecap:round;" d="M 0.62 NaN A 0.006892640338715068 NaN 0 0 0 0.6131073596612849 NaN A 0.006892640338715068 NaN 0 0 0 0.6268926403387151 NaN A 0.006892640338715068 NaN 0 0 0 0.6131073596612849 NaN A 0.006892640338715068 NaN 0 0 0 0.6268926403387151 NaN" />
  <path style="fill:#45D926; stroke-width:0.005; stroke:#000000; stroke-opacity:1; stroke-linecap:round;" d="M 0.62 NaN A 0.008688857818370649 NaN 0 0 0 0.6113111421816293 NaN A 0.008688857818370649 NaN 0 0 0 0.6286888578183707 NaN A 0.008688857818370649 NaN 0 0 0 0.6113111421816293 NaN A 0.008688857818370649 NaN 0 0 0 0.6286888578183707 NaN" />
  <path style="fill:#91D926; stroke-width:0.005; stroke:#000000; stroke-opacity:1; stroke-linecap:round;" d="M 0.62 NaN A 0.010402286180948512 NaN 0 0 0 0.6095977138190515 NaN A 0.010402286180948512 NaN 0 0 0 0.6304022861809485 NaN A 0.010402286180948512 NaN 0 0 0 0.6095977138190515 NaN A 0.010402286180948512 NaN 0 0 0 0.6304022861809485 NaN" />
  <path style="fill:#D5D926; stroke-width:0.005; stroke:#000000; stroke-opacity:1; stroke-linecap:round;" d="M 0.62 NaN A 0.011927064940365486 NaN 0 0 0 0.6080729350596346 NaN A 0.011927064940365486 NaN 0 0 0 0.6319270649403654 NaN A 0.011927064940365486 NaN 0 0 0 0.6080729350596346 NaN A 0.011927064940365486 NaN 0 0 0 0.6319270649403654 NaN" />
  <path style="fill:#D9AE26; stroke-width:0.005; stroke:#000000; stroke-opacity:1; stroke-linecap:round;" d="M 0.62 NaN A 0.012964213446238356 NaN 0 0 0 0.6070357865537617 NaN A 0.012964213446238356 NaN 0 0 0 0.6329642134462383 NaN A 0.012964213446238356 NaN 0 0 0 0.6070357865537617 NaN A 0.012964213446238356 NaN 0 0 0 0.6329642134462383 NaN" />
  <path style="fill:#D9AE26; stroke-width:0.005; stroke:#000000; stroke-opacity:1; stroke-linecap:round;" d="M 0.62 NaN A 0.012964213446238356 NaN 0 0 0 0.6070357865537617 NaN A 0.012964213446238356 NaN 0 0 0 0.6329642134462383 NaN A 0.012964213446238356 NaN 0 0 0 0.6070357865537617 NaN A 0.012964213446238356 NaN 0 0 0 0.6329642134462383 NaN" />
  <path style="fill:#D5D926; stroke-width:0.005; stroke:#000000; stroke-opacity:1; stroke-linecap:round;" d="M 0.62 NaN A 0.011927064940365486 NaN 0 0 0 0.6080729350596346 NaN A 0.011927064940365486 NaN 0 0 0 0.6319270649403654 NaN A 0.011927064940365486 NaN 0 0 0 0.6080729350596346 NaN A 0.011927064940365486 NaN 0 0 0 0.6319270649403654 NaN" />
  <path style="fill:#91D926; stroke-width:0.005; stroke:#000000; stroke-opacity:1; stroke-linecap:round;" d="M 0.62 NaN A 0.01040228618094851 NaN 0 0 0 0.6095977138190515 NaN A 0.01040228618094851 NaN 0 0 0 0.6304022861809485 NaN A 0.01040228618094851 NaN 0 0 0 0.6095977138190515 NaN A 0.01040228618094851 NaN 0 0 0 0.6304022861809485 NaN" />
  <path style="fill:#45D926; stroke-width:0.005; stroke:#000000; stroke-opacity:1; stroke-linecap:round;" d="M 0.62 NaN A 0.008688857818370649 NaN 0 0 0 0.6113111421816293 NaN A 0.008688857818370649 NaN 0 0 0 0.6286888578183707 NaN A 0.008688857818370649 NaN 0 0 0 0.6113111421816293 NaN A 0.008688857818370649 NaN 0 0 0 0.6286888578183707 NaN" />
  <path style="fill:#26D958; stroke-width:0.005; stroke:#000000; stroke-opacity:1; stroke-linecap:round;" d="M 0.62 NaN A 0.006892640338715068 NaN 0 0 0 0.6131073596612849 NaN A 0.006892640338715068 NaN 0 0 0 0.6268926403387151 NaN A 0.006892640338715068 NaN 0 0 0 0.6131073596612849 NaN A 0.006892640338715068 NaN 0 0 0 0.6268926403387151 NaN" />
  <path style="fill:#26D97A; stroke-width:0.005; stroke:#000000; stroke-opacity:1; stroke-linecap:round;" d="M 0.7000000000000001 NaN A 0.006116195064652478 NaN 0 0 0 0.6938838049353476 NaN A 0.006116195064652478 NaN 0 0 0 0.7061161950646525 NaN A 0.006116195064652478 NaN 0 0 0 0.6938838049353476 NaN A 0.006116195064652478 NaN 0 0 0 0.7061161950646525 NaN" />
  <path style="fill:#26D932; stroke-width:0.005; stroke:#000000; stroke-opacity:1; stroke-linecap:round;" d="M 0.7000000000000001 NaN A 0.007741767743639077 NaN 0 0 0 0.692258232256361 NaN A 0.007741767743639077 NaN 0 0 0 0.7077417677436392 NaN A 0.007741767743639077 NaN 0 0 0 0.692258232256361 NaN A 0.007741767743639077 NaN 0 0 0 0.7077417677436392 NaN" />
  <path style="fill:#5CD926; stroke-width:0.005; stroke:#000000; stroke-opacity:1; stroke-linecap:round;" d="M 0.7000000000000001 NaN A 0.009211774900609144 NaN 0 0 0 0.690788225099391 NaN A 0.009211774900609144 NaN 0 0 0 0.7092117749006092 NaN A 0.009211774900609144 NaN 0 0 0 0.690788225099391 NaN A 0.009211774900609144 NaN 0 0 0 0.7092117749006092 NaN" />
  <path style="fill:#91D926; stroke-width:0.005; stroke:#000000; stroke-opacity:1; stroke-linecap:round;" d="M 0.7000000000000001 NaN A 0.01040228618094851 NaN 0 0 0 0.6895977138190515 NaN A 0.01040228618094851 NaN 0 0 0 0.7104022861809486 NaN A 0.01040228618094851 NaN 0 0 0 0.6895977138190515 NaN A 0.01040228618094851 NaN 0 0 0 0.7104022861809486 NaN" />
  <path style="fill:#B1D926; stroke-width:0.005; stroke:#000000; stroke-opacity:1; stroke-linecap:round;" d="M 0.7000000000000001 NaN A 0.011104941266950923 NaN 0 0 0 0.6888950587330491 NaN A 0.011104941266950923 NaN 0 0 0 0.711104941266951 NaN A 0.011104941266950923 NaN 0 0 0 0.6888950587330491 NaN A 0.011104941266950923 NaN 0 0 0 0.711104941266951 NaN" />
  <path style="fill:#B1D926; stroke-width:0.005; stroke:#000000; stroke-opacity:1; stroke-linecap:round;" d="M 0.7000000000000001 NaN A 0.011104941266950923 NaN 0 0 0 0.6888950587330491 NaN A 0.011104941266950923 NaN 0 0 0 0.711104941266951 NaN A 0.011104941266950923 NaN 0 0 0 0.6888950587330491 NaN A 0.011104941266950923 NaN 0 0 0 0.711104941266951 NaN" />
  <path style="fill:#91D926; stroke-width:0.005; stroke:#000000; stroke-opacity:1; stroke-linecap:round;" d="M 0.7000000000000001 NaN A 0.01040228618094851 NaN 0 0 0 0.6895977138190515 NaN A 0.01040228618094851 NaN 0 0 0 0.7104022861809486 NaN A 0.01040228618094851 NaN 0 0 0 0.6895977138190515 NaN A 0.01040228618094851 NaN 0 0 0 0.7104022861809486 NaN" />
  <path style="fill:#5CD926; stroke-width:0.005; stroke:#000000; stroke-opacity:1; stroke-linecap:round;" d="M 0.7000000000000001 NaN A 0.009211774900609142 NaN 0 0 0 0.690788225099391 NaN A 0.009211774900609142 NaN 0 0 0 0.7092117749006092 NaN A 0.009211774900609142 NaN 0 0 0 0.690788225099391 NaN A 0.009211774900609142 NaN 0 0 0 0.7092117749006092 NaN" />
  <path style="fill:#26D932; stroke-width:0.005; stroke:#000000; stroke-opacity:1; stroke-linecap:round;" d="M 0.7000000000000001 NaN A 0.007741767743639077 NaN 0 0 0 0.692258232256361 NaN A 0.007741767743639077 NaN 0 0 0 0.7077417677436392 NaN A 0.007741767743639077 NaN 0 0 0 0.692258232256361 NaN A 0.007741767743639077 NaN 0 0 0 0.7077417677436392 NaN" />
  <path style="fill:#26D97A; stroke-width:0.005; stroke:#000000; stroke-opacity:1; stroke-linecap:round;" d="M 0.7000000000000001 NaN A 0.006116195064652478 NaN 0 0 0 0.6938838049353476 NaN A 0.006116195064652478 NaN 0 0 0 0.7061161950646525 NaN A 0.006116195064652478 NaN 0 0 0 0.6938838049353476 NaN A 0.006116195064652478 NaN 0 0 0 0.7061161950646525 NaN" />
  <path style="fill:#26D9AA; stroke-width:0.005; stroke:#000000; stroke-opacity:1; stroke-linecap:round;" d="M 0.78 NaN A 0.005054315919048275 NaN 0 0 0 0.7749456840809518 NaN A 0.005054315919048275 NaN 0 0 0 0.7850543159190483 NaN A 0.005054315919048275 NaN 0 0 0 0.7749456840809518 NaN A 0.005054315919048275 NaN 0 0 0 0.7850543159190483 NaN" />
  <path style="fill:#26D969; stroke-width:0.005; stroke:#000000; stroke-opacity:1; stroke-linecap:round;" d="M 0.78 NaN A 0.0064964848608528 NaN 0 0 0 0.7735035151391473 NaN A 0.0064964848608528 NaN 0 0 0 0.7864964848608528 NaN A 0.0064964848608528 NaN 0 0 0 0.7735035151391473 NaN A 0.0064964848608528 NaN 0 0 0 0.7864964848608528 NaN" />
  <path style="fill:#26D932; stroke-width:0.005; stroke:#000000; stroke-opacity:1; stroke-linecap:round;" d="M 0.78 NaN A 0.007741767743639077 NaN 0 0 0 0.7722582322563609 NaN A 0.007741767743639077 NaN 0 0 0 0.7877417677436391 NaN A 0.007741767743639077 NaN 0 0 0 0.7722582322563609 NaN A 0.007741767743639077 NaN 0 0 0 0.7877417677436391 NaN" />
  <path style="fill:#45D926; stroke-width:0.005; stroke:#000000; stroke-opacity:1; stroke-linecap:round;" d="M 0.78 NaN A 0.008688857818370649 NaN 0 0 0 0.7713111421816293 NaN A 0.008688857818370649 NaN 0 0 0 0.7886888578183707 NaN A 0.008688857818370649 NaN 0 0 0 0.7713111421816293 NaN A 0.008688857818370649 NaN 0 0 0 0.7886888578183707 NaN" />
  <path style="fill:#5CD926; stroke-width:0.005; stroke:#000000; stroke-opacity:1; stroke-linecap:round;" d="M 0.78 NaN A 0.009211774900609144 NaN 0 0 0 0.7707882250993909 NaN A 0.009211774900609144 NaN 0 0 0 0.7892117749006091 NaN A 0.009211774900609144 NaN 0 0 0 0.7707882250993909 NaN A 0.009211774900609144 NaN 0 0 0 0.7892117749006091 NaN" />
  <path style="fill:#5CD926; stroke-width:0.005; stroke:#000000; stroke-opacity:1; stroke-linecap:round;" d="M 0.78 NaN A 0.009211774900609144 NaN 0 0 0 0.7707882250993909 NaN A 0.009211774900609144 NaN 0 0 0 0.7892117749006091 NaN A 0.009211774900609144 NaN 0 0 0 0.7707882250993909 NaN A 0.009211774900609144 NaN 0 0 0 0.7892117749006091 NaN" />
  <path style="fill:#45D926; stroke-width:0.005; stroke:#000000; stroke-opacity:1; stroke-linecap:round;" d="M 0.78 NaN A 0.008688857818370649 NaN 0 0 0 0.7713111421816293 NaN A 0.008688857818370649 NaN 0 0 0 0.7886888578183707 NaN A 0.008688857818370649 NaN 0 0 0 0.7713111421816293 NaN A 0.008688857818370649 NaN 0 0 0 0.7886888578183707 NaN" />
  <path style="fill:#26D932; stroke-width:0.005; stroke:#000000; stroke-opacity:1; stroke-linecap:round;" d="M 0.78 NaN A 0.007741767743639077 NaN 0 0 0 0.7722582322563609 NaN A 0.007741767743639077 NaN 0 0 0 0.7877417677436391 NaN A 0.007741767743639077 NaN 0 0 0 0.7722582322563609 NaN A 0.007741767743639077 NaN 0 0 0 0.7877417677436391 NaN" />
  <path style="fill:#26D969; stroke-width:0.005; stroke:#000000; stroke-opacity:1; stroke-linecap:round;" d="M 0.78 NaN A 0.0064964848608528 NaN 0 0 0 0.7735035151391473 NaN A 0.0064964848608528 NaN 0 0 0 0.7864964848608528 NaN A 0.0064964848608528 NaN 0 0 0 0.7735035151391473 NaN A 0.0064964848608528 NaN 0 0 0 0.7864964848608528 NaN" />
  <path style="fill:#26D9AA; stroke-width:0.005; stroke:#000000; stroke-opacity:1; stroke-linecap:round;" d="M 0.78 NaN A 0.005054315919048275 NaN 0 0 0 0.7749456840809518 NaN A 0.005054315919048275 NaN 0 0 0 0.7850543159190483 NaN A 0.005054315919048275 NaN 0 0 0 0.7749456840809518 NaN A 0.005054315919048275 NaN 0 0 0 0.7850543159190483 NaN" />
  <path style="fill:#26CFD9; stroke-width:0.005; stroke:#000000; stroke-opacity:1; stroke-linecap:round;" d="M 0.86 NaN A 0.0037811948210964594 NaN 0 0 0 0.8562188051789035 NaN A 0.0037811948210964594 NaN 0 0 0 0.8637811948210965 NaN A 0.0037811948210964594 NaN 0 0 0 0.8562188051789035 NaN A 0.0037811948210964594 NaN 0 0 0 0.8637811948210965 NaN" />
  <path style="fill:#26D9AA; stroke-width:0.005; stroke:#000000; stroke-opacity:1; stroke-linecap:round;" d="M 0.86 NaN A 0.005054315919048275 NaN 0 0 0 0.8549456840809517 NaN A 0.005054315919048275 NaN 0 0 0 0.8650543159190482 NaN A 0.005054315919048275 NaN 0 0 0 0.8549456840809517 NaN A 0.005054315919048275 NaN 0 0 0 0.8650543159190482 NaN" />
  <path style="fill:#26D97A; stroke-width:0.005; stroke:#000000; stroke-opacity:1; stroke-linecap:round;" d="M 0.86 NaN A 0.00611619506465248 NaN 0 0 0 0.8538838049353475 NaN A 0.00611619506465248 NaN 0 0 0 0.8661161950646524 NaN A 0.00611619506465248 NaN 0 0 0 0.8538838049353475 NaN A 0.00611619506465248 NaN 0 0 0 0.8661161950646524 NaN" />
  <path style="fill:#26D958; stroke-width:0.005; stroke:#000000; stroke-opacity:1; stroke-linecap:round;" d="M 0.86 NaN A 0.006892640338715067 NaN 0 0 0 0.8531073596612849 NaN A 0.006892640338715067 NaN 0 0 0 0.866892640338715 NaN A 0.006892640338715067 NaN 0 0 0 0.8531073596612849 NaN A 0.006892640338715067 NaN 0 0 0 0.866892640338715 NaN" />
  <path style="fill:#26D945; stroke-width:0.005; stroke:#000000; stroke-opacity:1; stroke-linecap:round;" d="M 0.86 NaN A 0.0073068302673880816 NaN 0 0 0 0.8526931697326119 NaN A 0.0073068302673880816 NaN 0 0 0 0.8673068302673881 NaN A 0.0073068302673880816 NaN 0 0 0 0.8526931697326119 NaN A 0.0073068302673880816 NaN 0 0 0 0.8673068302673881 NaN" />
  <path style="fill:#26D945; stroke-width:0.005; stroke:#000000; stroke-opacity:1; stroke-linecap:round;" d="M 0.86 NaN A 0.0073068302673880816 NaN 0 0 0 0.8526931697326119 NaN A 0.0073068302673880816 NaN 0 0 0 0.8673068302673881 NaN A 0.0073068302673880816 NaN 0 0 0 0.8526931697326119 NaN A 0.0073068302673880816 NaN 0 0 0 0.8673068302673881 NaN" />
  <path style="fill:#26D958; stroke-width:0.005; stroke:#000000; stroke-opacity:1; stroke-linecap:round;" d="M 0.86 NaN A 0.006892640338715068 NaN 0 0 0 0.8531073596612849 NaN A 0.006892640338715068 NaN 0 0 0 0.866892640338715 NaN A 0.006892640338715068 NaN 0 0 0 0.8531073596612849 NaN A 0.006892640338715068 NaN 0 0 0 0.866892640338715 NaN" />
  <path style="fill:#26D97A; stroke-width:0.005; stroke:#000000; stroke-opacity:1; stroke-linecap:round;" d="M 0.86 NaN A 0.006116195064652478 NaN 0 0 0 0.8538838049353475 NaN A 0.006116195064652478 NaN 0 0 0 0.8661161950646524 NaN A 0.006116195064652478 NaN 0 0 0 0.8538838049353475 NaN A 0.006116195064652478 NaN 0 0 0 0.8661161950646524 NaN" />
  <path style="fill:#26D9AA; stroke-width:0.005; stroke:#000000; stroke-opacity:1; stroke-linecap:round;" d="M 0.86 NaN A 0.005054315919048275 NaN 0 0 0 0.8549456840809517 NaN A 0.005054315919048275 NaN 0 0 0 0.8650543159190482 NaN A 0.005054315919048275 NaN 0 0 0 0.8549456840809517 NaN A 0.005054315919048275 NaN 0 0 0 0.8650543159190482 NaN" />
  <path style="fill:#26CFD9; stroke-width:0.005; stroke:#000000; stroke-opacity:1; stroke-linecap:round;" d="M 0.86 NaN A 0.0037811948210964594 NaN 0 0 0 0.8562188051789035 NaN A 0.0037811948210964594 NaN 0 0 0 0.8637811948210965 NaN A 0.0037811948210964594 NaN 0 0 0 0.8562188051789035 NaN A 0.0037811948210964594 NaN 0 0 0 0.8637811948210965 NaN" />
</svg>