<svg xmlns="http://www.w3.org/2000/svg" viewBox="0 0 1 1" width="800" height="800">
  <path style="fill:#D95C26; stroke-width:0.005; stroke:#000000; stroke-opacity:1; stroke-linecap:round;" d="M NaN NaN L NaN0.2,0.20000000000000004 NaN L NaN0.2,0.20000000000000004 NaN L NaN NaN L NaN NaN" />
  <path style="fill:#D95C26; stroke-width:0.005; stroke:#000000; stroke-opacity:1; stroke-linecap:round;" d="M NaN NaN L NaN0.2,0.35000000000000003 NaN L NaN0.2,0.35000000000000003 NaN L NaN NaN L NaN NaN" />
  <path style="fill:#D95C26; stroke-width:0.005; stroke:#000000; stroke-opacity:1; stroke-linecap:round;" d="M NaN NaN L NaN0.2,0.5 NaN L NaN0.2,0.5 NaN L NaN NaN L NaN NaN" />
  <path style="fill:#D95C26; stroke-width:0.005; stroke:#000000; stroke-opacity:1; stroke-linecap:round;" d="M NaN NaN L NaN0.2,0.65 NaN L NaN0.2,0.65 NaN L NaN NaN L NaN NaN" />
  <path style="fill:#D95C26; stroke-width:0.005; stroke:#000000; stroke-opacity:1; stroke-linecap:round;" d="M NaN NaN L NaN0.2,0.8 NaN L NaN0.2,0.8 NaN L NaN NaN L NaN NaN" />
  <path style="fill:#D95C26; stroke-width:0.005; stroke:#000000; stroke-opacity:1; stroke-linecap:round;" d="M NaN NaN L NaN0.2,0.9500000000000001 NaN L NaN0.2,0.9500000000000001 NaN L NaN NaN L NaN NaN" />
  <path style="fill:#B5D926; stroke-width:0.005; stroke:#000000; stroke-opacity:1; stroke-linecap:round;" d="M NaN NaN L NaN0.35,0.20000000000000004 NaN L NaN0.35,0.20000000000000004 NaN L NaN NaN L NaN NaN" />
  <path style="fill:#B5D926; stroke-width:0.005; stroke:#000000; stroke-opacity:1; stroke-linecap:round;" d="M NaN NaN L NaN0.35,0.35000000000000003 NaN L NaN0.35,0.35000000000000003 NaN L NaN NaN L NaN NaN" />
  <path style="fill:#B5D926; stroke-width:0.005; stroke:#000000; stroke-opacity:1; stroke-linecap:round;" d="M NaN NaN L NaN0.35,0.5 NaN L NaN0.35,0.5 NaN L NaN NaN L NaN NaN" />
  <path style="fill:#B5D926; stroke-width:0.005; stroke:#000000; stroke-opacity:1; stroke-linecap:round;" d="M NaN NaN L NaN0.35,0.65 NaN L NaN0.35,0.65 NaN L NaN NaN L NaN NaN" />
  <path style="fill:#B5D926; stroke-width:0.005; stroke:#000000; stroke-opacity:1; stroke-linecap:round;" d="M NaN NaN L NaN0.35,0.8 NaN L NaN0.35,0.8 NaN L NaN NaN L NaN NaN" />
  <path style="fill:#B5D926; stroke-width:0.005; stroke:#000000; stroke-opacity:1; stroke-linecap:round;" d="M NaN NaN L NaN0.35,0.9500000000000001 NaN L NaN0.35,0.9500000000000001 NaN L NaN NaN L NaN NaN" />
  <path style="fill:#26D938; stroke-width:0.005; stroke:#000000; stroke-opacity:1; stroke-linecap:round;" d="M NaN NaN L NaN0.5,0.20000000000000004 NaN L NaN0.5,0.20000000000000004 NaN L NaN NaN L NaN NaN" />
  <path style="fill:#26D938; stroke-width:0.005; stroke:#000000; stroke-opacity:1; stroke-linecap:round;" d="M NaN NaN L NaN0.5,0.35000000000000003 NaN L NaN0.5,0.35000000000000003 NaN L NaN NaN L NaN NaN" />
  <path style="fill:#26D938; stroke-width:0.005; stroke:#000000; stroke-opacity:1; stroke-linecap:round;" d="M NaN NaN L NaN0.5,0.5 NaN L NaN0.5,0.5 NaN L NaN NaN L NaN NaN" />
  <path style="fill:#26D938; stroke-width:0.005; stroke:#000000; stroke-opacity:1; stroke-linecap:round;" d="M NaN NaN L NaN0.5,0.65 NaN L NaN0.5,0.65 NaN L NaN NaN L NaN NaN" />
  <path style="fill:#26D938; stroke-width:0.005; stroke:#000000; stroke-opacity:1; stroke-linecap:round;" d="M NaN NaN L NaN0.5,0.8 NaN L NaN0.5,0.8 NaN L NaN NaN L NaN NaN" />
  <path style="fill:#26D938; stroke-width:0.005; stroke:#000000; stroke-opacity:1; stroke-linecap:round;" d="M NaN NaN L NaN0.5,0.9500000000000001 NaN L NaN0.5,0.9500000000000001 NaN L NaN NaN L NaN NaN" />
  <path style="fill:#26D9D9; stroke-width:0.005; stroke:#000000; stroke-opacity:1; stroke-linecap:round;" d="M NaN NaN L NaN0.6499999999999999,0.20000000000000004 NaN L NaN0.6499999999999999,0.20000000000000004 NaN L NaN NaN L NaN NaN" />
  <path style="fill:#26D9D9; stroke-width:0.005; stroke:#000000; stroke-opacity:1; stroke-linecap:round;" d="M NaN NaN L NaN0.6499999999999999,0.35000000000000003 NaN L NaN0.6499999999999999,0.35000000000000003 NaN L NaN NaN L NaN NaN" />
  <path style="fill:#26D9D9; stroke-width:0.005; stroke:#000000; stroke-opacity:1; stroke-linecap:round;" d="M NaN NaN L NaN0.6499999999999999,0.5 NaN L NaN0.6499999999999999,0.5 NaN L NaN NaN L NaN NaN" />
  <path style="fill:#26D9D9; stroke-width:0.005; stroke:#000000; stroke-opacity:1; stroke-linecap:round;" d="M NaN NaN L NaN0.6499999999999999,0.65 NaN L NaN0.6499999999999999,0.65 NaN L NaN NaN L NaN NaN" />
  <path style="fill:#26D9D9; stroke-width:0.005; stroke:#000000; stroke-opacity:1; stroke-linecap:round;" d="M NaN NaN L NaN0.6499999999999999,0.8 NaN L NaN0.6499999999999999,0.8 NaN L NaN NaN L NaN NaN" />
  <path style="fill:#26D9D9; stroke-width:0.005; stroke:#000000; stroke-opacity:1; stroke-linecap:round;" d="M NaN NaN L NaN0.6499999999999999,0.9500000000000001 NaN L NaN0.6499999999999999,0.9500000000000001 NaN L NaN NaN L NaN NaN" />
  <path style="fill:#2638D9; stroke-width:0.005; stroke:#000000; stroke-opacity:1; stroke-linecap:round;" d="M NaN NaN L NaN0.8,0.20000000000000004 NaN L NaN0.8,0.20000000000000004 NaN L NaN NaN L NaN NaN" />
  <path style="fill:#2638D9; stroke-width:0.005; stroke:#000000; stroke-opacity:1; stroke-linecap:round;" d="M NaN NaN L NaN0.8,0.35000000000000003 NaN L NaN0.8,0.35000000000000003 NaN L NaN NaN L NaN NaN" />
  <path style="fill:#2638D9; stroke-width:0.005; stroke:#000000; stroke-opacity:1; stroke-linecap:round;" d="M NaN NaN L NaN0.8,0.5 NaN L NaN0.8,0.5 NaN L NaN NaN L NaN NaN" />
  <path style="fill:#2638D9; stroke-width:0.005; stroke:#000000; stroke-opacity:1; stroke-linecap:round;" d="M NaN NaN L NaN0.8,0.65 NaN L NaN0.8,0.65 NaN L NaN NaN L NaN NaN" />
  <path style="fill:#2638D9; stroke-width:0.005; stroke:#000000; stroke-opacity:1; stroke-linecap:round;" d="M NaN NaN L NaN0.8,0.8 NaN L NaN0.8,0.8 NaN L NaN NaN L NaN NaN" />
  <path style="fill:#2638D9; stroke-width:0.005; stroke:#000000; stroke-opacity:1; stroke-linecap:round;" d="M NaN NaN L NaN0.8,0.9500000000000001 NaN L NaN0.8,0.9500000000000001 NaN L NaN NaN L NaN NaN" />
  <path style="fill:#B526D9; stroke-width:0.005; stroke:#000000; stroke-opacity:1; stroke-linecap:round;" d="M NaN NaN L NaN0.9500000000000001,0.20000000000000004 NaN L NaN0.9500000000000001,0.20000000000000004 NaN L NaN NaN L NaN NaN" />
  <path style="fill:#B526D9; stroke-width:0.005; stroke:#000000; stroke-opacity:1; stroke-linecap:round;" d="M NaN NaN L NaN0.9500000000000001,0.35000000000000003 NaN L NaN0.9500000000000001,0.35000000000000003 NaN L NaN NaN L NaN NaN" />
  <path style="fill:#B526D9; stroke-width:0.005; stroke:#000000; stroke-opacity:1; stroke-linecap:round;" d="M NaN NaN L NaN0.9500000000000001,0.5 NaN L NaN0.9500000000000001,0.5 NaN L NaN NaN L NaN NaN" />
  <path style="fill:#B526D9; stroke-width:0.005; stroke:#000000; stroke-opacity:1; stroke-linecap:round;" d="M NaN NaN L NaN0.9500000000000001,0.65 NaN L NaN0.9500000000000001,0.65 NaN L NaN NaN L NaN NaN" />
  <path style="fill:#B526D9; stroke-width:0.005; stroke:#000000; stroke-opacity:1; stroke-linecap:round;" d="M NaN NaN L NaN0.9500000000000001,0.8 NaN L NaN0.9500000000000001,0.8 NaN L NaN NaN L NaN NaN" />
  <path style="fill:#B526D9; stroke-width:0.005; stroke:#000000; stroke-opacity:1; stroke-linecap:round;" d="M NaN NaN L NaN0.9500000000000001,0.9500000000000001 NaN L NaN0.9500000000000001,0.9500000000000001 NaN L NaN NaN L NaN NaN" />
</svg>