<svg xmlns="http://www.w3.org/2000/svg" viewBox="0 0 1 1" width="800" height="800">
  <gundefined>
    <path style="fill:#D92662; stroke-width:0.005; stroke:#000000; stroke-opacity:1; stroke-linecap:round;" d="M NaN NaN L NaN0.015318893974971982,0.015318893974971982 NaN L NaN0.015318893974971982,0.015318893974971982 NaN L NaN NaN L NaN NaN" />
  </g>
  <gundefined>
    <path style="fill:#89D926; stroke-width:0.005; stroke:#000000; stroke-opacity:1; stroke-linecap:round;" d="M NaN NaN L NaN0.017822814547404895,0.017822814547404895 NaN L NaN0.017822814547404895,0.017822814547404895 NaN L NaN NaN L NaN NaN" />
  </g>
  <gundefined>
    <path style="fill:#D926D1; stroke-width:0.005; stroke:#000000; stroke-opacity:1; stroke-linecap:round;" d="M NaN NaN L NaN0.016626130014029582,0.016626130014029582 NaN L NaN0.016626130014029582,0.016626130014029582 NaN L NaN NaN L NaN NaN" />
  </g>
  <gundefined>
    <path style="fill:#D9A226; stroke-width:0.005; stroke:#000000; stroke-opacity:1; stroke-linecap:round;" d="M NaN NaN L NaN0.01310196772099288,0.01310196772099288 NaN L NaN0.01310196772099288,0.01310196772099288 NaN L NaN NaN L NaN NaN" />
  </g>
  <gundefined>
    <path style="fill:#2677D9; stroke-width:0.005; stroke:#000000; stroke-opacity:1; stroke-linecap:round;" d="M NaN NaN L NaN0.022072391719562733,0.022072391719562733 NaN L NaN0.022072391719562733,0.022072391719562733 NaN L NaN NaN L NaN NaN" />
  </g>
  <gundefined>
    <path style="fill:#A3D926; stroke-width:0.005; stroke:#000000; stroke-opacity:1; stroke-linecap:round;" d="M NaN NaN L NaN0.02370811447446132,0.02370811447446132 NaN L NaN0.02370811447446132,0.02370811447446132 NaN L NaN NaN L NaN NaN" />
  </g>
  <gundefined>
    <path style="fill:#D92691; stroke-width:0.005; stroke:#000000; stroke-opacity:1; stroke-linecap:round;" d="M NaN NaN L NaN0.01088410583885223,0.01088410583885223 NaN L NaN0.01088410583885223,0.01088410583885223 NaN L NaN NaN L NaN NaN" />
  </g>
  <gundefined>
    <path style="fill:#D92630; stroke-width:0.005; stroke:#000000; stroke-opacity:1; stroke-linecap:round;" d="M NaN NaN L NaN0.0101192575216909,0.0101192575216909 NaN L NaN0.0101192575216909,0.0101192575216909 NaN L NaN NaN L NaN NaN" />
  </g>
  <gundefined>
    <path style="fill:#D926CF; stroke-width:0.005; stroke:#000000; stroke-opacity:1; stroke-linecap:round;" d="M NaN NaN L NaN0.02215899607031226,0.02215899607031226 NaN L NaN0.02215899607031226,0.02215899607031226 NaN L NaN NaN L NaN NaN" />
  </g>
  <gundefined>
    <path style="fill:#D926CE; stroke-width:0.005; stroke:#000000; stroke-opacity:1; stroke-linecap:round;" d="M NaN NaN L NaN0.010504426029147902,0.010504426029147902 NaN L NaN0.010504426029147902,0.010504426029147902 NaN L NaN NaN L NaN NaN" />
  </g>
  <gundefined>
    <path style="fill:#D92665; stroke-width:0.005; stroke:#000000; stroke-opacity:1; stroke-linecap:round;" d="M NaN NaN L NaN0.01233453354444727,0.01233453354444727 NaN L NaN0.01233453354444727,0.01233453354444727 NaN L NaN NaN L NaN NaN" />
  </g>
  <gundefined>
    <path style="fill:#265CD9; stroke-width:0.005; stroke:#000000; stroke-opacity:1; stroke-linecap:round;" d="M NaN NaN L NaN0.017194509290661318,0.017194509290661318 NaN L NaN0.017194509290661318,0.017194509290661318 NaN L NaN NaN L NaN NaN" />
  </g>
  <gundefined>
    <path style="fill:#265BD9; stroke-width:0.005; stroke:#000000; stroke-opacity:1; stroke-linecap:round;" d="M NaN NaN L NaN0.0170572143495386,0.0170572143495386 NaN L NaN0.0170572143495386,0.0170572143495386 NaN L NaN NaN L NaN NaN" />
  </g>
  <gundefined>
    <path style="fill:#26D96C; stroke-width:0.005; stroke:#000000; stroke-opacity:1; stroke-linecap:round;" d="M NaN NaN L NaN0.009022497716315876,0.009022497716315876 NaN L NaN0.009022497716315876,0.009022497716315876 NaN L NaN NaN L NaN NaN" />
  </g>
  <gundefined>
    <path style="fill:#3CD926; stroke-width:0.005; stroke:#000000; stroke-opacity:1; stroke-linecap:round;" d="M NaN NaN L NaN0.015607099355642194,0.015607099355642194 NaN L NaN0.015607099355642194,0.015607099355642194 NaN L NaN NaN L NaN NaN" />
  </g>
  <gundefined>
    <path style="fill:#2690D9; stroke-width:0.005; stroke:#000000; stroke-opacity:1; stroke-linecap:round;" d="M NaN NaN L NaN0.00943827683817345,0.00943827683817345 NaN L NaN0.00943827683817345,0.00943827683817345 NaN L NaN NaN L NaN NaN" />
  </g>
  <gundefined>
    <path style="fill:#D97F26; stroke-width:0.005; stroke:#000000; stroke-opacity:1; stroke-linecap:round;" d="M NaN NaN L NaN0.014148860399394222,0.014148860399394222 NaN L NaN0.014148860399394222,0.014148860399394222 NaN L NaN NaN L NaN NaN" />
  </g>
  <gundefined>
    <path style="fill:#2698D9; stroke-width:0.005; stroke:#000000; stroke-opacity:1; stroke-linecap:round;" d="M NaN NaN L NaN0.011639364681731212,0.011639364681731212 NaN L NaN0.011639364681731212,0.011639364681731212 NaN L NaN NaN L NaN NaN" />
  </g>
  <gundefined>
    <path style="fill:#26D926; stroke-width:0.005; stroke:#000000; stroke-opacity:1; stroke-linecap:round;" d="M NaN NaN L NaN0.02171897207508035,0.02171897207508035 NaN L NaN0.02171897207508035,0.02171897207508035 NaN L NaN NaN L NaN NaN" />
  </g>
  <gundefined>
    <path style="fill:#BC26D9; stroke-width:0.005; stroke:#000000; stroke-opacity:1; stroke-linecap:round;" d="M NaN NaN L NaN0.023837314077450322,0.023837314077450322 NaN L NaN0.023837314077450322,0.023837314077450322 NaN L NaN NaN L NaN NaN" />
  </g>
  <gundefined>
    <path style="fill:#2687D9; stroke-width:0.005; stroke:#000000; stroke-opacity:1; stroke-linecap:round;" d="M NaN NaN L NaN0.011534144940155968,0.011534144940155968 NaN L NaN0.011534144940155968,0.011534144940155968 NaN L NaN NaN L NaN NaN" />
  </g>
  <gundefined>
    <path style="fill:#D96626; stroke-width:0.005; stroke:#000000; stroke-opacity:1; stroke-linecap:round;" d="M NaN NaN L NaN0.014774501209829198,0.014774501209829198 NaN L NaN0.014774501209829198,0.014774501209829198 NaN L NaN NaN L NaN NaN" />
  </g>
  <gundefined>
    <path style="fill:#26B6D9; stroke-width:0.005; stroke:#000000; stroke-opacity:1; stroke-linecap:round;" d="M NaN NaN L NaN0.016426778087233293,0.016426778087233293 NaN L NaN0.016426778087233293,0.016426778087233293 NaN L NaN NaN L NaN NaN" />
  </g>
  <gundefined>
    <path style="fill:#5426D9; stroke-width:0.005; stroke:#000000; stroke-opacity:1; stroke-linecap:round;" d="M NaN NaN L NaN0.01668515934524618,0.01668515934524618 NaN L NaN0.01668515934524618,0.01668515934524618 NaN L NaN NaN L NaN NaN" />
  </g>
  <gundefined>
    <path style="fill:#26D942; stroke-width:0.005; stroke:#000000; stroke-opacity:1; stroke-linecap:round;" d="M NaN NaN L NaN0.010437419907010572,0.010437419907010572 NaN L NaN0.010437419907010572,0.010437419907010572 NaN L NaN NaN L NaN NaN" />
  </g>
  <gundefined>
    <path style="fill:#D99626; stroke-width:0.005; stroke:#000000; stroke-opacity:1; stroke-linecap:round;" d="M NaN NaN L NaN0.012590277337137482,0.012590277337137482 NaN L NaN0.012590277337137482,0.012590277337137482 NaN L NaN NaN L NaN NaN" />
  </g>
  <gundefined>
    <path style="fill:#26D9C9; stroke-width:0.005; stroke:#000000; stroke-opacity:1; stroke-linecap:round;" d="M NaN NaN L NaN0.02328422681123498,0.02328422681123498 NaN L NaN0.02328422681123498,0.02328422681123498 NaN L NaN NaN L NaN NaN" />
  </g>
  <gundefined>
    <path style="fill:#D94526; stroke-width:0.005; stroke:#000000; stroke-opacity:1; stroke-linecap:round;" d="M NaN NaN L NaN0.017758911684437446,0.017758911684437446 NaN L NaN0.017758911684437446,0.017758911684437446 NaN L NaN NaN L NaN NaN" />
  </g>
  <gundefined>
    <path style="fill:#D926A4; stroke-width:0.005; stroke:#000000; stroke-opacity:1; stroke-linecap:round;" d="M NaN NaN L NaN0.01299933279101527,0.01299933279101527 NaN L NaN0.01299933279101527,0.01299933279101527 NaN L NaN NaN L NaN NaN" />
  </g>
  <gundefined>
    <path style="fill:#2674D9; stroke-width:0.005; stroke:#000000; stroke-opacity:1; stroke-linecap:round;" d="M NaN NaN L NaN0.021450347891957315,0.021450347891957315 NaN L NaN0.021450347891957315,0.021450347891957315 NaN L NaN NaN L NaN NaN" />
  </g>
  <gundefined>
    <path style="fill:#D92697; stroke-width:0.005; stroke:#000000; stroke-opacity:1; stroke-linecap:round;" d="M NaN NaN L NaN0.02091007310639786,0.02091007310639786 NaN L NaN0.02091007310639786,0.02091007310639786 NaN L NaN NaN L NaN NaN" />
  </g>
  <gundefined>
    <path style="fill:#D93626; stroke-width:0.005; stroke:#000000; stroke-opacity:1; stroke-linecap:round;" d="M NaN NaN L NaN0.011939116082051391,0.011939116082051391 NaN L NaN0.011939116082051391,0.011939116082051391 NaN L NaN NaN L NaN NaN" />
  </g>
  <gundefined>
    <path style="fill:#A4D926; stroke-width:0.005; stroke:#000000; stroke-opacity:1; stroke-linecap:round;" d="M NaN NaN L NaN0.014048508606891073,0.014048508606891073 NaN L NaN0.014048508606891073,0.014048508606891073 NaN L NaN NaN L NaN NaN" />
  </g>
  <gundefined>
    <path style="fill:#262ED9; stroke-width:0.005; stroke:#000000; stroke-opacity:1; stroke-linecap:round;" d="M NaN NaN L NaN0.023151918981039736,0.023151918981039736 NaN L NaN0.023151918981039736,0.023151918981039736 NaN L NaN NaN L NaN NaN" />
  </g>
  <gundefined>
    <path style="fill:#5D26D9; stroke-width:0.005; stroke:#000000; stroke-opacity:1; stroke-linecap:round;" d="M NaN NaN L NaN0.010800046031010492,0.010800046031010492 NaN L NaN0.010800046031010492,0.010800046031010492 NaN L NaN NaN L NaN NaN" />
  </g>
  <gundefined>
    <path style="fill:#6C26D9; stroke-width:0.005; stroke:#000000; stroke-opacity:1; stroke-linecap:round;" d="M NaN NaN L NaN0.013731842998777537,0.013731842998777537 NaN L NaN0.013731842998777537,0.013731842998777537 NaN L NaN NaN L NaN NaN" />
  </g>
  <gundefined>
    <path style="fill:#D92691; stroke-width:0.005; stroke:#000000; stroke-opacity:1; stroke-linecap:round;" d="M NaN NaN L NaN0.015756920302741267,0.015756920302741267 NaN L NaN0.015756920302741267,0.015756920302741267 NaN L NaN NaN L NaN NaN" />
  </g>
  <gundefined>
    <path style="fill:#D92D26; stroke-width:0.005; stroke:#000000; stroke-opacity:1; stroke-linecap:round;" d="M NaN NaN L NaN0.02175358189882788,0.02175358189882788 NaN L NaN0.02175358189882788,0.02175358189882788 NaN L NaN NaN L NaN NaN" />
  </g>
  <gundefined>
    <path style="fill:#D94D26; stroke-width:0.005; stroke:#000000; stroke-opacity:1; stroke-linecap:round;" d="M NaN NaN L NaN0.010471697354933047,0.010471697354933047 NaN L NaN0.010471697354933047,0.010471697354933047 NaN L NaN NaN L NaN NaN" />
  </g>
  <gundefined>
    <path style="fill:#D92642; stroke-width:0.005; stroke:#000000; stroke-opacity:1; stroke-linecap:round;" d="M NaN NaN L NaN0.02284234665423325,0.02284234665423325 NaN L NaN0.02284234665423325,0.02284234665423325 NaN L NaN NaN L NaN NaN" />
  </g>
  <gundefined>
    <path style="fill:#2675D9; stroke-width:0.005; stroke:#000000; stroke-opacity:1; stroke-linecap:round;" d="M NaN NaN L NaN0.0179342706817238,0.0179342706817238 NaN L NaN0.0179342706817238,0.0179342706817238 NaN L NaN NaN L NaN NaN" />
  </g>
  <gundefined>
    <path style="fill:#26D9CD; stroke-width:0.005; stroke:#000000; stroke-opacity:1; stroke-linecap:round;" d="M NaN NaN L NaN0.02204618619573295,0.02204618619573295 NaN L NaN0.02204618619573295,0.02204618619573295 NaN L NaN NaN L NaN NaN" />
  </g>
  <gundefined>
    <path style="fill:#D92683; stroke-width:0.005; stroke:#000000; stroke-opacity:1; stroke-linecap:round;" d="M NaN NaN L NaN0.020979168985151633,0.020979168985151633 NaN L NaN0.020979168985151633,0.020979168985151633 NaN L NaN NaN L NaN NaN" />
  </g>
  <gundefined>
    <path style="fill:#CA26D9; stroke-width:0.005; stroke:#000000; stroke-opacity:1; stroke-linecap:round;" d="M NaN NaN L NaN0.011389460822447944,0.011389460822447944 NaN L NaN0.011389460822447944,0.011389460822447944 NaN L NaN NaN L NaN NaN" />
  </g>
  <gundefined>
    <path style="fill:#2669D9; stroke-width:0.005; stroke:#000000; stroke-opacity:1; stroke-linecap:round;" d="M NaN NaN L NaN0.01825602109337144,0.01825602109337144 NaN L NaN0.01825602109337144,0.01825602109337144 NaN L NaN NaN L NaN NaN" />
  </g>
  <gundefined>
    <path style="fill:#26B3D9; stroke-width:0.005; stroke:#000000; stroke-opacity:1; stroke-linecap:round;" d="M NaN NaN L NaN0.011934887560002376,0.011934887560002376 NaN L NaN0.011934887560002376,0.011934887560002376 NaN L NaN NaN L NaN NaN" />
  </g>
  <gundefined>
    <path style="fill:#D9B426; stroke-width:0.005; stroke:#000000; stroke-opacity:1; stroke-linecap:round;" d="M NaN NaN L NaN0.01589587516746846,0.01589587516746846 NaN L NaN0.01589587516746846,0.01589587516746846 NaN L NaN NaN L NaN NaN" />
  </g>
  <gundefined>
    <path style="fill:#A926D9; stroke-width:0.005; stroke:#000000; stroke-opacity:1; stroke-linecap:round;" d="M NaN NaN L NaN0.02229203921769731,0.02229203921769731 NaN L NaN0.02229203921769731,0.02229203921769731 NaN L NaN NaN L NaN NaN" />
  </g>
  <gundefined>
    <path style="fill:#D98E26; stroke-width:0.005; stroke:#000000; stroke-opacity:1; stroke-linecap:round;" d="M NaN NaN L NaN0.018609749052940223,0.018609749052940223 NaN L NaN0.018609749052940223,0.018609749052940223 NaN L NaN NaN L NaN NaN" />
  </g>
  <gundefined>
    <path style="fill:#D99A26; stroke-width:0.005; stroke:#000000; stroke-opacity:1; stroke-linecap:round;" d="M NaN NaN L NaN0.013138300414091945,0.013138300414091945 NaN L NaN0.013138300414091945,0.013138300414091945 NaN L NaN NaN L NaN NaN" />
  </g>
  <gundefined>
    <path style="fill:#D92663; stroke-width:0.005; stroke:#000000; stroke-opacity:1; stroke-linecap:round;" d="M NaN NaN L NaN0.014680478452806213,0.014680478452806213 NaN L NaN0.014680478452806213,0.014680478452806213 NaN L NaN NaN L NaN NaN" />
  </g>
  <gundefined>
    <path style="fill:#26D9A3; stroke-width:0.005; stroke:#000000; stroke-opacity:1; stroke-linecap:round;" d="M NaN NaN L NaN0.015481820759669264,0.015481820759669264 NaN L NaN0.015481820759669264,0.015481820759669264 NaN L NaN NaN L NaN NaN" />
  </g>
  <gundefined>
    <path style="fill:#D98A26; stroke-width:0.005; stroke:#000000; stroke-opacity:1; stroke-linecap:round;" d="M NaN NaN L NaN0.021510101814439457,0.021510101814439457 NaN L NaN0.021510101814439457,0.021510101814439457 NaN L NaN NaN L NaN NaN" />
  </g>
  <gundefined>
    <path style="fill:#D9262B; stroke-width:0.005; stroke:#000000; stroke-opacity:1; stroke-linecap:round;" d="M NaN NaN L NaN0.01346119828228888,0.01346119828228888 NaN L NaN0.01346119828228888,0.01346119828228888 NaN L NaN NaN L NaN NaN" />
  </g>
  <gundefined>
    <path style="fill:#26AFD9; stroke-width:0.005; stroke:#000000; stroke-opacity:1; stroke-linecap:round;" d="M NaN NaN L NaN0.010809702133633484,0.010809702133633484 NaN L NaN0.010809702133633484,0.010809702133633484 NaN L NaN NaN L NaN NaN" />
  </g>
  <gundefined>
    <path style="fill:#8226D9; stroke-width:0.005; stroke:#000000; stroke-opacity:1; stroke-linecap:round;" d="M NaN NaN L NaN0.021870906294204677,0.021870906294204677 NaN L NaN0.021870906294204677,0.021870906294204677 NaN L NaN NaN L NaN NaN" />
  </g>
  <gundefined>
    <path style="fill:#D92633; stroke-width:0.005; stroke:#000000; stroke-opacity:1; stroke-linecap:round;" d="M NaN NaN L NaN0.016814497207161064,0.016814497207161064 NaN L NaN0.016814497207161064,0.016814497207161064 NaN L NaN NaN L NaN NaN" />
  </g>
  <gundefined>
    <path style="fill:#D92671; stroke-width:0.005; stroke:#000000; stroke-opacity:1; stroke-linecap:round;" d="M NaN NaN L NaN0.02188419782157117,0.02188419782157117 NaN L NaN0.02188419782157117,0.02188419782157117 NaN L NaN NaN L NaN NaN" />
  </g>
  <gundefined>
    <path style="fill:#8926D9; stroke-width:0.005; stroke:#000000; stroke-opacity:1; stroke-linecap:round;" d="M NaN NaN L NaN0.021441540704287956,0.021441540704287956 NaN L NaN0.021441540704287956,0.021441540704287956 NaN L NaN NaN L NaN NaN" />
  </g>
  <gundefined>
    <path style="fill:#D98826; stroke-width:0.005; stroke:#000000; stroke-opacity:1; stroke-linecap:round;" d="M NaN NaN L NaN0.010508919100129766,0.010508919100129766 NaN L NaN0.010508919100129766,0.010508919100129766 NaN L NaN NaN L NaN NaN" />
  </g>
  <gundefined>
    <path style="fill:#D9265B; stroke-width:0.005; stroke:#000000; stroke-opacity:1; stroke-linecap:round;" d="M NaN NaN L NaN0.017023401609010804,0.017023401609010804 NaN L NaN0.017023401609010804,0.017023401609010804 NaN L NaN NaN L NaN NaN" />
  </g>
  <gundefined>
    <path style="fill:#62D926; stroke-width:0.005; stroke:#000000; stroke-opacity:1; stroke-linecap:round;" d="M NaN NaN L NaN0.014060229988745364,0.014060229988745364 NaN L NaN0.014060229988745364,0.014060229988745364 NaN L NaN NaN L NaN NaN" />
  </g>
  <gundefined>
    <path style="fill:#26C0D9; stroke-width:0.005; stroke:#000000; stroke-opacity:1; stroke-linecap:round;" d="M NaN NaN L NaN0.01041342197841373,0.01041342197841373 NaN L NaN0.01041342197841373,0.01041342197841373 NaN L NaN NaN L NaN NaN" />
  </g>
  <gundefined>
    <path style="fill:#94D926; stroke-width:0.005; stroke:#000000; stroke-opacity:1; stroke-linecap:round;" d="M NaN NaN L NaN0.01986840110060263,0.01986840110060263 NaN L NaN0.01986840110060263,0.01986840110060263 NaN L NaN NaN L NaN NaN" />
  </g>
  <gundefined>
    <path style="fill:#D92699; stroke-width:0.005; stroke:#000000; stroke-opacity:1; stroke-linecap:round;" d="M NaN NaN L NaN0.017132841667130215,0.017132841667130215 NaN L NaN0.017132841667130215,0.017132841667130215 NaN L NaN NaN L NaN NaN" />
  </g>
  <gundefined>
    <path style="fill:#D97326; stroke-width:0.005; stroke:#000000; stroke-opacity:1; stroke-linecap:round;" d="M NaN NaN L NaN0.01548224212574296,0.01548224212574296 NaN L NaN0.01548224212574296,0.01548224212574296 NaN L NaN NaN L NaN NaN" />
  </g>
  <gundefined>
    <path style="fill:#26D994; stroke-width:0.005; stroke:#000000; stroke-opacity:1; stroke-linecap:round;" d="M NaN NaN L NaN0.020214734554587974,0.020214734554587974 NaN L NaN0.020214734554587974,0.020214734554587974 NaN L NaN NaN L NaN NaN" />
  </g>
  <gundefined>
    <path style="fill:#268FD9; stroke-width:0.005; stroke:#000000; stroke-opacity:1; stroke-linecap:round;" d="M NaN NaN L NaN0.022030300302531603,0.022030300302531603 NaN L NaN0.022030300302531603,0.022030300302531603 NaN L NaN NaN L NaN NaN" />
  </g>
  <gundefined>
    <path style="fill:#D9C426; stroke-width:0.005; stroke:#000000; stroke-opacity:1; stroke-linecap:round;" d="M NaN NaN L NaN0.017396504363044754,0.017396504363044754 NaN L NaN0.017396504363044754,0.017396504363044754 NaN L NaN NaN L NaN NaN" />
  </g>
  <gundefined>
    <path style="fill:#BF26D9; stroke-width:0.005; stroke:#000000; stroke-opacity:1; stroke-linecap:round;" d="M NaN NaN L NaN0.009033498102543742,0.009033498102543742 NaN L NaN0.009033498102543742,0.009033498102543742 NaN L NaN NaN L NaN NaN" />
  </g>
  <gundefined>
    <path style="fill:#86D926; stroke-width:0.005; stroke:#000000; stroke-opacity:1; stroke-linecap:round;" d="M NaN NaN L NaN0.016850195718489374,0.016850195718489374 NaN L NaN0.016850195718489374,0.016850195718489374 NaN L NaN NaN L NaN NaN" />
  </g>
  <gundefined>
    <path style="fill:#7E26D9; stroke-width:0.005; stroke:#000000; stroke-opacity:1; stroke-linecap:round;" d="M NaN NaN L NaN0.014198103929546926,0.014198103929546926 NaN L NaN0.014198103929546926,0.014198103929546926 NaN L NaN NaN L NaN NaN" />
  </g>
  <gundefined>
    <path style="fill:#D92680; stroke-width:0.005; stroke:#000000; stroke-opacity:1; stroke-linecap:round;" d="M NaN NaN L NaN0.01587163904182089,0.01587163904182089 NaN L NaN0.01587163904182089,0.01587163904182089 NaN L NaN NaN L NaN NaN" />
  </g>
  <gundefined>
    <path style="fill:#2677D9; stroke-width:0.005; stroke:#000000; stroke-opacity:1; stroke-linecap:round;" d="M NaN NaN L NaN0.01625613273815424,0.01625613273815424 NaN L NaN0.01625613273815424,0.01625613273815424 NaN L NaN NaN L NaN NaN" />
  </g>
  <gundefined>
    <path style="fill:#D95126; stroke-width:0.005; stroke:#000000; stroke-opacity:1; stroke-linecap:round;" d="M NaN NaN L NaN0.019695294411447097,0.019695294411447097 NaN L NaN0.019695294411447097,0.019695294411447097 NaN L NaN NaN L NaN NaN" />
  </g>
  <gundefined>
    <path style="fill:#7ED926; stroke-width:0.005; stroke:#000000; stroke-opacity:1; stroke-linecap:round;" d="M NaN NaN L NaN0.019311171584367327,0.019311171584367327 NaN L NaN0.019311171584367327,0.019311171584367327 NaN L NaN NaN L NaN NaN" />
  </g>
  <gundefined>
    <path style="fill:#D93E26; stroke-width:0.005; stroke:#000000; stroke-opacity:1; stroke-linecap:round;" d="M NaN NaN L NaN0.01136573354668484,0.01136573354668484 NaN L NaN0.01136573354668484,0.01136573354668484 NaN L NaN NaN L NaN NaN" />
  </g>
  <gundefined>
    <path style="fill:#D9266A; stroke-width:0.005; stroke:#000000; stroke-opacity:1; stroke-linecap:round;" d="M NaN NaN L NaN0.013940306441462554,0.013940306441462554 NaN L NaN0.013940306441462554,0.013940306441462554 NaN L NaN NaN L NaN NaN" />
  </g>
  <gundefined>
    <path style="fill:#2646D9; stroke-width:0.005; stroke:#000000; stroke-opacity:1; stroke-linecap:round;" d="M NaN NaN L NaN0.01845017806030046,0.01845017806030046 NaN L NaN0.01845017806030046,0.01845017806030046 NaN L NaN NaN L NaN NaN" />
  </g>
  <gundefined>
    <path style="fill:#26D972; stroke-width:0.005; stroke:#000000; stroke-opacity:1; stroke-linecap:round;" d="M NaN NaN L NaN0.009156777896245822,0.009156777896245822 NaN L NaN0.009156777896245822,0.009156777896245822 NaN L NaN NaN L NaN NaN" />
  </g>
  <gundefined>
    <path style="fill:#D95626; stroke-width:0.005; stroke:#000000; stroke-opacity:1; stroke-linecap:round;" d="M NaN NaN L NaN0.013086514440091374,0.013086514440091374 NaN L NaN0.013086514440091374,0.013086514440091374 NaN L NaN NaN L NaN NaN" />
  </g>
  <gundefined>
    <path style="fill:#26D947; stroke-width:0.005; stroke:#000000; stroke-opacity:1; stroke-linecap:round;" d="M NaN NaN L NaN0.010033328148172089,0.010033328148172089 NaN L NaN0.010033328148172089,0.010033328148172089 NaN L NaN NaN L NaN NaN" />
  </g>
  <gundefined>
    <path style="fill:#4CD926; stroke-width:0.005; stroke:#000000; stroke-opacity:1; stroke-linecap:round;" d="M NaN NaN L NaN0.020979770500227868,0.020979770500227868 NaN L NaN0.020979770500227868,0.020979770500227868 NaN L NaN NaN L NaN NaN" />
  </g>
  <gundefined>
    <path style="fill:#D92645; stroke-width:0.005; stroke:#000000; stroke-opacity:1; stroke-linecap:round;" d="M NaN NaN L NaN0.014338665587840383,0.014338665587840383 NaN L NaN0.014338665587840383,0.014338665587840383 NaN L NaN NaN L NaN NaN" />
  </g>
  <gundefined>
    <path style="fill:#2656D9; stroke-width:0.005; stroke:#000000; stroke-opacity:1; stroke-linecap:round;" d="M NaN NaN L NaN0.009572423360685279,0.009572423360685279 NaN L NaN0.009572423360685279,0.009572423360685279 NaN L NaN NaN L NaN NaN" />
  </g>
  <gundefined>
    <path style="fill:#3826D9; stroke-width:0.005; stroke:#000000; stroke-opacity:1; stroke-linecap:round;" d="M NaN NaN L NaN0.01242763607686871,0.01242763607686871 NaN L NaN0.01242763607686871,0.01242763607686871 NaN L NaN NaN L NaN NaN" />
  </g>
  <gundefined>
    <path style="fill:#D9264F; stroke-width:0.005; stroke:#000000; stroke-opacity:1; stroke-linecap:round;" d="M NaN NaN L NaN0.010951243278084312,0.010951243278084312 NaN L NaN0.010951243278084312,0.010951243278084312 NaN L NaN NaN L NaN NaN" />
  </g>
  <gundefined>
    <path style="fill:#D93A26; stroke-width:0.005; stroke:#000000; stroke-opacity:1; stroke-linecap:round;" d="M NaN NaN L NaN0.021178397272866686,0.021178397272866686 NaN L NaN0.021178397272866686,0.021178397272866686 NaN L NaN NaN L NaN NaN" />
  </g>
  <gundefined>
    <path style="fill:#26D984; stroke-width:0.005; stroke:#000000; stroke-opacity:1; stroke-linecap:round;" d="M NaN NaN L NaN0.013711564970141456,0.013711564970141456 NaN L NaN0.013711564970141456,0.013711564970141456 NaN L NaN NaN L NaN NaN" />
  </g>
  <gundefined>
    <path style="fill:#D9C026; stroke-width:0.005; stroke:#000000; stroke-opacity:1; stroke-linecap:round;" d="M NaN NaN L NaN0.016001204594048753,0.016001204594048753 NaN L NaN0.016001204594048753,0.016001204594048753 NaN L NaN NaN L NaN NaN" />
  </g>
  <gundefined>
    <path style="fill:#3DD926; stroke-width:0.005; stroke:#000000; stroke-opacity:1; stroke-linecap:round;" d="M NaN NaN L NaN0.011592083312242285,0.011592083312242285 NaN L NaN0.011592083312242285,0.011592083312242285 NaN L NaN NaN L NaN NaN" />
  </g>
  <gundefined>
    <path style="fill:#7CD926; stroke-width:0.005; stroke:#000000; stroke-opacity:1; stroke-linecap:round;" d="M NaN NaN L NaN0.021288460406298056,0.021288460406298056 NaN L NaN0.021288460406298056,0.021288460406298056 NaN L NaN NaN L NaN NaN" />
  </g>
  <gundefined>
    <path style="fill:#D9D626; stroke-width:0.005; stroke:#000000; stroke-opacity:1; stroke-linecap:round;" d="M NaN NaN L NaN0.020823239932016496,0.020823239932016496 NaN L NaN0.020823239932016496,0.020823239932016496 NaN L NaN NaN L NaN NaN" />
  </g>
  <gundefined>
    <path style="fill:#A7D926; stroke-width:0.005; stroke:#000000; stroke-opacity:1; stroke-linecap:round;" d="M NaN NaN L NaN0.02110792308791095,0.02110792308791095 NaN L NaN0.02110792308791095,0.02110792308791095 NaN L NaN NaN L NaN NaN" />
  </g>
  <gundefined>
    <path style="fill:#D9269B; stroke-width:0.005; stroke:#000000; stroke-opacity:1; stroke-linecap:round;" d="M NaN NaN L NaN0.012771210467438999,0.012771210467438999 NaN L NaN0.012771210467438999,0.012771210467438999 NaN L NaN NaN L NaN NaN" />
  </g>
  <gundefined>
    <path style="fill:#2726D9; stroke-width:0.005; stroke:#000000; stroke-opacity:1; stroke-linecap:round;" d="M NaN NaN L NaN0.023834441431407876,0.023834441431407876 NaN L NaN0.023834441431407876,0.023834441431407876 NaN L NaN NaN L NaN NaN" />
  </g>
  <gundefined>
    <path style="fill:#D9268A; stroke-width:0.005; stroke:#000000; stroke-opacity:1; stroke-linecap:round;" d="M NaN NaN L NaN0.017681965192491034,0.017681965192491034 NaN L NaN0.017681965192491034,0.017681965192491034 NaN L NaN NaN L NaN NaN" />
  </g>
  <gundefined>
    <path style="fill:#26C6D9; stroke-width:0.005; stroke:#000000; stroke-opacity:1; stroke-linecap:round;" d="M NaN NaN L NaN0.016308335854031897,0.016308335854031897 NaN L NaN0.016308335854031897,0.016308335854031897 NaN L NaN NaN L NaN NaN" />
  </g>
  <gundefined>
    <path style="fill:#D92680; stroke-width:0.005; stroke:#000000; stroke-opacity:1; stroke-linecap:round;" d="M NaN NaN L NaN0.014045727908519686,0.014045727908519686 NaN L NaN0.014045727908519686,0.014045727908519686 NaN L NaN NaN L NaN NaN" />
  </g>
  <gundefined>
    <path style="fill:#A826D9; stroke-width:0.005; stroke:#000000; stroke-opacity:1; stroke-linecap:round;" d="M NaN NaN L NaN0.014816009134413591,0.014816009134413591 NaN L NaN0.014816009134413591,0.014816009134413591 NaN L NaN NaN L NaN NaN" />
  </g>
  <gundefined>
    <path style="fill:#26D93E; stroke-width:0.005; stroke:#000000; stroke-opacity:1; stroke-linecap:round;" d="M NaN NaN L NaN0.009572582778697674,0.009572582778697674 NaN L NaN0.009572582778697674,0.009572582778697674 NaN L NaN NaN L NaN NaN" />
  </g>
  <gundefined>
    <path style="fill:#D92641; stroke-width:0.005; stroke:#000000; stroke-opacity:1; stroke-linecap:round;" d="M NaN NaN L NaN0.0200515202787347,0.0200515202787347 NaN L NaN0.0200515202787347,0.0200515202787347 NaN L NaN NaN L NaN NaN" />
  </g>
  <gundefined>
    <path style="fill:#4C26D9; stroke-width:0.005; stroke:#000000; stroke-opacity:1; stroke-linecap:round;" d="M NaN NaN L NaN0.01755794033952528,0.01755794033952528 NaN L NaN0.01755794033952528,0.01755794033952528 NaN L NaN NaN L NaN NaN" />
  </g>
  <gundefined>
    <path style="fill:#5E26D9; stroke-width:0.005; stroke:#000000; stroke-opacity:1; stroke-linecap:round;" d="M NaN NaN L NaN0.022846697443355955,0.022846697443355955 NaN L NaN0.022846697443355955,0.022846697443355955 NaN L NaN NaN L NaN NaN" />
  </g>
  <gundefined>
    <path style="fill:#26D98C; stroke-width:0.005; stroke:#000000; stroke-opacity:1; stroke-linecap:round;" d="M NaN NaN L NaN0.016312613570782637,0.016312613570782637 NaN L NaN0.016312613570782637,0.016312613570782637 NaN L NaN NaN L NaN NaN" />
  </g>
  <gundefined>
    <path style="fill:#2686D9; stroke-width:0.005; stroke:#000000; stroke-opacity:1; stroke-linecap:round;" d="M NaN NaN L NaN0.02050994606350984,0.02050994606350984 NaN L NaN0.02050994606350984,0.02050994606350984 NaN L NaN NaN L NaN NaN" />
  </g>
  <gundefined>
    <path style="fill:#8026D9; stroke-width:0.005; stroke:#000000; stroke-opacity:1; stroke-linecap:round;" d="M NaN NaN L NaN0.020466149636061037,0.020466149636061037 NaN L NaN0.020466149636061037,0.020466149636061037 NaN L NaN NaN L NaN NaN" />
  </g>
  <gundefined>
    <path style="fill:#D926B0; stroke-width:0.005; stroke:#000000; stroke-opacity:1; stroke-linecap:round;" d="M NaN NaN L NaN0.009068686556204401,0.009068686556204401 NaN L NaN0.009068686556204401,0.009068686556204401 NaN L NaN NaN L NaN NaN" />
  </g>
  <gundefined>
    <path style="fill:#26B8D9; stroke-width:0.005; stroke:#000000; stroke-opacity:1; stroke-linecap:round;" d="M NaN NaN L NaN0.012327860462251917,0.012327860462251917 NaN L NaN0.012327860462251917,0.012327860462251917 NaN L NaN NaN L NaN NaN" />
  </g>
  <gundefined>
    <path style="fill:#6C26D9; stroke-width:0.005; stroke:#000000; stroke-opacity:1; stroke-linecap:round;" d="M NaN NaN L NaN0.022249419853977874,0.022249419853977874 NaN L NaN0.022249419853977874,0.022249419853977874 NaN L NaN NaN L NaN NaN" />
  </g>
  <gundefined>
    <path style="fill:#D92680; stroke-width:0.005; stroke:#000000; stroke-opacity:1; stroke-linecap:round;" d="M NaN NaN L NaN0.01738359938113873,0.01738359938113873 NaN L NaN0.01738359938113873,0.01738359938113873 NaN L NaN NaN L NaN NaN" />
  </g>
  <gundefined>
    <path style="fill:#B9D926; stroke-width:0.005; stroke:#000000; stroke-opacity:1; stroke-linecap:round;" d="M NaN NaN L NaN0.015587498314597922,0.015587498314597922 NaN L NaN0.015587498314597922,0.015587498314597922 NaN L NaN NaN L NaN NaN" />
  </g>
  <gundefined>
    <path style="fill:#2632D9; stroke-width:0.005; stroke:#000000; stroke-opacity:1; stroke-linecap:round;" d="M NaN NaN L NaN0.02083165527254559,0.02083165527254559 NaN L NaN0.02083165527254559,0.02083165527254559 NaN L NaN NaN L NaN NaN" />
  </g>
  <gundefined>
    <path style="fill:#66D926; stroke-width:0.005; stroke:#000000; stroke-opacity:1; stroke-linecap:round;" d="M NaN NaN L NaN0.01663241805327047,0.01663241805327047 NaN L NaN0.01663241805327047,0.01663241805327047 NaN L NaN NaN L NaN NaN" />
  </g>
  <gundefined>
    <path style="fill:#D9263A; stroke-width:0.005; stroke:#000000; stroke-opacity:1; stroke-linecap:round;" d="M NaN NaN L NaN0.018825784095144106,0.018825784095144106 NaN L NaN0.018825784095144106,0.018825784095144106 NaN L NaN NaN L NaN NaN" />
  </g>
  <gundefined>
    <path style="fill:#D9C426; stroke-width:0.005; stroke:#000000; stroke-opacity:1; stroke-linecap:round;" d="M NaN NaN L NaN0.013463885661225637,0.013463885661225637 NaN L NaN0.013463885661225637,0.013463885661225637 NaN L NaN NaN L NaN NaN" />
  </g>
  <gundefined>
    <path style="fill:#26D97C; stroke-width:0.005; stroke:#000000; stroke-opacity:1; stroke-linecap:round;" d="M NaN NaN L NaN0.018245043229212426,0.018245043229212426 NaN L NaN0.018245043229212426,0.018245043229212426 NaN L NaN NaN L NaN NaN" />
  </g>
  <gundefined>
    <path style="fill:#D926A1; stroke-width:0.005; stroke:#000000; stroke-opacity:1; stroke-linecap:round;" d="M NaN NaN L NaN0.02050670538817891,0.02050670538817891 NaN L NaN0.02050670538817891,0.02050670538817891 NaN L NaN NaN L NaN NaN" />
  </g>
  <gundefined>
    <path style="fill:#6FD926; stroke-width:0.005; stroke:#000000; stroke-opacity:1; stroke-linecap:round;" d="M NaN NaN L NaN0.010090388876059155,0.010090388876059155 NaN L NaN0.010090388876059155,0.010090388876059155 NaN L NaN NaN L NaN NaN" />
  </g>
  <gundefined>
    <path style="fill:#2656D9; stroke-width:0.005; stroke:#000000; stroke-opacity:1; stroke-linecap:round;" d="M NaN NaN L NaN0.011561853031313206,0.011561853031313206 NaN L NaN0.011561853031313206,0.011561853031313206 NaN L NaN NaN L NaN NaN" />
  </g>
  <gundefined>
    <path style="fill:#3426D9; stroke-width:0.005; stroke:#000000; stroke-opacity:1; stroke-linecap:round;" d="M NaN NaN L NaN0.013543445231120622,0.013543445231120622 NaN L NaN0.013543445231120622,0.013543445231120622 NaN L NaN NaN L NaN NaN" />
  </g>
  <gundefined>
    <path style="fill:#D95B26; stroke-width:0.005; stroke:#000000; stroke-opacity:1; stroke-linecap:round;" d="M NaN NaN L NaN0.018012971461747754,0.018012971461747754 NaN L NaN0.018012971461747754,0.018012971461747754 NaN L NaN NaN L NaN NaN" />
  </g>
  <gundefined>
    <path style="fill:#B326D9; stroke-width:0.005; stroke:#000000; stroke-opacity:1; stroke-linecap:round;" d="M NaN NaN L NaN0.0205714912995148,0.0205714912995148 NaN L NaN0.0205714912995148,0.0205714912995148 NaN L NaN NaN L NaN NaN" />
  </g>
  <gundefined>
    <path style="fill:#D92640; stroke-width:0.005; stroke:#000000; stroke-opacity:1; stroke-linecap:round;" d="M NaN NaN L NaN0.012060324838233053,0.012060324838233053 NaN L NaN0.012060324838233053,0.012060324838233053 NaN L NaN NaN L NaN NaN" />
  </g>
  <gundefined>
    <path style="fill:#D926C7; stroke-width:0.005; stroke:#000000; stroke-opacity:1; stroke-linecap:round;" d="M NaN NaN L NaN0.019401037369335836,0.019401037369335836 NaN L NaN0.019401037369335836,0.019401037369335836 NaN L NaN NaN L NaN NaN" />
  </g>
  <gundefined>
    <path style="fill:#2692D9; stroke-width:0.005; stroke:#000000; stroke-opacity:1; stroke-linecap:round;" d="M NaN NaN L NaN0.02197461791439058,0.02197461791439058 NaN L NaN0.02197461791439058,0.02197461791439058 NaN L NaN NaN L NaN NaN" />
  </g>
  <gundefined>
    <path style="fill:#4426D9; stroke-width:0.005; stroke:#000000; stroke-opacity:1; stroke-linecap:round;" d="M NaN NaN L NaN0.009400290898265584,0.009400290898265584 NaN L NaN0.009400290898265584,0.009400290898265584 NaN L NaN NaN L NaN NaN" />
  </g>
  <gundefined>
    <path style="fill:#8326D9; stroke-width:0.005; stroke:#000000; stroke-opacity:1; stroke-linecap:round;" d="M NaN NaN L NaN0.01214450472771075,0.01214450472771075 NaN L NaN0.01214450472771075,0.01214450472771075 NaN L NaN NaN L NaN NaN" />
  </g>
  <gundefined>
    <path style="fill:#39D926; stroke-width:0.005; stroke:#000000; stroke-opacity:1; stroke-linecap:round;" d="M NaN NaN L NaN0.01154796420413462,0.01154796420413462 NaN L NaN0.01154796420413462,0.01154796420413462 NaN L NaN NaN L NaN NaN" />
  </g>
  <gundefined>
    <path style="fill:#76D926; stroke-width:0.005; stroke:#000000; stroke-opacity:1; stroke-linecap:round;" d="M NaN NaN L NaN0.01342710434328652,0.01342710434328652 NaN L NaN0.01342710434328652,0.01342710434328652 NaN L NaN NaN L NaN NaN" />
  </g>
  <gundefined>
    <path style="fill:#D98D26; stroke-width:0.005; stroke:#000000; stroke-opacity:1; stroke-linecap:round;" d="M NaN NaN L NaN0.013088774970824495,0.013088774970824495 NaN L NaN0.013088774970824495,0.013088774970824495 NaN L NaN NaN L NaN NaN" />
  </g>
  <gundefined>
    <path style="fill:#2BD926; stroke-width:0.005; stroke:#000000; stroke-opacity:1; stroke-linecap:round;" d="M NaN NaN L NaN0.012789088715154866,0.012789088715154866 NaN L NaN0.012789088715154866,0.012789088715154866 NaN L NaN NaN L NaN NaN" />
  </g>
  <gundefined>
    <path style="fill:#2698D9; stroke-width:0.005; stroke:#000000; stroke-opacity:1; stroke-linecap:round;" d="M NaN NaN L NaN0.011442993597429214,0.011442993597429214 NaN L NaN0.011442993597429214,0.011442993597429214 NaN L NaN NaN L NaN NaN" />
  </g>
  <gundefined>
    <path style="fill:#D98C26; stroke-width:0.005; stroke:#000000; stroke-opacity:1; stroke-linecap:round;" d="M NaN NaN L NaN0.01571481125274278,0.01571481125274278 NaN L NaN0.01571481125274278,0.01571481125274278 NaN L NaN NaN L NaN NaN" />
  </g>
  <gundefined>
    <path style="fill:#D92698; stroke-width:0.005; stroke:#000000; stroke-opacity:1; stroke-linecap:round;" d="M NaN NaN L NaN0.011934009441649518,0.011934009441649518 NaN L NaN0.011934009441649518,0.011934009441649518 NaN L NaN NaN L NaN NaN" />
  </g>
  <gundefined>
    <path style="fill:#D95D26; stroke-width:0.005; stroke:#000000; stroke-opacity:1; stroke-linecap:round;" d="M NaN NaN L NaN0.01947619604061051,0.01947619604061051 NaN L NaN0.01947619604061051,0.01947619604061051 NaN L NaN NaN L NaN NaN" />
  </g>
  <gundefined>
    <path style="fill:#D99126; stroke-width:0.005; stroke:#000000; stroke-opacity:1; stroke-linecap:round;" d="M NaN NaN L NaN0.014470957200451405,0.014470957200451405 NaN L NaN0.014470957200451405,0.014470957200451405 NaN L NaN NaN L NaN NaN" />
  </g>
  <gundefined>
    <path style="fill:#9F26D9; stroke-width:0.005; stroke:#000000; stroke-opacity:1; stroke-linecap:round;" d="M NaN NaN L NaN0.014923292014739699,0.014923292014739699 NaN L NaN0.014923292014739699,0.014923292014739699 NaN L NaN NaN L NaN NaN" />
  </g>
  <gundefined>
    <path style="fill:#BD26D9; stroke-width:0.005; stroke:#000000; stroke-opacity:1; stroke-linecap:round;" d="M NaN NaN L NaN0.014859116692338458,0.014859116692338458 NaN L NaN0.014859116692338458,0.014859116692338458 NaN L NaN NaN L NaN NaN" />
  </g>
  <gundefined>
    <path style="fill:#7ED926; stroke-width:0.005; stroke:#000000; stroke-opacity:1; stroke-linecap:round;" d="M NaN NaN L NaN0.01315718750496688,0.01315718750496688 NaN L NaN0.01315718750496688,0.01315718750496688 NaN L NaN NaN L NaN NaN" />
  </g>
  <gundefined>
    <path style="fill:#D9A326; stroke-width:0.005; stroke:#000000; stroke-opacity:1; stroke-linecap:round;" d="M NaN NaN L NaN0.01282298860842364,0.01282298860842364 NaN L NaN0.01282298860842364,0.01282298860842364 NaN L NaN NaN L NaN NaN" />
  </g>
  <gundefined>
    <path style="fill:#D92679; stroke-width:0.005; stroke:#000000; stroke-opacity:1; stroke-linecap:round;" d="M NaN NaN L NaN0.012075704154148624,0.012075704154148624 NaN L NaN0.012075704154148624,0.012075704154148624 NaN L NaN NaN L NaN NaN" />
  </g>
  <gundefined>
    <path style="fill:#6DD926; stroke-width:0.005; stroke:#000000; stroke-opacity:1; stroke-linecap:round;" d="M NaN NaN L NaN0.012246902045385658,0.012246902045385658 NaN L NaN0.012246902045385658,0.012246902045385658 NaN L NaN NaN L NaN NaN" />
  </g>
  <gundefined>
    <path style="fill:#D926CD; stroke-width:0.005; stroke:#000000; stroke-opacity:1; stroke-linecap:round;" d="M NaN NaN L NaN0.012500297719088177,0.012500297719088177 NaN L NaN0.012500297719088177,0.012500297719088177 NaN L NaN NaN L NaN NaN" />
  </g>
  <gundefined>
    <path style="fill:#D926BD; stroke-width:0.005; stroke:#000000; stroke-opacity:1; stroke-linecap:round;" d="M NaN NaN L NaN0.020536805382885,0.020536805382885 NaN L NaN0.020536805382885,0.020536805382885 NaN L NaN NaN L NaN NaN" />
  </g>
  <gundefined>
    <path style="fill:#D92682; stroke-width:0.005; stroke:#000000; stroke-opacity:1; stroke-linecap:round;" d="M NaN NaN L NaN0.02111062416687233,0.02111062416687233 NaN L NaN0.02111062416687233,0.02111062416687233 NaN L NaN NaN L NaN NaN" />
  </g>
  <gundefined>
    <path style="fill:#D9269F; stroke-width:0.005; stroke:#000000; stroke-opacity:1; stroke-linecap:round;" d="M NaN NaN L NaN0.011493661719200715,0.011493661719200715 NaN L NaN0.011493661719200715,0.011493661719200715 NaN L NaN NaN L NaN NaN" />
  </g>
  <gundefined>
    <path style="fill:#26D992; stroke-width:0.005; stroke:#000000; stroke-opacity:1; stroke-linecap:round;" d="M NaN NaN L NaN0.013636575236082964,0.013636575236082964 NaN L NaN0.013636575236082964,0.013636575236082964 NaN L NaN NaN L NaN NaN" />
  </g>
  <gundefined>
    <path style="fill:#D96E26; stroke-width:0.005; stroke:#000000; stroke-opacity:1; stroke-linecap:round;" d="M NaN NaN L NaN0.021611366579450363,0.021611366579450363 NaN L NaN0.021611366579450363,0.021611366579450363 NaN L NaN NaN L NaN NaN" />
  </g>
  <gundefined>
    <path style="fill:#D95726; stroke-width:0.005; stroke:#000000; stroke-opacity:1; stroke-linecap:round;" d="M NaN NaN L NaN0.009887107279728925,0.009887107279728925 NaN L NaN0.009887107279728925,0.009887107279728925 NaN L NaN NaN L NaN NaN" />
  </g>
  <gundefined>
    <path style="fill:#262CD9; stroke-width:0.005; stroke:#000000; stroke-opacity:1; stroke-linecap:round;" d="M NaN NaN L NaN0.011316028855600702,0.011316028855600702 NaN L NaN0.011316028855600702,0.011316028855600702 NaN L NaN NaN L NaN NaN" />
  </g>
  <gundefined>
    <path style="fill:#6F26D9; stroke-width:0.005; stroke:#000000; stroke-opacity:1; stroke-linecap:round;" d="M NaN NaN L NaN0.01888177683670724,0.01888177683670724 NaN L NaN0.01888177683670724,0.01888177683670724 NaN L NaN NaN L NaN NaN" />
  </g>
  <gundefined>
    <path style="fill:#D92695; stroke-width:0.005; stroke:#000000; stroke-opacity:1; stroke-linecap:round;" d="M NaN NaN L NaN0.011280552815234015,0.011280552815234015 NaN L NaN0.011280552815234015,0.011280552815234015 NaN L NaN NaN L NaN NaN" />
  </g>
  <gundefined>
    <path style="fill:#55D926; stroke-width:0.005; stroke:#000000; stroke-opacity:1; stroke-linecap:round;" d="M NaN NaN L NaN0.016046763384268352,0.016046763384268352 NaN L NaN0.016046763384268352,0.016046763384268352 NaN L NaN NaN L NaN NaN" />
  </g>
  <gundefined>
    <path style="fill:#5626D9; stroke-width:0.005; stroke:#000000; stroke-opacity:1; stroke-linecap:round;" d="M NaN NaN L NaN0.009900575751428855,0.009900575751428855 NaN L NaN0.009900575751428855,0.009900575751428855 NaN L NaN NaN L NaN NaN" />
  </g>
  <gundefined>
    <path style="fill:#D926CE; stroke-width:0.005; stroke:#000000; stroke-opacity:1; stroke-linecap:round;" d="M NaN NaN L NaN0.02212164929122317,0.02212164929122317 NaN L NaN0.02212164929122317,0.02212164929122317 NaN L NaN NaN L NaN NaN" />
  </g>
  <gundefined>
    <path style="fill:#3126D9; stroke-width:0.005; stroke:#000000; stroke-opacity:1; stroke-linecap:round;" d="M NaN NaN L NaN0.009980252930935045,0.009980252930935045 NaN L NaN0.009980252930935045,0.009980252930935045 NaN L NaN NaN L NaN NaN" />
  </g>
</svg>