<svg xmlns="http://www.w3.org/2000/svg" viewBox="0 0 1 1" width="800" height="800">
  <path style="fill:#D92626; stroke-width:0.005; stroke:#000000; stroke-opacity:1; stroke-linecap:round;" d="M 0.26 NaN A 0.01 NaN 0 0 0 0.25 NaN A 0.01 NaN 0 0 0 0.27 NaN A 0.01 NaN 0 0 0 0.25 NaN A 0.01 NaN 0 0 0 0.27 NaN" />
  <path style="fill:#D95C26; stroke-width:0.005; stroke:#000000; stroke-opacity:1; stroke-linecap:round;" d="M 0.18 NaN A 0.01 NaN 0 0 0 0.16999999999999998 NaN A 0.01 NaN 0 0 0 0.19 NaN A 0.01 NaN 0 0 0 0.16999999999999998 NaN A 0.01 NaN 0 0 0 0.19 NaN" />
  <path style="fill:#D99126; stroke-width:0.005; stroke:#000000; stroke-opacity:1; stroke-linecap:round;" d="M 0.33999999999999997 NaN A 0.01 NaN 0 0 0 0.32999999999999996 NaN A 0.01 NaN 0 0 0 0.35 NaN A 0.01 NaN 0 0 0 0.32999999999999996 NaN A 0.01 NaN 0 0 0 0.35 NaN" />
  <path style="fill:#D9C726; stroke-width:0.005; stroke:#000000; stroke-opacity:1; stroke-linecap:round;" d="M 0.62 NaN A 0.01 NaN 0 0 0 0.61 NaN A 0.01 NaN 0 0 0 0.63 NaN A 0.01 NaN 0 0 0 0.61 NaN A 0.01 NaN 0 0 0 0.63 NaN" />
  <path style="fill:#B5D926; stroke-width:0.005; stroke:#000000; stroke-opacity:1; stroke-linecap:round;" d="M 0.1 NaN A 0.01 NaN 0 0 0 0.09000000000000001 NaN A 0.01 NaN 0 0 0 0.11 NaN A 0.01 NaN 0 0 0 0.09000000000000001 NaN A 0.01 NaN 0 0 0 0.11 NaN" />
  <path style="fill:#80D926; stroke-width:0.005; stroke:#000000; stroke-opacity:1; stroke-linecap:round;" d="M 0.14 NaN A 0.01 NaN 0 0 0 0.13 NaN A 0.01 NaN 0 0 0 0.15000000000000002 NaN A 0.01 NaN 0 0 0 0.13 NaN A 0.01 NaN 0 0 0 0.15000000000000002 NaN" />
  <path style="fill:#4AD926; stroke-width:0.005; stroke:#000000; stroke-opacity:1; stroke-linecap:round;" d="M 0.45999999999999996 NaN A 0.01 NaN 0 0 0 0.44999999999999996 NaN A 0.01 NaN 0 0 0 0.47 NaN A 0.01 NaN 0 0 0 0.44999999999999996 NaN A 0.01 NaN 0 0 0 0.47 NaN" />
  <path style="fill:#26D938; stroke-width:0.005; stroke:#000000; stroke-opacity:1; stroke-linecap:round;" d="M 0.82 NaN A 0.01 NaN 0 0 0 0.8099999999999999 NaN A 0.01 NaN 0 0 0 0.83 NaN A 0.01 NaN 0 0 0 0.8099999999999999 NaN A 0.01 NaN 0 0 0 0.83 NaN" />
  <path style="fill:#26D96E; stroke-width:0.005; stroke:#000000; stroke-opacity:1; stroke-linecap:round;" d="M 0.5 NaN A 0.01 NaN 0 0 0 0.49 NaN A 0.01 NaN 0 0 0 0.51 NaN A 0.01 NaN 0 0 0 0.49 NaN A 0.01 NaN 0 0 0 0.51 NaN" />
  <path style="fill:#26D9A3; stroke-width:0.005; stroke:#000000; stroke-opacity:1; stroke-linecap:round;" d="M 0.86 NaN A 0.01 NaN 0 0 0 0.85 NaN A 0.01 NaN 0 0 0 0.87 NaN A 0.01 NaN 0 0 0 0.85 NaN A 0.01 NaN 0 0 0 0.87 NaN" />
  <path style="fill:#26D9D9; stroke-width:0.005; stroke:#000000; stroke-opacity:1; stroke-linecap:round;" d="M 0.78 NaN A 0.01 NaN 0 0 0 0.77 NaN A 0.01 NaN 0 0 0 0.79 NaN A 0.01 NaN 0 0 0 0.77 NaN A 0.01 NaN 0 0 0 0.79 NaN" />
  <path style="fill:#26A3D9; stroke-width:0.005; stroke:#000000; stroke-opacity:1; stroke-linecap:round;" d="M 0.7 NaN A 0.01 NaN 0 0 0 0.69 NaN A 0.01 NaN 0 0 0 0.71 NaN A 0.01 NaN 0 0 0 0.69 NaN A 0.01 NaN 0 0 0 0.71 NaN" />
  <path style="fill:#266ED9; stroke-width:0.005; stroke:#000000; stroke-opacity:1; stroke-linecap:round;" d="M 0.22 NaN A 0.01 NaN 0 0 0 0.21 NaN A 0.01 NaN 0 0 0 0.23 NaN A 0.01 NaN 0 0 0 0.21 NaN A 0.01 NaN 0 0 0 0.23 NaN" />
  <path style="fill:#2638D9; stroke-width:0.005; stroke:#000000; stroke-opacity:1; stroke-linecap:round;" d="M 0.42000000000000004 NaN A 0.01 NaN 0 0 0 0.41000000000000003 NaN A 0.01 NaN 0 0 0 0.43000000000000005 NaN A 0.01 NaN 0 0 0 0.41000000000000003 NaN A 0.01 NaN 0 0 0 0.43000000000000005 NaN" />
  <path style="fill:#4A26D9; stroke-width:0.005; stroke:#000000; stroke-opacity:1; stroke-linecap:round;" d="M 0.30000000000000004 NaN A 0.01 NaN 0 0 0 0.29000000000000004 NaN A 0.01 NaN 0 0 0 0.31000000000000005 NaN A 0.01 NaN 0 0 0 0.29000000000000004 NaN A 0.01 NaN 0 0 0 0.31000000000000005 NaN" />
  <path style="fill:#7F26D9; stroke-width:0.005; stroke:#000000; stroke-opacity:1; stroke-linecap:round;" d="M 0.54 NaN A 0.01 NaN 0 0 0 0.53 NaN A 0.01 NaN 0 0 0 0.55 NaN A 0.01 NaN 0 0 0 0.53 NaN A 0.01 NaN 0 0 0 0.55 NaN" />
  <path style="fill:#B526D9; stroke-width:0.005; stroke:#000000; stroke-opacity:1; stroke-linecap:round;" d="M 0.74 NaN A 0.01 NaN 0 0 0 0.73 NaN A 0.01 NaN 0 0 0 0.75 NaN A 0.01 NaN 0 0 0 0.73 NaN A 0.01 NaN 0 0 0 0.75 NaN" />
  <path style="fill:#D926C7; stroke-width:0.005; stroke:#000000; stroke-opacity:1; stroke-linecap:round;" d="M 0.38 NaN A 0.01 NaN 0 0 0 0.37 NaN A 0.01 NaN 0 0 0 0.39 NaN A 0.01 NaN 0 0 0 0.37 NaN A 0.01 NaN 0 0 0 0.39 NaN" />
  <path style="fill:#D92691; stroke-width:0.005; stroke:#000000; stroke-opacity:1; stroke-linecap:round;" d="M 0.58 NaN A 0.01 NaN 0 0 0 0.57 NaN A 0.01 NaN 0 0 0 0.59 NaN A 0.01 NaN 0 0 0 0.57 NaN A 0.01 NaN 0 0 0 0.59 NaN" />
  <path style="fill:#D9265C; stroke-width:0.005; stroke:#000000; stroke-opacity:1; stroke-linecap:round;" d="M 0.66 NaN A 0.01 NaN 0 0 0 0.65 NaN A 0.01 NaN 0 0 0 0.67 NaN A 0.01 NaN 0 0 0 0.65 NaN A 0.01 NaN 0 0 0 0.67 NaN" />
</svg>