<svg xmlns="http://www.w3.org/2000/svg" viewBox="0 0 1 1" width="800" height="800">
  <path style="fill:none; stroke-width:0.002; stroke:#26D984; stroke-opacity:1; stroke-linecap:round;" d="M 0.7397302147566239 0.679392270986327 L 0.7491288392131192 0.6759767390620481 L 0.7479066437950965 0.6660517081623398 L 0.740410542275057 0.6726705042765332 L 0.731906794941632 0.6674087287882339 L 0.7324605853913413 0.6773933828201877 L 0.7424587966305674 0.6772042479058734 L 0.7390741366878636 0.6677944616664173 L 0.7290880901856039 0.6672663752580442 L 0.7344976314531972 0.6588558542709587 L 0.7245574175922779 0.6599477097555294 L 0.7261525451619092 0.6500757510827734 L 0.7246835614244128 0.6599672669817128 L 0.7321798550894245 0.6665858454762165 L 0.7415738488213164 0.6631575978531332 L 0.7354341928225295 0.6552642700241019 L 0.7423477348119203 0.6480391100147367 L 0.733960111732697 0.642594132596888 L 0.7392617320691055 0.6341151691102005 L 0.7353553367707268 0.6433206064041482 L 0.7452806865212358 0.6421010030546644 L 0.747371205349818 0.6518800485616321 L 0.7389064748938184 0.6572043643211708 L 0.7444524902209225 0.6655255249368257 L 0.7514965358776109 0.6726235120308186 L 0.75959350286784 0.666755026233005 L 0.7597958284715142 0.6767529792410011 L 0.7502324244553553 0.6738304283648455 L 0.7587789649735406 0.6790224072911335 L 0.7676999247324642 0.6835408668715288 L 0.7776838289158957 0.6829737185169875 L 0.7707066553063477 0.6901374499763757 L 0.7802933037445078 0.6929828272313497 L 0.7874643449211965 0.6860131666626968 L 0.7929371849459507 0.677643697022185 L 0.7882165248308478 0.668828064992791 L 0.7899985925221201 0.6589881343658138 L 0.7980778512016454 0.6648809757169207 L 0.8036299624002183 0.6565638811978786 L 0.8084786039321975 0.6653097759659607 L 0.8017504474046732 0.6727078777320309 L 0.7964447632118709 0.6642314565977168 L 0.7981762937147395 0.6740804058877494 L 0.8075047001658286 0.6704775135658394 L 0.81748722641523 0.6710684193789888 L 0.8221937292469732 0.6622452209172748 L 0.8124789406690545 0.6598739590409017 L 0.8028991234529922 0.657005666498842 L 0.7954691000960389 0.6503127782646693 L 0.785678267015977 0.6482781806144282 L 0.7848543808683426 0.6383121778241548 L 0.7751255369087944 0.6359992586273903 L 0.7677155455740295 0.6292841988049679 L 0.7670585935875528 0.6193058014342743 L 0.7769741512911946 0.6180089917235804 L 0.7869737072524344 0.6181032285424629 L 0.7789283780733117 0.6240423091446737 L 0.7808573434465885 0.6142301181259104 L 0.7795958595435669 0.6241502319540082 L 0.7702871886306222 0.6278038118196326 L 0.7664310428233858 0.6370304113835745 L 0.7761384157324509 0.6394318507861724 L 0.7822512774233276 0.6315177543786087 L 0.7770320833162521 0.6400477023780204 L 0.7868640388747269 0.6418732570598022 L 0.777749806570152 0.6377585554304925 L 0.7777768594200416 0.6277585920233938 L 0.7803226806038395 0.6374291036179335 L 0.7747927417311569 0.6457609567169982 L 0.7834691254292755 0.650732914673681 L 0.7785608925173113 0.6420203232290009 L 0.7785100843798027 0.6320204523031758 L 0.7829962950860541 0.6409576729840764 L 0.77371485055121 0.6372354710354156 L 0.781479120412766 0.6435375431959778 L 0.7897965964478434 0.6490890828388077 L 0.7947741223019102 0.6577622735073043 L 0.7933830231574598 0.6676650429770188 L 0.7957814059939954 0.6579569144359759 L 0.8054606369819199 0.6604693808501594 L 0.8112328485184634 0.6523035022092908 L 0.8062402644541903 0.6609680336081124 L 0.7966229480984243 0.6637079653797292 L 0.7975537026404876 0.6736645559599644 L 0.8075304924289223 0.6729836260682822 L 0.8110006960040325 0.6636050501024283 L 0.8196144102132581 0.6585252934624124 L 0.8278743282578679 0.6528884722042626 L 0.8327499569372288 0.6616193510249194 L 0.823874931385297 0.6570113230896136 L 0.8142008411835925 0.6595435116231324 L 0.8097334603476857 0.6505968637331697 L 0.8022337315120817 0.6572115494696511 L 0.8115455953711769 0.6608569838017543 L 0.8121154649603893 0.6708407330299396 L 0.8101047020923109 0.661044977179146 L 0.8143296987469606 0.6701086079785663 L 0.8043344019672033 0.6704152711236824 L 0.7945402138932055 0.6683968856374188 L 0.7911989547445233 0.677822170105346 L 0.7813641219380653 0.679632160069135" />
  <path style="fill:none; stroke-width:0.002; stroke:#2665D9; stroke-opacity:1; stroke-linecap:round;" d="M 0.5123439563497453 0.7092577474708792 L 0.5035269841750535 0.7045395908742081 L 0.5117684360818101 0.7102033767519244 L 0.5054235558065343 0.7179327036496831 L 0.5145138809390879 0.7220999556200424 L 0.5207397266444777 0.7142744303819079 L 0.5215440123165379 0.7242420341339497 L 0.5222125580233085 0.7342196614389737 L 0.5301429990499443 0.7403113036742868 L 0.5280494426579576 0.7305329080168401 L 0.5223106016643014 0.7387222733188358 L 0.5318644913308997 0.7357687682420724 L 0.5219057071940196 0.7366757514365282 L 0.51235758560984 0.7396478507305835 L 0.5024018317512176 0.738708188500565 L 0.49376030259710463 0.7336758953971562 L 0.5035984261635382 0.7354679123311119 L 0.4941324744444276 0.7386921576771528 L 0.4908658111205249 0.7481435549668803 L 0.48982330601689666 0.7580890656681419 L 0.49724192659558464 0.7513835404307375 L 0.49656523411495257 0.7613606185243808 L 0.49352464253123335 0.7708871500454022 L 0.5035186707739847 0.7705416077425092 L 0.5122439480115957 0.7656559617128803 L 0.5170627616962316 0.7568935970393024 L 0.5087663235386418 0.7513106664560613 L 0.5152608678132464 0.7437066612834433 L 0.5056281512625848 0.7410213732440313 L 0.5083579652156754 0.7314011801180327 L 0.5162542708107737 0.7252653543424079 L 0.5097893599846317 0.732894569767996 L 0.5197558044305218 0.733713095947776 L 0.5230874911141767 0.7431417683804123 L 0.533042563456864 0.7440886235181525 L 0.5410202819587242 0.7380590292113125 L 0.5491848018127192 0.7438331625275532 L 0.5440098763036488 0.7523900396433923 L 0.5461352014248116 0.7621615796002955 L 0.5486394808009942 0.7718429320267919 L 0.543014879435662 0.7635746879882367 L 0.536603334384419 0.7712488061822628 L 0.5459789531459773 0.7677706209028511 L 0.5405734456383725 0.7593575068191585 L 0.5501605419945526 0.7565136391258015 L 0.546274391073052 0.7657276410259164 L 0.553563945355477 0.772573252639467 L 0.5515763499932492 0.7627727697597283 L 0.5419256028040047 0.76539251758906 L 0.5513476777616274 0.768742816604512 L 0.5473499087922951 0.7779089413728012 L 0.5462206208244375 0.7679729105412442 L 0.5536390206017867 0.7746786800528979 L 0.5632205983024584 0.7775410861676886 L 0.5644671613640703 0.7874630859929972 L 0.5683513812599945 0.796677902095346 L 0.5591170995629188 0.7928401890342832 L 0.5579204098778479 0.8027683275203059 L 0.548400926994617 0.8058309155820397 L 0.5565023624649563 0.7999686000565901 L 0.5557074026552444 0.8099369519214142 L 0.5489581871317104 0.802558057030112 L 0.5512073190782723 0.7928142689840307 L 0.557097303328254 0.7847329271687771 L 0.5670900569873042 0.785113550748628 L 0.5595051926357191 0.7916304390220338 L 0.5499740885270565 0.7886042112596475 L 0.558133372508062 0.7943857408943815 L 0.5678727395473825 0.7966539405490412 L 0.5606975526729907 0.7896885480032074 L 0.5587836814486279 0.7798734017008564 L 0.5676308192627803 0.7752120550609468 L 0.5774956076279596 0.7735731680879613 L 0.5856243869395324 0.7677488271893064 L 0.5953268143987706 0.7701701700808073 L 0.5870778983133853 0.7645172607929916 L 0.5787378892023971 0.7589996301394744 L 0.5806344495071644 0.7491811241935383 L 0.5836398954372912 0.7587188018333563 L 0.5904737123279052 0.751418189071022 L 0.5804973649323087 0.7521055700733593 L 0.589644957169575 0.7561455646600768 L 0.5984399100795396 0.7609046405484722 L 0.6037700910117395 0.7693656789735127 L 0.6011657024465222 0.7597107755456495 L 0.591494939852202 0.7622556430951102 L 0.5945020071094058 0.7527184765079811 L 0.603057650935527 0.7475415122700755 L 0.5997916931985694 0.7569931534006098 L 0.6033446940607833 0.7663406763277337 L 0.6087401837172621 0.7747602185579758 L 0.612984412161737 0.7657055774877229 L 0.6183232835439296 0.7572500200037716 L 0.6236336673717905 0.7487765423469418 L 0.6162191189428582 0.7420665146573553 L 0.6083040889306234 0.735954861860818 L 0.6037193187705117 0.7270677992089094 L 0.6034256123109323 0.7170721133137044 L 0.6067739941935967 0.7264948697452293 L 0.5970222310432651 0.7242805717842862 L 0.5921205590871553 0.7329968560863662" />
  <path style="fill:none; stroke-width:0.002; stroke:#D9B426; stroke-opacity:1; stroke-linecap:round;" d="M 0.44142808476380013 0.459725011164564 L 0.432362627502497 0.46394608740688487 L 0.42242500210529177 0.46506125621241234 L 0.4299731216207347 0.4585018437554472 L 0.4323787892602047 0.448795517817771 L 0.4417667656698546 0.4522402092309249 L 0.4322980344046311 0.4490241358133894 L 0.43378862813730584 0.45891241828933593 L 0.42744590654895614 0.45118131986461757 L 0.4356455037582154 0.4569055320904096 L 0.4455473594741927 0.45830312050620603 L 0.4378507069350557 0.46468759696804657 L 0.42933287049573576 0.4699265341114941 L 0.42771352367860227 0.4797945489009966 L 0.4355078128880351 0.48605945558184344 L 0.4314918413062477 0.49521761982225077 L 0.4219016613436817 0.49805107147802274 L 0.41466819471764405 0.5049559219883524 L 0.4240322431229292 0.501446705913005 L 0.42414939409662755 0.5114460196719267 L 0.4312079781194015 0.5185295492718819 L 0.43739585396747843 0.5263851327950064 L 0.43017558685625124 0.5333037846031646 L 0.4284311503482699 0.5431504561864775 L 0.41932693293716367 0.5472872696136591 L 0.40982329603151213 0.5503986817633972 L 0.40638441824294413 0.5410085742264574 L 0.41232414469398065 0.5490534265984315 L 0.41736074515123534 0.5404144072192437 L 0.42571242781314167 0.5459143523748623 L 0.43305882589221956 0.5391297790453359 L 0.4234343933698818 0.5418446084364703 L 0.4204992021328076 0.5514041404543989 L 0.43049562914295597 0.5511368446804389 L 0.4257468556888989 0.5599373645901967 L 0.41685143127851537 0.5645058900152276 L 0.4241132372973255 0.5713809298947609 L 0.41440720946974324 0.5689740597673549 L 0.4048392372397252 0.5718816201546219 L 0.39596747132148874 0.5672673196126092 L 0.40224733973999527 0.5594850800476611 L 0.40239941944539176 0.5494862365263729 L 0.40222423761591874 0.5594847019749616 L 0.4122232206488799 0.5596273144097451 L 0.4023409267432762 0.5611571075863765 L 0.3945008338073085 0.5673645984446372 L 0.3845874806295989 0.5660510426696526 L 0.3945597825768627 0.5653072726295201 L 0.38456650823414007 0.56494057396429 L 0.39204659307500317 0.5715774656142636 L 0.3983696918850851 0.5638303099143992 L 0.40742467045027686 0.5595868015564579 L 0.4154603349893837 0.5655389520430418 L 0.4093614164334967 0.573463798568285 L 0.4128167808895177 0.5640797452608881 L 0.4176032362121226 0.5552996629466551 L 0.41818561457562464 0.5453166355780797 L 0.4132488938687942 0.554013116973607 L 0.4176746522614745 0.5629804277549739 L 0.42574280599792685 0.5688884642549432 L 0.4341483164583432 0.5743057877545906 L 0.42415637495211606 0.5739044089607612 L 0.43290074745337065 0.569053022606398 L 0.42314012148168856 0.5668781247603084 L 0.43266734428289205 0.5638396998893879 L 0.42795851160836557 0.5550177446161328 L 0.41796177966428616 0.5552733819338739 L 0.4127449037929919 0.5638047479524847 L 0.41102871980951244 0.5736563829708382 L 0.41138827250803545 0.5836499169732312 L 0.42137501935257216 0.5841645891632082 L 0.41572197320615634 0.5924134114589359 L 0.40610587414277877 0.5951576123997033 L 0.4144038423776185 0.6007382685594744 L 0.404506798910714 0.599306999676908 L 0.40921128643446586 0.5904827264978375 L 0.4185426176550172 0.5868874159893607 L 0.4169509779219507 0.5770148943783373 L 0.4181642219194592 0.5869410234830039 L 0.42795091441415134 0.5848866014196644 L 0.4246956782750051 0.5754312623100187 L 0.41504497355984726 0.5728113580177152 L 0.42285740316233783 0.56656908730057 L 0.41403652880985553 0.57127994451107 L 0.4238825799947997 0.5730278793106147 L 0.41477763257211253 0.5771630857661744 L 0.42378802891744005 0.5815004533664716 L 0.41917468770999855 0.5726281885539379 L 0.4291248373577264 0.5736254457864618 L 0.42897712317768866 0.5636265368199287 L 0.4197761569016582 0.5675434513693349 L 0.4127197851055266 0.5746291847170385 L 0.4037189702241 0.5789864007399469 L 0.41050405594617634 0.5716404759006856 L 0.40142274744480494 0.5674536112142025 L 0.39355929746209417 0.561275735012027 L 0.40278908192077595 0.5651242514594748 L 0.3934859367711167 0.5614566241168497 L 0.3994983342430194 0.5694473109859404 L 0.3983291976410704 0.5595158901608025 L 0.39323739504800526 0.5509092911604275" />
  <path style="fill:none; stroke-width:0.002; stroke:#D926D8; stroke-opacity:1; stroke-linecap:round;" d="M 0.0022332068362493906 0.8090329505439948 L 0.00862953479918803 0.8013461444068186 L -0.00126306873486926 0.799884503097209 L -0.0008597297471004615 0.8098763656693697 L 0.0018696127824583946 0.8002560387853007 L -0.002790248198025102 0.7914081183718608 L -0.008490860310351206 0.7996241406177411 L -0.00855397679594295 0.7896243398042626 L -0.0027338973082302364 0.7977561707639362 L -0.00015706510745078272 0.7880938762223159 L -0.00015095140700694377 0.798093874353449 L -0.009806556354015658 0.8006956608756873 L -0.0011707345765710874 0.7956535797351052 L 0.005153349693555875 0.7879072284556748 L -0.0029919709910976823 0.7937084137607788 L -0.012939842332923206 0.7947281469447472 L -0.021342906748711355 0.789307030046532 L -0.020756032025642582 0.7793242659974611 L -0.015393007236755005 0.7877645245902873 L -0.017695701433882514 0.7780332554318211 L -0.008012107606491788 0.7805288536739506 L -0.012275917124229725 0.7714834167913868 L -0.01790693131116413 0.7797472947688586 L -0.021738905927616015 0.7705106302984522 L -0.02180919161285188 0.7805103832915241 L -0.012164920435209916 0.7831538721702797 L -0.013022164573331928 0.7731906832988562 L -0.003063987766632548 0.7741043105130495 L 0.002414914663619056 0.78246981277889 L 0.012317817687691043 0.7838599608630257 L 0.022052554528579852 0.78614795095012 L 0.022781708875844596 0.7961213322191714 L 0.013096433213594471 0.7936322690728801 L 0.01855556745423911 0.8020106849937223 L 0.013773652133422347 0.8107932407643701 L 0.02298362134377098 0.8068975422205361 L 0.024162351827597683 0.8168278289458275 L 0.021998691514113575 0.8265909521166092 L 0.02306867332206925 0.836533544280157 L 0.03131873357934717 0.8308823049690605 L 0.03861227642774068 0.8377236668743135 L 0.031767349094024316 0.8304334700459596 L 0.025256884345141884 0.8228430913496388 L 0.027053327556218313 0.813005775059645 L 0.03396553033837312 0.8057793338401807 L 0.04394397470435452 0.8064355716286493 L 0.03570894675198484 0.8121086937517566 L 0.033647723134468746 0.8023234315070034 L 0.04350948664113073 0.8006664400952362 L 0.04210456156002784 0.810567257511818 L 0.051718700732321786 0.8133183169397045 L 0.043868387565052444 0.807123756166268 L 0.04526334641182739 0.8170259826742713 L 0.054341130307446646 0.8212204837822025 L 0.04780035216630658 0.8287847564708609 L 0.04062634504129973 0.8218181488480397 L 0.030707992658997124 0.8205428896506715 L 0.03371746282472956 0.8110064810330856 L 0.03075379354645535 0.8205572225963891 L 0.022881553382835526 0.8143905513057906 L 0.015761306773057163 0.807369006730988 L 0.009587106623387145 0.8152353433950149 L 0.01942246481602992 0.8134282105215342 L 0.010005519252151054 0.8100635209003445 L 0.0004927957438736995 0.8131470402297906 L 0.010206707378124335 0.8155218919645247 L 0.003010240753986047 0.8085784873149552 L 0.013010142794268629 0.8085342246359548 L 0.022891048797511332 0.8100729567617916 L 0.02423726388584902 0.8199819276940293 L 0.020174119241049702 0.8108445946260363 L 0.016310006672955246 0.8016213287152488 L 0.022321580270478644 0.8096126354220121 L 0.029163254056179127 0.8169058857132101 L 0.03888305369896766 0.8145552485859512 L 0.043860311257464334 0.823228593223194 L 0.04722418628575751 0.8326458298026809 L 0.03741423653227027 0.8345861611749098 L 0.04432231139402477 0.8273557737921761 L 0.048113890999394365 0.8181024541664339 L 0.058048180834138666 0.8192469564509646 L 0.06652029504310249 0.8245595152346651 L 0.058075184302464875 0.8299148961341313 L 0.05590610716922056 0.8201529749917518 L 0.05198633891728557 0.8293527259042016 L 0.04318979879018474 0.834108867385729 L 0.033357029213492866 0.8322877022499758 L 0.02761993245677369 0.8240971149203613 L 0.01783740861556802 0.8261712960349804 L 0.024052550331117306 0.8340053252317373 L 0.031169974345623852 0.8269809195346177 L 0.033841420263410506 0.8173443549647961 L 0.038503742788887074 0.8261909785392698 L 0.034719153587624486 0.8354471594243696 L 0.04420931287337075 0.8322948782295578 L 0.047478261704849575 0.8417454852755192 L 0.05169226848181766 0.8326767396685641 L 0.051514885709713056 0.8426751663123997 L 0.052881578747674116 0.8327689990343861 L 0.057893457442516734 0.8414223840338058 L 0.06027163162927712 0.8317092852729866" />
  <path style="fill:none; stroke-width:0.002; stroke:#70D926; stroke-opacity:1; stroke-linecap:round;" d="M 0.16427784103180898 0.5735560809654133 L 0.1677946489092478 0.5641948811302862 L 0.17007443531731137 0.5739315424643169 L 0.16422277465125032 0.582040677279405 L 0.15534817645631688 0.5774318263511926 L 0.15525933142693238 0.5874314316714417 L 0.1630004598191753 0.5811009552900933 L 0.17176227741755615 0.5762811469564867 L 0.18124002883831777 0.579470540003173 L 0.1912159920472865 0.5787776056243882 L 0.18624793883343663 0.570098985499947 L 0.1783146497324328 0.5761869181572531 L 0.1873762077784708 0.5804163585195569 L 0.17857699776109828 0.5756651583480032 L 0.18692497393941807 0.5701595890108497 L 0.19365166060920902 0.5775590272629373 L 0.19902898212024078 0.5691278699659231 L 0.19289471464112112 0.5612303537427923 L 0.18292692500976965 0.5620323324614137 L 0.17298859801109354 0.5609234336980519 L 0.1733974841373983 0.5709150708079411 L 0.1754787839889677 0.561134059054147 L 0.16673257359214488 0.5562859868914716 L 0.16156761843813738 0.5648488858314972 L 0.17021447340520984 0.5598257494429034 L 0.1801417467267478 0.5610295951138601 L 0.18348466595536853 0.5704542909196099 L 0.1757633527750509 0.5640996608932863 L 0.1669157951423518 0.5687602106394073 L 0.15930219744955196 0.5752435068822295 L 0.16162802554457537 0.5655177409138135 L 0.15567240979710034 0.5574846443086164 L 0.14591089980706543 0.5596555710034747 L 0.15562465283451438 0.5620310713974394 L 0.14948623514399864 0.569925362262157 L 0.1478551757074354 0.560059276659731 L 0.13829610706761564 0.5629959766340583 L 0.1374656745982821 0.5530305171908677 L 0.14734508748621603 0.5514822274926119 L 0.13742197652986707 0.5527199144271746 L 0.14741742822776954 0.5524183429515696 L 0.13838336932198192 0.5481304787178561 L 0.13539513692957275 0.5385873939352004 L 0.12567064132414088 0.5362562600437355 L 0.1325779439343663 0.5434873851740851 L 0.14143356214280806 0.5388421697704343 L 0.13946368807874934 0.5290381095823414 L 0.1468662288184804 0.5223148372692024 L 0.14198830242498864 0.5310444325690817 L 0.13201909177404905 0.5318285492677896 L 0.12301015674143685 0.5361689512743061 L 0.1249276250349381 0.5263545070545136 L 0.1221545674250599 0.5359623242619909 L 0.1232412766110367 0.5260215464682207 L 0.11440087781681396 0.5213474316686993 L 0.11743500299813209 0.5118188386779114 L 0.12238436228104266 0.5031295439603485 L 0.12328853124233838 0.4931705039217991 L 0.12333486794728762 0.48317061127688665 L 0.12217221118866732 0.49310279277249147 L 0.12755043147437456 0.4846722087738347 L 0.12851001898811332 0.4946260618872515 L 0.13850588031859296 0.49491373576827247 L 0.1454179529358393 0.48768717004630513 L 0.14968438558727404 0.47864297011315615 L 0.15954033292480244 0.4769517273512007 L 0.16129938654966608 0.48679579817301294 L 0.1514866379278822 0.48486967136366776 L 0.1490831983788098 0.49457654925174044 L 0.14555142450160596 0.5039321130124286 L 0.1452938663624296 0.49393543037242527 L 0.15272368833682892 0.48724231858277667 L 0.1515622231925846 0.47730999766978227 L 0.15919742166991238 0.4708521540504452 L 0.14995634774917663 0.4746734827187879 L 0.14063351279600436 0.47105619804158744 L 0.14926536545737873 0.46600732493639613 L 0.1416874187258342 0.4594823940299517 L 0.15099232534417162 0.4631455501587593 L 0.14171396543840228 0.46687543453485086 L 0.1450371771571967 0.47630709737191557 L 0.14675467166940573 0.48615850400247 L 0.14016735046734552 0.4936822796092308 L 0.13016736773192264 0.49366369759522766 L 0.13257976583891734 0.48395904224980874 L 0.12698843071084037 0.47566826596012796 L 0.12719466263512377 0.485666139153633 L 0.12036263235718155 0.4783638544234078 L 0.11076119996828333 0.48115893869430487 L 0.10077657904529828 0.4806045516234878 L 0.09929418560088804 0.490494066762056 L 0.0919670383453438 0.48368870761682564 L 0.08568765261589675 0.49147133666238707 L 0.08006953561225404 0.48319868525347465 L 0.09000556901433297 0.4820694199025621 L 0.08448457475860219 0.49040720272704175 L 0.0943095140479428 0.49227014877048236 L 0.09136356363519814 0.5018263706267209 L 0.09737406325115977 0.5098184851383207 L 0.0884369975665513 0.5053319656689554 L 0.07873924041461866 0.507771946452105" />
  <path style="fill:none; stroke-width:0.002; stroke:#26D93C; stroke-opacity:1; stroke-linecap:round;" d="M 0.6163362152808285 0.4129783171071296 L 0.6153839967506185 0.40302375634983223 L 0.6164572108216694 0.3930815125609434 L 0.6239708874424413 0.3864826745087963 L 0.6160464913870096 0.3803831706636743 L 0.6191871408606885 0.3708891556603429 L 0.6281620863865843 0.37529941107326426 L 0.6272108161038568 0.38525406249102867 L 0.6294223518631661 0.395006452433258 L 0.6214056665213809 0.38902876424041916 L 0.6135625739571087 0.38282506381017123 L 0.618336542992981 0.39161194150617523 L 0.611124849004776 0.3846843539159323 L 0.6193970523463823 0.3903031306400172 L 0.6227931706549485 0.39970878747163835 L 0.617992498271474 0.39093647052190694 L 0.6228768314243402 0.3822104582796618 L 0.6196141066389869 0.391663215918311 L 0.6153257321743189 0.38262939920272593 L 0.6074204371553295 0.38875363880146313 L 0.6012368149227832 0.39661257104987707 L 0.5931787013972505 0.39069084778636454 L 0.6026968461088239 0.39375759219200834 L 0.6049756232534292 0.38402069459959093 L 0.6145009893736127 0.38097645409061986 L 0.6158435824081255 0.37106699174679525 L 0.618832134976174 0.3615240072268449 L 0.6243852162987686 0.3698404540537446 L 0.6212339968775475 0.37933096595560317 L 0.6264752542865176 0.37081455704263305 L 0.629324142644167 0.3804001626638575 L 0.6392082273958954 0.37888198328688955 L 0.6294277929142371 0.3809659941673769 L 0.6268392467562429 0.37130683122290115 L 0.6233575994045101 0.3619324975549452 L 0.629214804245581 0.35382736637465356 L 0.6267173668107239 0.3635104860299596 L 0.621344612072026 0.35507641782310956 L 0.6129525447972595 0.3605145431302162 L 0.6195644628306949 0.3530123741159156 L 0.6104022094215033 0.34900574055820716 L 0.6004296874839702 0.3497465551135601 L 0.5971683912787101 0.3591998057217666 L 0.6070281483665301 0.3608686946243553 L 0.6036134549054721 0.35146976550625847 L 0.6134225618657494 0.34952517798139854 L 0.610605815109112 0.33993007830974464 L 0.6131150027455063 0.34961015978695165 L 0.6133386521207331 0.33961266105191995 L 0.6131380063743359 0.32961467419033363 L 0.6214481213402127 0.3351772265949327 L 0.6262731290530008 0.34393618204473003 L 0.6222382743294631 0.3530860425551392 L 0.6319877443962817 0.35086166996579915 L 0.622946362334025 0.3465892689541543 L 0.6201479877034013 0.3561897428709295 L 0.6195848424953347 0.3661738736530573 L 0.62690738911715 0.37298418282161505 L 0.6343419258399416 0.3796720572012265 L 0.6369514483789237 0.389325574286649 L 0.6446258239884467 0.3829143373542031 L 0.6542897877232097 0.3854849024541735 L 0.6528754882992293 0.39538438512446133 L 0.6611188358869259 0.40104541158159923 L 0.6628700648143823 0.41089087740316604 L 0.6596269348292494 0.4203503756932199 L 0.6531613949439571 0.4279790580166421 L 0.6529976678326175 0.43797771759845666 L 0.648244567950199 0.4467759015876532 L 0.6571001255750942 0.4421305706896266 L 0.653515446624636 0.4327951501408703 L 0.6587207979029255 0.4413335526887483 L 0.6494332324504009 0.4376266499431841 L 0.6592772035274314 0.4393862616715453 L 0.650488349560201 0.43461593191955766 L 0.6563966426325906 0.44268389777042444 L 0.6469326575197474 0.4459139110496359 L 0.6551997512949895 0.4515402029467341 L 0.6492466605110354 0.45957517090672 L 0.6441334280934334 0.46816905560710925 L 0.6474852756782435 0.4775905797814774 L 0.6553311655107101 0.4713904174661185 L 0.6519036141883856 0.4619961696552061 L 0.6520152681288263 0.4719955463056571 L 0.648830423720787 0.46251626542066476 L 0.6583138326983632 0.4656887966126356 L 0.6493599593523037 0.4612359152867157 L 0.6547440796733831 0.45280909807212394 L 0.6481436732067297 0.46032139695295665 L 0.6562527247307464 0.46617317304067935 L 0.6660289839992664 0.46406966294688895 L 0.6683420068535957 0.45434084363130134 L 0.6604448437289591 0.4604755656773992 L 0.6622745240114604 0.450644377037981 L 0.6707891443947137 0.44540021459493184 L 0.6731251447757023 0.4551235423287903 L 0.6653957266987005 0.46146831152797463 L 0.6689328020637973 0.4521147508230011 L 0.6589328463410502 0.4520849927468489 L 0.6621374791426198 0.4426123833594042 L 0.6604401139447112 0.4524672781525986" />
  <path style="fill:none; stroke-width:0.002; stroke:#2694D9; stroke-opacity:1; stroke-linecap:round;" d="M 0.25146200864529134 0.9899012627990657 L 0.25115632230495677 0.9998965895001461 L 0.25857947001550674 1.0065971027690948 L 0.26284792440564686 1.0156403487084296 L 0.25502139932430534 1.0218649374620046 L 0.25702225533192435 1.0316627216623622 L 0.25980933383291627 1.041266481000731 L 0.2686442884383602 1.0365820838015447 L 0.2615142697878653 1.043593705157807 L 0.26014242255532144 1.0534991599767722 L 0.2622342308196884 1.063277929745262 L 0.26112625516929433 1.0732163596996427 L 0.2511966094277298 1.072032241695798 L 0.25411001511742065 1.0624660477145285 L 0.2551540594908219 1.0724113969465248 L 0.26075179380691116 1.064124939891397 L 0.2706684656276739 1.065413202286754 L 0.26068439654152453 1.0648489643201156 L 0.26380223110952894 1.0743504961759036 L 0.2650007109149728 1.0644225736260473 L 0.27133548696177057 1.0566849633724278 L 0.2613675047392183 1.055885381975144 L 0.2529176581677127 1.0505374765049607 L 0.25644505529033984 1.04118026166617 L 0.265031471504214 1.036054497664373 L 0.2561598192754097 1.04066901678679 L 0.24637612209477888 1.0427376563101765 L 0.25139909718494313 1.0513846049768212 L 0.25901180840233706 1.0449002678541413 L 0.25339236146006594 1.0366285197884058 L 0.26177528634871106 1.0311763119501687 L 0.25814638335472717 1.0404946306322194 L 0.24899583370243566 1.0445279222235808 L 0.24808827766021013 1.0544866541724898 L 0.23907602049780122 1.0501531543353362 L 0.23899545532946587 1.0601528297927523 L 0.2443938627177008 1.051735158043946 L 0.2535095660637884 1.0558465997018232 L 0.2587545698792527 1.0473324975779486 L 0.26107931581713106 1.0570585222707158 L 0.2703968255234866 1.0606895018729678 L 0.2799920961782747 1.06350566611913 L 0.2880905730064235 1.069372068173536 L 0.2819695347894748 1.0772798422691112 L 0.27331980555664204 1.0722616569199357 L 0.2789716798092791 1.0805112822103582 L 0.27366033644372645 1.072038405977744 L 0.26798620130683476 1.0802727359716349 L 0.27151878178146066 1.0709174767453873 L 0.2660962204724432 1.06251534434641 L 0.2651548912153465 1.0525597479690083 L 0.27292298680268046 1.0588571038384222 L 0.2714870104726929 1.0489607422858254 L 0.27337552190752373 1.0391406850273104 L 0.27914935844967176 1.0473054147585725 L 0.28711202125015145 1.041255951879452 L 0.28520461265785235 1.0314395476262632 L 0.2752079345024626 1.0311818154832268 L 0.26538761144488004 1.0330689442665144 L 0.26289532941450794 1.0427533921227985 L 0.26697948899401763 1.051881351397965 L 0.2700334534997959 1.0614036043245285 L 0.27305844052731326 1.0518721063581356 L 0.282317419378175 1.0480943675318937 L 0.291614296159973 1.0517778552954224 L 0.2891789191690816 1.0420789409792612 L 0.2950127796345451 1.0339569909628241 L 0.2850567652653667 1.0330200929530526 L 0.2921179015778373 1.0259391075712918 L 0.2976529292765424 1.0176106342193163 L 0.3071157615731777 1.0143772451419308 L 0.316936041722301 1.0124898930834278 L 0.32610482715553957 1.0164815561051812 L 0.3216523767706563 1.0075274684592983 L 0.3298957782306262 1.0131884164691078 L 0.32912903513056696 1.0231589783900084 L 0.32629861489986084 1.0135679033033662 L 0.33285398057723137 1.0060162689878056 L 0.3327201480303508 1.0160153733901707 L 0.3351239790264362 1.0257221543469173 L 0.32720313298458714 1.0196180411450406 L 0.3359277821458132 1.024504808687447 L 0.3449523864689043 1.0201970811181078 L 0.3378203683510316 1.0272066686642003 L 0.3462565794405877 1.0325760580570875 L 0.33811560441873956 1.0383833401833187 L 0.3456900744167412 1.0449123067362558 L 0.33604897849141774 1.0475673527544467 L 0.3261321591381923 1.0462802265308406 L 0.33270539650746594 1.0538163097633417 L 0.34165727143064184 1.049359412259493 L 0.33515527083544805 1.056957042696682 L 0.3449934120120836 1.0551651224449443 L 0.3547363329534864 1.0529122372881787 L 0.3549630402806819 1.0629096671472873 L 0.36081381046066396 1.0710194444747503 L 0.3675470191861045 1.0784129483977662 L 0.3673000960600867 1.0684159974140994 L 0.37691196973437274 1.065657033030573 L 0.37798506393622544 1.055714776303152 L 0.3685714936222928 1.0523406550924297" />
  <path style="fill:none; stroke-width:0.002; stroke:#D92645; stroke-opacity:1; stroke-linecap:round;" d="M 0.17191333499647732 0.27112968058444975 L 0.175266394735059 0.2617085877396943 L 0.17112599093379427 0.2526060025924698 L 0.16486082545571007 0.24481192140658123 L 0.16038335511411253 0.2358703186788755 L 0.1574000981864913 0.2454149600081136 L 0.15815990425266466 0.23544386705188228 L 0.15154837194686374 0.22794135810024813 L 0.15514576251941561 0.2372718876172967 L 0.1549802538008306 0.2272732573679039 L 0.1487905749060369 0.23512742028825037 L 0.14729682979551512 0.2450152272010492 L 0.14977008520169763 0.2547045516200058 L 0.1398232228880473 0.2557340806935548 L 0.14948303738472107 0.2583201943588548 L 0.15947424411827005 0.2579009235543789 L 0.1495172946875658 0.256974015773422 L 0.13992958594878174 0.2598158182190969 L 0.14562359479817683 0.268036418149942 L 0.13562527888450057 0.2678529000572967 L 0.14509803215710512 0.27105710751568 L 0.13772362781689798 0.2778112292666654 L 0.14716963640865727 0.2810934421915698 L 0.15647641868417878 0.2774350540661738 L 0.15433253193039223 0.2872025383680265 L 0.1608935552338546 0.2796558190005514 L 0.17033181365397576 0.27635138591831 L 0.1718343509294757 0.2862378606052615 L 0.16571841417110697 0.2783261403392489 L 0.17446604286100442 0.2831716529337721 L 0.17884268644035053 0.27418026866996886 L 0.18835326982821915 0.2710901548173094 L 0.18057946405886321 0.2773804603631735 L 0.1899305847068373 0.2809239815818249 L 0.18179372509309086 0.2751109345644525 L 0.17362716187707913 0.26933969161003757 L 0.1669103452786018 0.27674809054519345 L 0.15693275184882582 0.2760790394633683 L 0.163438431240779 0.2836735200676701 L 0.1682408764404664 0.2924448666064861 L 0.17485078994359052 0.2849409314067914 L 0.18482937783388173 0.28559498317518106 L 0.18806282798230095 0.29505779460401593 L 0.1979300681107356 0.2966818550240154 L 0.20242878703735695 0.30561278599560276 L 0.1944100406397597 0.29963786288220445 L 0.18673164729837124 0.306044287446259 L 0.19311583643350977 0.298347396574824 L 0.18371953541390892 0.3017693152104797 L 0.18679421559025522 0.3112848993656004 L 0.1794142607170232 0.3180329558316548 L 0.18297328527578463 0.3086877247381969 L 0.18792814981470196 0.317373881391227 L 0.19654093434529765 0.32245521415237655 L 0.18737639666223738 0.32645662003728354 L 0.18855916514812412 0.33638642661691004 L 0.1984464582609492 0.3348892843721378 L 0.19195506616808797 0.34249598067846804 L 0.19441104576846285 0.3521896984483715 L 0.19283900462923828 0.3620653597759275 L 0.1921405681895412 0.35208978026696147 L 0.18259035797720463 0.35505516133862536 L 0.18092872150190287 0.3451941794288992 L 0.17293498145114078 0.33918584188837747 L 0.17468775692430877 0.3293406512787112 L 0.17875810606493656 0.3202065252738112 L 0.1728983873390569 0.312103211355816 L 0.16710301077804793 0.3202526659704579 L 0.1729897359369432 0.31216894981366283 L 0.16734193544347864 0.30391653504063904 L 0.17665816739192364 0.3075507918123563 L 0.1856687335305651 0.31188780666835664 L 0.1769681373331962 0.30695834160505314 L 0.18207752080447975 0.29836216800609794 L 0.19123889178220502 0.2943535171347332 L 0.20061490005183752 0.29783065229572175 L 0.19092763585356282 0.30031196492270473 L 0.19472135708930266 0.2910595231268599 L 0.18495555600707847 0.2932110642541519 L 0.17569408951166143 0.2969827002856729 L 0.18397452434355555 0.29137606145347095 L 0.1897924546142788 0.29950943021217125 L 0.19861882662961844 0.30420997880215833 L 0.18866135898090775 0.30328865474142824 L 0.19859903993030056 0.3044033283923572 L 0.1944670600881592 0.295296916223773 L 0.1952537963960207 0.30526592048607987 L 0.19278826449296463 0.29557462787698935 L 0.20085195539554473 0.3014887541038843 L 0.20964649483089942 0.3062485940297633 L 0.2191402817294813 0.30310725509161685 L 0.21551672031644814 0.2937868579602722 L 0.21334210191167177 0.3035475461938758 L 0.20674991045748706 0.311067054943214 L 0.20219010133927148 0.30216715939295963 L 0.20592429630277084 0.3114437852868165 L 0.20420490149116177 0.30159271014337086 L 0.20598887792034423 0.29175312539094755 L 0.21275230033449044 0.2843872502054842 L 0.2031532691443485 0.28158393070698207 L 0.1931846459844723 0.2807923801423435" />
  <path style="fill:none; stroke-width:0.002; stroke:#81D926; stroke-opacity:1; stroke-linecap:round;" d="M 0.9342323461788142 0.3485775483022939 L 0.9374916483223861 0.35803148661058154 L 0.928664609317998 0.3533321906617173 L 0.9336153371801781 0.36202070570369277 L 0.9256019909526313 0.3680028693789411 L 0.9156527224148608 0.36900887910221947 L 0.9115111176002502 0.3599068403438097 L 0.9152284704276159 0.35062345260242583 L 0.9059037531489368 0.3470110229944329 L 0.9115463893453559 0.3552669697454034 L 0.9036761688073122 0.3490977211134747 L 0.8936870334880797 0.3495637421152133 L 0.893873698478686 0.3595619997724895 L 0.8854577180221449 0.3649630434637697 L 0.8814223255379723 0.3741126668166014 L 0.8859526368857052 0.383027613764991 L 0.8759526687535935 0.38300236783962327 L 0.8661481833747748 0.3810346111329819 L 0.8579714258661791 0.3867914016142851 L 0.8481799774307266 0.3888230358175493 L 0.8457910783481769 0.3985335023961125 L 0.8409319062870831 0.389793453947695 L 0.8472943782781565 0.38207860137860417 L 0.8566657189167729 0.3855682968717692 L 0.8596615729711999 0.3760276020079465 L 0.8503217613289558 0.37960082443139 L 0.8472107330250849 0.37009706186635744 L 0.8372573629675719 0.371061647009414 L 0.8282283180783473 0.37536005931960087 L 0.8278484033671811 0.36536727868495067 L 0.8276434767912888 0.35536937865051876 L 0.8375807354178144 0.3564878110309257 L 0.8308904387726607 0.3490554540158298 L 0.8222550416360226 0.35409826238939934 L 0.8166995004865449 0.36241306620767794 L 0.8102553365102634 0.35476631849072043 L 0.8003616320035836 0.3533121482343533 L 0.7915601914984888 0.34856508124143265 L 0.7821418870790792 0.34520419715189166 L 0.7885903796284927 0.35284729494271955 L 0.7857942620201821 0.3624484264552287 L 0.7835805030345375 0.3722003119730902 L 0.7884398827221559 0.3809402449849366 L 0.7784975447675542 0.3820125863468574 L 0.7795426147436721 0.39195782785951144 L 0.7866243285508291 0.39901823362359634 L 0.7939412947224066 0.4058345380507761 L 0.7998574034108206 0.39777230151325915 L 0.8057695563235477 0.40583743932587785 L 0.7983628705774849 0.3991187336276746 L 0.7973067954265874 0.38917465472233315 L 0.8032344472001061 0.38112090128360027 L 0.8129310281819099 0.38356555202825093 L 0.814160459700458 0.3934896891766987 L 0.821485558915906 0.3866821256269517 L 0.8268312074509344 0.3951334001899953 L 0.8246543796132116 0.40489359591369445 L 0.833992148965384 0.40131503984655903 L 0.8256273222417806 0.40679497359470695 L 0.8352986991968715 0.4042524418264615 L 0.8361900690631672 0.41421263558770227 L 0.8393517850187977 0.42369965578457713 L 0.8480940632453856 0.4285548150413809 L 0.8384085793369137 0.4260665623494842 L 0.8288767706182283 0.42909057004629864 L 0.8337685152827018 0.43781242960361755 L 0.8267983630477629 0.4449829928884492 L 0.8334990190458125 0.4524060117619132 L 0.8244096933578805 0.45657544320261345 L 0.8259469302686666 0.4664565819365913 L 0.8217485218870926 0.45738060446518203 L 0.8124185164248783 0.4537818549497182 L 0.8163570792210627 0.44459013459384833 L 0.8202035398313434 0.45382077600024906 L 0.8275020812785482 0.4469847469816276 L 0.8176010391173064 0.4455814066375511 L 0.807641361142332 0.4464785212538684 L 0.7977701010391415 0.44487907635792484 L 0.7878584973086542 0.44620576829269715 L 0.7870468867925784 0.4362387582911874 L 0.7780211601021493 0.44054413373470874 L 0.7690889647850364 0.43604792568603634 L 0.7788918066233417 0.4380238537953492 L 0.7808972930180714 0.4478206912606006 L 0.7717193372980143 0.45179122381942344 L 0.7761606778402689 0.46075082728094596 L 0.7714319579618145 0.45193951589664505 L 0.7808197909938907 0.44849443375511927 L 0.7879018886782267 0.45555445446256215 L 0.7829551216990221 0.4642452252254722 L 0.7793697339447163 0.4549100768789662 L 0.7796089251525725 0.44491293790993686 L 0.7890109718845388 0.4415068379040766 L 0.7956987171866408 0.43407218506926215 L 0.7978096733721833 0.44384683923105833 L 0.8041028818776325 0.4360753833374086 L 0.797160851857655 0.4432731759991717 L 0.8020138339964749 0.45201666296721227 L 0.8117623231216851 0.44978799525405744 L 0.8018982347350708 0.44814490052122463 L 0.8117942100686261 0.4495835360545223" />
  <path style="fill:none; stroke-width:0.002; stroke:#D92669; stroke-opacity:1; stroke-linecap:round;" d="M 0.2807136435556571 0.30098881284553247 L 0.2779954280402092 0.29136533611352033 L 0.273504562390954 0.30030021863766915 L 0.26566083037325344 0.2940973267286883 L 0.2569672143188559 0.29903909158536873 L 0.247850066444499 0.30314732899782554 L 0.23961458888571097 0.30881979842292595 L 0.2454698892327119 0.3007132912930697 L 0.2551806452271807 0.2983255689440751 L 0.25631969556162254 0.28839065252089324 L 0.26044293747730723 0.27928028062372345 L 0.26341561762085614 0.26973233986332124 L 0.25646327080412545 0.26254451169760284 L 0.24787780883621802 0.26767187386519103 L 0.2577235306423099 0.2694216630287894 L 0.24889425903453627 0.2647265631495363 L 0.25552486621232806 0.27221221933011364 L 0.2636765453029529 0.2780044665627056 L 0.27139896326985935 0.28435775395935314 L 0.2773887883580759 0.27635013287612425 L 0.27072932473970995 0.2688901366083195 L 0.26703692556416436 0.27818347768289703 L 0.2770324902342294 0.27848128118614723 L 0.2867868174459757 0.2762783057786164 L 0.29092085417861463 0.2671728271918978 L 0.2843731905054139 0.2747311405237627 L 0.29361212594960184 0.27090464449500123 L 0.2869110289796252 0.26348202370454116 L 0.27922775150356594 0.2698825898690207 L 0.2736976209788344 0.2782143157634217 L 0.2696897219831448 0.28737601569522203 L 0.2791657070290684 0.2841813784060401 L 0.2805511110341841 0.2940849462349899 L 0.2714449723311677 0.28995236375893124 L 0.26228806817516 0.2859335198607824 L 0.2722875436417156 0.2858310972375381 L 0.2822035716083572 0.28453788829665416 L 0.27305620152290216 0.28857838585508966 L 0.26420954812613556 0.28391611991699933 L 0.2707765573501475 0.29145763102895444 L 0.28046569330623666 0.2889836374104461 L 0.27112621709208035 0.2854095383568092 L 0.2809579842208776 0.2835829691341673 L 0.2716864205883865 0.2798362228378899 L 0.26267935517714563 0.275491942382207 L 0.25673653208795844 0.2674493772608901 L 0.24676317749814677 0.2681788964353348 L 0.24172271656151129 0.25954212889497275 L 0.25169336796967146 0.26030770743238985 L 0.2556180579517571 0.2511100550936397 L 0.2519085001600029 0.26039656040993797 L 0.2506466118578425 0.2703166228045437 L 0.257434369964262 0.26297316722227615 L 0.2674330402882794 0.2631362369975677 L 0.2640120318723939 0.2537396045466074 L 0.2659513679778319 0.263549751103624 L 0.2676509141844405 0.27340427000063783 L 0.2635646920559252 0.2825313061414906 L 0.2542018613378749 0.2860437697989729 L 0.263418396354435 0.2821636303313091 L 0.2567031980540195 0.27475376449000694 L 0.2666385121098963 0.27361818771536933 L 0.2571804538373892 0.27686551487995553 L 0.2584160184347362 0.2867888903200859 L 0.2494078692329862 0.2911309230190658 L 0.2494505537356666 0.30113083192031237 L 0.24150288784546214 0.2950616798462842 L 0.24866371799059478 0.30204183110772254 L 0.25855740712748504 0.3005875562841148 L 0.2510026309719139 0.2940358116890307 L 0.2596878646685058 0.29899229387255405 L 0.25739040325821055 0.3087247997712527 L 0.24862765733130254 0.30390667940948746 L 0.2586173560914472 0.30436046204640077 L 0.2491189638195733 0.3074878482153294 L 0.2590190812766502 0.3088976972625971 L 0.2601588631207281 0.2989628647351757 L 0.2501865461220697 0.2997064329420459 L 0.2544830807796475 0.30873637147651184 L 0.25019463953177545 0.29970258646337644 L 0.2565388835059044 0.3074324356466871 L 0.2632956947621223 0.30006049549175856 L 0.2732860744437169 0.3004990314852438 L 0.2722176120522173 0.2905562759256441 L 0.26226909063387416 0.29156964732289586 L 0.2665009952173349 0.30063005479698246 L 0.25987192667890047 0.30811707358370516 L 0.2681709932608802 0.3136960962461316 L 0.25817724327749947 0.31334259763272754 L 0.2681461418339779 0.3125545230355967 L 0.2716571262030392 0.3219179085750374 L 0.273380993087505 0.3120676150279068 L 0.2711560379016263 0.3023182779006539 L 0.2808875858227323 0.30461979371837433 L 0.2856700404269465 0.2958375315975634 L 0.2947552718560237 0.2916591862456199 L 0.30243577511472797 0.2852552913610178 L 0.2930930095119133 0.2888207830369109 L 0.3016916971965977 0.29392593436681835 L 0.31147249749044725 0.29184364101288546 L 0.30151038261063756 0.2927132772135315" />
</svg>