<svg xmlns="http://www.w3.org/2000/svg" viewBox="0 0 1 1" width="800" height="800">
  <path style="fill:none; stroke-width:0.002; stroke:#000000; stroke-opacity:1; stroke-linecap:round;" d="M 0.2 0.2 L 0.30678710937500003 0.2 L 0.360107421875 0.20014648437500002 L 0.39555664062500007 0.200439453125 L 0.42500000000000004 0.20087890625000002 L 0.44843750000000004 0.20146484375 L 0.46982421875 0.202197265625 L 0.4891601562500001 0.20307617187500002 L 0.5064453125 0.2041015625 L 0.5216796875 0.20527343750000002 L 0.536181640625 0.206591796875 L 0.5499511718750001 0.208056640625 L 0.56298828125 0.20966796875000002 L 0.5752929687500001 0.21142578125 L 0.586865234375 0.21333007812500002 L 0.5977050781250002 0.215380859375 L 0.6078125000000001 0.217578125 L 0.6171875000000001 0.21992187500000002 L 0.6262695312500001 0.222412109375 L 0.6350585937500001 0.22504882812500002 L 0.6435546875000001 0.22783203125 L 0.6517578125000001 0.23076171875 L 0.6596679687500001 0.23383789062500002 L 0.6672851562500001 0.23706054687500003 L 0.6746093750000001 0.24042968750000004 L 0.6816406250000001 0.2439453125 L 0.6883789062500001 0.247607421875 L 0.6948242187500001 0.25141601562500004 L 0.7009765625000001 0.25537109375 L 0.7068359375000001 0.25947265625000004 L 0.7124023437500001 0.263720703125 L 0.7176757812500001 0.268115234375 L 0.7226562500000001 0.27265625000000004 L 0.7273437500000001 0.27734375 L 0.731884765625 0.28217773437500004 L 0.7362792968750002 0.287158203125 L 0.7405273437500002 0.29228515625 L 0.7446289062500001 0.29755859375000004 L 0.7485839843750002 0.302978515625 L 0.752392578125 0.30854492187500004 L 0.7560546875 0.3142578125 L 0.7595703125000002 0.3201171875 L 0.7629394531250001 0.32612304687500004 L 0.7661621093750001 0.332275390625 L 0.76923828125 0.33857421875000004 L 0.77216796875 0.34501953125 L 0.7749511718750001 0.351611328125 L 0.777587890625 0.35834960937500004 L 0.7800781250000001 0.365234375 L 0.782421875 0.37226562500000004 L 0.784619140625 0.379443359375 L 0.7866699218750001 0.386767578125 L 0.78857421875 0.39423828125000004 L 0.7903320312500001 0.40185546875 L 0.791943359375 0.40961914062500004 L 0.793408203125 0.417529296875 L 0.7947265625000001 0.42558593750000007 L 0.7958984375 0.43378906250000004 L 0.7969238281250001 0.4421386718750001 L 0.797802734375 0.45063476562500004 L 0.79853515625 0.45927734375000007 L 0.7991210937500001 0.46806640625000007 L 0.799560546875 0.47700195312500004 L 0.7998535156250001 0.4860839843750001 L 0.8 0.49531250000000004 L 0.8 0.5046875000000001 L 0.7998535156250001 0.513916015625 L 0.799560546875 0.5229980468750001 L 0.7991210937500001 0.53193359375 L 0.79853515625 0.54072265625 L 0.797802734375 0.5493652343750001 L 0.7969238281250001 0.5578613281250001 L 0.7958984375 0.5662109375000002 L 0.7947265625000001 0.5744140625 L 0.793408203125 0.582470703125 L 0.791943359375 0.5903808593750002 L 0.7903320312500001 0.5981445312500001 L 0.78857421875 0.6057617187500002 L 0.7866699218750001 0.6132324218750002 L 0.784619140625 0.6205566406250002 L 0.782421875 0.6277343750000002 L 0.7800781250000001 0.6347656250000001 L 0.777587890625 0.6416503906250002 L 0.7749511718750001 0.6483886718750002 L 0.77216796875 0.6549804687500002 L 0.76923828125 0.6614257812500002 L 0.7661621093750001 0.6677246093750001 L 0.762939453125 0.6738769531250002 L 0.7595703125000001 0.6798828125000002 L 0.7560546875 0.6857421875 L 0.752392578125 0.6914550781250001 L 0.7485839843750001 0.697021484375 L 0.74462890625 0.7024414062500001 L 0.7405273437500001 0.70771484375 L 0.736279296875 0.712841796875 L 0.731884765625 0.7178222656250002 L 0.7273437500000001 0.7226562500000001 L 0.72265625 0.7273437500000001 L 0.7176757812500001 0.731884765625 L 0.71240234375 0.7362792968750002 L 0.7068359375000001 0.7405273437500002 L 0.7009765625000001 0.7446289062500001 L 0.69482421875 0.7485839843750002 L 0.6883789062500001 0.752392578125 L 0.681640625 0.7560546875 L 0.6746093750000001 0.7595703125000002 L 0.6672851562500001 0.7629394531250001 L 0.65966796875 0.7661621093750001 L 0.6517578125 0.76923828125 L 0.6435546875 0.77216796875 L 0.63505859375 0.7749511718750001 L 0.62626953125 0.777587890625 L 0.6171875 0.7800781250000001 L 0.6078125 0.782421875 L 0.597705078125 0.784619140625 L 0.586865234375 0.7866699218750001 L 0.5752929687499999 0.78857421875 L 0.56298828125 0.7903320312500001 L 0.5499511718749999 0.791943359375 L 0.536181640625 0.793408203125 L 0.5216796874999999 0.7947265625000001 L 0.5064453124999999 0.7958984375 L 0.48916015625 0.7969238281250001 L 0.46982421874999997 0.797802734375 L 0.4484375 0.79853515625 L 0.425 0.7991210937500001 L 0.395556640625 0.799560546875 L 0.360107421875 0.7998535156250001 L 0.30678710937500003 0.8 L 0.2 0.8 Z" />
</svg>