<svg xmlns="http://www.w3.org/2000/svg" viewBox="0 0 1 1" width="800" height="800">
  <path style="fill:#9052E0; stroke-width:0.001; stroke:#450F8A; stroke-opacity:1; stroke-linecap:round; fill-opacity:0.7;" d="M 0.5 NaN A 0.025 NaN 0 0 0 0.475 NaN A 0.025 NaN 0 0 0 0.525 NaN A 0.025 NaN 0 0 0 0.475 NaN A 0.025 NaN 0 0 0 0.525 NaN" />
  <path style="fill:#8852E0; stroke-width:0.001; stroke:#3E0F8A; stroke-opacity:1; stroke-linecap:round; fill-opacity:0.7;" d="M 0.679392270986327 NaN A 0.023890470487499354 NaN 0 0 0 0.6555018004988277 NaN A 0.023890470487499354 NaN 0 0 0 0.7032827414738264 NaN A 0.023890470487499354 NaN 0 0 0 0.6555018004988277 NaN A 0.023890470487499354 NaN 0 0 0 0.7032827414738264 NaN" />
  <path style="fill:#E05254; stroke-width:0.001; stroke:#8A0F12; stroke-opacity:1; stroke-linecap:round; fill-opacity:0.7;" d="M 0.3848794981468161 NaN A 0.009823632798235404 NaN 0 0 0 0.3750558653485807 NaN A 0.009823632798235404 NaN 0 0 0 0.3947031309450515 NaN A 0.009823632798235404 NaN 0 0 0 0.3750558653485807 NaN A 0.009823632798235404 NaN 0 0 0 0.3947031309450515 NaN" />
  <path style="fill:#E0B452; stroke-width:0.001; stroke:#8A640F; stroke-opacity:1; stroke-linecap:round; fill-opacity:0.7;" d="M 0.4825878662568962 NaN A 0.010469290294657175 NaN 0 0 0 0.47211857596223905 NaN A 0.010469290294657175 NaN 0 0 0 0.49305715655155335 NaN A 0.010469290294657175 NaN 0 0 0 0.47211857596223905 NaN A 0.010469290294657175 NaN 0 0 0 0.49305715655155335 NaN" />
  <path style="fill:#5292E0; stroke-width:0.001; stroke:#0F468A; stroke-opacity:1; stroke-linecap:round; fill-opacity:0.7;" d="M 0.9443081455501072 NaN A 0.022429855626083642 NaN 0 0 0 0.9218782899240235 NaN A 0.022429855626083642 NaN 0 0 0 0.9667380011761909 NaN A 0.022429855626083642 NaN 0 0 0 0.9218782899240235 NaN A 0.022429855626083642 NaN 0 0 0 0.9667380011761909 NaN" />
  <path style="fill:#B6E052; stroke-width:0.001; stroke:#658A0F; stroke-opacity:1; stroke-linecap:round; fill-opacity:0.7;" d="M 0.8389344540029023 NaN A 0.02461081929928176 NaN 0 0 0 0.8143236347036206 NaN A 0.02461081929928176 NaN 0 0 0 0.8635452733021841 NaN A 0.02461081929928176 NaN 0 0 0 0.8143236347036206 NaN A 0.02461081929928176 NaN 0 0 0 0.8635452733021841 NaN" />
  <path style="fill:#E052A7; stroke-width:0.001; stroke:#8A0F59; stroke-opacity:1; stroke-linecap:round; fill-opacity:0.7;" d="M 0.4106391824628256 NaN A 0.00751214111846964 NaN 0 0 0 0.40312704134435595 NaN A 0.00751214111846964 NaN 0 0 0 0.41815132358129525 NaN A 0.00751214111846964 NaN 0 0 0 0.40312704134435595 NaN A 0.00751214111846964 NaN 0 0 0 0.41815132358129525 NaN" />
  <path style="fill:#E09252; stroke-width:0.001; stroke:#8A460F; stroke-opacity:1; stroke-linecap:round; fill-opacity:0.7;" d="M 0.2467796682700114 NaN A 0.006737692393759629 NaN 0 0 0 0.24004197587625178 NaN A 0.006737692393759629 NaN 0 0 0 0.25351736066377106 NaN A 0.006737692393759629 NaN 0 0 0 0.24004197587625178 NaN A 0.006737692393759629 NaN 0 0 0 0.25351736066377106 NaN" />
  <path style="fill:#B152E0; stroke-width:0.001; stroke:#610F8A; stroke-opacity:1; stroke-linecap:round; fill-opacity:0.7;" d="M 0.877266404687484 NaN A 0.018435083911372 NaN 0 0 0 0.8588313207761119 NaN A 0.018435083911372 NaN 0 0 0 0.895701488598856 NaN A 0.018435083911372 NaN 0 0 0 0.8588313207761119 NaN A 0.018435083911372 NaN 0 0 0 0.895701488598856 NaN" />
  <path style="fill:#52E06F; stroke-width:0.001; stroke:#0F8A28; stroke-opacity:1; stroke-linecap:round; fill-opacity:0.7;" d="M 0.10029506860986004 NaN A 0.00838869041774245 NaN 0 0 0 0.09190637819211758 NaN A 0.00838869041774245 NaN 0 0 0 0.1086837590276025 NaN A 0.00838869041774245 NaN 0 0 0 0.09190637819211758 NaN A 0.00838869041774245 NaN 0 0 0 0.1086837590276025 NaN" />
  <path style="fill:#E05A52; stroke-width:0.001; stroke:#8A160F; stroke-opacity:1; stroke-linecap:round; fill-opacity:0.7;" d="M 0.6609892536763793 NaN A 0.023826780009932002 NaN 0 0 0 0.6371624736664473 NaN A 0.023826780009932002 NaN 0 0 0 0.6848160336863113 NaN A 0.023826780009932002 NaN 0 0 0 0.6371624736664473 NaN A 0.023826780009932002 NaN 0 0 0 0.6848160336863113 NaN" />
  <path style="fill:#527CE0; stroke-width:0.001; stroke:#0F348A; stroke-opacity:1; stroke-linecap:round; fill-opacity:0.7;" d="M 0.8279903225110165 NaN A 0.015926012387548424 NaN 0 0 0 0.812064310123468 NaN A 0.015926012387548424 NaN 0 0 0 0.8439163348985649 NaN A 0.015926012387548424 NaN 0 0 0 0.812064310123468 NaN A 0.015926012387548424 NaN 0 0 0 0.8439163348985649 NaN" />
  <path style="fill:#527CE0; stroke-width:0.001; stroke:#0F348A; stroke-opacity:1; stroke-linecap:round; fill-opacity:0.7;" d="M 0.5326093055538687 NaN A 0.01574295246605147 NaN 0 0 0 0.5168663530878171 NaN A 0.01574295246605147 NaN 0 0 0 0.5483522580199202 NaN A 0.01574295246605147 NaN 0 0 0 0.5168663530878171 NaN A 0.01574295246605147 NaN 0 0 0 0.5483522580199202 NaN" />
  <path style="fill:#52E08A; stroke-width:0.001; stroke:#0F8A3F; stroke-opacity:1; stroke-linecap:round; fill-opacity:0.7;" d="M 0.7395367488543049 NaN A 0.0050299969550878345 NaN 0 0 0 0.734506751899217 NaN A 0.0050299969550878345 NaN 0 0 0 0.7445667458093927 NaN A 0.0050299969550878345 NaN 0 0 0 0.734506751899217 NaN A 0.0050299969550878345 NaN 0 0 0 0.7445667458093927 NaN" />
  <path style="fill:#E09952; stroke-width:0.001; stroke:#8A4C0F; stroke-opacity:1; stroke-linecap:round; fill-opacity:0.7;" d="M 0.7504305600036459 NaN A 0.011865147199192294 NaN 0 0 0 0.7385654128044536 NaN A 0.011865147199192294 NaN 0 0 0 0.7622957072028382 NaN A 0.011865147199192294 NaN 0 0 0 0.7385654128044536 NaN A 0.011865147199192294 NaN 0 0 0 0.7622957072028382 NaN" />
  <path style="fill:#52ACE0; stroke-width:0.001; stroke:#0F5D8A; stroke-opacity:1; stroke-linecap:round; fill-opacity:0.7;" d="M 0.6683480319737021 NaN A 0.00851915290897495 NaN 0 0 0 0.6598288790647271 NaN A 0.00851915290897495 NaN 0 0 0 0.676867184882677 NaN A 0.00851915290897495 NaN 0 0 0 0.6598288790647271 NaN A 0.00851915290897495 NaN 0 0 0 0.676867184882677 NaN" />
  <path style="fill:#86E052; stroke-width:0.001; stroke:#3C8A0F; stroke-opacity:1; stroke-linecap:round; fill-opacity:0.7;" d="M 0.10851503393298678 NaN A 0.008341587594325888 NaN 0 0 0 0.10017344633866089 NaN A 0.008341587594325888 NaN 0 0 0 0.11685662152731267 NaN A 0.008341587594325888 NaN 0 0 0 0.10017344633866089 NaN A 0.008341587594325888 NaN 0 0 0 0.11685662152731267 NaN" />
  <path style="fill:#E0525B; stroke-width:0.001; stroke:#8A0F17; stroke-opacity:1; stroke-linecap:round; fill-opacity:0.7;" d="M 0.3331970796682244 NaN A 0.009703302187283273 NaN 0 0 0 0.32349377748094116 NaN A 0.009703302187283273 NaN 0 0 0 0.3429003818555077 NaN A 0.009703302187283273 NaN 0 0 0 0.32349377748094116 NaN A 0.009703302187283273 NaN 0 0 0 0.3429003818555077 NaN" />
  <path style="fill:#DEE052; stroke-width:0.001; stroke:#888A0F; stroke-opacity:1; stroke-linecap:round; fill-opacity:0.7;" d="M 0.8064032632923277 NaN A 0.02309384301461969 NaN 0 0 0 0.783309420277708 NaN A 0.02309384301461969 NaN 0 0 0 0.8294971063069474 NaN A 0.02309384301461969 NaN 0 0 0 0.783309420277708 NaN A 0.02309384301461969 NaN 0 0 0 0.8294971063069474 NaN" />
  <path style="fill:#7D52E0; stroke-width:0.001; stroke:#350F8A; stroke-opacity:1; stroke-linecap:round; fill-opacity:0.7;" d="M 0.38496674732194647 NaN A 0.00981850655164242 NaN 0 0 0 0.37514824077030406 NaN A 0.00981850655164242 NaN 0 0 0 0.39478525387358887 NaN A 0.00981850655164242 NaN 0 0 0 0.37514824077030406 NaN A 0.00981850655164242 NaN 0 0 0 0.39478525387358887 NaN" />
  <path style="fill:#6BE052; stroke-width:0.001; stroke:#258A0F; stroke-opacity:1; stroke-linecap:round; fill-opacity:0.7;" d="M 0.180576381380952 NaN A 0.015646916276696086 NaN 0 0 0 0.1649294651042559 NaN A 0.015646916276696086 NaN 0 0 0 0.1962232976576481 NaN A 0.015646916276696086 NaN 0 0 0 0.1649294651042559 NaN A 0.015646916276696086 NaN 0 0 0 0.1962232976576481 NaN" />
  <path style="fill:#52E068; stroke-width:0.001; stroke:#0F8A22; stroke-opacity:1; stroke-linecap:round; fill-opacity:0.7;" d="M 0.6084477461353882 NaN A 0.006916559876014097 NaN 0 0 0 0.6015311862593741 NaN A 0.006916559876014097 NaN 0 0 0 0.6153643060114024 NaN A 0.006916559876014097 NaN 0 0 0 0.6015311862593741 NaN A 0.006916559876014097 NaN 0 0 0 0.6153643060114024 NaN" />
  <path style="fill:#52E05E; stroke-width:0.001; stroke:#0F8A1A; stroke-opacity:1; stroke-linecap:round; fill-opacity:0.7;" d="M 0.2393518224758321 NaN A 0.019328633681217334 NaN 0 0 0 0.22002318879461474 NaN A 0.019328633681217334 NaN 0 0 0 0.25868045615704943 NaN A 0.019328633681217334 NaN 0 0 0 0.22002318879461474 NaN A 0.019328633681217334 NaN 0 0 0 0.25868045615704943 NaN" />
  <path style="fill:#52D4E0; stroke-width:0.001; stroke:#0F7F8A; stroke-opacity:1; stroke-linecap:round; fill-opacity:0.7;" d="M 0.9522817874156652 NaN A 0.014039438786911936 NaN 0 0 0 0.9382423486287532 NaN A 0.014039438786911936 NaN 0 0 0 0.9663212262025771 NaN A 0.014039438786911936 NaN 0 0 0 0.9382423486287532 NaN A 0.014039438786911936 NaN 0 0 0 0.9663212262025771 NaN" />
  <path style="fill:#6CE052; stroke-width:0.001; stroke:#268A0F; stroke-opacity:1; stroke-linecap:round; fill-opacity:0.7;" d="M 0.5839274456291631 NaN A 0.013955021444460855 NaN 0 0 0 0.5699724241847023 NaN A 0.013955021444460855 NaN 0 0 0 0.5978824670736239 NaN A 0.013955021444460855 NaN 0 0 0 0.5699724241847023 NaN A 0.013955021444460855 NaN 0 0 0 0.5978824670736239 NaN" />
  <path style="fill:#6FE052; stroke-width:0.001; stroke:#288A0F; stroke-opacity:1; stroke-linecap:round; fill-opacity:0.7;" d="M 0.2666221860676846 NaN A 0.010215562635225255 NaN 0 0 0 0.25640662343245935 NaN A 0.010215562635225255 NaN 0 0 0 0.2768377487029099 NaN A 0.010215562635225255 NaN 0 0 0 0.25640662343245935 NaN A 0.010215562635225255 NaN 0 0 0 0.2768377487029099 NaN" />
  <path style="fill:#BF52E0; stroke-width:0.001; stroke:#6D0F8A; stroke-opacity:1; stroke-linecap:round; fill-opacity:0.7;" d="M 0.5942717593343758 NaN A 0.01586537449203754 NaN 0 0 0 0.5784063848423383 NaN A 0.01586537449203754 NaN 0 0 0 0.6101371338264133 NaN A 0.01586537449203754 NaN 0 0 0 0.5784063848423383 NaN A 0.01586537449203754 NaN 0 0 0 0.6101371338264133 NaN" />
  <path style="fill:#C7E052; stroke-width:0.001; stroke:#748A0F; stroke-opacity:1; stroke-linecap:round; fill-opacity:0.7;" d="M 0.8948638891698548 NaN A 0.005260836791210834 NaN 0 0 0 0.889603052378644 NaN A 0.005260836791210834 NaN 0 0 0 0.9001247259610656 NaN A 0.005260836791210834 NaN 0 0 0 0.889603052378644 NaN A 0.005260836791210834 NaN 0 0 0 0.9001247259610656 NaN" />
  <path style="fill:#52E054; stroke-width:0.001; stroke:#0F8A12; stroke-opacity:1; stroke-linecap:round; fill-opacity:0.7;" d="M 0.0150922763539586 NaN A 0.006959378614759029 NaN 0 0 0 0.008132897739199571 NaN A 0.006959378614759029 NaN 0 0 0 0.02205165496871763 NaN A 0.006959378614759029 NaN 0 0 0 0.008132897739199571 NaN A 0.006959378614759029 NaN 0 0 0 0.02205165496871763 NaN" />
  <path style="fill:#52E069; stroke-width:0.001; stroke:#0F8A23; stroke-opacity:1; stroke-linecap:round; fill-opacity:0.7;" d="M 0.21591442958664453 NaN A 0.018098549783543683 NaN 0 0 0 0.19781587980310084 NaN A 0.018098549783543683 NaN 0 0 0 0.23401297937018822 NaN A 0.018098549783543683 NaN 0 0 0 0.19781587980310084 NaN A 0.018098549783543683 NaN 0 0 0 0.23401297937018822 NaN" />
  <path style="fill:#8A52E0; stroke-width:0.001; stroke:#3F0F8A; stroke-opacity:1; stroke-linecap:round; fill-opacity:0.7;" d="M 0.4578131358336869 NaN A 0.01130912399837005 NaN 0 0 0 0.44650401183531685 NaN A 0.01130912399837005 NaN 0 0 0 0.4691222598320569 NaN A 0.01130912399837005 NaN 0 0 0 0.44650401183531685 NaN A 0.01130912399837005 NaN 0 0 0 0.4691222598320569 NaN" />
  <path style="fill:#CFE052; stroke-width:0.001; stroke:#7B8A0F; stroke-opacity:1; stroke-linecap:round; fill-opacity:0.7;" d="M 0.11697669388322007 NaN A 0.00960217175912709 NaN 0 0 0 0.10737452212409299 NaN A 0.00960217175912709 NaN 0 0 0 0.12657886564234716 NaN A 0.00960217175912709 NaN 0 0 0 0.10737452212409299 NaN A 0.00960217175912709 NaN 0 0 0 0.12657886564234716 NaN" />
  <path style="fill:#E052A7; stroke-width:0.001; stroke:#8A0F59; stroke-opacity:1; stroke-linecap:round; fill-opacity:0.7;" d="M 0.5626874516769959 NaN A 0.014009227070321685 NaN 0 0 0 0.5486782246066741 NaN A 0.014009227070321685 NaN 0 0 0 0.5766966787473176 NaN A 0.014009227070321685 NaN 0 0 0 0.5486782246066741 NaN A 0.014009227070321685 NaN 0 0 0 0.5766966787473176 NaN" />
  <path style="fill:#E052D2; stroke-width:0.001; stroke:#8A0F7D; stroke-opacity:1; stroke-linecap:round; fill-opacity:0.7;" d="M 0.26266554250875707 NaN A 0.020722098541710438 NaN 0 0 0 0.24194344396704662 NaN A 0.020722098541710438 NaN 0 0 0 0.2833876410504675 NaN A 0.020722098541710438 NaN 0 0 0 0.24194344396704662 NaN A 0.020722098541710438 NaN 0 0 0 0.2833876410504675 NaN" />
  <path style="fill:#5291E0; stroke-width:0.001; stroke:#0F458A; stroke-opacity:1; stroke-linecap:round; fill-opacity:0.7;" d="M 0.9010502047301268 NaN A 0.016912360908965064 NaN 0 0 0 0.8841378438211617 NaN A 0.016912360908965064 NaN 0 0 0 0.9179625656390918 NaN A 0.016912360908965064 NaN 0 0 0 0.8841378438211617 NaN A 0.016912360908965064 NaN 0 0 0 0.9179625656390918 NaN" />
  <path style="fill:#C352E0; stroke-width:0.001; stroke:#700F8A; stroke-opacity:1; stroke-linecap:round; fill-opacity:0.7;" d="M 0.1605288806868388 NaN A 0.01418093471622385 NaN 0 0 0 0.14634794597061496 NaN A 0.01418093471622385 NaN 0 0 0 0.17470981540306263 NaN A 0.01418093471622385 NaN 0 0 0 0.14634794597061496 NaN A 0.01418093471622385 NaN 0 0 0 0.17470981540306263 NaN" />
  <path style="fill:#E0DA52; stroke-width:0.001; stroke:#8A840F; stroke-opacity:1; stroke-linecap:round; fill-opacity:0.7;" d="M 0.9133948371595133 NaN A 0.008843786828449687 NaN 0 0 0 0.9045510503310636 NaN A 0.008843786828449687 NaN 0 0 0 0.922238623987963 NaN A 0.008843786828449687 NaN 0 0 0 0.9045510503310636 NaN A 0.008843786828449687 NaN 0 0 0 0.922238623987963 NaN" />
  <path style="fill:#E052B3; stroke-width:0.001; stroke:#8A0F63; stroke-opacity:1; stroke-linecap:round; fill-opacity:0.7;" d="M 0.1320238027786147 NaN A 0.014644290862569801 NaN 0 0 0 0.1173795119160449 NaN A 0.014644290862569801 NaN 0 0 0 0.1466680936411845 NaN A 0.014644290862569801 NaN 0 0 0 0.1173795119160449 NaN A 0.014644290862569801 NaN 0 0 0 0.1466680936411845 NaN" />
  <path style="fill:#ADE052; stroke-width:0.001; stroke:#5E8A0F; stroke-opacity:1; stroke-linecap:round; fill-opacity:0.7;" d="M 0.7886666489805005 NaN A 0.01604223099913897 NaN 0 0 0 0.7726244179813616 NaN A 0.01604223099913897 NaN 0 0 0 0.8047088799796395 NaN A 0.01604223099913897 NaN 0 0 0 0.7726244179813616 NaN A 0.01604223099913897 NaN 0 0 0 0.8047088799796395 NaN" />
  <path style="fill:#52E082; stroke-width:0.001; stroke:#0F8A39; stroke-opacity:1; stroke-linecap:round; fill-opacity:0.7;" d="M 0.6406499368626817 NaN A 0.005446327316335169 NaN 0 0 0 0.6352036095463465 NaN A 0.005446327316335169 NaN 0 0 0 0.6460962641790169 NaN A 0.005446327316335169 NaN 0 0 0 0.6352036095463465 NaN A 0.005446327316335169 NaN 0 0 0 0.6460962641790169 NaN" />
  <path style="fill:#61E052; stroke-width:0.001; stroke:#1C8A0F; stroke-opacity:1; stroke-linecap:round; fill-opacity:0.7;" d="M 0.4122394487109293 NaN A 0.0071550934643375315 NaN 0 0 0 0.4050843552465918 NaN A 0.0071550934643375315 NaN 0 0 0 0.41939454217526684 NaN A 0.0071550934643375315 NaN 0 0 0 0.4050843552465918 NaN A 0.0071550934643375315 NaN 0 0 0 0.41939454217526684 NaN" />
  <path style="fill:#9BE052; stroke-width:0.001; stroke:#4E8A0F; stroke-opacity:1; stroke-linecap:round; fill-opacity:0.7;" d="M 0.45427789851355593 NaN A 0.023858683605250338 NaN 0 0 0 0.4304192149083056 NaN A 0.023858683605250338 NaN 0 0 0 0.4781365821188063 NaN A 0.023858683605250338 NaN 0 0 0 0.4304192149083056 NaN A 0.023858683605250338 NaN 0 0 0 0.4781365821188063 NaN" />
  <path style="fill:#81E052; stroke-width:0.001; stroke:#388A0F; stroke-opacity:1; stroke-linecap:round; fill-opacity:0.7;" d="M 0.12528073652248362 NaN A 0.012567892442216625 NaN 0 0 0 0.112712844080267 NaN A 0.012567892442216625 NaN 0 0 0 0.13784862896470024 NaN A 0.012567892442216625 NaN 0 0 0 0.112712844080267 NaN A 0.012567892442216625 NaN 0 0 0 0.13784862896470024 NaN" />
  <path style="fill:#E052B7; stroke-width:0.001; stroke:#8A0F66; stroke-opacity:1; stroke-linecap:round; fill-opacity:0.7;" d="M 0.14877936416267346 NaN A 0.006853702039706033 NaN 0 0 0 0.14192566212296742 NaN A 0.006853702039706033 NaN 0 0 0 0.1556330662023795 NaN A 0.006853702039706033 NaN 0 0 0 0.14192566212296742 NaN A 0.006853702039706033 NaN 0 0 0 0.1556330662023795 NaN" />
  <path style="fill:#E05452; stroke-width:0.001; stroke:#8A110F; stroke-opacity:1; stroke-linecap:round; fill-opacity:0.7;" d="M 0.8580604196136451 NaN A 0.010055764960703505 NaN 0 0 0 0.8480046546529416 NaN A 0.010055764960703505 NaN 0 0 0 0.8681161845743486 NaN A 0.010055764960703505 NaN 0 0 0 0.8480046546529416 NaN A 0.010055764960703505 NaN 0 0 0 0.8681161845743486 NaN" />
  <path style="fill:#A152E0; stroke-width:0.001; stroke:#530F8A; stroke-opacity:1; stroke-linecap:round; fill-opacity:0.7;" d="M 0.3543935661965655 NaN A 0.021588720939050607 NaN 0 0 0 0.33280484525751486 NaN A 0.021588720939050607 NaN 0 0 0 0.3759822871356161 NaN A 0.021588720939050607 NaN 0 0 0 0.33280484525751486 NaN A 0.021588720939050607 NaN 0 0 0 0.3759822871356161 NaN" />
  <path style="fill:#E0A052; stroke-width:0.001; stroke:#8A520F; stroke-opacity:1; stroke-linecap:round; fill-opacity:0.7;" d="M 0.3321728423273542 NaN A 0.007011892133506354 NaN 0 0 0 0.3251609501938479 NaN A 0.007011892133506354 NaN 0 0 0 0.33918473446086056 NaN A 0.007011892133506354 NaN 0 0 0 0.3251609501938479 NaN A 0.007011892133506354 NaN 0 0 0 0.33918473446086056 NaN" />
  <path style="fill:#E0527C; stroke-width:0.001; stroke:#8A0F33; stroke-opacity:1; stroke-linecap:round; fill-opacity:0.7;" d="M 0.5063898584223946 NaN A 0.015697868812014407 NaN 0 0 0 0.4906919896103802 NaN A 0.015697868812014407 NaN 0 0 0 0.522087727234409 NaN A 0.015697868812014407 NaN 0 0 0 0.4906919896103802 NaN A 0.015697868812014407 NaN 0 0 0 0.522087727234409 NaN" />
  <path style="fill:#81E052; stroke-width:0.001; stroke:#388A0F; stroke-opacity:1; stroke-linecap:round; fill-opacity:0.7;" d="M 0.6719676482724648 NaN A 0.011746973318327152 NaN 0 0 0 0.6602206749541376 NaN A 0.011746973318327152 NaN 0 0 0 0.683714621590792 NaN A 0.011746973318327152 NaN 0 0 0 0.6602206749541376 NaN A 0.011746973318327152 NaN 0 0 0 0.683714621590792 NaN" />
  <path style="fill:#5852E0; stroke-width:0.001; stroke:#140F8A; stroke-opacity:1; stroke-linecap:round; fill-opacity:0.7;" d="M 0.02796288929246915 NaN A 0.00642805217578708 NaN 0 0 0 0.02153483711668207 NaN A 0.00642805217578708 NaN 0 0 0 0.034390941468256234 NaN A 0.00642805217578708 NaN 0 0 0 0.02153483711668207 NaN A 0.00642805217578708 NaN 0 0 0 0.034390941468256234 NaN" />
  <path style="fill:#52ADE0; stroke-width:0.001; stroke:#0F5E8A; stroke-opacity:1; stroke-linecap:round; fill-opacity:0.7;" d="M 0.5687546847429131 NaN A 0.006257473916530694 NaN 0 0 0 0.5624972108263825 NaN A 0.006257473916530694 NaN 0 0 0 0.5750121586594438 NaN A 0.006257473916530694 NaN 0 0 0 0.5624972108263825 NaN A 0.006257473916530694 NaN 0 0 0 0.5750121586594438 NaN" />
  <path style="fill:#9852E0; stroke-width:0.001; stroke:#4C0F8A; stroke-opacity:1; stroke-linecap:round; fill-opacity:0.7;" d="M 0.7939970746582404 NaN A 0.011930805239395902 NaN 0 0 0 0.7820662694188445 NaN A 0.011930805239395902 NaN 0 0 0 0.8059278798976364 NaN A 0.011930805239395902 NaN 0 0 0 0.7820662694188445 NaN A 0.011930805239395902 NaN 0 0 0 0.8059278798976364 NaN" />
  <path style="fill:#52E0BD; stroke-width:0.001; stroke:#0F8A6B; stroke-opacity:1; stroke-linecap:round; fill-opacity:0.7;" d="M 0.15113362405931086 NaN A 0.00999805394858633 NaN 0 0 0 0.14113557011072453 NaN A 0.00999805394858633 NaN 0 0 0 0.16113167800789718 NaN A 0.00999805394858633 NaN 0 0 0 0.14113557011072453 NaN A 0.00999805394858633 NaN 0 0 0 0.16113167800789718 NaN" />
  <path style="fill:#E0DB52; stroke-width:0.001; stroke:#8A850F; stroke-opacity:1; stroke-linecap:round; fill-opacity:0.7;" d="M 0.4837421825436157 NaN A 0.020186915427486758 NaN 0 0 0 0.46355526711612893 NaN A 0.020186915427486758 NaN 0 0 0 0.5039290979711024 NaN A 0.020186915427486758 NaN 0 0 0 0.46355526711612893 NaN A 0.020186915427486758 NaN 0 0 0 0.5039290979711024 NaN" />
  <path style="fill:#52E05C; stroke-width:0.001; stroke:#0F8A18; stroke-opacity:1; stroke-linecap:round; fill-opacity:0.7;" d="M 0.7130196274298065 NaN A 0.0185978830829836 NaN 0 0 0 0.6944217443468229 NaN A 0.0185978830829836 NaN 0 0 0 0.7316175105127901 NaN A 0.0185978830829836 NaN 0 0 0 0.6944217443468229 NaN A 0.0185978830829836 NaN 0 0 0 0.7316175105127901 NaN" />
  <path style="fill:#52BEE0; stroke-width:0.001; stroke:#0F6C8A; stroke-opacity:1; stroke-linecap:round; fill-opacity:0.7;" d="M 0.022196781880201244 NaN A 0.009767696805569725 NaN 0 0 0 0.01242908507463152 NaN A 0.009767696805569725 NaN 0 0 0 0.03196447868577097 NaN A 0.009767696805569725 NaN 0 0 0 0.01242908507463152 NaN A 0.009767696805569725 NaN 0 0 0 0.03196447868577097 NaN" />
  <path style="fill:#A9E052; stroke-width:0.001; stroke:#5A8A0F; stroke-opacity:1; stroke-linecap:round; fill-opacity:0.7;" d="M 0.15809137233548276 NaN A 0.023726236825787547 NaN 0 0 0 0.1343651355096952 NaN A 0.023726236825787547 NaN 0 0 0 0.18181760916127032 NaN A 0.023726236825787547 NaN 0 0 0 0.1343651355096952 NaN A 0.023726236825787547 NaN 0 0 0 0.18181760916127032 NaN" />
  <path style="fill:#B252E0; stroke-width:0.001; stroke:#620F8A; stroke-opacity:1; stroke-linecap:round; fill-opacity:0.7;" d="M 0.1199103090058311 NaN A 0.017743302881274278 NaN 0 0 0 0.10216700612455683 NaN A 0.017743302881274278 NaN 0 0 0 0.1376536118871054 NaN A 0.017743302881274278 NaN 0 0 0 0.10216700612455683 NaN A 0.017743302881274278 NaN 0 0 0 0.1376536118871054 NaN" />
  <path style="fill:#E08D52; stroke-width:0.001; stroke:#8A420F; stroke-opacity:1; stroke-linecap:round; fill-opacity:0.7;" d="M 0.04435646599654364 NaN A 0.009554517981923593 NaN 0 0 0 0.03480194801462004 NaN A 0.009554517981923593 NaN 0 0 0 0.05391098397846723 NaN A 0.009554517981923593 NaN 0 0 0 0.03480194801462004 NaN A 0.009554517981923593 NaN 0 0 0 0.05391098397846723 NaN" />
  <path style="fill:#5278E0; stroke-width:0.001; stroke:#0F308A; stroke-opacity:1; stroke-linecap:round; fill-opacity:0.7;" d="M 0.5546163598643228 NaN A 0.00576323114758037 NaN 0 0 0 0.5488531287167424 NaN A 0.00576323114758037 NaN 0 0 0 0.5603795910119032 NaN A 0.00576323114758037 NaN 0 0 0 0.5488531287167424 NaN A 0.00576323114758037 NaN 0 0 0 0.5603795910119032 NaN" />
  <path style="fill:#E0C152; stroke-width:0.001; stroke:#8A6F0F; stroke-opacity:1; stroke-linecap:round; fill-opacity:0.7;" d="M 0.6834068763641089 NaN A 0.007947064862282943 NaN 0 0 0 0.675459811501826 NaN A 0.007947064862282943 NaN 0 0 0 0.6913539412263918 NaN A 0.007947064862282943 NaN 0 0 0 0.675459811501826 NaN A 0.007947064862282943 NaN 0 0 0 0.6913539412263918 NaN" />
  <path style="fill:#52E0C6; stroke-width:0.001; stroke:#0F8A73; stroke-opacity:1; stroke-linecap:round; fill-opacity:0.7;" d="M 0.9622350598625737 NaN A 0.008907948145672496 NaN 0 0 0 0.9533271117169012 NaN A 0.008907948145672496 NaN 0 0 0 0.9711430080082463 NaN A 0.008907948145672496 NaN 0 0 0 0.9533271117169012 NaN A 0.008907948145672496 NaN 0 0 0 0.9711430080082463 NaN" />
  <path style="fill:#D452E0; stroke-width:0.001; stroke:#7F0F8A; stroke-opacity:1; stroke-linecap:round; fill-opacity:0.7;" d="M 0.3117729367931733 NaN A 0.00893997691649001 NaN 0 0 0 0.3028329598766833 NaN A 0.00893997691649001 NaN 0 0 0 0.3207129137096633 NaN A 0.00893997691649001 NaN 0 0 0 0.3028329598766833 NaN A 0.00893997691649001 NaN 0 0 0 0.3207129137096633 NaN" />
  <path style="fill:#BA52E0; stroke-width:0.001; stroke:#690F8A; stroke-opacity:1; stroke-linecap:round; fill-opacity:0.7;" d="M 0.25282328256916675 NaN A 0.008328965556689787 NaN 0 0 0 0.24449431701247695 NaN A 0.008328965556689787 NaN 0 0 0 0.2611522481258565 NaN A 0.008328965556689787 NaN 0 0 0 0.24449431701247695 NaN A 0.008328965556689787 NaN 0 0 0 0.2611522481258565 NaN" />
  <path style="fill:#CA52E0; stroke-width:0.001; stroke:#770F8A; stroke-opacity:1; stroke-linecap:round; fill-opacity:0.7;" d="M 0.16427784103180898 NaN A 0.010298493175674023 NaN 0 0 0 0.15397934785613496 NaN A 0.010298493175674023 NaN 0 0 0 0.174576334207483 NaN A 0.010298493175674023 NaN 0 0 0 0.15397934785613496 NaN A 0.010298493175674023 NaN 0 0 0 0.174576334207483 NaN" />
  <path style="fill:#5264E0; stroke-width:0.001; stroke:#0F1F8A; stroke-opacity:1; stroke-linecap:round; fill-opacity:0.7;" d="M 0.9072076962728122 NaN A 0.021807188310334475 NaN 0 0 0 0.8854005079624777 NaN A 0.021807188310334475 NaN 0 0 0 0.9290148845831466 NaN A 0.021807188310334475 NaN 0 0 0 0.8854005079624777 NaN A 0.021807188310334475 NaN 0 0 0 0.9290148845831466 NaN" />
  <path style="fill:#E05299; stroke-width:0.001; stroke:#8A0F4D; stroke-opacity:1; stroke-linecap:round; fill-opacity:0.7;" d="M 0.7833688529701093 NaN A 0.011727637211359582 NaN 0 0 0 0.7716412157587497 NaN A 0.011727637211359582 NaN 0 0 0 0.7950964901814689 NaN A 0.011727637211359582 NaN 0 0 0 0.7716412157587497 NaN A 0.011727637211359582 NaN 0 0 0 0.7950964901814689 NaN" />
  <path style="fill:#8E52E0; stroke-width:0.001; stroke:#430F8A; stroke-opacity:1; stroke-linecap:round; fill-opacity:0.7;" d="M 0.3551883591494944 NaN A 0.014051233237492612 NaN 0 0 0 0.3411371259120018 NaN A 0.014051233237492612 NaN 0 0 0 0.36923959238698706 NaN A 0.014051233237492612 NaN 0 0 0 0.3411371259120018 NaN A 0.014051233237492612 NaN 0 0 0 0.36923959238698706 NaN" />
  <path style="fill:#E052B6; stroke-width:0.001; stroke:#8A0F65; stroke-opacity:1; stroke-linecap:round; fill-opacity:0.7;" d="M 0.12864460225801577 NaN A 0.019368841900807125 NaN 0 0 0 0.10927576035720865 NaN A 0.019368841900807125 NaN 0 0 0 0.1480134441588229 NaN A 0.019368841900807125 NaN 0 0 0 0.10927576035720865 NaN A 0.019368841900807125 NaN 0 0 0 0.1480134441588229 NaN" />
  <path style="fill:#E052DA; stroke-width:0.001; stroke:#8A0F85; stroke-opacity:1; stroke-linecap:round; fill-opacity:0.7;" d="M 0.7644099757374024 NaN A 0.010370924037349107 NaN 0 0 0 0.7540390517000534 NaN A 0.010370924037349107 NaN 0 0 0 0.7747808997747515 NaN A 0.010370924037349107 NaN 0 0 0 0.7540390517000534 NaN A 0.010370924037349107 NaN 0 0 0 0.7747808997747515 NaN" />
  <path style="fill:#E0529A; stroke-width:0.001; stroke:#8A0F4D; stroke-opacity:1; stroke-linecap:round; fill-opacity:0.7;" d="M 0.8882652507378804 NaN A 0.01617813250818497 NaN 0 0 0 0.8720871182296954 NaN A 0.01617813250818497 NaN 0 0 0 0.9044433832460654 NaN A 0.01617813250818497 NaN 0 0 0 0.8720871182296954 NaN A 0.01617813250818497 NaN 0 0 0 0.9044433832460654 NaN" />
  <path style="fill:#E0D052; stroke-width:0.001; stroke:#8A7C0F; stroke-opacity:1; stroke-linecap:round; fill-opacity:0.7;" d="M 0.34308656080457023 NaN A 0.010951847548300848 NaN 0 0 0 0.33213471325626936 NaN A 0.010951847548300848 NaN 0 0 0 0.3540384083528711 NaN A 0.010951847548300848 NaN 0 0 0 0.33213471325626936 NaN A 0.010951847548300848 NaN 0 0 0 0.3540384083528711 NaN" />
  <path style="fill:#C8E052; stroke-width:0.001; stroke:#758A0F; stroke-opacity:1; stroke-linecap:round; fill-opacity:0.7;" d="M 0.17079020208754703 NaN A 0.0068992083897713875 NaN 0 0 0 0.16389099369777563 NaN A 0.0068992083897713875 NaN 0 0 0 0.17768941047731843 NaN A 0.0068992083897713875 NaN 0 0 0 0.16389099369777563 NaN A 0.0068992083897713875 NaN 0 0 0 0.17768941047731843 NaN" />
  <path style="fill:#5D52E0; stroke-width:0.001; stroke:#190F8A; stroke-opacity:1; stroke-linecap:round; fill-opacity:0.7;" d="M 0.6703061290332389 NaN A 0.011057926974827496 NaN 0 0 0 0.6592482020584114 NaN A 0.011057926974827496 NaN 0 0 0 0.6813640560080665 NaN A 0.011057926974827496 NaN 0 0 0 0.6592482020584114 NaN A 0.011057926974827496 NaN 0 0 0 0.6813640560080665 NaN" />
  <path style="fill:#AB52E0; stroke-width:0.001; stroke:#5C0F8A; stroke-opacity:1; stroke-linecap:round; fill-opacity:0.7;" d="M 0.04960814071734099 NaN A 0.024015360178149207 NaN 0 0 0 0.02559278053919178 NaN A 0.024015360178149207 NaN 0 0 0 0.07362350089549019 NaN A 0.024015360178149207 NaN 0 0 0 0.02559278053919178 NaN A 0.024015360178149207 NaN 0 0 0 0.07362350089549019 NaN" />
  <path style="fill:#E052DD; stroke-width:0.001; stroke:#8A0F86; stroke-opacity:1; stroke-linecap:round; fill-opacity:0.7;" d="M 0.7983023893625915 NaN A 0.01102045419350883 NaN 0 0 0 0.7872819351690826 NaN A 0.01102045419350883 NaN 0 0 0 0.8093228435561003 NaN A 0.01102045419350883 NaN 0 0 0 0.7872819351690826 NaN A 0.01102045419350883 NaN 0 0 0 0.8093228435561003 NaN" />
  <path style="fill:#9C52E0; stroke-width:0.001; stroke:#4F0F8A; stroke-opacity:1; stroke-linecap:round; fill-opacity:0.7;" d="M 0.9688524801094175 NaN A 0.009192672970281 NaN 0 0 0 0.9596598071391365 NaN A 0.009192672970281 NaN 0 0 0 0.9780451530796985 NaN A 0.009192672970281 NaN 0 0 0 0.9596598071391365 NaN A 0.009192672970281 NaN 0 0 0 0.9780451530796985 NaN" />
  <path style="fill:#60E052; stroke-width:0.001; stroke:#1C8A0F; stroke-opacity:1; stroke-linecap:round; fill-opacity:0.7;" d="M 0.7468064094575155 NaN A 0.008397285605512825 NaN 0 0 0 0.7384091238520027 NaN A 0.008397285605512825 NaN 0 0 0 0.7552036950630283 NaN A 0.008397285605512825 NaN 0 0 0 0.7384091238520027 NaN A 0.008397285605512825 NaN 0 0 0 0.7552036950630283 NaN" />
  <path style="fill:#91E052; stroke-width:0.001; stroke:#468A0F; stroke-opacity:1; stroke-linecap:round; fill-opacity:0.7;" d="M 0.9642993739243675 NaN A 0.01090280579104869 NaN 0 0 0 0.9533965681333187 NaN A 0.01090280579104869 NaN 0 0 0 0.9752021797154162 NaN A 0.01090280579104869 NaN 0 0 0 0.9533965681333187 NaN A 0.01090280579104869 NaN 0 0 0 0.9752021797154162 NaN" />
  <path style="fill:#52E06A; stroke-width:0.001; stroke:#0F8A24; stroke-opacity:1; stroke-linecap:round; fill-opacity:0.7;" d="M 0.09577471133025028 NaN A 0.011051331023059845 NaN 0 0 0 0.08472338030719044 NaN A 0.011051331023059845 NaN 0 0 0 0.10682604235331013 NaN A 0.011051331023059845 NaN 0 0 0 0.08472338030719044 NaN A 0.011051331023059845 NaN 0 0 0 0.10682604235331013 NaN" />
  <path style="fill:#6752E0; stroke-width:0.001; stroke:#220F8A; stroke-opacity:1; stroke-linecap:round; fill-opacity:0.7;" d="M 0.25260591434365776 NaN A 0.02346222174390513 NaN 0 0 0 0.22914369259975262 NaN A 0.02346222174390513 NaN 0 0 0 0.27606813608756287 NaN A 0.02346222174390513 NaN 0 0 0 0.22914369259975262 NaN A 0.02346222174390513 NaN 0 0 0 0.27606813608756287 NaN" />
  <path style="fill:#E0A352; stroke-width:0.001; stroke:#8A550F; stroke-opacity:1; stroke-linecap:round; fill-opacity:0.7;" d="M 0.5791438877105471 NaN A 0.013953081670323705 NaN 0 0 0 0.5651908060402234 NaN A 0.013953081670323705 NaN 0 0 0 0.5930969693808709 NaN A 0.013953081670323705 NaN 0 0 0 0.5651908060402234 NaN A 0.013953081670323705 NaN 0 0 0 0.5930969693808709 NaN" />
  <path style="fill:#E052AD; stroke-width:0.001; stroke:#8A0F5D; stroke-opacity:1; stroke-linecap:round; fill-opacity:0.7;" d="M 0.3514851909270358 NaN A 0.008912012588866022 NaN 0 0 0 0.34257317833816975 NaN A 0.008912012588866022 NaN 0 0 0 0.3603972035159018 NaN A 0.008912012588866022 NaN 0 0 0 0.34257317833816975 NaN A 0.008912012588866022 NaN 0 0 0 0.3603972035159018 NaN" />
  <path style="fill:#E0529D; stroke-width:0.001; stroke:#8A0F50; stroke-opacity:1; stroke-linecap:round; fill-opacity:0.7;" d="M 0.7871493190471841 NaN A 0.020585704834236346 NaN 0 0 0 0.7665636142129477 NaN A 0.020585704834236346 NaN 0 0 0 0.8077350238814205 NaN A 0.020585704834236346 NaN 0 0 0 0.7665636142129477 NaN A 0.020585704834236346 NaN 0 0 0 0.8077350238814205 NaN" />
  <path style="fill:#E05294; stroke-width:0.001; stroke:#8A0F48; stroke-opacity:1; stroke-linecap:round; fill-opacity:0.7;" d="M 0.39306689511523296 NaN A 0.009100938872198166 NaN 0 0 0 0.3839659562430348 NaN A 0.009100938872198166 NaN 0 0 0 0.4021678339874311 NaN A 0.009100938872198166 NaN 0 0 0 0.3839659562430348 NaN A 0.009100938872198166 NaN 0 0 0 0.4021678339874311 NaN" />
  <path style="fill:#8AE052; stroke-width:0.001; stroke:#408A0F; stroke-opacity:1; stroke-linecap:round; fill-opacity:0.7;" d="M 0.37633245326282416 NaN A 0.009329202727180876 NaN 0 0 0 0.3670032505356433 NaN A 0.009329202727180876 NaN 0 0 0 0.385661655990005 NaN A 0.009329202727180876 NaN 0 0 0 0.3670032505356433 NaN A 0.009329202727180876 NaN 0 0 0 0.385661655990005 NaN" />
  <path style="fill:#E052D7; stroke-width:0.001; stroke:#8A0F81; stroke-opacity:1; stroke-linecap:round; fill-opacity:0.7;" d="M 0.5188901442341161 NaN A 0.009667063625450903 NaN 0 0 0 0.5092230806086652 NaN A 0.009667063625450903 NaN 0 0 0 0.528557207859567 NaN A 0.009667063625450903 NaN 0 0 0 0.5092230806086652 NaN A 0.009667063625450903 NaN 0 0 0 0.528557207859567 NaN" />
  <path style="fill:#A952E0; stroke-width:0.001; stroke:#5B0F8A; stroke-opacity:1; stroke-linecap:round; fill-opacity:0.7;" d="M 0.020560473504399046 NaN A 0.008990736511417756 NaN 0 0 0 0.01156973699298129 NaN A 0.008990736511417756 NaN 0 0 0 0.0295512100158168 NaN A 0.008990736511417756 NaN 0 0 0 0.01156973699298129 NaN A 0.008990736511417756 NaN 0 0 0 0.0295512100158168 NaN" />
  <path style="fill:#52E0A8; stroke-width:0.001; stroke:#0F8A59; stroke-opacity:1; stroke-linecap:round; fill-opacity:0.7;" d="M 0.6550266853409105 NaN A 0.011182100314777284 NaN 0 0 0 0.6438445850261332 NaN A 0.011182100314777284 NaN 0 0 0 0.6662087856556878 NaN A 0.011182100314777284 NaN 0 0 0 0.6438445850261332 NaN A 0.011182100314777284 NaN 0 0 0 0.6662087856556878 NaN" />
  <path style="fill:#E0A752; stroke-width:0.001; stroke:#8A590F; stroke-opacity:1; stroke-linecap:round; fill-opacity:0.7;" d="M 0.21265887407238226 NaN A 0.005908705649587735 NaN 0 0 0 0.20675016842279453 NaN A 0.005908705649587735 NaN 0 0 0 0.21856757972197 NaN A 0.005908705649587735 NaN 0 0 0 0.20675016842279453 NaN A 0.005908705649587735 NaN 0 0 0 0.21856757972197 NaN" />
  <path style="fill:#E052AA; stroke-width:0.001; stroke:#8A0F5B; stroke-opacity:1; stroke-linecap:round; fill-opacity:0.7;" d="M 0.7270664454172896 NaN A 0.008040737086978687 NaN 0 0 0 0.7190257083303109 NaN A 0.008040737086978687 NaN 0 0 0 0.7351071825042683 NaN A 0.008040737086978687 NaN 0 0 0 0.7190257083303109 NaN A 0.008040737086978687 NaN 0 0 0 0.7351071825042683 NaN" />
  <path style="fill:#C352E0; stroke-width:0.001; stroke:#700F8A; stroke-opacity:1; stroke-linecap:round; fill-opacity:0.7;" d="M 0.29008846091246954 NaN A 0.0090121101718986 NaN 0 0 0 0.2810763507405709 NaN A 0.0090121101718986 NaN 0 0 0 0.29910057108436816 NaN A 0.0090121101718986 NaN 0 0 0 0.2810763507405709 NaN A 0.0090121101718986 NaN 0 0 0 0.29910057108436816 NaN" />
  <path style="fill:#8FE052; stroke-width:0.001; stroke:#448A0F; stroke-opacity:1; stroke-linecap:round; fill-opacity:0.7;" d="M 0.06535019539566966 NaN A 0.00691546393493244 NaN 0 0 0 0.05843473146073722 NaN A 0.00691546393493244 NaN 0 0 0 0.0722656593306021 NaN A 0.00691546393493244 NaN 0 0 0 0.05843473146073722 NaN A 0.00691546393493244 NaN 0 0 0 0.0722656593306021 NaN" />
  <path style="fill:#BAE052; stroke-width:0.001; stroke:#698A0F; stroke-opacity:1; stroke-linecap:round; fill-opacity:0.7;" d="M 0.7043282045314457 NaN A 0.010042601494566079 NaN 0 0 0 0.6942856030368797 NaN A 0.010042601494566079 NaN 0 0 0 0.7143708060260118 NaN A 0.010042601494566079 NaN 0 0 0 0.6942856030368797 NaN A 0.010042601494566079 NaN 0 0 0 0.7143708060260118 NaN" />
  <path style="fill:#E0D352; stroke-width:0.001; stroke:#8A7E0F; stroke-opacity:1; stroke-linecap:round; fill-opacity:0.7;" d="M 0.9713258302688597 NaN A 0.009927830633529438 NaN 0 0 0 0.9613979996353302 NaN A 0.009927830633529438 NaN 0 0 0 0.9812536609023891 NaN A 0.009927830633529438 NaN 0 0 0 0.9613979996353302 NaN A 0.009927830633529438 NaN 0 0 0 0.9812536609023891 NaN" />
  <path style="fill:#E05285; stroke-width:0.001; stroke:#8A0F3B; stroke-opacity:1; stroke-linecap:round; fill-opacity:0.7;" d="M 0.051912143642963815 NaN A 0.006064491705252799 NaN 0 0 0 0.045847651937711016 NaN A 0.006064491705252799 NaN 0 0 0 0.057976635348216614 NaN A 0.006064491705252799 NaN 0 0 0 0.045847651937711016 NaN A 0.006064491705252799 NaN 0 0 0 0.057976635348216614 NaN" />
  <path style="fill:#DDE052; stroke-width:0.001; stroke:#878A0F; stroke-opacity:1; stroke-linecap:round; fill-opacity:0.7;" d="M 0.3672138587875926 NaN A 0.007745309124913318 NaN 0 0 0 0.35946854966267927 NaN A 0.007745309124913318 NaN 0 0 0 0.37495916791250594 NaN A 0.007745309124913318 NaN 0 0 0 0.35946854966267927 NaN A 0.007745309124913318 NaN 0 0 0 0.37495916791250594 NaN" />
  <path style="fill:#A9E052; stroke-width:0.001; stroke:#5A8A0F; stroke-opacity:1; stroke-linecap:round; fill-opacity:0.7;" d="M 0.1674949089648855 NaN A 0.01368961290907069 NaN 0 0 0 0.1538052960558148 NaN A 0.01368961290907069 NaN 0 0 0 0.1811845218739562 NaN A 0.01368961290907069 NaN 0 0 0 0.1538052960558148 NaN A 0.01368961290907069 NaN 0 0 0 0.1811845218739562 NaN" />
  <path style="fill:#83E052; stroke-width:0.001; stroke:#3A8A0F; stroke-opacity:1; stroke-linecap:round; fill-opacity:0.7;" d="M 0.9760823171726849 NaN A 0.009210156997126823 NaN 0 0 0 0.9668721601755581 NaN A 0.009210156997126823 NaN 0 0 0 0.9852924741698117 NaN A 0.009210156997126823 NaN 0 0 0 0.9668721601755581 NaN A 0.009210156997126823 NaN 0 0 0 0.9852924741698117 NaN" />
  <path style="fill:#5260E0; stroke-width:0.001; stroke:#0F1B8A; stroke-opacity:1; stroke-linecap:round; fill-opacity:0.7;" d="M 0.6025823173544926 NaN A 0.021334372685086936 NaN 0 0 0 0.5812479446694057 NaN A 0.021334372685086936 NaN 0 0 0 0.6239166900395796 NaN A 0.021334372685086936 NaN 0 0 0 0.5812479446694057 NaN A 0.021334372685086936 NaN 0 0 0 0.6239166900395796 NaN" />
  <path style="fill:#E09452; stroke-width:0.001; stroke:#8A480F; stroke-opacity:1; stroke-linecap:round; fill-opacity:0.7;" d="M 0.4384497222319683 NaN A 0.00802351368451992 NaN 0 0 0 0.4304262085474484 NaN A 0.00802351368451992 NaN 0 0 0 0.44647323591648824 NaN A 0.00802351368451992 NaN 0 0 0 0.4304262085474484 NaN A 0.00802351368451992 NaN 0 0 0 0.44647323591648824 NaN" />
  <path style="fill:#E09552; stroke-width:0.001; stroke:#8A490F; stroke-opacity:1; stroke-linecap:round; fill-opacity:0.7;" d="M 0.23746574981369972 NaN A 0.00701429535550098 NaN 0 0 0 0.23045145445819876 NaN A 0.00701429535550098 NaN 0 0 0 0.2444800451692007 NaN A 0.00701429535550098 NaN 0 0 0 0.23045145445819876 NaN A 0.00701429535550098 NaN 0 0 0 0.2444800451692007 NaN" />
  <path style="fill:#8152E0; stroke-width:0.001; stroke:#380F8A; stroke-opacity:1; stroke-linecap:round; fill-opacity:0.7;" d="M 0.36455652095026114 NaN A 0.008781852127776955 NaN 0 0 0 0.3557746688224842 NaN A 0.008781852127776955 NaN 0 0 0 0.3733383730780381 NaN A 0.008781852127776955 NaN 0 0 0 0.3557746688224842 NaN A 0.008781852127776955 NaN 0 0 0 0.3733383730780381 NaN" />
  <path style="fill:#D9E052; stroke-width:0.001; stroke:#838A0F; stroke-opacity:1; stroke-linecap:round; fill-opacity:0.7;" d="M 0.24702896185005074 NaN A 0.011322201181789483 NaN 0 0 0 0.23570676066826127 NaN A 0.011322201181789483 NaN 0 0 0 0.25835116303184025 NaN A 0.011322201181789483 NaN 0 0 0 0.23570676066826127 NaN A 0.011322201181789483 NaN 0 0 0 0.25835116303184025 NaN" />
  <path style="fill:#E052CA; stroke-width:0.001; stroke:#8A0F76; stroke-opacity:1; stroke-linecap:round; fill-opacity:0.7;" d="M 0.467438865261262 NaN A 0.018384856514043688 NaN 0 0 0 0.4490540087472183 NaN A 0.018384856514043688 NaN 0 0 0 0.4858237217753057 NaN A 0.018384856514043688 NaN 0 0 0 0.4490540087472183 NaN A 0.018384856514043688 NaN 0 0 0 0.4858237217753057 NaN" />
  <path style="fill:#E09752; stroke-width:0.001; stroke:#8A4B0F; stroke-opacity:1; stroke-linecap:round; fill-opacity:0.7;" d="M 0.9590851753151188 NaN A 0.008976024642290152 NaN 0 0 0 0.9501091506728286 NaN A 0.008976024642290152 NaN 0 0 0 0.968061199957409 NaN A 0.008976024642290152 NaN 0 0 0 0.9501091506728286 NaN A 0.008976024642290152 NaN 0 0 0 0.968061199957409 NaN" />
  <path style="fill:#AEE052; stroke-width:0.001; stroke:#5F8A0F; stroke-opacity:1; stroke-linecap:round; fill-opacity:0.7;" d="M 0.37274450777631407 NaN A 0.013631014152254279 NaN 0 0 0 0.3591134936240598 NaN A 0.013631014152254279 NaN 0 0 0 0.38637552192856833 NaN A 0.013631014152254279 NaN 0 0 0 0.3591134936240598 NaN A 0.013631014152254279 NaN 0 0 0 0.38637552192856833 NaN" />
  <path style="fill:#52E0D4; stroke-width:0.001; stroke:#0F8A7F; stroke-opacity:1; stroke-linecap:round; fill-opacity:0.7;" d="M 0.18716175261310342 NaN A 0.015448176435182356 NaN 0 0 0 0.17171357617792105 NaN A 0.015448176435182356 NaN 0 0 0 0.2026099290482858 NaN A 0.015448176435182356 NaN 0 0 0 0.17171357617792105 NaN A 0.015448176435182356 NaN 0 0 0 0.2026099290482858 NaN" />
  <path style="fill:#B5E052; stroke-width:0.001; stroke:#648A0F; stroke-opacity:1; stroke-linecap:round; fill-opacity:0.7;" d="M 0.429162003077726 NaN A 0.005633123797182247 NaN 0 0 0 0.4235288792805438 NaN A 0.005633123797182247 NaN 0 0 0 0.43479512687490823 NaN A 0.005633123797182247 NaN 0 0 0 0.4235288792805438 NaN A 0.005633123797182247 NaN 0 0 0 0.43479512687490823 NaN" />
  <path style="fill:#52E073; stroke-width:0.001; stroke:#0F8A2C; stroke-opacity:1; stroke-linecap:round; fill-opacity:0.7;" d="M 0.8665904243785878 NaN A 0.022166668548705127 NaN 0 0 0 0.8444237558298827 NaN A 0.022166668548705127 NaN 0 0 0 0.8887570929272929 NaN A 0.022166668548705127 NaN 0 0 0 0.8444237558298827 NaN A 0.022166668548705127 NaN 0 0 0 0.8887570929272929 NaN" />
  <path style="fill:#E05287; stroke-width:0.001; stroke:#8A0F3D; stroke-opacity:1; stroke-linecap:round; fill-opacity:0.7;" d="M 0.02297632116973669 NaN A 0.011019776256910651 NaN 0 0 0 0.01195654491282604 NaN A 0.011019776256910651 NaN 0 0 0 0.033996097426647345 NaN A 0.011019776256910651 NaN 0 0 0 0.01195654491282604 NaN A 0.011019776256910651 NaN 0 0 0 0.033996097426647345 NaN" />
  <path style="fill:#52E09A; stroke-width:0.001; stroke:#0F8A4D; stroke-opacity:1; stroke-linecap:round; fill-opacity:0.7;" d="M 0.7061869761807301 NaN A 0.017129847544524523 NaN 0 0 0 0.6890571286362056 NaN A 0.017129847544524523 NaN 0 0 0 0.7233168237252546 NaN A 0.017129847544524523 NaN 0 0 0 0.6890571286362056 NaN A 0.017129847544524523 NaN 0 0 0 0.7233168237252546 NaN" />
  <path style="fill:#E05270; stroke-width:0.001; stroke:#8A0F29; stroke-opacity:1; stroke-linecap:round; fill-opacity:0.7;" d="M 0.6340139758090335 NaN A 0.005094807816437417 NaN 0 0 0 0.6289191679925961 NaN A 0.005094807816437417 NaN 0 0 0 0.639108783625471 NaN A 0.005094807816437417 NaN 0 0 0 0.6289191679925961 NaN A 0.005094807816437417 NaN 0 0 0 0.639108783625471 NaN" />
  <path style="fill:#E0A252; stroke-width:0.001; stroke:#8A540F; stroke-opacity:1; stroke-linecap:round; fill-opacity:0.7;" d="M 0.4838439607684981 NaN A 0.012306774700246964 NaN 0 0 0 0.4715371860682511 NaN A 0.012306774700246964 NaN 0 0 0 0.4961507354687451 NaN A 0.012306774700246964 NaN 0 0 0 0.4715371860682511 NaN A 0.012306774700246964 NaN 0 0 0 0.4961507354687451 NaN" />
  <path style="fill:#DD52E0; stroke-width:0.001; stroke:#870F8A; stroke-opacity:1; stroke-linecap:round; fill-opacity:0.7;" d="M 0.7775739312598686 NaN A 0.005739222008933798 NaN 0 0 0 0.7718347092509348 NaN A 0.005739222008933798 NaN 0 0 0 0.7833131532688025 NaN A 0.005739222008933798 NaN 0 0 0 0.7718347092509348 NaN A 0.005739222008933798 NaN 0 0 0 0.7833131532688025 NaN" />
  <path style="fill:#E09B52; stroke-width:0.001; stroke:#8A4E0F; stroke-opacity:1; stroke-linecap:round; fill-opacity:0.7;" d="M 0.9313945890439086 NaN A 0.01383953226717603 NaN 0 0 0 0.9175550567767325 NaN A 0.01383953226717603 NaN 0 0 0 0.9452341213110846 NaN A 0.01383953226717603 NaN 0 0 0 0.9175550567767325 NaN A 0.01383953226717603 NaN 0 0 0 0.9452341213110846 NaN" />
  <path style="fill:#5273E0; stroke-width:0.001; stroke:#0F2C8A; stroke-opacity:1; stroke-linecap:round; fill-opacity:0.7;" d="M 0.0171880384266776 NaN A 0.005442655723640699 NaN 0 0 0 0.0117453827030369 NaN A 0.005442655723640699 NaN 0 0 0 0.0226306941503183 NaN A 0.005442655723640699 NaN 0 0 0 0.0117453827030369 NaN A 0.005442655723640699 NaN 0 0 0 0.0226306941503183 NaN" />
  <path style="fill:#5CE052; stroke-width:0.001; stroke:#188A0F; stroke-opacity:1; stroke-linecap:round; fill-opacity:0.7;" d="M 0.274246384309072 NaN A 0.007105696016125016 NaN 0 0 0 0.26714068829294696 NaN A 0.007105696016125016 NaN 0 0 0 0.28135208032519704 NaN A 0.007105696016125016 NaN 0 0 0 0.26714068829294696 NaN A 0.007105696016125016 NaN 0 0 0 0.28135208032519704 NaN" />
  <path style="fill:#E052D4; stroke-width:0.001; stroke:#8A0F7F; stroke-opacity:1; stroke-linecap:round; fill-opacity:0.7;" d="M 0.5691806689147523 NaN A 0.015134321016424649 NaN 0 0 0 0.5540463478983276 NaN A 0.015134321016424649 NaN 0 0 0 0.5843149899311769 NaN A 0.015134321016424649 NaN 0 0 0 0.5540463478983276 NaN A 0.015134321016424649 NaN 0 0 0 0.5843149899311769 NaN" />
  <path style="fill:#529BE0; stroke-width:0.001; stroke:#0F4E8A; stroke-opacity:1; stroke-linecap:round; fill-opacity:0.7;" d="M 0.9573022772451795 NaN A 0.012871513066095183 NaN 0 0 0 0.9444307641790843 NaN A 0.012871513066095183 NaN 0 0 0 0.9701737903112746 NaN A 0.012871513066095183 NaN 0 0 0 0.9444307641790843 NaN A 0.012871513066095183 NaN 0 0 0 0.9701737903112746 NaN" />
  <path style="fill:#E052D9; stroke-width:0.001; stroke:#8A0F83; stroke-opacity:1; stroke-linecap:round; fill-opacity:0.7;" d="M 0.848827364830092 NaN A 0.014784341947557577 NaN 0 0 0 0.8340430228825344 NaN A 0.014784341947557577 NaN 0 0 0 0.8636117067776496 NaN A 0.014784341947557577 NaN 0 0 0 0.8340430228825344 NaN A 0.014784341947557577 NaN 0 0 0 0.8636117067776496 NaN" />
  <path style="fill:#52BCE0; stroke-width:0.001; stroke:#0F6A8A; stroke-opacity:1; stroke-linecap:round; fill-opacity:0.7;" d="M 0.2542023349814715 NaN A 0.008860856306057993 NaN 0 0 0 0.2453414786754135 NaN A 0.008860856306057993 NaN 0 0 0 0.2630631912875295 NaN A 0.008860856306057993 NaN 0 0 0 0.2453414786754135 NaN A 0.008860856306057993 NaN 0 0 0 0.2630631912875295 NaN" />
  <path style="fill:#5291E0; stroke-width:0.001; stroke:#0F468A; stroke-opacity:1; stroke-linecap:round; fill-opacity:0.7;" d="M 0.44206118340626943 NaN A 0.005234061238129757 NaN 0 0 0 0.4368271221681397 NaN A 0.005234061238129757 NaN 0 0 0 0.4472952446443992 NaN A 0.005234061238129757 NaN 0 0 0 0.4368271221681397 NaN A 0.005234061238129757 NaN 0 0 0 0.4472952446443992 NaN" />
  <path style="fill:#52E0D8; stroke-width:0.001; stroke:#0F8A83; stroke-opacity:1; stroke-linecap:round; fill-opacity:0.7;" d="M 0.6584949910381416 NaN A 0.010145097394861368 NaN 0 0 0 0.6483498936432802 NaN A 0.010145097394861368 NaN 0 0 0 0.6686400884330029 NaN A 0.010145097394861368 NaN 0 0 0 0.6483498936432802 NaN A 0.010145097394861368 NaN 0 0 0 0.6686400884330029 NaN" />
  <path style="fill:#52D9E0; stroke-width:0.001; stroke:#0F848A; stroke-opacity:1; stroke-linecap:round; fill-opacity:0.7;" d="M 0.06132847113181461 NaN A 0.010506166105717911 NaN 0 0 0 0.0508223050260967 NaN A 0.010506166105717911 NaN 0 0 0 0.07183463723753253 NaN A 0.010506166105717911 NaN 0 0 0 0.0508223050260967 NaN A 0.010506166105717911 NaN 0 0 0 0.07183463723753253 NaN" />
  <path style="fill:#71E052; stroke-width:0.001; stroke:#2A8A0F; stroke-opacity:1; stroke-linecap:round; fill-opacity:0.7;" d="M 0.09240924547081764 NaN A 0.017849835452969764 NaN 0 0 0 0.07455941001784787 NaN A 0.017849835452969764 NaN 0 0 0 0.1102590809237874 NaN A 0.017849835452969764 NaN 0 0 0 0.07455941001784787 NaN A 0.017849835452969764 NaN 0 0 0 0.1102590809237874 NaN" />
  <path style="fill:#52E0AF; stroke-width:0.001; stroke:#0F8A5F; stroke-opacity:1; stroke-linecap:round; fill-opacity:0.7;" d="M 0.5313778081957905 NaN A 0.005499259747850092 NaN 0 0 0 0.5258785484479405 NaN A 0.005499259747850092 NaN 0 0 0 0.5368770679436405 NaN A 0.005499259747850092 NaN 0 0 0 0.5258785484479405 NaN A 0.005499259747850092 NaN 0 0 0 0.5368770679436405 NaN" />
  <path style="fill:#E05283; stroke-width:0.001; stroke:#8A0F39; stroke-opacity:1; stroke-linecap:round; fill-opacity:0.7;" d="M 0.8761207781503413 NaN A 0.007097290162814587 NaN 0 0 0 0.8690234879875267 NaN A 0.007097290162814587 NaN 0 0 0 0.8832180683131559 NaN A 0.007097290162814587 NaN 0 0 0 0.8690234879875267 NaN A 0.007097290162814587 NaN 0 0 0 0.8832180683131559 NaN" />
  <path style="fill:#52C1E0; stroke-width:0.001; stroke:#0F6F8A; stroke-opacity:1; stroke-linecap:round; fill-opacity:0.7;" d="M 0.869096375270181 NaN A 0.008434493356767483 NaN 0 0 0 0.8606618819134135 NaN A 0.008434493356767483 NaN 0 0 0 0.8775308686269485 NaN A 0.008434493356767483 NaN 0 0 0 0.8606618819134135 NaN A 0.008434493356767483 NaN 0 0 0 0.8775308686269485 NaN" />
  <path style="fill:#52E0C2; stroke-width:0.001; stroke:#0F8A70; stroke-opacity:1; stroke-linecap:round; fill-opacity:0.7;" d="M 0.27751317346688376 NaN A 0.021197738206175994 NaN 0 0 0 0.25631543526070777 NaN A 0.021197738206175994 NaN 0 0 0 0.29871091167305974 NaN A 0.021197738206175994 NaN 0 0 0 0.25631543526070777 NaN A 0.021197738206175994 NaN 0 0 0 0.29871091167305974 NaN" />
  <path style="fill:#C1E052; stroke-width:0.001; stroke:#6F8A0F; stroke-opacity:1; stroke-linecap:round; fill-opacity:0.7;" d="M 0.29655287921071916 NaN A 0.005862215728676495 NaN 0 0 0 0.29069066348204264 NaN A 0.005862215728676495 NaN 0 0 0 0.30241509493939567 NaN A 0.005862215728676495 NaN 0 0 0 0.29069066348204264 NaN A 0.005862215728676495 NaN 0 0 0 0.30241509493939567 NaN" />
  <path style="fill:#52E096; stroke-width:0.001; stroke:#0F8A4A; stroke-opacity:1; stroke-linecap:round; fill-opacity:0.7;" d="M 0.7971702314413952 NaN A 0.0124620777076027 NaN 0 0 0 0.7847081537337925 NaN A 0.0124620777076027 NaN 0 0 0 0.8096323091489979 NaN A 0.0124620777076027 NaN 0 0 0 0.7847081537337925 NaN A 0.0124620777076027 NaN 0 0 0 0.8096323091489979 NaN" />
  <path style="fill:#E0A852; stroke-width:0.001; stroke:#8A5A0F; stroke-opacity:1; stroke-linecap:round; fill-opacity:0.7;" d="M 0.7037126327474879 NaN A 0.015358294868722772 NaN 0 0 0 0.6883543378787651 NaN A 0.015358294868722772 NaN 0 0 0 0.7190709276162106 NaN A 0.015358294868722772 NaN 0 0 0 0.6883543378787651 NaN A 0.015358294868722772 NaN 0 0 0 0.7190709276162106 NaN" />
  <path style="fill:#52E06D; stroke-width:0.001; stroke:#0F8A27; stroke-opacity:1; stroke-linecap:round; fill-opacity:0.7;" d="M 0.9358463931545209 NaN A 0.0056510880494111924 NaN 0 0 0 0.9301953051051097 NaN A 0.0056510880494111924 NaN 0 0 0 0.9414974812039321 NaN A 0.0056510880494111924 NaN 0 0 0 0.9301953051051097 NaN A 0.0056510880494111924 NaN 0 0 0 0.9414974812039321 NaN" />
  <path style="fill:#7B52E0; stroke-width:0.001; stroke:#330F8A; stroke-opacity:1; stroke-linecap:round; fill-opacity:0.7;" d="M 0.7151013084438892 NaN A 0.007826849655519974 NaN 0 0 0 0.7072744587883693 NaN A 0.007826849655519974 NaN 0 0 0 0.7229281580994091 NaN A 0.007826849655519974 NaN 0 0 0 0.7072744587883693 NaN A 0.007826849655519974 NaN 0 0 0 0.7229281580994091 NaN" />
  <path style="fill:#E05290; stroke-width:0.001; stroke:#8A0F44; stroke-opacity:1; stroke-linecap:round; fill-opacity:0.7;" d="M 0.7376756493572303 NaN A 0.0051684348693802964 NaN 0 0 0 0.73250721448785 NaN A 0.0051684348693802964 NaN 0 0 0 0.7428440842266106 NaN A 0.0051684348693802964 NaN 0 0 0 0.73250721448785 NaN A 0.0051684348693802964 NaN 0 0 0 0.7428440842266106 NaN" />
  <path style="fill:#52C5E0; stroke-width:0.001; stroke:#0F728A; stroke-opacity:1; stroke-linecap:round; fill-opacity:0.7;" d="M 0.7219962183020409 NaN A 0.009219522321569099 NaN 0 0 0 0.7127766959804718 NaN A 0.009219522321569099 NaN 0 0 0 0.7312157406236099 NaN A 0.009219522321569099 NaN 0 0 0 0.7127766959804718 NaN A 0.009219522321569099 NaN 0 0 0 0.7312157406236099 NaN" />
  <path style="fill:#5260E0; stroke-width:0.001; stroke:#0F1C8A; stroke-opacity:1; stroke-linecap:round; fill-opacity:0.7;" d="M 0.3446741027452591 NaN A 0.0073118451507713685 NaN 0 0 0 0.33736225759448774 NaN A 0.0073118451507713685 NaN 0 0 0 0.3519859478960305 NaN A 0.0073118451507713685 NaN 0 0 0 0.33736225759448774 NaN A 0.0073118451507713685 NaN 0 0 0 0.3519859478960305 NaN" />
  <path style="fill:#B9E052; stroke-width:0.001; stroke:#688A0F; stroke-opacity:1; stroke-linecap:round; fill-opacity:0.7;" d="M 0.42118964669457726 NaN A 0.005221907392526353 NaN 0 0 0 0.4159677393020509 NaN A 0.005221907392526353 NaN 0 0 0 0.42641155408710363 NaN A 0.005221907392526353 NaN 0 0 0 0.4159677393020509 NaN A 0.005221907392526353 NaN 0 0 0 0.42641155408710363 NaN" />
  <path style="fill:#52E0B5; stroke-width:0.001; stroke:#0F8A64; stroke-opacity:1; stroke-linecap:round; fill-opacity:0.7;" d="M 0.5905705979712148 NaN A 0.0064524547393233055 NaN 0 0 0 0.5841181432318915 NaN A 0.0064524547393233055 NaN 0 0 0 0.5970230527105381 NaN A 0.0064524547393233055 NaN 0 0 0 0.5841181432318915 NaN A 0.0064524547393233055 NaN 0 0 0 0.5970230527105381 NaN" />
  <path style="fill:#E0528C; stroke-width:0.001; stroke:#8A0F41; stroke-opacity:1; stroke-linecap:round; fill-opacity:0.7;" d="M 0.7444808442829618 NaN A 0.005521764094517443 NaN 0 0 0 0.7389590801884444 NaN A 0.005521764094517443 NaN 0 0 0 0.7500026083774792 NaN A 0.005521764094517443 NaN 0 0 0 0.7389590801884444 NaN A 0.005521764094517443 NaN 0 0 0 0.7500026083774792 NaN" />
  <path style="fill:#E0BE52; stroke-width:0.001; stroke:#8A6C0F; stroke-opacity:1; stroke-linecap:round; fill-opacity:0.7;" d="M 0.9842724989240871 NaN A 0.007189762937442481 NaN 0 0 0 0.9770827359866446 NaN A 0.007189762937442481 NaN 0 0 0 0.9914622618615295 NaN A 0.007189762937442481 NaN 0 0 0 0.9770827359866446 NaN A 0.007189762937442481 NaN 0 0 0 0.9914622618615295 NaN" />
  <path style="fill:#52E0CC; stroke-width:0.001; stroke:#0F8A78; stroke-opacity:1; stroke-linecap:round; fill-opacity:0.7;" d="M 0.572989412636509 NaN A 0.015598658996695512 NaN 0 0 0 0.5573907536398135 NaN A 0.015598658996695512 NaN 0 0 0 0.5885880716332046 NaN A 0.015598658996695512 NaN 0 0 0 0.5573907536398135 NaN A 0.015598658996695512 NaN 0 0 0 0.5885880716332046 NaN" />
  <path style="fill:#BAE052; stroke-width:0.001; stroke:#698A0F; stroke-opacity:1; stroke-linecap:round; fill-opacity:0.7;" d="M 0.6089743311766557 NaN A 0.010229101942240542 NaN 0 0 0 0.5987452292344151 NaN A 0.010229101942240542 NaN 0 0 0 0.6192034331188963 NaN A 0.010229101942240542 NaN 0 0 0 0.5987452292344151 NaN A 0.010229101942240542 NaN 0 0 0 0.6192034331188963 NaN" />
  <path style="fill:#52E0AB; stroke-width:0.001; stroke:#0F8A5C; stroke-opacity:1; stroke-linecap:round; fill-opacity:0.7;" d="M 0.6036602379661217 NaN A 0.010654572397141593 NaN 0 0 0 0.59300566556898 NaN A 0.010654572397141593 NaN 0 0 0 0.6143148103632633 NaN A 0.010654572397141593 NaN 0 0 0 0.59300566556898 NaN A 0.010654572397141593 NaN 0 0 0 0.6143148103632633 NaN" />
  <path style="fill:#E052BC; stroke-width:0.001; stroke:#8A0F6B; stroke-opacity:1; stroke-linecap:round; fill-opacity:0.7;" d="M 0.48077716934046855 NaN A 0.006643657862392043 NaN 0 0 0 0.47413351147807653 NaN A 0.006643657862392043 NaN 0 0 0 0.48742082720286056 NaN A 0.006643657862392043 NaN 0 0 0 0.47413351147807653 NaN A 0.006643657862392043 NaN 0 0 0 0.48742082720286056 NaN" />
  <path style="fill:#E06E52; stroke-width:0.001; stroke:#8A270F; stroke-opacity:1; stroke-linecap:round; fill-opacity:0.7;" d="M 0.1788831634171112 NaN A 0.007022581875267282 NaN 0 0 0 0.17186058154184392 NaN A 0.007022581875267282 NaN 0 0 0 0.18590574529237847 NaN A 0.007022581875267282 NaN 0 0 0 0.17186058154184392 NaN A 0.007022581875267282 NaN 0 0 0 0.18590574529237847 NaN" />
  <path style="fill:#8FE052; stroke-width:0.001; stroke:#448A0F; stroke-opacity:1; stroke-linecap:round; fill-opacity:0.7;" d="M 0.23652389455916856 NaN A 0.017416786458838863 NaN 0 0 0 0.21910710810032968 NaN A 0.017416786458838863 NaN 0 0 0 0.25394068101800743 NaN A 0.017416786458838863 NaN 0 0 0 0.21910710810032968 NaN A 0.017416786458838863 NaN 0 0 0 0.25394068101800743 NaN" />
  <path style="fill:#64E052; stroke-width:0.001; stroke:#1F8A0F; stroke-opacity:1; stroke-linecap:round; fill-opacity:0.7;" d="M 0.903684336630842 NaN A 0.008153678039546967 NaN 0 0 0 0.8955306585912951 NaN A 0.008153678039546967 NaN 0 0 0 0.9118380146703889 NaN A 0.008153678039546967 NaN 0 0 0 0.8955306585912951 NaN A 0.008153678039546967 NaN 0 0 0 0.9118380146703889 NaN" />
  <path style="fill:#B4E052; stroke-width:0.001; stroke:#638A0F; stroke-opacity:1; stroke-linecap:round; fill-opacity:0.7;" d="M 0.07175188599126237 NaN A 0.015550247435986313 NaN 0 0 0 0.05620163855527605 NaN A 0.015550247435986313 NaN 0 0 0 0.08730213342724868 NaN A 0.015550247435986313 NaN 0 0 0 0.05620163855527605 NaN A 0.015550247435986313 NaN 0 0 0 0.08730213342724868 NaN" />
</svg>