<svg xmlns="http://www.w3.org/2000/svg" viewBox="0 0 1 1" width="800" height="800">
  <path style="fill:#D92626; stroke-width:0.005; stroke:#000000; stroke-opacity:1; stroke-linecap:round;" d="M 0.7397302147566239 NaN A 0.025 NaN 0 0 0 0.7147302147566239 NaN A 0.025 NaN 0 0 0 0.764730214756624 NaN A 0.025 NaN 0 0 0 0.7147302147566239 NaN A 0.025 NaN 0 0 0 0.764730214756624 NaN" />
  <path style="fill:#D95C26; stroke-width:0.005; stroke:#000000; stroke-opacity:1; stroke-linecap:round;" d="M 0.42125959833146553 NaN A 0.025 NaN 0 0 0 0.3962595983314655 NaN A 0.025 NaN 0 0 0 0.44625959833146556 NaN A 0.025 NaN 0 0 0 0.3962595983314655 NaN A 0.025 NaN 0 0 0 0.44625959833146556 NaN" />
  <path style="fill:#D99126; stroke-width:0.005; stroke:#000000; stroke-opacity:1; stroke-linecap:round;" d="M 0.7304993999658423 NaN A 0.025 NaN 0 0 0 0.7054993999658423 NaN A 0.025 NaN 0 0 0 0.7554993999658424 NaN A 0.025 NaN 0 0 0 0.7054993999658423 NaN A 0.025 NaN 0 0 0 0.7554993999658424 NaN" />
  <path style="fill:#D9C726; stroke-width:0.005; stroke:#000000; stroke-opacity:1; stroke-linecap:round;" d="M 0.5881876364936598 NaN A 0.025 NaN 0 0 0 0.5631876364936598 NaN A 0.025 NaN 0 0 0 0.6131876364936598 NaN A 0.025 NaN 0 0 0 0.5631876364936598 NaN A 0.025 NaN 0 0 0 0.6131876364936598 NaN" />
  <path style="fill:#B5D926; stroke-width:0.005; stroke:#000000; stroke-opacity:1; stroke-linecap:round;" d="M 0.9969896448519155 NaN A 0.025 NaN 0 0 0 0.9719896448519155 NaN A 0.025 NaN 0 0 0 1.0219896448519155 NaN A 0.025 NaN 0 0 0 0.9719896448519155 NaN A 0.025 NaN 0 0 0 1.0219896448519155 NaN" />
  <path style="fill:#80D926; stroke-width:0.005; stroke:#000000; stroke-opacity:1; stroke-linecap:round;" d="M 0.508408667601972 NaN A 0.025 NaN 0 0 0 0.483408667601972 NaN A 0.025 NaN 0 0 0 0.533408667601972 NaN A 0.025 NaN 0 0 0 0.483408667601972 NaN A 0.025 NaN 0 0 0 0.533408667601972 NaN" />
  <path style="fill:#4AD926; stroke-width:0.005; stroke:#000000; stroke-opacity:1; stroke-linecap:round;" d="M 0.4825878662568962 NaN A 0.025 NaN 0 0 0 0.4575878662568962 NaN A 0.025 NaN 0 0 0 0.5075878662568962 NaN A 0.025 NaN 0 0 0 0.4575878662568962 NaN A 0.025 NaN 0 0 0 0.5075878662568962 NaN" />
  <path style="fill:#26D938; stroke-width:0.005; stroke:#000000; stroke-opacity:1; stroke-linecap:round;" d="M 0.2734645147328587 NaN A 0.025 NaN 0 0 0 0.24846451473285872 NaN A 0.025 NaN 0 0 0 0.29846451473285873 NaN A 0.025 NaN 0 0 0 0.24846451473285872 NaN A 0.025 NaN 0 0 0 0.29846451473285873 NaN" />
  <path style="fill:#26D96E; stroke-width:0.005; stroke:#000000; stroke-opacity:1; stroke-linecap:round;" d="M 0.9443081455501072 NaN A 0.025 NaN 0 0 0 0.9193081455501072 NaN A 0.025 NaN 0 0 0 0.9693081455501072 NaN A 0.025 NaN 0 0 0 0.9193081455501072 NaN A 0.025 NaN 0 0 0 0.9693081455501072 NaN" />
  <path style="fill:#26D9A3; stroke-width:0.005; stroke:#000000; stroke-opacity:1; stroke-linecap:round;" d="M 0.8714927813041821 NaN A 0.025 NaN 0 0 0 0.846492781304182 NaN A 0.025 NaN 0 0 0 0.8964927813041821 NaN A 0.025 NaN 0 0 0 0.846492781304182 NaN A 0.025 NaN 0 0 0 0.8964927813041821 NaN" />
  <path style="fill:#26D9D9; stroke-width:0.005; stroke:#000000; stroke-opacity:1; stroke-linecap:round;" d="M 0.8389344540029023 NaN A 0.025 NaN 0 0 0 0.8139344540029023 NaN A 0.025 NaN 0 0 0 0.8639344540029024 NaN A 0.025 NaN 0 0 0 0.8139344540029023 NaN A 0.025 NaN 0 0 0 0.8639344540029024 NaN" />
  <path style="fill:#26A3D9; stroke-width:0.005; stroke:#000000; stroke-opacity:1; stroke-linecap:round;" d="M 0.9805409649640879 NaN A 0.025 NaN 0 0 0 0.9555409649640879 NaN A 0.025 NaN 0 0 0 1.0055409649640878 NaN A 0.025 NaN 0 0 0 0.9555409649640879 NaN A 0.025 NaN 0 0 0 1.0055409649640878 NaN" />
  <path style="fill:#266ED9; stroke-width:0.005; stroke:#000000; stroke-opacity:1; stroke-linecap:round;" d="M 0.4106391824628256 NaN A 0.025 NaN 0 0 0 0.3856391824628256 NaN A 0.025 NaN 0 0 0 0.4356391824628256 NaN A 0.025 NaN 0 0 0 0.3856391824628256 NaN A 0.025 NaN 0 0 0 0.4356391824628256 NaN" />
  <path style="fill:#2638D9; stroke-width:0.005; stroke:#000000; stroke-opacity:1; stroke-linecap:round;" d="M 0.12560705592348198 NaN A 0.025 NaN 0 0 0 0.10060705592348199 NaN A 0.025 NaN 0 0 0 0.15060705592348198 NaN A 0.025 NaN 0 0 0 0.10060705592348199 NaN A 0.025 NaN 0 0 0 0.15060705592348198 NaN" />
  <path style="fill:#4A26D9; stroke-width:0.005; stroke:#000000; stroke-opacity:1; stroke-linecap:round;" d="M 0.2467796682700114 NaN A 0.025 NaN 0 0 0 0.22177966827001142 NaN A 0.025 NaN 0 0 0 0.27177966827001143 NaN A 0.025 NaN 0 0 0 0.22177966827001142 NaN A 0.025 NaN 0 0 0 0.27177966827001143 NaN" />
  <path style="fill:#7F26D9; stroke-width:0.005; stroke:#000000; stroke-opacity:1; stroke-linecap:round;" d="M 0.08688461968798145 NaN A 0.025 NaN 0 0 0 0.061884619687981444 NaN A 0.025 NaN 0 0 0 0.11188461968798144 NaN A 0.025 NaN 0 0 0 0.061884619687981444 NaN A 0.025 NaN 0 0 0 0.11188461968798144 NaN" />
  <path style="fill:#B526D9; stroke-width:0.005; stroke:#000000; stroke-opacity:1; stroke-linecap:round;" d="M 0.9909687075364513 NaN A 0.025 NaN 0 0 0 0.9659687075364513 NaN A 0.025 NaN 0 0 0 1.0159687075364512 NaN A 0.025 NaN 0 0 0 0.9659687075364513 NaN A 0.025 NaN 0 0 0 1.0159687075364512 NaN" />
  <path style="fill:#D926C7; stroke-width:0.005; stroke:#000000; stroke-opacity:1; stroke-linecap:round;" d="M 0.04592005057145476 NaN A 0.025 NaN 0 0 0 0.02092005057145476 NaN A 0.025 NaN 0 0 0 0.07092005057145476 NaN A 0.025 NaN 0 0 0 0.02092005057145476 NaN A 0.025 NaN 0 0 0 0.07092005057145476 NaN" />
  <path style="fill:#D92691; stroke-width:0.005; stroke:#000000; stroke-opacity:1; stroke-linecap:round;" d="M 0.8421691193898784 NaN A 0.025 NaN 0 0 0 0.8171691193898784 NaN A 0.025 NaN 0 0 0 0.8671691193898784 NaN A 0.025 NaN 0 0 0 0.8171691193898784 NaN A 0.025 NaN 0 0 0 0.8671691193898784 NaN" />
  <path style="fill:#D9265C; stroke-width:0.005; stroke:#000000; stroke-opacity:1; stroke-linecap:round;" d="M 0.7785147960298164 NaN A 0.025 NaN 0 0 0 0.7535147960298164 NaN A 0.025 NaN 0 0 0 0.8035147960298165 NaN A 0.025 NaN 0 0 0 0.7535147960298164 NaN A 0.025 NaN 0 0 0 0.8035147960298165 NaN" />
</svg>