<svg xmlns="http://www.w3.org/2000/svg" viewBox="0 0 1 1" width="800" height="800">
  <path style="fill:none; stroke-width:0.002; stroke:#269DD9; stroke-opacity:1; stroke-linecap:round;" d="M 0.5 0.5 L 0.5059104041332267 0.5059104041332267 L 0.5152219984708154 0.5120423747262436 L 0.5231047500796557 0.5186115346140271 L 0.5287727168253687 0.5250707032590926 L 0.5316133977708236 0.5309026534269401 L 0.5312326576634133 0.5356572925050628 L 0.5274828903305393 0.538980036592162 L 0.5204725804516389 0.5406295921226246 L 0.5105568942296146 0.5404844529143813 L 0.4983104037528824 0.5385385294085185 L 0.48448440634213713 0.5348873467689412 L 0.4699524294736275 0.5297070850560329 L 0.4556483253083834 0.5232293124695584 L 0.4425017959273872 0.51571453201866 L 0.4313762235642417 0.507427603396394 L 0.42301331684557403 0.4986177274857801 L 0.4179883654693188 0.48950503330156087 L 0.41667889271575775 0.48027495492088695 L 0.41924830154678583 0.4710806172721777 L 0.425644834048604 0.46205246387707594 L 0.4356149184596912 0.4533134578262891 L 0.4487288703722577 0.444997462566869 L 0.46441603732961234 0.43726793784358664 L 0.48200589842999264 0.4303339205752639 L 0.5007713933352652 0.4244604234655407 L 0.5199708669074921 0.41997086690749214 L 0.5388854529338171 0.4172399221411181 L 0.5568494298517109 0.41667611768583446 L 0.5732719856392913 0.41869465694541796 L 0.587649833992563 0.4236820089239513 L 0.5995711277951349 0.4319548581950444 L 0.6087120188813269 0.44371683222147135 L 0.6148279267489583 0.4590169765673921 L 0.617742034400661 0.47771415767025976 L 0.6173336841793355 0.4994514045653119 L 0.6135291876799916 0.5236436546111626 L 0.6062971101622365 0.5494814773065673 L 0.5956493894175233 0.5759521799695124 L 0.5816487747634201 0.6018783412235393 L 0.564422114799859 0.6259723837268341 L 0.5441780832726755 0.6469044067799086 L 0.5212271112489687 0.6633792719599971 L 0.4960006815018293 0.6742179791587035 L 0.46906680970178943 0.6784377740082691 L 0.4411385332155795 0.6753252497650519 L 0.4130725679762369 0.6644969723763727 L 0.38585596032941855 0.6459428552658371 L 0.3605795055366068 0.6200485929870371 L 0.3383978513323144 0.5875948507383169 L 0.3204774556603194 0.5497324944619445 L 0.30793481146261226 0.5079348114626124 L 0.3017684738973364 0.463929284870501 L 0.3027893193077599 0.4196129214141034 L 0.31155404006560344 0.3769562797364834 L 0.3283070696295927 0.33790211827202066 L 0.35293590382402573 0.3042649205658815 L 0.384944138587791 0.2776374401459787 L 0.42344551811700026 0.2593098516532595 L 0.46718095047337516 0.25020615000881735 L 0.514558898185742 0.2508411855543497 L 0.5637179068574523 0.2613002642966283 L 0.612608423246086 0.28124169683456485 L 0.6590896032138112 0.30992116954774035 L 0.7010356357558967 0.3462354531597281 L 0.736445307485621 0.3887818568243526 L 0.7635481689868822 0.4359290562126561 L 0.7809007722199801 0.4858945174119816 L 0.7874670212216301 0.5368237172367096 L 0.7826776743170301 0.5868667037988828 L 0.7664653792513426 0.6342481972426808 L 0.7392732103479904 0.6773283225648967 L 0.7020363879168467 0.7146521000207794 L 0.6561385652779478 0.7449868908685774 L 0.6033456409717909 0.7673480054672343 L 0.5457213788681646 0.7810135359664816 L 0.4855301048791152 0.7855301048791151 L 0.42513233300954606 0.7807115768651278 L 0.36687932661070644 0.7666328464911687 L 0.31301232954861047 0.743620602338686 L 0.26557154728640175 0.7122425190250334 L 0.22631899009845868 0.6732957090320333 L 0.19667810319319712 0.6277945586592709 L 0.17769180903126114 0.5769573688715247 L 0.16999928761232339 0.5221906139342423 L 0.17383062743877875 0.4650692006028376 L 0.1890174849020483 0.40731092235491945 L 0.21501716207967253 0.3507433961237715 L 0.25094709340387905 0.2972621534573101 L 0.295626630465602 0.24877921340006223 L 0.34762321058787954 0.20716234047247453 L 0.4053004400369263 0.1741662121456523 L 0.4668662456909205 0.15135779142985797 L 0.53041996359244 0.14003921634404845 L 0.593997946937013 0.14117237297183635 L 0.6556179008247309 0.1553099154690405 L 0.7133226098507276 0.182537756117108 L 0.7652239605688466 0.22243391896240802 L 0.8095481429305779 0.27404811138394525 L 0.8446826408031035 0.3359054336825147 L 0.8692251188067033 0.4060363669421946" />
</svg>