<svg xmlns="http://www.w3.org/2000/svg" viewBox="0 0 1 1" width="800" height="800">
  <path style="fill:none; stroke-width:0.005; stroke:#000000; stroke-opacity:1; stroke-linecap:round;" d="M 0.7397302147566239 0.679392270986327 A 0.3184706164251584 0.2651312533886405 0 0 0 0.42125959833146553 0.9445235243749676" />
  <path style="fill:none; stroke-width:0.005; stroke:#000000; stroke-opacity:1; stroke-linecap:round;" d="M 0.7304993999658423 0.3848794981468161 A 0.14231176347218255 0.14369785823504588 0 0 0 0.5881876364936598 0.24118163991177022" />
  <path style="fill:none; stroke-width:0.005; stroke:#000000; stroke-opacity:1; stroke-linecap:round;" d="M 0.9969896448519155 0.6950459953202928 A 0.48858097724994354 0.1459223769974728 0 0 0 0.508408667601972 0.8409683723177656" />
  <path style="fill:none; stroke-width:0.005; stroke:#000000; stroke-opacity:1; stroke-linecap:round;" d="M 0.4825878662568962 0.7754961556501202 A 0.2091233515240375 0.6603802741726543 0 0 0 0.2734645147328587 0.11511588147746588" />
  <path style="fill:none; stroke-width:0.005; stroke:#000000; stroke-opacity:1; stroke-linecap:round;" d="M 0.9443081455501072 0.6447866740856201 A 0.07281536424592516 0.053146819241084 0 0 0 0.8714927813041821 0.5916398548445361" />
  <path style="fill:none; stroke-width:0.005; stroke:#000000; stroke-opacity:1; stroke-linecap:round;" d="M 0.8389344540029023 0.3138730518509365 A 0.1416065109611856 0.09739192949977094 0 0 0 0.9805409649640879 0.21648112235116557" />
  <path style="fill:none; stroke-width:0.005; stroke:#000000; stroke-opacity:1; stroke-linecap:round;" d="M 0.4106391824628256 0.15643535074878212 A 0.2850321265393436 0.7437488399999235 0 0 0 0.12560705592348198 0.9001841907487056" />
  <path style="fill:none; stroke-width:0.005; stroke:#000000; stroke-opacity:1; stroke-linecap:round;" d="M 0.2467796682700114 0.5472028143472593 A 0.15989504858202996 0.4725856462345326 0 0 0 0.08688461968798145 0.07461716811272667" />
  <path style="fill:none; stroke-width:0.005; stroke:#000000; stroke-opacity:1; stroke-linecap:round;" d="M 0.9909687075364513 0.37290042565115833 A 0.9450486569649965 0.5043659790363256 0 0 0 0.04592005057145476 0.877266404687484" />
  <path style="fill:none; stroke-width:0.005; stroke:#000000; stroke-opacity:1; stroke-linecap:round;" d="M 0.8421691193898784 0.6717541955686 A 0.06365432336006194 0.57145912695874 0 0 0 0.7785147960298164 0.10029506860986004" />
  <path style="fill:none; stroke-width:0.005; stroke:#000000; stroke-opacity:1; stroke-linecap:round;" d="M 0.8436812706187168 0.16943452088712252 A 0.4762236262877756 0.49155473278925677 0 0 0 0.3674576443309412 0.6609892536763793" />
  <path style="fill:none; stroke-width:0.005; stroke:#000000; stroke-opacity:1; stroke-linecap:round;" d="M 0.2223022362964846 0.9413390004966 A 0.2128921965950591 0.11334867798558357 0 0 0 0.00941003970142551 0.8279903225110165" />
  <path style="fill:none; stroke-width:0.005; stroke:#000000; stroke-opacity:1; stroke-linecap:round;" d="M 0.5381027429765688 0.5463006193774211 A 0.07859781135276123 0.013691313823552487 0 0 0 0.61670055432933 0.5326093055538687" />
  <path style="fill:none; stroke-width:0.005; stroke:#000000; stroke-opacity:1; stroke-linecap:round;" d="M 0.7368725647925024 0.5371476233025734 A 0.11969644284226633 0.2023891255517315 0 0 0 0.6171761219502361 0.7395367488543049" />
  <path style="fill:none; stroke-width:0.005; stroke:#000000; stroke-opacity:1; stroke-linecap:round;" d="M 0.9793023409713884 0.0014998477543917144 A 0.5805102000687242 0.7793942391448083 0 0 0 0.3987921409026641 0.7808940868992" />
  <path style="fill:none; stroke-width:0.005; stroke:#000000; stroke-opacity:1; stroke-linecap:round;" d="M 0.27013077416598064 0.44047329037614635 A 0.04287450217516853 0.4018759681935359 0 0 0 0.31300527634114916 0.03859732218261047" />
  <path style="fill:none; stroke-width:0.005; stroke:#000000; stroke-opacity:1; stroke-linecap:round;" d="M 0.8546737765984842 0.33739191682671255 A 0.8254553207202543 0.23010036553260782 0 0 0 0.02921845587822991 0.5674922823593204" />
  <path style="fill:none; stroke-width:0.005; stroke:#000000; stroke-opacity:1; stroke-linecap:round;" d="M 0.7504305600036459 0.2090310413313915 A 0.40717320004403124 0.12621257437342737 0 0 0 0.3432573599596147 0.08281846695796413" />
  <path style="fill:none; stroke-width:0.005; stroke:#000000; stroke-opacity:1; stroke-linecap:round;" d="M 0.6683480319737021 0.7491913598974667 A 0.4923903865249546 0.188489671651616 0 0 0 0.17595764544874748 0.5607016882458506" />
  <path style="fill:none; stroke-width:0.005; stroke:#000000; stroke-opacity:1; stroke-linecap:round;" d="M 0.10851503393298678 0.09367033364605382 A 0.0585643457833076 0.1785417333450381 0 0 0 0.16707937971629439 0.2722120669910919" />
  <path style="fill:none; stroke-width:0.005; stroke:#000000; stroke-opacity:1; stroke-linecap:round;" d="M 0.7885472109253844 0.040420261839264504 A 0.05938426074663883 0.2927768178289599 0 0 0 0.8479314716720232 0.3331970796682244" />
  <path style="fill:none; stroke-width:0.005; stroke:#000000; stroke-opacity:1; stroke-linecap:round;" d="M 0.45582771364603425 0.23516510936416368 A 0.5333265581839872 0.571238153928164 0 0 0 0.9891542718300215 0.8064032632923277" />
  <path style="fill:none; stroke-width:0.005; stroke:#000000; stroke-opacity:1; stroke-linecap:round;" d="M 0.9151969900850352 0.9046921507309845 A 0.7462539940746373 0.3284729217251582 0 0 0 0.16894299601039786 0.5762192290058263" />
  <path style="fill:none; stroke-width:0.005; stroke:#000000; stroke-opacity:1; stroke-linecap:round;" d="M 0.45925536265297073 0.676292792827382 A 0.07428861533102427 0.6169053275224692 0 0 0 0.38496674732194647 0.05938746530491279" />
  <path style="fill:none; stroke-width:0.005; stroke:#000000; stroke-opacity:1; stroke-linecap:round;" d="M 0.24092532758212104 0.7177780433142404 A 0.06034894620116904 0.2226595041653544 0 0 0 0.180576381380952 0.49511853914888604" />
  <path style="fill:none; stroke-width:0.005; stroke:#000000; stroke-opacity:1; stroke-linecap:round;" d="M 0.5323458138348043 0.3042205390309969 A 0.06131235249673839 0.2081234173187484 0 0 0 0.4710334613380659 0.5123439563497453" />
  <path style="fill:none; stroke-width:0.005; stroke:#000000; stroke-opacity:1; stroke-linecap:round;" d="M 0.7092577474708792 0.6084477461353882 A 0.13105713742214076 0.5126197523346834 0 0 0 0.5782006100487385 0.09582799380070484" />
  <path style="fill:none; stroke-width:0.005; stroke:#000000; stroke-opacity:1; stroke-linecap:round;" d="M 0.35939450767043735 0.0684111317559466 A 0.4975641593726453 0.16877442321849778 0 0 0 0.8569586670430827 0.23718555497444438" />
  <path style="fill:none; stroke-width:0.005; stroke:#000000; stroke-opacity:1; stroke-linecap:round;" d="M 0.2393518224758321 0.10424748719273103 A 0.47707986158503457 0.24303451945111854 0 0 0 0.7164316840608667 0.34728200664384956" />
  <path style="fill:none; stroke-width:0.005; stroke:#000000; stroke-opacity:1; stroke-linecap:round;" d="M 0.9522817874156652 0.48554504955938615 A 0.5003098480700684 0.02943223540669726 0 0 0 0.45197193934559676 0.5149772849660834" />
  <path style="fill:none; stroke-width:0.005; stroke:#000000; stroke-opacity:1; stroke-linecap:round;" d="M 0.5839274456291631 0.02867573379353916 A 0.13617637340612043 0.274286932418464 0 0 0 0.44775107222304267 0.3029626662120032" />
  <path style="fill:none; stroke-width:0.005; stroke:#000000; stroke-opacity:1; stroke-linecap:round;" d="M 0.2666221860676846 0.8830285467181012 A 0.005844054306421875 0.5838575201021344 0 0 0 0.26077813176126274 0.29917102661596673" />
  <path style="fill:none; stroke-width:0.005; stroke:#000000; stroke-opacity:1; stroke-linecap:round;" d="M 0.9944994284651942 0.9187603314384823 A 0.16447623566803993 0.32448857210410653 0 0 0 0.8300231927971543 0.5942717593343758" />
  <path style="fill:none; stroke-width:0.005; stroke:#000000; stroke-opacity:1; stroke-linecap:round;" d="M 0.8625013351733157 0.543268724601877 A 0.06849646141345866 0.3515951645679778 0 0 0 0.7940048737598571 0.8948638891698548" />
  <path style="fill:none; stroke-width:0.005; stroke:#000000; stroke-opacity:1; stroke-linecap:round;" d="M 0.361882122207279 0.013041839560541724 A 0.16594105007051962 0.0020504367934168766 0 0 0 0.19594107213675938 0.0150922763539586" />
  <path style="fill:none; stroke-width:0.005; stroke:#000000; stroke-opacity:1; stroke-linecap:round;" d="M 0.8969940372501922 0.09796893073795143 A 0.5604267967907873 0.1179454988486931 0 0 0 0.3365672404594049 0.21591442958664453" />
  <path style="fill:none; stroke-width:0.005; stroke:#000000; stroke-opacity:1; stroke-linecap:round;" d="M 0.20971434231615393 0.6549274891771841 A 0.15105777436550516 0.28853377622546494 0 0 0 0.3607721166816591 0.9434612654026491" />
  <path style="fill:none; stroke-width:0.005; stroke:#000000; stroke-opacity:1; stroke-linecap:round;" d="M 0.6591079480287482 0.9541050101764935 A 0.3455847430237077 0.8341019414424607 0 0 0 0.3135232050050405 0.12000306873403277" />
  <path style="fill:none; stroke-width:0.005; stroke:#000000; stroke-opacity:1; stroke-linecap:round;" d="M 0.7181543626077599 0.4578131358336869 A 0.6637811507976744 0.1423569359151844 0 0 0 0.054373211810085476 0.3154561999185025" />
  <path style="fill:none; stroke-width:0.005; stroke:#000000; stroke-opacity:1; stroke-linecap:round;" d="M 0.7319884011369798 0.11697669388322007 A 0.6857855673301424 0.11313189407313451 0 0 0 0.04620283380683743 0.23010858795635458" />
  <path style="fill:none; stroke-width:0.005; stroke:#000000; stroke-opacity:1; stroke-linecap:round;" d="M 0.1865101484378714 0.5626874516769959 A 0.08258151323845941 0.11222609816091167 0 0 0 0.2690916616763308 0.4504613535160842" />
  <path style="fill:none; stroke-width:0.005; stroke:#000000; stroke-opacity:1; stroke-linecap:round;" d="M 0.9003054408907301 0.26266554250875707 A 0.268216714754136 0.5234393845767649 0 0 0 0.6320887261365941 0.7861049270855219" />
  <path style="fill:none; stroke-width:0.005; stroke:#000000; stroke-opacity:1; stroke-linecap:round;" d="M 0.850238793255192 0.006059276075789377 A 0.46320838648901985 0.542871839065494 0 0 0 0.3870304067661722 0.5489311151412833" />
  <path style="fill:none; stroke-width:0.005; stroke:#000000; stroke-opacity:1; stroke-linecap:round;" d="M 0.09811315699553647 0.0364164494252055 A 0.5245257406854585 0.6829342557121845 0 0 0 0.622638897680995 0.71935070513739" />
  <path style="fill:none; stroke-width:0.005; stroke:#000000; stroke-opacity:1; stroke-linecap:round;" d="M 0.9228231102822164 0.9737981035380612 A 0.02177290555208966 0.9348743753674158 0 0 0 0.9010502047301268 0.03892372817064538" />
  <path style="fill:none; stroke-width:0.005; stroke:#000000; stroke-opacity:1; stroke-linecap:round;" d="M 0.5956180454482531 0.5930223635878547 A 0.18475059682111228 0.3916065735031289 0 0 0 0.7803686422693654 0.20141579008472577" />
  <path style="fill:none; stroke-width:0.005; stroke:#000000; stroke-opacity:1; stroke-linecap:round;" d="M 0.8697457463821965 0.48905135807726674 A 0.8035556262200895 0.41011119277877117 0 0 0 0.06619012016210701 0.07894016529849557" />
  <path style="fill:none; stroke-width:0.005; stroke:#000000; stroke-opacity:1; stroke-linecap:round;" d="M 0.1605288806868388 0.7080663779894467 A 0.2985178551243537 0.09054488768732882 0 0 0 0.4590467358111925 0.7986112656767755" />
  <path style="fill:none; stroke-width:0.005; stroke:#000000; stroke-opacity:1; stroke-linecap:round;" d="M 0.9133948371595133 0.3029507847728873 A 0.721205495737029 0.14365339660969112 0 0 0 0.19218934142248434 0.15929738816319616" />
  <path style="fill:none; stroke-width:0.005; stroke:#000000; stroke-opacity:1; stroke-linecap:round;" d="M 0.8197614911587333 0.8396346425136665 A 0.01933751175453957 0.2225665696222373 0 0 0 0.8390990029132729 0.6170680728914292" />
  <path style="fill:none; stroke-width:0.005; stroke:#000000; stroke-opacity:1; stroke-linecap:round;" d="M 0.6046494667908147 0.6741975674574576 A 0.14067537740010316 0.4785383967906326 0 0 0 0.7453248441909178 0.19565917066682503" />
  <path style="fill:none; stroke-width:0.005; stroke:#000000; stroke-opacity:1; stroke-linecap:round;" d="M 0.5355361824480217 0.3315321429129079 A 0.09410809768422157 0.1281928682516561 0 0 0 0.44142808476380013 0.459725011164564" />
  <path style="fill:none; stroke-width:0.005; stroke:#000000; stroke-opacity:1; stroke-linecap:round;" d="M 0.1320238027786147 0.4306452158407179 A 0.3501907403498753 0.4554907320057694 0 0 0 0.48221454312849 0.8861359478464873" />
  <path style="fill:none; stroke-width:0.005; stroke:#000000; stroke-opacity:1; stroke-linecap:round;" d="M 0.7886666489805005 0.055970537653465935 A 0.23655509902355198 0.17021718510172112 0 0 0 0.5521115499569486 0.22618772275518706" />
  <path style="fill:none; stroke-width:0.005; stroke:#000000; stroke-opacity:1; stroke-linecap:round;" d="M 0.6406499368626817 0.09699788370476858 A 0.6183335710459232 0.29279055645580154 0 0 0 0.022316365816758443 0.3897884401605701" />
  <path style="fill:none; stroke-width:0.005; stroke:#000000; stroke-opacity:1; stroke-linecap:round;" d="M 0.4122394487109293 0.27588669427279633 A 0.30448477549405273 0.0398857017933586 0 0 0 0.1077546732168766 0.3157723960661549" />
  <path style="fill:none; stroke-width:0.005; stroke:#000000; stroke-opacity:1; stroke-linecap:round;" d="M 0.45427789851355593 0.3786985635204141 A 0.4886562817489609 0.13056312182703855 0 0 0 0.9429341802625169 0.24813544169337554" />
  <path style="fill:none; stroke-width:0.005; stroke:#000000; stroke-opacity:1; stroke-linecap:round;" d="M 0.12528073652248362 0.14381207930674889 A 0.2531138855883476 0.13409426418498038 0 0 0 0.3783946221108312 0.27790634349172927" />
  <path style="fill:none; stroke-width:0.005; stroke:#000000; stroke-opacity:1; stroke-linecap:round;" d="M 0.43212138397795097 0.4496443920532067 A 0.2620066259161601 0.30086502789053327 0 0 0 0.694128009894111 0.14877936416267346" />
  <path style="fill:none; stroke-width:0.005; stroke:#000000; stroke-opacity:1; stroke-linecap:round;" d="M 0.8340067876292969 0.09268510198530167 A 0.04731762654461902 0.36355787180116594 0 0 0 0.8813244141739159 0.4562429737864676" />
  <path style="fill:none; stroke-width:0.005; stroke:#000000; stroke-opacity:1; stroke-linecap:round;" d="M 0.29741321881925864 0.9957453488910899 A 0.031340570906355336 0.571256997680033 0 0 0 0.328753789725614 0.4244883512110569" />
  <path style="fill:none; stroke-width:0.005; stroke:#000000; stroke-opacity:1; stroke-linecap:round;" d="M 0.1206468089088989 0.5386863665171867 A 0.332399790051807 0.037645369171727894 0 0 0 0.45304659896070587 0.5763317356889146" />
  <path style="fill:none; stroke-width:0.005; stroke:#000000; stroke-opacity:1; stroke-linecap:round;" d="M 0.8580604196136451 0.7524205169957131 A 0.6052721715784699 0.7501506926564231 0 0 0 0.2527882480351752 0.0022698243392900164" />
  <path style="fill:none; stroke-width:0.005; stroke:#000000; stroke-opacity:1; stroke-linecap:round;" d="M 0.4755566053839444 0.39341428514827825 A 0.04540987509345995 0.5947373057273134 0 0 0 0.5209664804774043 0.9881515908755917" />
  <path style="fill:none; stroke-width:0.005; stroke:#000000; stroke-opacity:1; stroke-linecap:round;" d="M 0.5058374992789956 0.11550511145890974 A 0.35310902215908235 0.8147460542281137 0 0 0 0.8589465214380779 0.9302511656870235" />
  <path style="fill:none; stroke-width:0.005; stroke:#000000; stroke-opacity:1; stroke-linecap:round;" d="M 0.10146656652326302 0.3543935661965655 A 0.7046849496788932 0.4750424807559648 0 0 0 0.8061515162021562 0.8294360469525303" />
  <path style="fill:none; stroke-width:0.005; stroke:#000000; stroke-opacity:1; stroke-linecap:round;" d="M 0.7592740869793754 0.3321728423273542 A 0.5822417138298521 0.2315782356520365 0 0 0 0.17703237314952325 0.10059460667531772" />
  <path style="fill:none; stroke-width:0.005; stroke:#000000; stroke-opacity:1; stroke-linecap:round;" d="M 0.09111568182002638 0.5063898584223946 A 0.8282688853368273 0.028503582178325715 0 0 0 0.9193845671568537 0.5348934406007203" />
  <path style="fill:none; stroke-width:0.005; stroke:#000000; stroke-opacity:1; stroke-linecap:round;" d="M 0.9508651702452768 0.6719676482724648 A 0.45493420779206695 0.3346189823561072 0 0 0 0.4959309624532099 0.3373486659163576" />
  <path style="fill:none; stroke-width:0.005; stroke:#000000; stroke-opacity:1; stroke-linecap:round;" d="M 0.2774498041620347 0.24427630737352246 A 0.2692549212628209 0.10134437864548218 0 0 0 0.008194882899213773 0.34562068601900464" />
  <path style="fill:none; stroke-width:0.005; stroke:#000000; stroke-opacity:1; stroke-linecap:round;" d="M 0.4557570595945045 0.09422813189424861 A 0.06710079164039373 0.7337258402280189 0 0 0 0.5228578512348983 0.8279539721222675" />
  <path style="fill:none; stroke-width:0.005; stroke:#000000; stroke-opacity:1; stroke-linecap:round;" d="M 0.9414683359717627 0.7245600733735085 A 0.7108254015499341 0.24250829716625943 0 0 0 0.2306429344218286 0.9670683705397679" />
  <path style="fill:none; stroke-width:0.005; stroke:#000000; stroke-opacity:1; stroke-linecap:round;" d="M 0.697229719473156 0.5421894444753476 A 0.19547728321147428 0.1202583226459849 0 0 0 0.8927070026846303 0.42193112182936265" />
  <path style="fill:none; stroke-width:0.005; stroke:#000000; stroke-opacity:1; stroke-linecap:round;" d="M 0.02796288929246915 0.4321494750495306 A 0.043439719496884854 0.2415359987492124 0 0 0 0.071402608789354 0.673685473798743" />
  <path style="fill:none; stroke-width:0.005; stroke:#000000; stroke-opacity:1; stroke-linecap:round;" d="M 0.015898268408404914 0.747648970305865 A 0.4200467658094521 0.3729794040926031 0 0 0 0.435945034217857 0.37466956621326186" />
  <path style="fill:none; stroke-width:0.005; stroke:#000000; stroke-opacity:1; stroke-linecap:round;" d="M 0.42824661265915254 0.8686866868354401 A 0.1405080720837606 0.26270125859938975 0 0 0 0.5687546847429131 0.6059854282360504" />
  <path style="fill:none; stroke-width:0.005; stroke:#000000; stroke-opacity:1; stroke-linecap:round;" d="M 0.06287369582653468 0.5597669575363169 A 0.08446313836100261 0.17158300252667846 0 0 0 0.1473368341875373 0.7313499600629954" />
  <path style="fill:none; stroke-width:0.005; stroke:#000000; stroke-opacity:1; stroke-linecap:round;" d="M 0.664974325998035 0.0022332068362493906 A 0.14405862454595986 0.8320382572605417 0 0 0 0.8090329505439948 0.8342714640967911" />
  <path style="fill:none; stroke-width:0.005; stroke:#000000; stroke-opacity:1; stroke-linecap:round;" d="M 0.8604567874763792 0.5233463812326247 A 0.6168778686382128 0.27065069342561576 0 0 0 0.2435789188381664 0.7939970746582404" />
  <path style="fill:none; stroke-width:0.005; stroke:#000000; stroke-opacity:1; stroke-linecap:round;" d="M 0.6728498352624694 0.34654026196979504 A 0.07614562800059765 0.19540663791048418 0 0 0 0.7489954632630671 0.15113362405931086" />
  <path style="fill:none; stroke-width:0.005; stroke:#000000; stroke-opacity:1; stroke-linecap:round;" d="M 0.7914795469789745 0.24990269742931648 A 0.33337027752424864 0.665989526711636 0 0 0 0.45810926945472585 0.9158922241409525" />
  <path style="fill:none; stroke-width:0.005; stroke:#000000; stroke-opacity:1; stroke-linecap:round;" d="M 0.8589667674466008 0.4015031114577162 A 0.37522458490298516 0.18968440728214353 0 0 0 0.4837421825436157 0.5911875187398598" />
  <path style="fill:none; stroke-width:0.005; stroke:#000000; stroke-opacity:1; stroke-linecap:round;" d="M 0.7593457713743379 0.1599103180337358 A 0.046326143944531384 0.11976735584571097 0 0 0 0.7130196274298065 0.04014296218802482" />
  <path style="fill:none; stroke-width:0.005; stroke:#000000; stroke-opacity:1; stroke-linecap:round;" d="M 0.6798941541491801 0.3451959834423586 A 0.007517284808641667 0.09407734280855495 0 0 0 0.6874114389578218 0.2511186406338036" />
  <path style="fill:none; stroke-width:0.005; stroke:#000000; stroke-opacity:1; stroke-linecap:round;" d="M 0.04257852002186491 0.7363397700650797 A 0.028017385857037946 0.5786242002860904 0 0 0 0.014561134164826961 0.15771556977898926" />
  <path style="fill:none; stroke-width:0.005; stroke:#000000; stroke-opacity:1; stroke-linecap:round;" d="M 0.022196781880201244 0.036739929682164774 A 0.21618805839828503 0.503295634108929 0 0 0 0.23838484027848628 0.5400355637910937" />
  <path style="fill:none; stroke-width:0.005; stroke:#000000; stroke-opacity:1; stroke-linecap:round;" d="M 0.15809137233548276 0.32935376276417017 A 0.7782204689538945 0.09815755721615227 0 0 0 0.9363118412893773 0.2311962055480179" />
  <path style="fill:none; stroke-width:0.005; stroke:#000000; stroke-opacity:1; stroke-linecap:round;" d="M 0.28471022695135884 0.23293804845433108 A 0.6197039459687596 0.11302773944849998 0 0 0 0.9044141729201184 0.1199103090058311" />
  <path style="fill:none; stroke-width:0.005; stroke:#000000; stroke-opacity:1; stroke-linecap:round;" d="M 0.6300118706866971 0.6371651440637139 A 0.14873547155641342 0.23429813996228632 0 0 0 0.7787473422431105 0.8714632840260003" />
  <path style="fill:none; stroke-width:0.005; stroke:#000000; stroke-opacity:1; stroke-linecap:round;" d="M 0.010451859749721404 0.4039916388565634 A 0.7065058932315297 0.5695143294787817 0 0 0 0.7169577529812511 0.9735059683353451" />
  <path style="fill:none; stroke-width:0.005; stroke:#000000; stroke-opacity:1; stroke-linecap:round;" d="M 0.2724342960060915 0.04435646599654364 A 0.3338891074134104 0.18336943309963605 0 0 0 0.6063234034195019 0.22772589909617968" />
  <path style="fill:none; stroke-width:0.005; stroke:#000000; stroke-opacity:1; stroke-linecap:round;" d="M 0.06888854321147253 0.36347156075551357 A 0.5537773086675553 0.15688023915027893 0 0 0 0.6226658518790278 0.5203517999057925" />
  <path style="fill:none; stroke-width:0.005; stroke:#000000; stroke-opacity:1; stroke-linecap:round;" d="M 0.7986513666818577 0.2978875623865832 A 0.1928925973017459 0.3260016404388033 0 0 0 0.6057587693801118 0.6238892028253865" />
  <path style="fill:none; stroke-width:0.005; stroke:#000000; stroke-opacity:1; stroke-linecap:round;" d="M 0.35591103918935885 0.9710796957688606 A 0.19870532067496394 0.5209684134226628 0 0 0 0.5546163598643228 0.4501112823461978" />
  <path style="fill:none; stroke-width:0.005; stroke:#000000; stroke-opacity:1; stroke-linecap:round;" d="M 0.038161557379018496 0.6221519001829633 A 0.9611339779049339 0.597564533147295 0 0 0 0.9992955352839524 0.024587367035668328" />
  <path style="fill:none; stroke-width:0.005; stroke:#000000; stroke-opacity:1; stroke-linecap:round;" d="M 0.22850907179124724 0.6834068763641089 A 0.4583482037876777 0.5360536332499618 0 0 0 0.686857275578925 0.1473532431141471" />
  <path style="fill:none; stroke-width:0.005; stroke:#000000; stroke-opacity:1; stroke-linecap:round;" d="M 0.13008288520562072 0.9622350598625737 A 0.037001417749286114 0.766837652578949 0 0 0 0.16708430295490684 0.19539740728362476" />
  <path style="fill:none; stroke-width:0.005; stroke:#000000; stroke-opacity:1; stroke-linecap:round;" d="M 0.46892153416528115 0.8713723956387027 A 0.34297161735916426 0.8531170731567473 0 0 0 0.8118931515244454 0.018255322481955383" />
  <path style="fill:none; stroke-width:0.005; stroke:#000000; stroke-opacity:1; stroke-linecap:round;" d="M 0.08913985778263667 0.4100544146985743 A 0.6260616067731039 0.09595008335581057 0 0 0 0.7152014645557405 0.3141043313427637" />
  <path style="fill:none; stroke-width:0.005; stroke:#000000; stroke-opacity:1; stroke-linecap:round;" d="M 0.42111293142874395 0.529147402971872 A 0.23163895749910246 0.06240043003528861 0 0 0 0.6527518889278464 0.4667469729365834" />
</svg>