<svg xmlns="http://www.w3.org/2000/svg" viewBox="0 0 1 1" width="800" height="800">
  <path style="fill:none; stroke-width:0.005; stroke:#000000; stroke-opacity:1; stroke-linecap:round;" d="M 0.5 0.5 L 0.5 0.5 L 0.5019753766811903 0.5003128689300804 L 0.5038042260651806 0.5012360679774998 L 0.5053460391451302 0.5027239429984373 L 0.5064721359549996 0.5047022820183398 L 0.5070710678118655 0.5070710678118655 L 0.5070534230275097 0.5097082039324994 L 0.5063558669963537 0.5124740913386372 L 0.5049442719099991 0.5152169042607224 L 0.5028158203707241 0.5177783901307125 L 0.5 0.52 L 0.4965584417691149 0.5217291434930931 L 0.49258359213500125 0.5228253563910837 L 0.4881962470067718 0.5231661696288976 L 0.4835420129358107 0.5226524758424985 L 0.4787867965644036 0.5212132034355964 L 0.47411145618000167 0.5188091280733591 L 0.4697057781775955 0.5154356769911446 L 0.4657619654133745 0.5111246117974981 L 0.46246784305738475 0.5059445096715288 L 0.45999999999999996 0.5 L 0.4585170896950042 0.49342975246831033 L 0.45815351328301324 0.4864032522475023 L 0.4590136998873351 0.4791164370119808 L 0.46116718427000253 0.4717863078899613 L 0.46464466094067264 0.46464466094067264 L 0.4694351668807914 0.4579311162925027 L 0.47548451301406447 0.4518856476938281 L 0.48269504831500293 0.4467408350874714 L 0.4909268010276666 0.44271407624548204 L 0.5 0.44 L 0.5096989368324943 0.43876332288310144 L 0.5197770876399966 0.43913238295711016 L 0.52996337298281 0.4411935694035677 L 0.5399693971558882 0.4449868443825036 L 0.5494974746830583 0.4505025253169417 L 0.5582492235949962 0.4576794618349419 L 0.5659344827899392 0.4664047030192735 L 0.5722802952384317 0.476514708427504 L 0.5770396905664208 0.48779811172686205 L 0.5800000000000001 0.5 L 0.5809904439288013 0.5128276261332988 L 0.5798887473687929 0.5259574275274955 L 0.5766265610801996 0.539043182977601 L 0.5711934955049953 0.5517251022017376 L 0.5636396103067893 0.5636396103067893 L 0.5540762432109075 0.5744295634824952 L 0.5426751069755175 0.5837546132737066 L 0.529665631459995 0.5913014255643347 L 0.5153305775739425 0.5967934573783236 L 0.5 0.6 L 0.4840436845658966 0.600744210740704 L 0.4678622325850055 0.598909877694696 L 0.45187700702760797 0.594446691563967 L 0.4365191927524129 0.5873738353924943 L 0.4222182540694799 0.5777817459305203 L 0.4093900966300059 0.565831948256757 L 0.3984252562425261 0.5517549169703084 L 0.38967744410976224 0.5358459713474939 L 0.38345277580977377 0.5184592668747474 L 0.38 0.5 L 0.3795020224473932 0.48091499526509196 L 0.3820689919794009 0.4616818926975066 L 0.3877331779522656 0.4427971970328173 L 0.39644582472000667 0.42476348770656347 L 0.40807611844574887 0.40807611844574876 L 0.42241234669739347 0.39320975674250697 L 0.43916527303490077 0.38060512575875866 L 0.4579736887650073 0.37065631378385905 L 0.47841204382444796 0.363699008997871 L 0.49999999999999994 0.36 L 0.5222136940357126 0.3597482556354904 L 0.5444984471899921 0.3630478616534978 L 0.5662826129619737 0.3699130474684982 L 0.586992217339286 0.38026548483250777 L 0.606066017177982 0.39393398282201775 L 0.622970583144992 0.41065664165154403 L 0.6372150047250087 0.43008546304010986 L 0.648364816542044 0.4517933488775084 L 0.6560547578140318 0.47528335452364356 L 0.66 0.49999999999999994 L 0.6600055111764123 0.5253423833365177 L 0.6559732686724054 0.550678787077491 L 0.6479070830152691 0.5753624229567645 L 0.6359148550549912 0.5987479223851354 L 0.620208152801713 0.6202081528017132 L 0.6010990633943054 0.6391509230324909 L 0.5789943469546813 0.6550351352087759 L 0.5543869910099906 0.667385946867947 L 0.527845334777161 0.6758085246259345 L 0.5000000000000001 0.68 L 0.47152892736267826 0.6797592779883151 L 0.4431408730350095 0.6749943989983083 L 0.4155577670484442 0.6657272134990364 L 0.3894963725690154 0.6520951949424904 L 0.36564971157455617 0.6343502884254442 L 0.3446687370800101 0.612854768440155 L 0.3271447343074567 0.5880741569494723 L 0.3135929228061498 0.5605673308974894 L 0.3044377085621627 0.5309740240779657 L 0.3 0.5000000000000001 L 0.3004869551997821 0.46840023806187364 L 0.3059844706757885 0.4369605331475112 L 0.3164526560171964 0.40647795705365297 L 0.33172446517001086 0.3777406675231657 L 0.35150757595082505 0.35150757595082494 L 0.3753895265139959 0.328488397192511 L 0.40284603305573735 0.3093246038236891 L 0.4332523292150112 0.29457179248024684 L 0.4658972866212297 0.2846839417502599 L 0.49999999999999944 0.27999999999999997 L 0.5347284512389316 0.2807331883878794 L 0.5692198067399881 0.2869633403498855 L 0.6026018529411369 0.29863252553342856 L 0.6340150375226834 0.31554412528251163 L 0.6626345596729057 0.3373654403270938 L 0.6876919426949877 0.3636338214681461 L 0.7084955266600776 0.39376622306094533 L 0.724449337845656 0.42707198932751184 L 0.7350698250616428 0.4627685973204247 L 0.74 0.49999999999999983 L 0.7390205784240234 0.5378571405397359 L 0.7320577899760177 0.5754001466274866 L 0.7191876049503383 0.611681662935929 L 0.700636214604987 0.6457707425685332 L 0.6767766952966369 0.676776695296637 L 0.6481218835777037 0.7038722825824864 L 0.6153135869338453 0.7263156571438453 L 0.5791083505599868 0.7434704681715593 L 0.5403600919803795 0.7548235918735455 L 0.4999999999999997 0.76 L 0.459014170159459 0.758774345235926 L 0.41841951348501405 0.7510789203019206 L 0.3792385270692805 0.7370077354341058 L 0.34247355238561694 0.7168165544924858 L 0.30908116907963246 0.6909188309203682 L 0.27994737753001386 0.6598775886235522 L 0.2558642123723872 0.6243933969286358 L 0.23750840150253788 0.5852886904474861 L 0.2254226413145518 0.5434887812811846 L 0.22000000000000003 0.5000000000000002 L 0.22147188795217115 0.4558854808586549 L 0.22989994937217617 0.41223917359751566 L 0.24517213408212657 0.3701587170744901 L 0.2670031056200144 0.3307178473397688 L 0.2949390334559012 0.2949390334559012 L 0.3283667063305973 0.2637670376425158 L 0.36652679307657277 0.23804408188862014 L 0.40853096966501534 0.21848727117663463 L 0.4533825294180112 0.20566887450264898 L 0.49999999999999917 0.19999999999999996 L 0.5472432084421492 0.20171812114026827 L 0.5939411662899837 0.2108788190462732 L 0.6389210929203013 0.2273520035983594 L 0.6810378577060819 0.2508227657325163 L 0.7192031021678293 0.2807968978321698 L 0.7524133022449842 0.316611001284749 L 0.7797760485951475 0.35744698308178224 L 0.8005338591492687 0.40235062977751684 L 0.8140848923092537 0.450253840117206 L 0.8200000000000001 0.49999999999999967 L 0.8180356456716344 0.5503718977429544 L 0.8081423112796293 0.6001215061774843 L 0.7904681268854088 0.6480009029150907 L 0.7653575741549836 0.6927935627519299 L 0.7333452377915607 0.7333452377915607 L 0.6951447037611018 0.7685936421324819 L 0.6516328269130092 0.7975961790789146 L 0.6038297101099827 0.8195549894751715 L 0.5528748491835993 0.8338386591211564 L 0.4999999999999997 0.8400000000000001 L 0.4464994129562405 0.837789412483537 L 0.39369815393501845 0.8271634416055329 L 0.3429192870901169 0.8082882573691753 L 0.2954507322022202 0.7815379140424823 L 0.25251262658470885 0.7474873734152921 L 0.21522601798001795 0.7069004088069498 L 0.18458369043731837 0.6607126369078008 L 0.16142388019892523 0.6100100499974811 L 0.14640757406694077 0.5560035384844033 L 0.13999999999999996 0.5000000000000004 L 0.14245682070456006 0.4433707236554365 L 0.15381542806856374 0.3875178140475201 L 0.17389161214705762 0.33383947709532535 L 0.2022817460700198 0.28369502715636913 L 0.23837049096097734 0.23837049096097745 L 0.2813438861472002 0.19904567809251938 L 0.3302075530974112 0.16676355995354952 L 0.3838096101150181 0.14240274987302282 L 0.4408677722147913 0.12665380725503816 L 0.4999999999999989 0.12 L 0.5597579656453661 0.12270305389265701 L 0.6186625258399794 0.13479429774266088 L 0.675240332899465 0.15607148166328993 L 0.7280606778894787 0.18610140618251975 L 0.775771644662753 0.2242283553372459 L 0.81713466179498 0.2695881811013513 L 0.8510565705302162 0.32112774310261716 L 0.8766183804528809 0.377629270227521 L 0.8930999595568647 0.4377390829139873 L 0.9 0.4999999999999995" />
</svg>