<svg xmlns="http://www.w3.org/2000/svg" viewBox="0 0 1 1" width="800" height="800">
  <gundefined>
    <path style="fill:#D92626; stroke-width:0.005; stroke:#000000; stroke-opacity:1; stroke-linecap:round;" d="M 0.1 NaN A 0.04 NaN 0 0 0 0.060000000000000005 NaN A 0.04 NaN 0 0 0 0.14 NaN A 0.04 NaN 0 0 0 0.060000000000000005 NaN A 0.04 NaN 0 0 0 0.14 NaN" />
  </g>
  <gundefined>
    <path style="fill:#D96226; stroke-width:0.005; stroke:#000000; stroke-opacity:1; stroke-linecap:round;" d="M 0.1 NaN A 0.04 NaN 0 0 0 0.060000000000000005 NaN A 0.04 NaN 0 0 0 0.14 NaN A 0.04 NaN 0 0 0 0.060000000000000005 NaN A 0.04 NaN 0 0 0 0.14 NaN" />
  </g>
  <gundefined>
    <path style="fill:#D99D26; stroke-width:0.005; stroke:#000000; stroke-opacity:1; stroke-linecap:round;" d="M 0.1 NaN A 0.04 NaN 0 0 0 0.060000000000000005 NaN A 0.04 NaN 0 0 0 0.14 NaN A 0.04 NaN 0 0 0 0.060000000000000005 NaN A 0.04 NaN 0 0 0 0.14 NaN" />
  </g>
  <gundefined>
    <path style="fill:#D9D926; stroke-width:0.005; stroke:#000000; stroke-opacity:1; stroke-linecap:round;" d="M 0.1 NaN A 0.04 NaN 0 0 0 0.060000000000000005 NaN A 0.04 NaN 0 0 0 0.14 NaN A 0.04 NaN 0 0 0 0.060000000000000005 NaN A 0.04 NaN 0 0 0 0.14 NaN" />
  </g>
  <gundefined>
    <path style="fill:#9DD926; stroke-width:0.005; stroke:#000000; stroke-opacity:1; stroke-linecap:round;" d="M 0.1 NaN A 0.04 NaN 0 0 0 0.060000000000000005 NaN A 0.04 NaN 0 0 0 0.14 NaN A 0.04 NaN 0 0 0 0.060000000000000005 NaN A 0.04 NaN 0 0 0 0.14 NaN" />
  </g>
  <gundefined>
    <path style="fill:#D96226; stroke-width:0.005; stroke:#000000; stroke-opacity:1; stroke-linecap:round;" d="M 0.1 NaN A 0.04 NaN 0 0 0 0.060000000000000005 NaN A 0.04 NaN 0 0 0 0.14 NaN A 0.04 NaN 0 0 0 0.060000000000000005 NaN A 0.04 NaN 0 0 0 0.14 NaN" />
  </g>
  <gundefined>
    <path style="fill:#D99D26; stroke-width:0.005; stroke:#000000; stroke-opacity:1; stroke-linecap:round;" d="M 0.1 NaN A 0.04 NaN 0 0 0 0.060000000000000005 NaN A 0.04 NaN 0 0 0 0.14 NaN A 0.04 NaN 0 0 0 0.060000000000000005 NaN A 0.04 NaN 0 0 0 0.14 NaN" />
  </g>
  <gundefined>
    <path style="fill:#D9D926; stroke-width:0.005; stroke:#000000; stroke-opacity:1; stroke-linecap:round;" d="M 0.1 NaN A 0.04 NaN 0 0 0 0.060000000000000005 NaN A 0.04 NaN 0 0 0 0.14 NaN A 0.04 NaN 0 0 0 0.060000000000000005 NaN A 0.04 NaN 0 0 0 0.14 NaN" />
  </g>
  <gundefined>
    <path style="fill:#9DD926; stroke-width:0.005; stroke:#000000; stroke-opacity:1; stroke-linecap:round;" d="M 0.1 NaN A 0.04 NaN 0 0 0 0.060000000000000005 NaN A 0.04 NaN 0 0 0 0.14 NaN A 0.04 NaN 0 0 0 0.060000000000000005 NaN A 0.04 NaN 0 0 0 0.14 NaN" />
  </g>
  <gundefined>
    <path style="fill:#62D926; stroke-width:0.005; stroke:#000000; stroke-opacity:1; stroke-linecap:round;" d="M 0.1 NaN A 0.04 NaN 0 0 0 0.060000000000000005 NaN A 0.04 NaN 0 0 0 0.14 NaN A 0.04 NaN 0 0 0 0.060000000000000005 NaN A 0.04 NaN 0 0 0 0.14 NaN" />
  </g>
  <gundefined>
    <path style="fill:#D99D26; stroke-width:0.005; stroke:#000000; stroke-opacity:1; stroke-linecap:round;" d="M 0.1 NaN A 0.04 NaN 0 0 0 0.060000000000000005 NaN A 0.04 NaN 0 0 0 0.14 NaN A 0.04 NaN 0 0 0 0.060000000000000005 NaN A 0.04 NaN 0 0 0 0.14 NaN" />
  </g>
  <gundefined>
    <path style="fill:#D9D926; stroke-width:0.005; stroke:#000000; stroke-opacity:1; stroke-linecap:round;" d="M 0.1 NaN A 0.04 NaN 0 0 0 0.060000000000000005 NaN A 0.04 NaN 0 0 0 0.14 NaN A 0.04 NaN 0 0 0 0.060000000000000005 NaN A 0.04 NaN 0 0 0 0.14 NaN" />
  </g>
  <gundefined>
    <path style="fill:#9DD926; stroke-width:0.005; stroke:#000000; stroke-opacity:1; stroke-linecap:round;" d="M 0.1 NaN A 0.04 NaN 0 0 0 0.060000000000000005 NaN A 0.04 NaN 0 0 0 0.14 NaN A 0.04 NaN 0 0 0 0.060000000000000005 NaN A 0.04 NaN 0 0 0 0.14 NaN" />
  </g>
  <gundefined>
    <path style="fill:#62D926; stroke-width:0.005; stroke:#000000; stroke-opacity:1; stroke-linecap:round;" d="M 0.1 NaN A 0.04 NaN 0 0 0 0.060000000000000005 NaN A 0.04 NaN 0 0 0 0.14 NaN A 0.04 NaN 0 0 0 0.060000000000000005 NaN A 0.04 NaN 0 0 0 0.14 NaN" />
  </g>
  <gundefined>
    <path style="fill:#26D926; stroke-width:0.005; stroke:#000000; stroke-opacity:1; stroke-linecap:round;" d="M 0.1 NaN A 0.04 NaN 0 0 0 0.060000000000000005 NaN A 0.04 NaN 0 0 0 0.14 NaN A 0.04 NaN 0 0 0 0.060000000000000005 NaN A 0.04 NaN 0 0 0 0.14 NaN" />
  </g>
  <gundefined>
    <path style="fill:#D9D926; stroke-width:0.005; stroke:#000000; stroke-opacity:1; stroke-linecap:round;" d="M 0.1 NaN A 0.04 NaN 0 0 0 0.060000000000000005 NaN A 0.04 NaN 0 0 0 0.14 NaN A 0.04 NaN 0 0 0 0.060000000000000005 NaN A 0.04 NaN 0 0 0 0.14 NaN" />
  </g>
  <gundefined>
    <path style="fill:#9DD926; stroke-width:0.005; stroke:#000000; stroke-opacity:1; stroke-linecap:round;" d="M 0.1 NaN A 0.04 NaN 0 0 0 0.060000000000000005 NaN A 0.04 NaN 0 0 0 0.14 NaN A 0.04 NaN 0 0 0 0.060000000000000005 NaN A 0.04 NaN 0 0 0 0.14 NaN" />
  </g>
  <gundefined>
    <path style="fill:#62D926; stroke-width:0.005; stroke:#000000; stroke-opacity:1; stroke-linecap:round;" d="M 0.1 NaN A 0.04 NaN 0 0 0 0.060000000000000005 NaN A 0.04 NaN 0 0 0 0.14 NaN A 0.04 NaN 0 0 0 0.060000000000000005 NaN A 0.04 NaN 0 0 0 0.14 NaN" />
  </g>
  <gundefined>
    <path style="fill:#26D926; stroke-width:0.005; stroke:#000000; stroke-opacity:1; stroke-linecap:round;" d="M 0.1 NaN A 0.04 NaN 0 0 0 0.060000000000000005 NaN A 0.04 NaN 0 0 0 0.14 NaN A 0.04 NaN 0 0 0 0.060000000000000005 NaN A 0.04 NaN 0 0 0 0.14 NaN" />
  </g>
  <gundefined>
    <path style="fill:#26D962; stroke-width:0.005; stroke:#000000; stroke-opacity:1; stroke-linecap:round;" d="M 0.1 NaN A 0.04 NaN 0 0 0 0.060000000000000005 NaN A 0.04 NaN 0 0 0 0.14 NaN A 0.04 NaN 0 0 0 0.060000000000000005 NaN A 0.04 NaN 0 0 0 0.14 NaN" />
  </g>
  <gundefined>
    <path style="fill:#9DD926; stroke-width:0.005; stroke:#000000; stroke-opacity:1; stroke-linecap:round;" d="M 0.1 NaN A 0.04 NaN 0 0 0 0.060000000000000005 NaN A 0.04 NaN 0 0 0 0.14 NaN A 0.04 NaN 0 0 0 0.060000000000000005 NaN A 0.04 NaN 0 0 0 0.14 NaN" />
  </g>
  <gundefined>
    <path style="fill:#62D926; stroke-width:0.005; stroke:#000000; stroke-opacity:1; stroke-linecap:round;" d="M 0.1 NaN A 0.04 NaN 0 0 0 0.060000000000000005 NaN A 0.04 NaN 0 0 0 0.14 NaN A 0.04 NaN 0 0 0 0.060000000000000005 NaN A 0.04 NaN 0 0 0 0.14 NaN" />
  </g>
  <gundefined>
    <path style="fill:#26D926; stroke-width:0.005; stroke:#000000; stroke-opacity:1; stroke-linecap:round;" d="M 0.1 NaN A 0.04 NaN 0 0 0 0.060000000000000005 NaN A 0.04 NaN 0 0 0 0.14 NaN A 0.04 NaN 0 0 0 0.060000000000000005 NaN A 0.04 NaN 0 0 0 0.14 NaN" />
  </g>
  <gundefined>
    <path style="fill:#26D962; stroke-width:0.005; stroke:#000000; stroke-opacity:1; stroke-linecap:round;" d="M 0.1 NaN A 0.04 NaN 0 0 0 0.060000000000000005 NaN A 0.04 NaN 0 0 0 0.14 NaN A 0.04 NaN 0 0 0 0.060000000000000005 NaN A 0.04 NaN 0 0 0 0.14 NaN" />
  </g>
  <gundefined>
    <path style="fill:#26D99D; stroke-width:0.005; stroke:#000000; stroke-opacity:1; stroke-linecap:round;" d="M 0.1 NaN A 0.04 NaN 0 0 0 0.060000000000000005 NaN A 0.04 NaN 0 0 0 0.14 NaN A 0.04 NaN 0 0 0 0.060000000000000005 NaN A 0.04 NaN 0 0 0 0.14 NaN" />
  </g>
</svg>