<svg xmlns="http://www.w3.org/2000/svg" viewBox="0 0 1 1" width="800" height="800">
  <path style="fill:none; stroke-width:0.005; stroke:#000000; stroke-opacity:1; stroke-linecap:round;" d="M 0.18 NaN A 0.032 NaN 0 0 0 0.148 NaN A 0.032 NaN 0 0 0 0.212 NaN A 0.032 NaN 0 0 0 0.148 NaN A 0.032 NaN 0 0 0 0.212 NaN" />
  <path style="fill:none; stroke-width:0.005; stroke:#000000; stroke-opacity:1; stroke-linecap:round;" d="M 0.18 NaN A 0.032 NaN 0 0 0 0.148 NaN A 0.032 NaN 0 0 0 0.212 NaN A 0.032 NaN 0 0 0 0.148 NaN A 0.032 NaN 0 0 0 0.212 NaN" />
  <path style="fill:none; stroke-width:0.005; stroke:#000000; stroke-opacity:1; stroke-linecap:round;" d="M 0.18 NaN A 0.032 NaN 0 0 0 0.148 NaN A 0.032 NaN 0 0 0 0.212 NaN A 0.032 NaN 0 0 0 0.148 NaN A 0.032 NaN 0 0 0 0.212 NaN" />
  <path style="fill:none; stroke-width:0.005; stroke:#000000; stroke-opacity:1; stroke-linecap:round;" d="M 0.18 NaN A 0.032 NaN 0 0 0 0.148 NaN A 0.032 NaN 0 0 0 0.212 NaN A 0.032 NaN 0 0 0 0.148 NaN A 0.032 NaN 0 0 0 0.212 NaN" />
  <path style="fill:none; stroke-width:0.005; stroke:#000000; stroke-opacity:1; stroke-linecap:round;" d="M 0.18 NaN A 0.032 NaN 0 0 0 0.148 NaN A 0.032 NaN 0 0 0 0.212 NaN A 0.032 NaN 0 0 0 0.148 NaN A 0.032 NaN 0 0 0 0.212 NaN" />
  <path style="fill:none; stroke-width:0.005; stroke:#000000; stroke-opacity:1; stroke-linecap:round;" d="M 0.34 NaN A 0.032 NaN 0 0 0 0.30800000000000005 NaN A 0.032 NaN 0 0 0 0.372 NaN A 0.032 NaN 0 0 0 0.30800000000000005 NaN A 0.032 NaN 0 0 0 0.372 NaN" />
  <path style="fill:none; stroke-width:0.005; stroke:#000000; stroke-opacity:1; stroke-linecap:round;" d="M 0.34 NaN A 0.032 NaN 0 0 0 0.30800000000000005 NaN A 0.032 NaN 0 0 0 0.372 NaN A 0.032 NaN 0 0 0 0.30800000000000005 NaN A 0.032 NaN 0 0 0 0.372 NaN" />
  <path style="fill:none; stroke-width:0.005; stroke:#000000; stroke-opacity:1; stroke-linecap:round;" d="M 0.34 NaN A 0.032 NaN 0 0 0 0.30800000000000005 NaN A 0.032 NaN 0 0 0 0.372 NaN A 0.032 NaN 0 0 0 0.30800000000000005 NaN A 0.032 NaN 0 0 0 0.372 NaN" />
  <path style="fill:none; stroke-width:0.005; stroke:#000000; stroke-opacity:1; stroke-linecap:round;" d="M 0.34 NaN A 0.032 NaN 0 0 0 0.30800000000000005 NaN A 0.032 NaN 0 0 0 0.372 NaN A 0.032 NaN 0 0 0 0.30800000000000005 NaN A 0.032 NaN 0 0 0 0.372 NaN" />
  <path style="fill:none; stroke-width:0.005; stroke:#000000; stroke-opacity:1; stroke-linecap:round;" d="M 0.34 NaN A 0.032 NaN 0 0 0 0.30800000000000005 NaN A 0.032 NaN 0 0 0 0.372 NaN A 0.032 NaN 0 0 0 0.30800000000000005 NaN A 0.032 NaN 0 0 0 0.372 NaN" />
  <path style="fill:none; stroke-width:0.005; stroke:#000000; stroke-opacity:1; stroke-linecap:round;" d="M 0.5 NaN A 0.032 NaN 0 0 0 0.46799999999999997 NaN A 0.032 NaN 0 0 0 0.532 NaN A 0.032 NaN 0 0 0 0.46799999999999997 NaN A 0.032 NaN 0 0 0 0.532 NaN" />
  <path style="fill:none; stroke-width:0.005; stroke:#000000; stroke-opacity:1; stroke-linecap:round;" d="M 0.5 NaN A 0.032 NaN 0 0 0 0.46799999999999997 NaN A 0.032 NaN 0 0 0 0.532 NaN A 0.032 NaN 0 0 0 0.46799999999999997 NaN A 0.032 NaN 0 0 0 0.532 NaN" />
  <path style="fill:none; stroke-width:0.005; stroke:#000000; stroke-opacity:1; stroke-linecap:round;" d="M 0.5 NaN A 0.032 NaN 0 0 0 0.46799999999999997 NaN A 0.032 NaN 0 0 0 0.532 NaN A 0.032 NaN 0 0 0 0.46799999999999997 NaN A 0.032 NaN 0 0 0 0.532 NaN" />
  <path style="fill:none; stroke-width:0.005; stroke:#000000; stroke-opacity:1; stroke-linecap:round;" d="M 0.5 NaN A 0.032 NaN 0 0 0 0.46799999999999997 NaN A 0.032 NaN 0 0 0 0.532 NaN A 0.032 NaN 0 0 0 0.46799999999999997 NaN A 0.032 NaN 0 0 0 0.532 NaN" />
  <path style="fill:none; stroke-width:0.005; stroke:#000000; stroke-opacity:1; stroke-linecap:round;" d="M 0.5 NaN A 0.032 NaN 0 0 0 0.46799999999999997 NaN A 0.032 NaN 0 0 0 0.532 NaN A 0.032 NaN 0 0 0 0.46799999999999997 NaN A 0.032 NaN 0 0 0 0.532 NaN" />
  <path style="fill:none; stroke-width:0.005; stroke:#000000; stroke-opacity:1; stroke-linecap:round;" d="M 0.6599999999999999 NaN A 0.032 NaN 0 0 0 0.6279999999999999 NaN A 0.032 NaN 0 0 0 0.692 NaN A 0.032 NaN 0 0 0 0.6279999999999999 NaN A 0.032 NaN 0 0 0 0.692 NaN" />
  <path style="fill:none; stroke-width:0.005; stroke:#000000; stroke-opacity:1; stroke-linecap:round;" d="M 0.6599999999999999 NaN A 0.032 NaN 0 0 0 0.6279999999999999 NaN A 0.032 NaN 0 0 0 0.692 NaN A 0.032 NaN 0 0 0 0.6279999999999999 NaN A 0.032 NaN 0 0 0 0.692 NaN" />
  <path style="fill:none; stroke-width:0.005; stroke:#000000; stroke-opacity:1; stroke-linecap:round;" d="M 0.6599999999999999 NaN A 0.032 NaN 0 0 0 0.6279999999999999 NaN A 0.032 NaN 0 0 0 0.692 NaN A 0.032 NaN 0 0 0 0.6279999999999999 NaN A 0.032 NaN 0 0 0 0.692 NaN" />
  <path style="fill:none; stroke-width:0.005; stroke:#000000; stroke-opacity:1; stroke-linecap:round;" d="M 0.6599999999999999 NaN A 0.032 NaN 0 0 0 0.6279999999999999 NaN A 0.032 NaN 0 0 0 0.692 NaN A 0.032 NaN 0 0 0 0.6279999999999999 NaN A 0.032 NaN 0 0 0 0.692 NaN" />
  <path style="fill:none; stroke-width:0.005; stroke:#000000; stroke-opacity:1; stroke-linecap:round;" d="M 0.6599999999999999 NaN A 0.032 NaN 0 0 0 0.6279999999999999 NaN A 0.032 NaN 0 0 0 0.692 NaN A 0.032 NaN 0 0 0 0.6279999999999999 NaN A 0.032 NaN 0 0 0 0.692 NaN" />
  <path style="fill:none; stroke-width:0.005; stroke:#000000; stroke-opacity:1; stroke-linecap:round;" d="M 0.82 NaN A 0.032 NaN 0 0 0 0.7879999999999999 NaN A 0.032 NaN 0 0 0 0.852 NaN A 0.032 NaN 0 0 0 0.7879999999999999 NaN A 0.032 NaN 0 0 0 0.852 NaN" />
  <path style="fill:none; stroke-width:0.005; stroke:#000000; stroke-opacity:1; stroke-linecap:round;" d="M 0.82 NaN A 0.032 NaN 0 0 0 0.7879999999999999 NaN A 0.032 NaN 0 0 0 0.852 NaN A 0.032 NaN 0 0 0 0.7879999999999999 NaN A 0.032 NaN 0 0 0 0.852 NaN" />
  <path style="fill:none; stroke-width:0.005; stroke:#000000; stroke-opacity:1; stroke-linecap:round;" d="M 0.82 NaN A 0.032 NaN 0 0 0 0.7879999999999999 NaN A 0.032 NaN 0 0 0 0.852 NaN A 0.032 NaN 0 0 0 0.7879999999999999 NaN A 0.032 NaN 0 0 0 0.852 NaN" />
  <path style="fill:none; stroke-width:0.005; stroke:#000000; stroke-opacity:1; stroke-linecap:round;" d="M 0.82 NaN A 0.032 NaN 0 0 0 0.7879999999999999 NaN A 0.032 NaN 0 0 0 0.852 NaN A 0.032 NaN 0 0 0 0.7879999999999999 NaN A 0.032 NaN 0 0 0 0.852 NaN" />
  <path style="fill:none; stroke-width:0.005; stroke:#000000; stroke-opacity:1; stroke-linecap:round;" d="M 0.82 NaN A 0.032 NaN 0 0 0 0.7879999999999999 NaN A 0.032 NaN 0 0 0 0.852 NaN A 0.032 NaN 0 0 0 0.7879999999999999 NaN A 0.032 NaN 0 0 0 0.852 NaN" />
</svg>