<svg xmlns="http://www.w3.org/2000/svg" viewBox="0 0 1 1" width="800" height="800">
  <path style="fill:#E61919; stroke-width:0.005; stroke:#000000; stroke-opacity:1; stroke-linecap:round; fill-opacity:0.5;" d="M 0.4 NaN A 0.1 NaN 0 0 0 0.30000000000000004 NaN A 0.1 NaN 0 0 0 0.5 NaN A 0.1 NaN 0 0 0 0.30000000000000004 NaN A 0.1 NaN 0 0 0 0.5 NaN" />
  <path style="fill:#19E619; stroke-width:0.005; stroke:#000000; stroke-opacity:1; stroke-linecap:round; fill-opacity:0.5;" d="M 0.5 NaN A 0.1 NaN 0 0 0 0.4 NaN A 0.1 NaN 0 0 0 0.6 NaN A 0.1 NaN 0 0 0 0.4 NaN A 0.1 NaN 0 0 0 0.6 NaN" />
  <path style="fill:#1919E6; stroke-width:0.005; stroke:#000000; stroke-opacity:1; stroke-linecap:round; fill-opacity:0.5;" d="M 0.6 NaN A 0.1 NaN 0 0 0 0.5 NaN A 0.1 NaN 0 0 0 0.7 NaN A 0.1 NaN 0 0 0 0.5 NaN A 0.1 NaN 0 0 0 0.7 NaN" />
</svg>