<svg xmlns="http://www.w3.org/2000/svg" viewBox="0 0 1 1" width="800" height="800">
  <path style="fill:none; stroke-width:0.003; stroke:#000000; stroke-opacity:1; stroke-linecap:round;" d="M 0.5 NaN A 0.225 NaN 0 0 0 0.275 NaN A 0.225 NaN 0 0 0 0.725 NaN A 0.225 NaN 0 0 0 0.275 NaN A 0.225 NaN 0 0 0 0.725 NaN" />
  <gundefined>
    <path style="fill:#E05252; stroke-width:0.001; stroke:#8A0F0F; stroke-opacity:1; stroke-linecap:round; fill-opacity:0.6;" d="M 0 0.24 C 0.056000000000000015 0.21899999999999997, 0.11599999999999999 0.379, 0.06 0.4 C 0.003999999999999983 0.42100000000000004, -0.056 0.261, 0 0.24 Z" />
  </g>
  <gundefined>
    <path style="fill:#E05252; stroke-width:0.001; stroke:#8A0F0F; stroke-opacity:1; stroke-linecap:round; fill-opacity:0.6;" d="M 0 0.24 C 0.056000000000000015 0.21899999999999997, 0.11599999999999999 0.379, 0.06 0.4 C 0.003999999999999983 0.42100000000000004, -0.056 0.261, 0 0.24 Z" />
  </g>
  <gundefined>
    <path style="fill:#E05252; stroke-width:0.001; stroke:#8A0F0F; stroke-opacity:1; stroke-linecap:round; fill-opacity:0.6;" d="M 0 0.24 C 0.056000000000000015 0.21899999999999997, 0.11599999999999999 0.379, 0.06 0.4 C 0.003999999999999983 0.42100000000000004, -0.056 0.261, 0 0.24 Z" />
  </g>
  <gundefined>
    <path style="fill:#E05252; stroke-width:0.001; stroke:#8A0F0F; stroke-opacity:1; stroke-linecap:round; fill-opacity:0.6;" d="M 0 0.24 C 0.056000000000000015 0.21899999999999997, 0.11599999999999999 0.379, 0.06 0.4 C 0.003999999999999983 0.42100000000000004, -0.056 0.261, 0 0.24 Z" />
  </g>
  <gundefined>
    <path style="fill:#E05252; stroke-width:0.001; stroke:#8A0F0F; stroke-opacity:1; stroke-linecap:round; fill-opacity:0.6;" d="M 0 0.24 C 0.056000000000000015 0.21899999999999997, 0.11599999999999999 0.379, 0.06 0.4 C 0.003999999999999983 0.42100000000000004, -0.056 0.261, 0 0.24 Z" />
  </g>
  <gundefined>
    <path style="fill:#E05252; stroke-width:0.001; stroke:#8A0F0F; stroke-opacity:1; stroke-linecap:round; fill-opacity:0.6;" d="M 0 0.24 C 0.056000000000000015 0.21899999999999997, 0.11599999999999999 0.379, 0.06 0.4 C 0.003999999999999983 0.42100000000000004, -0.056 0.261, 0 0.24 Z" />
  </g>
  <gundefined>
    <path style="fill:#E05252; stroke-width:0.001; stroke:#8A0F0F; stroke-opacity:1; stroke-linecap:round; fill-opacity:0.6;" d="M 0 0.24 C 0.056000000000000015 0.21899999999999997, 0.11599999999999999 0.379, 0.06 0.4 C 0.003999999999999983 0.42100000000000004, -0.056 0.261, 0 0.24 Z" />
  </g>
  <gundefined>
    <path style="fill:#E05252; stroke-width:0.001; stroke:#8A0F0F; stroke-opacity:1; stroke-linecap:round; fill-opacity:0.6;" d="M 0 0.24 C 0.056000000000000015 0.21899999999999997, 0.11599999999999999 0.379, 0.06 0.4 C 0.003999999999999983 0.42100000000000004, -0.056 0.261, 0 0.24 Z" />
  </g>
  <gundefined>
    <path style="fill:#E05252; stroke-width:0.001; stroke:#8A0F0F; stroke-opacity:1; stroke-linecap:round; fill-opacity:0.6;" d="M 0 0.24 C 0.056000000000000015 0.21899999999999997, 0.11599999999999999 0.379, 0.06 0.4 C 0.003999999999999983 0.42100000000000004, -0.056 0.261, 0 0.24 Z" />
  </g>
  <gundefined>
    <path style="fill:#E05252; stroke-width:0.001; stroke:#8A0F0F; stroke-opacity:1; stroke-linecap:round; fill-opacity:0.6;" d="M 0 0.24 C 0.056000000000000015 0.21899999999999997, 0.11599999999999999 0.379, 0.06 0.4 C 0.003999999999999983 0.42100000000000004, -0.056 0.261, 0 0.24 Z" />
  </g>
  <gundefined>
    <path style="fill:#E05252; stroke-width:0.001; stroke:#8A0F0F; stroke-opacity:1; stroke-linecap:round; fill-opacity:0.6;" d="M 0 0.24 C 0.056000000000000015 0.21899999999999997, 0.11599999999999999 0.379, 0.06 0.4 C 0.003999999999999983 0.42100000000000004, -0.056 0.261, 0 0.24 Z" />
  </g>
  <gundefined>
    <path style="fill:#E05252; stroke-width:0.001; stroke:#8A0F0F; stroke-opacity:1; stroke-linecap:round; fill-opacity:0.6;" d="M 0 0.24 C 0.056000000000000015 0.21899999999999997, 0.11599999999999999 0.379, 0.06 0.4 C 0.003999999999999983 0.42100000000000004, -0.056 0.261, 0 0.24 Z" />
  </g>
  <path style="fill:none; stroke-width:0.001; stroke:#AD1F1F; stroke-opacity:1; stroke-linecap:round;" d="M 0.5 NaN A 0.1 NaN 0 0 0 0.4 NaN A 0.1 NaN 0 0 0 0.6 NaN A 0.1 NaN 0 0 0 0.4 NaN A 0.1 NaN 0 0 0 0.6 NaN" />
  <gundefined>
    <path style="fill:#E0BD52; stroke-width:0.001; stroke:#8A6B0F; stroke-opacity:1; stroke-linecap:round; fill-opacity:0.6;" d="M 0 0.21600000000000003 C 0.0504 0.19710000000000005, 0.10439999999999999 0.34110000000000007, 0.054000000000000006 0.36000000000000004 C 0.003599999999999999 0.3789, -0.05039999999999999 0.2349, 0 0.21600000000000003 Z" />
  </g>
  <gundefined>
    <path style="fill:#E0BD52; stroke-width:0.001; stroke:#8A6B0F; stroke-opacity:1; stroke-linecap:round; fill-opacity:0.6;" d="M 0 0.21600000000000003 C 0.0504 0.19710000000000005, 0.10439999999999999 0.34110000000000007, 0.054000000000000006 0.36000000000000004 C 0.003599999999999999 0.3789, -0.05039999999999999 0.2349, 0 0.21600000000000003 Z" />
  </g>
  <gundefined>
    <path style="fill:#E0BD52; stroke-width:0.001; stroke:#8A6B0F; stroke-opacity:1; stroke-linecap:round; fill-opacity:0.6;" d="M 0 0.21600000000000003 C 0.0504 0.19710000000000005, 0.10439999999999999 0.34110000000000007, 0.054000000000000006 0.36000000000000004 C 0.003599999999999999 0.3789, -0.05039999999999999 0.2349, 0 0.21600000000000003 Z" />
  </g>
  <gundefined>
    <path style="fill:#E0BD52; stroke-width:0.001; stroke:#8A6B0F; stroke-opacity:1; stroke-linecap:round; fill-opacity:0.6;" d="M 0 0.21600000000000003 C 0.0504 0.19710000000000005, 0.10439999999999999 0.34110000000000007, 0.054000000000000006 0.36000000000000004 C 0.003599999999999999 0.3789, -0.05039999999999999 0.2349, 0 0.21600000000000003 Z" />
  </g>
  <gundefined>
    <path style="fill:#E0BD52; stroke-width:0.001; stroke:#8A6B0F; stroke-opacity:1; stroke-linecap:round; fill-opacity:0.6;" d="M 0 0.21600000000000003 C 0.0504 0.19710000000000005, 0.10439999999999999 0.34110000000000007, 0.054000000000000006 0.36000000000000004 C 0.003599999999999999 0.3789, -0.05039999999999999 0.2349, 0 0.21600000000000003 Z" />
  </g>
  <gundefined>
    <path style="fill:#E0BD52; stroke-width:0.001; stroke:#8A6B0F; stroke-opacity:1; stroke-linecap:round; fill-opacity:0.6;" d="M 0 0.21600000000000003 C 0.0504 0.19710000000000005, 0.10439999999999999 0.34110000000000007, 0.054000000000000006 0.36000000000000004 C 0.003599999999999999 0.3789, -0.05039999999999999 0.2349, 0 0.21600000000000003 Z" />
  </g>
  <gundefined>
    <path style="fill:#E0BD52; stroke-width:0.001; stroke:#8A6B0F; stroke-opacity:1; stroke-linecap:round; fill-opacity:0.6;" d="M 0 0.21600000000000003 C 0.0504 0.19710000000000005, 0.10439999999999999 0.34110000000000007, 0.054000000000000006 0.36000000000000004 C 0.003599999999999999 0.3789, -0.05039999999999999 0.2349, 0 0.21600000000000003 Z" />
  </g>
  <gundefined>
    <path style="fill:#E0BD52; stroke-width:0.001; stroke:#8A6B0F; stroke-opacity:1; stroke-linecap:round; fill-opacity:0.6;" d="M 0 0.21600000000000003 C 0.0504 0.19710000000000005, 0.10439999999999999 0.34110000000000007, 0.054000000000000006 0.36000000000000004 C 0.003599999999999999 0.3789, -0.05039999999999999 0.2349, 0 0.21600000000000003 Z" />
  </g>
  <gundefined>
    <path style="fill:#E0BD52; stroke-width:0.001; stroke:#8A6B0F; stroke-opacity:1; stroke-linecap:round; fill-opacity:0.6;" d="M 0 0.21600000000000003 C 0.0504 0.19710000000000005, 0.10439999999999999 0.34110000000000007, 0.054000000000000006 0.36000000000000004 C 0.003599999999999999 0.3789, -0.05039999999999999 0.2349, 0 0.21600000000000003 Z" />
  </g>
  <gundefined>
    <path style="fill:#E0BD52; stroke-width:0.001; stroke:#8A6B0F; stroke-opacity:1; stroke-linecap:round; fill-opacity:0.6;" d="M 0 0.21600000000000003 C 0.0504 0.19710000000000005, 0.10439999999999999 0.34110000000000007, 0.054000000000000006 0.36000000000000004 C 0.003599999999999999 0.3789, -0.05039999999999999 0.2349, 0 0.21600000000000003 Z" />
  </g>
  <gundefined>
    <path style="fill:#E0BD52; stroke-width:0.001; stroke:#8A6B0F; stroke-opacity:1; stroke-linecap:round; fill-opacity:0.6;" d="M 0 0.21600000000000003 C 0.0504 0.19710000000000005, 0.10439999999999999 0.34110000000000007, 0.054000000000000006 0.36000000000000004 C 0.003599999999999999 0.3789, -0.05039999999999999 0.2349, 0 0.21600000000000003 Z" />
  </g>
  <gundefined>
    <path style="fill:#E0BD52; stroke-width:0.001; stroke:#8A6B0F; stroke-opacity:1; stroke-linecap:round; fill-opacity:0.6;" d="M 0 0.21600000000000003 C 0.0504 0.19710000000000005, 0.10439999999999999 0.34110000000000007, 0.054000000000000006 0.36000000000000004 C 0.003599999999999999 0.3789, -0.05039999999999999 0.2349, 0 0.21600000000000003 Z" />
  </g>
  <gundefined>
    <path style="fill:#E0BD52; stroke-width:0.001; stroke:#8A6B0F; stroke-opacity:1; stroke-linecap:round; fill-opacity:0.6;" d="M 0 0.21600000000000003 C 0.0504 0.19710000000000005, 0.10439999999999999 0.34110000000000007, 0.054000000000000006 0.36000000000000004 C 0.003599999999999999 0.3789, -0.05039999999999999 0.2349, 0 0.21600000000000003 Z" />
  </g>
  <gundefined>
    <path style="fill:#E0BD52; stroke-width:0.001; stroke:#8A6B0F; stroke-opacity:1; stroke-linecap:round; fill-opacity:0.6;" d="M 0 0.21600000000000003 C 0.0504 0.19710000000000005, 0.10439999999999999 0.34110000000000007, 0.054000000000000006 0.36000000000000004 C 0.003599999999999999 0.3789, -0.05039999999999999 0.2349, 0 0.21600000000000003 Z" />
  </g>
  <gundefined>
    <path style="fill:#E0BD52; stroke-width:0.001; stroke:#8A6B0F; stroke-opacity:1; stroke-linecap:round; fill-opacity:0.6;" d="M 0 0.21600000000000003 C 0.0504 0.19710000000000005, 0.10439999999999999 0.34110000000000007, 0.054000000000000006 0.36000000000000004 C 0.003599999999999999 0.3789, -0.05039999999999999 0.2349, 0 0.21600000000000003 Z" />
  </g>
  <gundefined>
    <path style="fill:#E0BD52; stroke-width:0.001; stroke:#8A6B0F; stroke-opacity:1; stroke-linecap:round; fill-opacity:0.6;" d="M 0 0.21600000000000003 C 0.0504 0.19710000000000005, 0.10439999999999999 0.34110000000000007, 0.054000000000000006 0.36000000000000004 C 0.003599999999999999 0.3789, -0.05039999999999999 0.2349, 0 0.21600000000000003 Z" />
  </g>
  <path style="fill:none; stroke-width:0.001; stroke:#AD8A1F; stroke-opacity:1; stroke-linecap:round;" d="M 0.5 NaN A 0.09000000000000001 NaN 0 0 0 0.41 NaN A 0.09000000000000001 NaN 0 0 0 0.59 NaN A 0.09000000000000001 NaN 0 0 0 0.41 NaN A 0.09000000000000001 NaN 0 0 0 0.59 NaN" />
  <gundefined>
    <path style="fill:#99E052; stroke-width:0.001; stroke:#4D8A0F; stroke-opacity:1; stroke-linecap:round; fill-opacity:0.6;" d="M 0 0.192 C 0.044800000000000006 0.17520000000000002, 0.0928 0.3032, 0.048 0.32 C 0.0031999999999999945 0.3368, -0.04479999999999999 0.20879999999999999, 0 0.192 Z" />
  </g>
  <gundefined>
    <path style="fill:#99E052; stroke-width:0.001; stroke:#4D8A0F; stroke-opacity:1; stroke-linecap:round; fill-opacity:0.6;" d="M 0 0.192 C 0.044800000000000006 0.17520000000000002, 0.0928 0.3032, 0.048 0.32 C 0.0031999999999999945 0.3368, -0.04479999999999999 0.20879999999999999, 0 0.192 Z" />
  </g>
  <gundefined>
    <path style="fill:#99E052; stroke-width:0.001; stroke:#4D8A0F; stroke-opacity:1; stroke-linecap:round; fill-opacity:0.6;" d="M 0 0.192 C 0.044800000000000006 0.17520000000000002, 0.0928 0.3032, 0.048 0.32 C 0.0031999999999999945 0.3368, -0.04479999999999999 0.20879999999999999, 0 0.192 Z" />
  </g>
  <gundefined>
    <path style="fill:#99E052; stroke-width:0.001; stroke:#4D8A0F; stroke-opacity:1; stroke-linecap:round; fill-opacity:0.6;" d="M 0 0.192 C 0.044800000000000006 0.17520000000000002, 0.0928 0.3032, 0.048 0.32 C 0.0031999999999999945 0.3368, -0.04479999999999999 0.20879999999999999, 0 0.192 Z" />
  </g>
  <gundefined>
    <path style="fill:#99E052; stroke-width:0.001; stroke:#4D8A0F; stroke-opacity:1; stroke-linecap:round; fill-opacity:0.6;" d="M 0 0.192 C 0.044800000000000006 0.17520000000000002, 0.0928 0.3032, 0.048 0.32 C 0.0031999999999999945 0.3368, -0.04479999999999999 0.20879999999999999, 0 0.192 Z" />
  </g>
  <gundefined>
    <path style="fill:#99E052; stroke-width:0.001; stroke:#4D8A0F; stroke-opacity:1; stroke-linecap:round; fill-opacity:0.6;" d="M 0 0.192 C 0.044800000000000006 0.17520000000000002, 0.0928 0.3032, 0.048 0.32 C 0.0031999999999999945 0.3368, -0.04479999999999999 0.20879999999999999, 0 0.192 Z" />
  </g>
  <gundefined>
    <path style="fill:#99E052; stroke-width:0.001; stroke:#4D8A0F; stroke-opacity:1; stroke-linecap:round; fill-opacity:0.6;" d="M 0 0.192 C 0.044800000000000006 0.17520000000000002, 0.0928 0.3032, 0.048 0.32 C 0.0031999999999999945 0.3368, -0.04479999999999999 0.20879999999999999, 0 0.192 Z" />
  </g>
  <gundefined>
    <path style="fill:#99E052; stroke-width:0.001; stroke:#4D8A0F; stroke-opacity:1; stroke-linecap:round; fill-opacity:0.6;" d="M 0 0.192 C 0.044800000000000006 0.17520000000000002, 0.0928 0.3032, 0.048 0.32 C 0.0031999999999999945 0.3368, -0.04479999999999999 0.20879999999999999, 0 0.192 Z" />
  </g>
  <gundefined>
    <path style="fill:#99E052; stroke-width:0.001; stroke:#4D8A0F; stroke-opacity:1; stroke-linecap:round; fill-opacity:0.6;" d="M 0 0.192 C 0.044800000000000006 0.17520000000000002, 0.0928 0.3032, 0.048 0.32 C 0.0031999999999999945 0.3368, -0.04479999999999999 0.20879999999999999, 0 0.192 Z" />
  </g>
  <gundefined>
    <path style="fill:#99E052; stroke-width:0.001; stroke:#4D8A0F; stroke-opacity:1; stroke-linecap:round; fill-opacity:0.6;" d="M 0 0.192 C 0.044800000000000006 0.17520000000000002, 0.0928 0.3032, 0.048 0.32 C 0.0031999999999999945 0.3368, -0.04479999999999999 0.20879999999999999, 0 0.192 Z" />
  </g>
  <gundefined>
    <path style="fill:#99E052; stroke-width:0.001; stroke:#4D8A0F; stroke-opacity:1; stroke-linecap:round; fill-opacity:0.6;" d="M 0 0.192 C 0.044800000000000006 0.17520000000000002, 0.0928 0.3032, 0.048 0.32 C 0.0031999999999999945 0.3368, -0.04479999999999999 0.20879999999999999, 0 0.192 Z" />
  </g>
  <gundefined>
    <path style="fill:#99E052; stroke-width:0.001; stroke:#4D8A0F; stroke-opacity:1; stroke-linecap:round; fill-opacity:0.6;" d="M 0 0.192 C 0.044800000000000006 0.17520000000000002, 0.0928 0.3032, 0.048 0.32 C 0.0031999999999999945 0.3368, -0.04479999999999999 0.20879999999999999, 0 0.192 Z" />
  </g>
  <gundefined>
    <path style="fill:#99E052; stroke-width:0.001; stroke:#4D8A0F; stroke-opacity:1; stroke-linecap:round; fill-opacity:0.6;" d="M 0 0.192 C 0.044800000000000006 0.17520000000000002, 0.0928 0.3032, 0.048 0.32 C 0.0031999999999999945 0.3368, -0.04479999999999999 0.20879999999999999, 0 0.192 Z" />
  </g>
  <gundefined>
    <path style="fill:#99E052; stroke-width:0.001; stroke:#4D8A0F; stroke-opacity:1; stroke-linecap:round; fill-opacity:0.6;" d="M 0 0.192 C 0.044800000000000006 0.17520000000000002, 0.0928 0.3032, 0.048 0.32 C 0.0031999999999999945 0.3368, -0.04479999999999999 0.20879999999999999, 0 0.192 Z" />
  </g>
  <gundefined>
    <path style="fill:#99E052; stroke-width:0.001; stroke:#4D8A0F; stroke-opacity:1; stroke-linecap:round; fill-opacity:0.6;" d="M 0 0.192 C 0.044800000000000006 0.17520000000000002, 0.0928 0.3032, 0.048 0.32 C 0.0031999999999999945 0.3368, -0.04479999999999999 0.20879999999999999, 0 0.192 Z" />
  </g>
  <gundefined>
    <path style="fill:#99E052; stroke-width:0.001; stroke:#4D8A0F; stroke-opacity:1; stroke-linecap:round; fill-opacity:0.6;" d="M 0 0.192 C 0.044800000000000006 0.17520000000000002, 0.0928 0.3032, 0.048 0.32 C 0.0031999999999999945 0.3368, -0.04479999999999999 0.20879999999999999, 0 0.192 Z" />
  </g>
  <gundefined>
    <path style="fill:#99E052; stroke-width:0.001; stroke:#4D8A0F; stroke-opacity:1; stroke-linecap:round; fill-opacity:0.6;" d="M 0 0.192 C 0.044800000000000006 0.17520000000000002, 0.0928 0.3032, 0.048 0.32 C 0.0031999999999999945 0.3368, -0.04479999999999999 0.20879999999999999, 0 0.192 Z" />
  </g>
  <gundefined>
    <path style="fill:#99E052; stroke-width:0.001; stroke:#4D8A0F; stroke-opacity:1; stroke-linecap:round; fill-opacity:0.6;" d="M 0 0.192 C 0.044800000000000006 0.17520000000000002, 0.0928 0.3032, 0.048 0.32 C 0.0031999999999999945 0.3368, -0.04479999999999999 0.20879999999999999, 0 0.192 Z" />
  </g>
  <gundefined>
    <path style="fill:#99E052; stroke-width:0.001; stroke:#4D8A0F; stroke-opacity:1; stroke-linecap:round; fill-opacity:0.6;" d="M 0 0.192 C 0.044800000000000006 0.17520000000000002, 0.0928 0.3032, 0.048 0.32 C 0.0031999999999999945 0.3368, -0.04479999999999999 0.20879999999999999, 0 0.192 Z" />
  </g>
  <gundefined>
    <path style="fill:#99E052; stroke-width:0.001; stroke:#4D8A0F; stroke-opacity:1; stroke-linecap:round; fill-opacity:0.6;" d="M 0 0.192 C 0.044800000000000006 0.17520000000000002, 0.0928 0.3032, 0.048 0.32 C 0.0031999999999999945 0.3368, -0.04479999999999999 0.20879999999999999, 0 0.192 Z" />
  </g>
  <path style="fill:none; stroke-width:0.001; stroke:#66AD1F; stroke-opacity:1; stroke-linecap:round;" d="M 0.5 NaN A 0.08 NaN 0 0 0 0.42 NaN A 0.08 NaN 0 0 0 0.58 NaN A 0.08 NaN 0 0 0 0.42 NaN A 0.08 NaN 0 0 0 0.58 NaN" />
  <gundefined>
    <path style="fill:#52E075; stroke-width:0.001; stroke:#0F8A2E; stroke-opacity:1; stroke-linecap:round; fill-opacity:0.6;" d="M 0 0.168 C 0.03920000000000001 0.15330000000000005, 0.0812 0.26530000000000004, 0.042 0.28 C 0.00279999999999999 0.2947, -0.0392 0.18270000000000003, 0 0.168 Z" />
  </g>
  <gundefined>
    <path style="fill:#52E075; stroke-width:0.001; stroke:#0F8A2E; stroke-opacity:1; stroke-linecap:round; fill-opacity:0.6;" d="M 0 0.168 C 0.03920000000000001 0.15330000000000005, 0.0812 0.26530000000000004, 0.042 0.28 C 0.00279999999999999 0.2947, -0.0392 0.18270000000000003, 0 0.168 Z" />
  </g>
  <gundefined>
    <path style="fill:#52E075; stroke-width:0.001; stroke:#0F8A2E; stroke-opacity:1; stroke-linecap:round; fill-opacity:0.6;" d="M 0 0.168 C 0.03920000000000001 0.15330000000000005, 0.0812 0.26530000000000004, 0.042 0.28 C 0.00279999999999999 0.2947, -0.0392 0.18270000000000003, 0 0.168 Z" />
  </g>
  <gundefined>
    <path style="fill:#52E075; stroke-width:0.001; stroke:#0F8A2E; stroke-opacity:1; stroke-linecap:round; fill-opacity:0.6;" d="M 0 0.168 C 0.03920000000000001 0.15330000000000005, 0.0812 0.26530000000000004, 0.042 0.28 C 0.00279999999999999 0.2947, -0.0392 0.18270000000000003, 0 0.168 Z" />
  </g>
  <gundefined>
    <path style="fill:#52E075; stroke-width:0.001; stroke:#0F8A2E; stroke-opacity:1; stroke-linecap:round; fill-opacity:0.6;" d="M 0 0.168 C 0.03920000000000001 0.15330000000000005, 0.0812 0.26530000000000004, 0.042 0.28 C 0.00279999999999999 0.2947, -0.0392 0.18270000000000003, 0 0.168 Z" />
  </g>
  <gundefined>
    <path style="fill:#52E075; stroke-width:0.001; stroke:#0F8A2E; stroke-opacity:1; stroke-linecap:round; fill-opacity:0.6;" d="M 0 0.168 C 0.03920000000000001 0.15330000000000005, 0.0812 0.26530000000000004, 0.042 0.28 C 0.00279999999999999 0.2947, -0.0392 0.18270000000000003, 0 0.168 Z" />
  </g>
  <gundefined>
    <path style="fill:#52E075; stroke-width:0.001; stroke:#0F8A2E; stroke-opacity:1; stroke-linecap:round; fill-opacity:0.6;" d="M 0 0.168 C 0.03920000000000001 0.15330000000000005, 0.0812 0.26530000000000004, 0.042 0.28 C 0.00279999999999999 0.2947, -0.0392 0.18270000000000003, 0 0.168 Z" />
  </g>
  <gundefined>
    <path style="fill:#52E075; stroke-width:0.001; stroke:#0F8A2E; stroke-opacity:1; stroke-linecap:round; fill-opacity:0.6;" d="M 0 0.168 C 0.03920000000000001 0.15330000000000005, 0.0812 0.26530000000000004, 0.042 0.28 C 0.00279999999999999 0.2947, -0.0392 0.18270000000000003, 0 0.168 Z" />
  </g>
  <gundefined>
    <path style="fill:#52E075; stroke-width:0.001; stroke:#0F8A2E; stroke-opacity:1; stroke-linecap:round; fill-opacity:0.6;" d="M 0 0.168 C 0.03920000000000001 0.15330000000000005, 0.0812 0.26530000000000004, 0.042 0.28 C 0.00279999999999999 0.2947, -0.0392 0.18270000000000003, 0 0.168 Z" />
  </g>
  <gundefined>
    <path style="fill:#52E075; stroke-width:0.001; stroke:#0F8A2E; stroke-opacity:1; stroke-linecap:round; fill-opacity:0.6;" d="M 0 0.168 C 0.03920000000000001 0.15330000000000005, 0.0812 0.26530000000000004, 0.042 0.28 C 0.00279999999999999 0.2947, -0.0392 0.18270000000000003, 0 0.168 Z" />
  </g>
  <gundefined>
    <path style="fill:#52E075; stroke-width:0.001; stroke:#0F8A2E; stroke-opacity:1; stroke-linecap:round; fill-opacity:0.6;" d="M 0 0.168 C 0.03920000000000001 0.15330000000000005, 0.0812 0.26530000000000004, 0.042 0.28 C 0.00279999999999999 0.2947, -0.0392 0.18270000000000003, 0 0.168 Z" />
  </g>
  <gundefined>
    <path style="fill:#52E075; stroke-width:0.001; stroke:#0F8A2E; stroke-opacity:1; stroke-linecap:round; fill-opacity:0.6;" d="M 0 0.168 C 0.03920000000000001 0.15330000000000005, 0.0812 0.26530000000000004, 0.042 0.28 C 0.00279999999999999 0.2947, -0.0392 0.18270000000000003, 0 0.168 Z" />
  </g>
  <gundefined>
    <path style="fill:#52E075; stroke-width:0.001; stroke:#0F8A2E; stroke-opacity:1; stroke-linecap:round; fill-opacity:0.6;" d="M 0 0.168 C 0.03920000000000001 0.15330000000000005, 0.0812 0.26530000000000004, 0.042 0.28 C 0.00279999999999999 0.2947, -0.0392 0.18270000000000003, 0 0.168 Z" />
  </g>
  <gundefined>
    <path style="fill:#52E075; stroke-width:0.001; stroke:#0F8A2E; stroke-opacity:1; stroke-linecap:round; fill-opacity:0.6;" d="M 0 0.168 C 0.03920000000000001 0.15330000000000005, 0.0812 0.26530000000000004, 0.042 0.28 C 0.00279999999999999 0.2947, -0.0392 0.18270000000000003, 0 0.168 Z" />
  </g>
  <gundefined>
    <path style="fill:#52E075; stroke-width:0.001; stroke:#0F8A2E; stroke-opacity:1; stroke-linecap:round; fill-opacity:0.6;" d="M 0 0.168 C 0.03920000000000001 0.15330000000000005, 0.0812 0.26530000000000004, 0.042 0.28 C 0.00279999999999999 0.2947, -0.0392 0.18270000000000003, 0 0.168 Z" />
  </g>
  <gundefined>
    <path style="fill:#52E075; stroke-width:0.001; stroke:#0F8A2E; stroke-opacity:1; stroke-linecap:round; fill-opacity:0.6;" d="M 0 0.168 C 0.03920000000000001 0.15330000000000005, 0.0812 0.26530000000000004, 0.042 0.28 C 0.00279999999999999 0.2947, -0.0392 0.18270000000000003, 0 0.168 Z" />
  </g>
  <gundefined>
    <path style="fill:#52E075; stroke-width:0.001; stroke:#0F8A2E; stroke-opacity:1; stroke-linecap:round; fill-opacity:0.6;" d="M 0 0.168 C 0.03920000000000001 0.15330000000000005, 0.0812 0.26530000000000004, 0.042 0.28 C 0.00279999999999999 0.2947, -0.0392 0.18270000000000003, 0 0.168 Z" />
  </g>
  <gundefined>
    <path style="fill:#52E075; stroke-width:0.001; stroke:#0F8A2E; stroke-opacity:1; stroke-linecap:round; fill-opacity:0.6;" d="M 0 0.168 C 0.03920000000000001 0.15330000000000005, 0.0812 0.26530000000000004, 0.042 0.28 C 0.00279999999999999 0.2947, -0.0392 0.18270000000000003, 0 0.168 Z" />
  </g>
  <gundefined>
    <path style="fill:#52E075; stroke-width:0.001; stroke:#0F8A2E; stroke-opacity:1; stroke-linecap:round; fill-opacity:0.6;" d="M 0 0.168 C 0.03920000000000001 0.15330000000000005, 0.0812 0.26530000000000004, 0.042 0.28 C 0.00279999999999999 0.2947, -0.0392 0.18270000000000003, 0 0.168 Z" />
  </g>
  <gundefined>
    <path style="fill:#52E075; stroke-width:0.001; stroke:#0F8A2E; stroke-opacity:1; stroke-linecap:round; fill-opacity:0.6;" d="M 0 0.168 C 0.03920000000000001 0.15330000000000005, 0.0812 0.26530000000000004, 0.042 0.28 C 0.00279999999999999 0.2947, -0.0392 0.18270000000000003, 0 0.168 Z" />
  </g>
  <gundefined>
    <path style="fill:#52E075; stroke-width:0.001; stroke:#0F8A2E; stroke-opacity:1; stroke-linecap:round; fill-opacity:0.6;" d="M 0 0.168 C 0.03920000000000001 0.15330000000000005, 0.0812 0.26530000000000004, 0.042 0.28 C 0.00279999999999999 0.2947, -0.0392 0.18270000000000003, 0 0.168 Z" />
  </g>
  <gundefined>
    <path style="fill:#52E075; stroke-width:0.001; stroke:#0F8A2E; stroke-opacity:1; stroke-linecap:round; fill-opacity:0.6;" d="M 0 0.168 C 0.03920000000000001 0.15330000000000005, 0.0812 0.26530000000000004, 0.042 0.28 C 0.00279999999999999 0.2947, -0.0392 0.18270000000000003, 0 0.168 Z" />
  </g>
  <gundefined>
    <path style="fill:#52E075; stroke-width:0.001; stroke:#0F8A2E; stroke-opacity:1; stroke-linecap:round; fill-opacity:0.6;" d="M 0 0.168 C 0.03920000000000001 0.15330000000000005, 0.0812 0.26530000000000004, 0.042 0.28 C 0.00279999999999999 0.2947, -0.0392 0.18270000000000003, 0 0.168 Z" />
  </g>
  <gundefined>
    <path style="fill:#52E075; stroke-width:0.001; stroke:#0F8A2E; stroke-opacity:1; stroke-linecap:round; fill-opacity:0.6;" d="M 0 0.168 C 0.03920000000000001 0.15330000000000005, 0.0812 0.26530000000000004, 0.042 0.28 C 0.00279999999999999 0.2947, -0.0392 0.18270000000000003, 0 0.168 Z" />
  </g>
  <path style="fill:none; stroke-width:0.001; stroke:#1FAD42; stroke-opacity:1; stroke-linecap:round;" d="M 0.5 NaN A 0.07 NaN 0 0 0 0.43 NaN A 0.07 NaN 0 0 0 0.5700000000000001 NaN A 0.07 NaN 0 0 0 0.43 NaN A 0.07 NaN 0 0 0 0.5700000000000001 NaN" />
  <gundefined>
    <path style="fill:#52E0E0; stroke-width:0.001; stroke:#0F8A8A; stroke-opacity:1; stroke-linecap:round; fill-opacity:0.6;" d="M 0 0.14400000000000002 C 0.033600000000000005 0.13140000000000002, 0.0696 0.2274, 0.036000000000000004 0.24000000000000002 C 0.0023999999999999994 0.2526, -0.03359999999999999 0.15660000000000002, 0 0.14400000000000002 Z" />
  </g>
  <gundefined>
    <path style="fill:#52E0E0; stroke-width:0.001; stroke:#0F8A8A; stroke-opacity:1; stroke-linecap:round; fill-opacity:0.6;" d="M 0 0.14400000000000002 C 0.033600000000000005 0.13140000000000002, 0.0696 0.2274, 0.036000000000000004 0.24000000000000002 C 0.0023999999999999994 0.2526, -0.03359999999999999 0.15660000000000002, 0 0.14400000000000002 Z" />
  </g>
  <gundefined>
    <path style="fill:#52E0E0; stroke-width:0.001; stroke:#0F8A8A; stroke-opacity:1; stroke-linecap:round; fill-opacity:0.6;" d="M 0 0.14400000000000002 C 0.033600000000000005 0.13140000000000002, 0.0696 0.2274, 0.036000000000000004 0.24000000000000002 C 0.0023999999999999994 0.2526, -0.03359999999999999 0.15660000000000002, 0 0.14400000000000002 Z" />
  </g>
  <gundefined>
    <path style="fill:#52E0E0; stroke-width:0.001; stroke:#0F8A8A; stroke-opacity:1; stroke-linecap:round; fill-opacity:0.6;" d="M 0 0.14400000000000002 C 0.033600000000000005 0.13140000000000002, 0.0696 0.2274, 0.036000000000000004 0.24000000000000002 C 0.0023999999999999994 0.2526, -0.03359999999999999 0.15660000000000002, 0 0.14400000000000002 Z" />
  </g>
  <gundefined>
    <path style="fill:#52E0E0; stroke-width:0.001; stroke:#0F8A8A; stroke-opacity:1; stroke-linecap:round; fill-opacity:0.6;" d="M 0 0.14400000000000002 C 0.033600000000000005 0.13140000000000002, 0.0696 0.2274, 0.036000000000000004 0.24000000000000002 C 0.0023999999999999994 0.2526, -0.03359999999999999 0.15660000000000002, 0 0.14400000000000002 Z" />
  </g>
  <gundefined>
    <path style="fill:#52E0E0; stroke-width:0.001; stroke:#0F8A8A; stroke-opacity:1; stroke-linecap:round; fill-opacity:0.6;" d="M 0 0.14400000000000002 C 0.033600000000000005 0.13140000000000002, 0.0696 0.2274, 0.036000000000000004 0.24000000000000002 C 0.0023999999999999994 0.2526, -0.03359999999999999 0.15660000000000002, 0 0.14400000000000002 Z" />
  </g>
  <gundefined>
    <path style="fill:#52E0E0; stroke-width:0.001; stroke:#0F8A8A; stroke-opacity:1; stroke-linecap:round; fill-opacity:0.6;" d="M 0 0.14400000000000002 C 0.033600000000000005 0.13140000000000002, 0.0696 0.2274, 0.036000000000000004 0.24000000000000002 C 0.0023999999999999994 0.2526, -0.03359999999999999 0.15660000000000002, 0 0.14400000000000002 Z" />
  </g>
  <gundefined>
    <path style="fill:#52E0E0; stroke-width:0.001; stroke:#0F8A8A; stroke-opacity:1; stroke-linecap:round; fill-opacity:0.6;" d="M 0 0.14400000000000002 C 0.033600000000000005 0.13140000000000002, 0.0696 0.2274, 0.036000000000000004 0.24000000000000002 C 0.0023999999999999994 0.2526, -0.03359999999999999 0.15660000000000002, 0 0.14400000000000002 Z" />
  </g>
  <gundefined>
    <path style="fill:#52E0E0; stroke-width:0.001; stroke:#0F8A8A; stroke-opacity:1; stroke-linecap:round; fill-opacity:0.6;" d="M 0 0.14400000000000002 C 0.033600000000000005 0.13140000000000002, 0.0696 0.2274, 0.036000000000000004 0.24000000000000002 C 0.0023999999999999994 0.2526, -0.03359999999999999 0.15660000000000002, 0 0.14400000000000002 Z" />
  </g>
  <gundefined>
    <path style="fill:#52E0E0; stroke-width:0.001; stroke:#0F8A8A; stroke-opacity:1; stroke-linecap:round; fill-opacity:0.6;" d="M 0 0.14400000000000002 C 0.033600000000000005 0.13140000000000002, 0.0696 0.2274, 0.036000000000000004 0.24000000000000002 C 0.0023999999999999994 0.2526, -0.03359999999999999 0.15660000000000002, 0 0.14400000000000002 Z" />
  </g>
  <gundefined>
    <path style="fill:#52E0E0; stroke-width:0.001; stroke:#0F8A8A; stroke-opacity:1; stroke-linecap:round; fill-opacity:0.6;" d="M 0 0.14400000000000002 C 0.033600000000000005 0.13140000000000002, 0.0696 0.2274, 0.036000000000000004 0.24000000000000002 C 0.0023999999999999994 0.2526, -0.03359999999999999 0.15660000000000002, 0 0.14400000000000002 Z" />
  </g>
  <gundefined>
    <path style="fill:#52E0E0; stroke-width:0.001; stroke:#0F8A8A; stroke-opacity:1; stroke-linecap:round; fill-opacity:0.6;" d="M 0 0.14400000000000002 C 0.033600000000000005 0.13140000000000002, 0.0696 0.2274, 0.036000000000000004 0.24000000000000002 C 0.0023999999999999994 0.2526, -0.03359999999999999 0.15660000000000002, 0 0.14400000000000002 Z" />
  </g>
  <gundefined>
    <path style="fill:#52E0E0; stroke-width:0.001; stroke:#0F8A8A; stroke-opacity:1; stroke-linecap:round; fill-opacity:0.6;" d="M 0 0.14400000000000002 C 0.033600000000000005 0.13140000000000002, 0.0696 0.2274, 0.036000000000000004 0.24000000000000002 C 0.0023999999999999994 0.2526, -0.03359999999999999 0.15660000000000002, 0 0.14400000000000002 Z" />
  </g>
  <gundefined>
    <path style="fill:#52E0E0; stroke-width:0.001; stroke:#0F8A8A; stroke-opacity:1; stroke-linecap:round; fill-opacity:0.6;" d="M 0 0.14400000000000002 C 0.033600000000000005 0.13140000000000002, 0.0696 0.2274, 0.036000000000000004 0.24000000000000002 C 0.0023999999999999994 0.2526, -0.03359999999999999 0.15660000000000002, 0 0.14400000000000002 Z" />
  </g>
  <gundefined>
    <path style="fill:#52E0E0; stroke-width:0.001; stroke:#0F8A8A; stroke-opacity:1; stroke-linecap:round; fill-opacity:0.6;" d="M 0 0.14400000000000002 C 0.033600000000000005 0.13140000000000002, 0.0696 0.2274, 0.036000000000000004 0.24000000000000002 C 0.0023999999999999994 0.2526, -0.03359999999999999 0.15660000000000002, 0 0.14400000000000002 Z" />
  </g>
  <gundefined>
    <path style="fill:#52E0E0; stroke-width:0.001; stroke:#0F8A8A; stroke-opacity:1; stroke-linecap:round; fill-opacity:0.6;" d="M 0 0.14400000000000002 C 0.033600000000000005 0.13140000000000002, 0.0696 0.2274, 0.036000000000000004 0.24000000000000002 C 0.0023999999999999994 0.2526, -0.03359999999999999 0.15660000000000002, 0 0.14400000000000002 Z" />
  </g>
  <gundefined>
    <path style="fill:#52E0E0; stroke-width:0.001; stroke:#0F8A8A; stroke-opacity:1; stroke-linecap:round; fill-opacity:0.6;" d="M 0 0.14400000000000002 C 0.033600000000000005 0.13140000000000002, 0.0696 0.2274, 0.036000000000000004 0.24000000000000002 C 0.0023999999999999994 0.2526, -0.03359999999999999 0.15660000000000002, 0 0.14400000000000002 Z" />
  </g>
  <gundefined>
    <path style="fill:#52E0E0; stroke-width:0.001; stroke:#0F8A8A; stroke-opacity:1; stroke-linecap:round; fill-opacity:0.6;" d="M 0 0.14400000000000002 C 0.033600000000000005 0.13140000000000002, 0.0696 0.2274, 0.036000000000000004 0.24000000000000002 C 0.0023999999999999994 0.2526, -0.03359999999999999 0.15660000000000002, 0 0.14400000000000002 Z" />
  </g>
  <gundefined>
    <path style="fill:#52E0E0; stroke-width:0.001; stroke:#0F8A8A; stroke-opacity:1; stroke-linecap:round; fill-opacity:0.6;" d="M 0 0.14400000000000002 C 0.033600000000000005 0.13140000000000002, 0.0696 0.2274, 0.036000000000000004 0.24000000000000002 C 0.0023999999999999994 0.2526, -0.03359999999999999 0.15660000000000002, 0 0.14400000000000002 Z" />
  </g>
  <gundefined>
    <path style="fill:#52E0E0; stroke-width:0.001; stroke:#0F8A8A; stroke-opacity:1; stroke-linecap:round; fill-opacity:0.6;" d="M 0 0.14400000000000002 C 0.033600000000000005 0.13140000000000002, 0.0696 0.2274, 0.036000000000000004 0.24000000000000002 C 0.0023999999999999994 0.2526, -0.03359999999999999 0.15660000000000002, 0 0.14400000000000002 Z" />
  </g>
  <gundefined>
    <path style="fill:#52E0E0; stroke-width:0.001; stroke:#0F8A8A; stroke-opacity:1; stroke-linecap:round; fill-opacity:0.6;" d="M 0 0.14400000000000002 C 0.033600000000000005 0.13140000000000002, 0.0696 0.2274, 0.036000000000000004 0.24000000000000002 C 0.0023999999999999994 0.2526, -0.03359999999999999 0.15660000000000002, 0 0.14400000000000002 Z" />
  </g>
  <gundefined>
    <path style="fill:#52E0E0; stroke-width:0.001; stroke:#0F8A8A; stroke-opacity:1; stroke-linecap:round; fill-opacity:0.6;" d="M 0 0.14400000000000002 C 0.033600000000000005 0.13140000000000002, 0.0696 0.2274, 0.036000000000000004 0.24000000000000002 C 0.0023999999999999994 0.2526, -0.03359999999999999 0.15660000000000002, 0 0.14400000000000002 Z" />
  </g>
  <gundefined>
    <path style="fill:#52E0E0; stroke-width:0.001; stroke:#0F8A8A; stroke-opacity:1; stroke-linecap:round; fill-opacity:0.6;" d="M 0 0.14400000000000002 C 0.033600000000000005 0.13140000000000002, 0.0696 0.2274, 0.036000000000000004 0.24000000000000002 C 0.0023999999999999994 0.2526, -0.03359999999999999 0.15660000000000002, 0 0.14400000000000002 Z" />
  </g>
  <gundefined>
    <path style="fill:#52E0E0; stroke-width:0.001; stroke:#0F8A8A; stroke-opacity:1; stroke-linecap:round; fill-opacity:0.6;" d="M 0 0.14400000000000002 C 0.033600000000000005 0.13140000000000002, 0.0696 0.2274, 0.036000000000000004 0.24000000000000002 C 0.0023999999999999994 0.2526, -0.03359999999999999 0.15660000000000002, 0 0.14400000000000002 Z" />
  </g>
  <gundefined>
    <path style="fill:#52E0E0; stroke-width:0.001; stroke:#0F8A8A; stroke-opacity:1; stroke-linecap:round; fill-opacity:0.6;" d="M 0 0.14400000000000002 C 0.033600000000000005 0.13140000000000002, 0.0696 0.2274, 0.036000000000000004 0.24000000000000002 C 0.0023999999999999994 0.2526, -0.03359999999999999 0.15660000000000002, 0 0.14400000000000002 Z" />
  </g>
  <gundefined>
    <path style="fill:#52E0E0; stroke-width:0.001; stroke:#0F8A8A; stroke-opacity:1; stroke-linecap:round; fill-opacity:0.6;" d="M 0 0.14400000000000002 C 0.033600000000000005 0.13140000000000002, 0.0696 0.2274, 0.036000000000000004 0.24000000000000002 C 0.0023999999999999994 0.2526, -0.03359999999999999 0.15660000000000002, 0 0.14400000000000002 Z" />
  </g>
  <gundefined>
    <path style="fill:#52E0E0; stroke-width:0.001; stroke:#0F8A8A; stroke-opacity:1; stroke-linecap:round; fill-opacity:0.6;" d="M 0 0.14400000000000002 C 0.033600000000000005 0.13140000000000002, 0.0696 0.2274, 0.036000000000000004 0.24000000000000002 C 0.0023999999999999994 0.2526, -0.03359999999999999 0.15660000000000002, 0 0.14400000000000002 Z" />
  </g>
  <gundefined>
    <path style="fill:#52E0E0; stroke-width:0.001; stroke:#0F8A8A; stroke-opacity:1; stroke-linecap:round; fill-opacity:0.6;" d="M 0 0.14400000000000002 C 0.033600000000000005 0.13140000000000002, 0.0696 0.2274, 0.036000000000000004 0.24000000000000002 C 0.0023999999999999994 0.2526, -0.03359999999999999 0.15660000000000002, 0 0.14400000000000002 Z" />
  </g>
  <path style="fill:none; stroke-width:0.001; stroke:#1FADAD; stroke-opacity:1; stroke-linecap:round;" d="M 0.5 NaN A 0.060000000000000005 NaN 0 0 0 0.44 NaN A 0.060000000000000005 NaN 0 0 0 0.56 NaN A 0.060000000000000005 NaN 0 0 0 0.44 NaN A 0.060000000000000005 NaN 0 0 0 0.56 NaN" />
  <gundefined>
    <path style="fill:#5275E0; stroke-width:0.001; stroke:#0F2E8A; stroke-opacity:1; stroke-linecap:round; fill-opacity:0.6;" d="M 0 0.12 C 0.028000000000000008 0.10949999999999999, 0.057999999999999996 0.1895, 0.03 0.2 C 0.0019999999999999914 0.21050000000000002, -0.028 0.1305, 0 0.12 Z" />
  </g>
  <gundefined>
    <path style="fill:#5275E0; stroke-width:0.001; stroke:#0F2E8A; stroke-opacity:1; stroke-linecap:round; fill-opacity:0.6;" d="M 0 0.12 C 0.028000000000000008 0.10949999999999999, 0.057999999999999996 0.1895, 0.03 0.2 C 0.0019999999999999914 0.21050000000000002, -0.028 0.1305, 0 0.12 Z" />
  </g>
  <gundefined>
    <path style="fill:#5275E0; stroke-width:0.001; stroke:#0F2E8A; stroke-opacity:1; stroke-linecap:round; fill-opacity:0.6;" d="M 0 0.12 C 0.028000000000000008 0.10949999999999999, 0.057999999999999996 0.1895, 0.03 0.2 C 0.0019999999999999914 0.21050000000000002, -0.028 0.1305, 0 0.12 Z" />
  </g>
  <gundefined>
    <path style="fill:#5275E0; stroke-width:0.001; stroke:#0F2E8A; stroke-opacity:1; stroke-linecap:round; fill-opacity:0.6;" d="M 0 0.12 C 0.028000000000000008 0.10949999999999999, 0.057999999999999996 0.1895, 0.03 0.2 C 0.0019999999999999914 0.21050000000000002, -0.028 0.1305, 0 0.12 Z" />
  </g>
  <gundefined>
    <path style="fill:#5275E0; stroke-width:0.001; stroke:#0F2E8A; stroke-opacity:1; stroke-linecap:round; fill-opacity:0.6;" d="M 0 0.12 C 0.028000000000000008 0.10949999999999999, 0.057999999999999996 0.1895, 0.03 0.2 C 0.0019999999999999914 0.21050000000000002, -0.028 0.1305, 0 0.12 Z" />
  </g>
  <gundefined>
    <path style="fill:#5275E0; stroke-width:0.001; stroke:#0F2E8A; stroke-opacity:1; stroke-linecap:round; fill-opacity:0.6;" d="M 0 0.12 C 0.028000000000000008 0.10949999999999999, 0.057999999999999996 0.1895, 0.03 0.2 C 0.0019999999999999914 0.21050000000000002, -0.028 0.1305, 0 0.12 Z" />
  </g>
  <gundefined>
    <path style="fill:#5275E0; stroke-width:0.001; stroke:#0F2E8A; stroke-opacity:1; stroke-linecap:round; fill-opacity:0.6;" d="M 0 0.12 C 0.028000000000000008 0.10949999999999999, 0.057999999999999996 0.1895, 0.03 0.2 C 0.0019999999999999914 0.21050000000000002, -0.028 0.1305, 0 0.12 Z" />
  </g>
  <gundefined>
    <path style="fill:#5275E0; stroke-width:0.001; stroke:#0F2E8A; stroke-opacity:1; stroke-linecap:round; fill-opacity:0.6;" d="M 0 0.12 C 0.028000000000000008 0.10949999999999999, 0.057999999999999996 0.1895, 0.03 0.2 C 0.0019999999999999914 0.21050000000000002, -0.028 0.1305, 0 0.12 Z" />
  </g>
  <gundefined>
    <path style="fill:#5275E0; stroke-width:0.001; stroke:#0F2E8A; stroke-opacity:1; stroke-linecap:round; fill-opacity:0.6;" d="M 0 0.12 C 0.028000000000000008 0.10949999999999999, 0.057999999999999996 0.1895, 0.03 0.2 C 0.0019999999999999914 0.21050000000000002, -0.028 0.1305, 0 0.12 Z" />
  </g>
  <gundefined>
    <path style="fill:#5275E0; stroke-width:0.001; stroke:#0F2E8A; stroke-opacity:1; stroke-linecap:round; fill-opacity:0.6;" d="M 0 0.12 C 0.028000000000000008 0.10949999999999999, 0.057999999999999996 0.1895, 0.03 0.2 C 0.0019999999999999914 0.21050000000000002, -0.028 0.1305, 0 0.12 Z" />
  </g>
  <gundefined>
    <path style="fill:#5275E0; stroke-width:0.001; stroke:#0F2E8A; stroke-opacity:1; stroke-linecap:round; fill-opacity:0.6;" d="M 0 0.12 C 0.028000000000000008 0.10949999999999999, 0.057999999999999996 0.1895, 0.03 0.2 C 0.0019999999999999914 0.21050000000000002, -0.028 0.1305, 0 0.12 Z" />
  </g>
  <gundefined>
    <path style="fill:#5275E0; stroke-width:0.001; stroke:#0F2E8A; stroke-opacity:1; stroke-linecap:round; fill-opacity:0.6;" d="M 0 0.12 C 0.028000000000000008 0.10949999999999999, 0.057999999999999996 0.1895, 0.03 0.2 C 0.0019999999999999914 0.21050000000000002, -0.028 0.1305, 0 0.12 Z" />
  </g>
  <gundefined>
    <path style="fill:#5275E0; stroke-width:0.001; stroke:#0F2E8A; stroke-opacity:1; stroke-linecap:round; fill-opacity:0.6;" d="M 0 0.12 C 0.028000000000000008 0.10949999999999999, 0.057999999999999996 0.1895, 0.03 0.2 C 0.0019999999999999914 0.21050000000000002, -0.028 0.1305, 0 0.12 Z" />
  </g>
  <gundefined>
    <path style="fill:#5275E0; stroke-width:0.001; stroke:#0F2E8A; stroke-opacity:1; stroke-linecap:round; fill-opacity:0.6;" d="M 0 0.12 C 0.028000000000000008 0.10949999999999999, 0.057999999999999996 0.1895, 0.03 0.2 C 0.0019999999999999914 0.21050000000000002, -0.028 0.1305, 0 0.12 Z" />
  </g>
  <gundefined>
    <path style="fill:#5275E0; stroke-width:0.001; stroke:#0F2E8A; stroke-opacity:1; stroke-linecap:round; fill-opacity:0.6;" d="M 0 0.12 C 0.028000000000000008 0.10949999999999999, 0.057999999999999996 0.1895, 0.03 0.2 C 0.0019999999999999914 0.21050000000000002, -0.028 0.1305, 0 0.12 Z" />
  </g>
  <gundefined>
    <path style="fill:#5275E0; stroke-width:0.001; stroke:#0F2E8A; stroke-opacity:1; stroke-linecap:round; fill-opacity:0.6;" d="M 0 0.12 C 0.028000000000000008 0.10949999999999999, 0.057999999999999996 0.1895, 0.03 0.2 C 0.0019999999999999914 0.21050000000000002, -0.028 0.1305, 0 0.12 Z" />
  </g>
  <gundefined>
    <path style="fill:#5275E0; stroke-width:0.001; stroke:#0F2E8A; stroke-opacity:1; stroke-linecap:round; fill-opacity:0.6;" d="M 0 0.12 C 0.028000000000000008 0.10949999999999999, 0.057999999999999996 0.1895, 0.03 0.2 C 0.0019999999999999914 0.21050000000000002, -0.028 0.1305, 0 0.12 Z" />
  </g>
  <gundefined>
    <path style="fill:#5275E0; stroke-width:0.001; stroke:#0F2E8A; stroke-opacity:1; stroke-linecap:round; fill-opacity:0.6;" d="M 0 0.12 C 0.028000000000000008 0.10949999999999999, 0.057999999999999996 0.1895, 0.03 0.2 C 0.0019999999999999914 0.21050000000000002, -0.028 0.1305, 0 0.12 Z" />
  </g>
  <gundefined>
    <path style="fill:#5275E0; stroke-width:0.001; stroke:#0F2E8A; stroke-opacity:1; stroke-linecap:round; fill-opacity:0.6;" d="M 0 0.12 C 0.028000000000000008 0.10949999999999999, 0.057999999999999996 0.1895, 0.03 0.2 C 0.0019999999999999914 0.21050000000000002, -0.028 0.1305, 0 0.12 Z" />
  </g>
  <gundefined>
    <path style="fill:#5275E0; stroke-width:0.001; stroke:#0F2E8A; stroke-opacity:1; stroke-linecap:round; fill-opacity:0.6;" d="M 0 0.12 C 0.028000000000000008 0.10949999999999999, 0.057999999999999996 0.1895, 0.03 0.2 C 0.0019999999999999914 0.21050000000000002, -0.028 0.1305, 0 0.12 Z" />
  </g>
  <gundefined>
    <path style="fill:#5275E0; stroke-width:0.001; stroke:#0F2E8A; stroke-opacity:1; stroke-linecap:round; fill-opacity:0.6;" d="M 0 0.12 C 0.028000000000000008 0.10949999999999999, 0.057999999999999996 0.1895, 0.03 0.2 C 0.0019999999999999914 0.21050000000000002, -0.028 0.1305, 0 0.12 Z" />
  </g>
  <gundefined>
    <path style="fill:#5275E0; stroke-width:0.001; stroke:#0F2E8A; stroke-opacity:1; stroke-linecap:round; fill-opacity:0.6;" d="M 0 0.12 C 0.028000000000000008 0.10949999999999999, 0.057999999999999996 0.1895, 0.03 0.2 C 0.0019999999999999914 0.21050000000000002, -0.028 0.1305, 0 0.12 Z" />
  </g>
  <gundefined>
    <path style="fill:#5275E0; stroke-width:0.001; stroke:#0F2E8A; stroke-opacity:1; stroke-linecap:round; fill-opacity:0.6;" d="M 0 0.12 C 0.028000000000000008 0.10949999999999999, 0.057999999999999996 0.1895, 0.03 0.2 C 0.0019999999999999914 0.21050000000000002, -0.028 0.1305, 0 0.12 Z" />
  </g>
  <gundefined>
    <path style="fill:#5275E0; stroke-width:0.001; stroke:#0F2E8A; stroke-opacity:1; stroke-linecap:round; fill-opacity:0.6;" d="M 0 0.12 C 0.028000000000000008 0.10949999999999999, 0.057999999999999996 0.1895, 0.03 0.2 C 0.0019999999999999914 0.21050000000000002, -0.028 0.1305, 0 0.12 Z" />
  </g>
  <gundefined>
    <path style="fill:#5275E0; stroke-width:0.001; stroke:#0F2E8A; stroke-opacity:1; stroke-linecap:round; fill-opacity:0.6;" d="M 0 0.12 C 0.028000000000000008 0.10949999999999999, 0.057999999999999996 0.1895, 0.03 0.2 C 0.0019999999999999914 0.21050000000000002, -0.028 0.1305, 0 0.12 Z" />
  </g>
  <gundefined>
    <path style="fill:#5275E0; stroke-width:0.001; stroke:#0F2E8A; stroke-opacity:1; stroke-linecap:round; fill-opacity:0.6;" d="M 0 0.12 C 0.028000000000000008 0.10949999999999999, 0.057999999999999996 0.1895, 0.03 0.2 C 0.0019999999999999914 0.21050000000000002, -0.028 0.1305, 0 0.12 Z" />
  </g>
  <gundefined>
    <path style="fill:#5275E0; stroke-width:0.001; stroke:#0F2E8A; stroke-opacity:1; stroke-linecap:round; fill-opacity:0.6;" d="M 0 0.12 C 0.028000000000000008 0.10949999999999999, 0.057999999999999996 0.1895, 0.03 0.2 C 0.0019999999999999914 0.21050000000000002, -0.028 0.1305, 0 0.12 Z" />
  </g>
  <gundefined>
    <path style="fill:#5275E0; stroke-width:0.001; stroke:#0F2E8A; stroke-opacity:1; stroke-linecap:round; fill-opacity:0.6;" d="M 0 0.12 C 0.028000000000000008 0.10949999999999999, 0.057999999999999996 0.1895, 0.03 0.2 C 0.0019999999999999914 0.21050000000000002, -0.028 0.1305, 0 0.12 Z" />
  </g>
  <gundefined>
    <path style="fill:#5275E0; stroke-width:0.001; stroke:#0F2E8A; stroke-opacity:1; stroke-linecap:round; fill-opacity:0.6;" d="M 0 0.12 C 0.028000000000000008 0.10949999999999999, 0.057999999999999996 0.1895, 0.03 0.2 C 0.0019999999999999914 0.21050000000000002, -0.028 0.1305, 0 0.12 Z" />
  </g>
  <gundefined>
    <path style="fill:#5275E0; stroke-width:0.001; stroke:#0F2E8A; stroke-opacity:1; stroke-linecap:round; fill-opacity:0.6;" d="M 0 0.12 C 0.028000000000000008 0.10949999999999999, 0.057999999999999996 0.1895, 0.03 0.2 C 0.0019999999999999914 0.21050000000000002, -0.028 0.1305, 0 0.12 Z" />
  </g>
  <gundefined>
    <path style="fill:#5275E0; stroke-width:0.001; stroke:#0F2E8A; stroke-opacity:1; stroke-linecap:round; fill-opacity:0.6;" d="M 0 0.12 C 0.028000000000000008 0.10949999999999999, 0.057999999999999996 0.1895, 0.03 0.2 C 0.0019999999999999914 0.21050000000000002, -0.028 0.1305, 0 0.12 Z" />
  </g>
  <gundefined>
    <path style="fill:#5275E0; stroke-width:0.001; stroke:#0F2E8A; stroke-opacity:1; stroke-linecap:round; fill-opacity:0.6;" d="M 0 0.12 C 0.028000000000000008 0.10949999999999999, 0.057999999999999996 0.1895, 0.03 0.2 C 0.0019999999999999914 0.21050000000000002, -0.028 0.1305, 0 0.12 Z" />
  </g>
  <path style="fill:none; stroke-width:0.001; stroke:#1F42AD; stroke-opacity:1; stroke-linecap:round;" d="M 0.5 NaN A 0.05 NaN 0 0 0 0.45 NaN A 0.05 NaN 0 0 0 0.55 NaN A 0.05 NaN 0 0 0 0.45 NaN A 0.05 NaN 0 0 0 0.55 NaN" />
  <gundefined>
    <path style="fill:#9952E0; stroke-width:0.001; stroke:#4C0F8A; stroke-opacity:1; stroke-linecap:round; fill-opacity:0.6;" d="M 0 0.09600000000000002 C 0.02240000000000001 0.08760000000000001, 0.046400000000000004 0.15160000000000004, 0.024000000000000004 0.16000000000000003 C 0.0015999999999999938 0.16840000000000002, -0.022400000000000003 0.10440000000000002, 0 0.09600000000000002 Z" />
  </g>
  <gundefined>
    <path style="fill:#9952E0; stroke-width:0.001; stroke:#4C0F8A; stroke-opacity:1; stroke-linecap:round; fill-opacity:0.6;" d="M 0 0.09600000000000002 C 0.02240000000000001 0.08760000000000001, 0.046400000000000004 0.15160000000000004, 0.024000000000000004 0.16000000000000003 C 0.0015999999999999938 0.16840000000000002, -0.022400000000000003 0.10440000000000002, 0 0.09600000000000002 Z" />
  </g>
  <gundefined>
    <path style="fill:#9952E0; stroke-width:0.001; stroke:#4C0F8A; stroke-opacity:1; stroke-linecap:round; fill-opacity:0.6;" d="M 0 0.09600000000000002 C 0.02240000000000001 0.08760000000000001, 0.046400000000000004 0.15160000000000004, 0.024000000000000004 0.16000000000000003 C 0.0015999999999999938 0.16840000000000002, -0.022400000000000003 0.10440000000000002, 0 0.09600000000000002 Z" />
  </g>
  <gundefined>
    <path style="fill:#9952E0; stroke-width:0.001; stroke:#4C0F8A; stroke-opacity:1; stroke-linecap:round; fill-opacity:0.6;" d="M 0 0.09600000000000002 C 0.02240000000000001 0.08760000000000001, 0.046400000000000004 0.15160000000000004, 0.024000000000000004 0.16000000000000003 C 0.0015999999999999938 0.16840000000000002, -0.022400000000000003 0.10440000000000002, 0 0.09600000000000002 Z" />
  </g>
  <gundefined>
    <path style="fill:#9952E0; stroke-width:0.001; stroke:#4C0F8A; stroke-opacity:1; stroke-linecap:round; fill-opacity:0.6;" d="M 0 0.09600000000000002 C 0.02240000000000001 0.08760000000000001, 0.046400000000000004 0.15160000000000004, 0.024000000000000004 0.16000000000000003 C 0.0015999999999999938 0.16840000000000002, -0.022400000000000003 0.10440000000000002, 0 0.09600000000000002 Z" />
  </g>
  <gundefined>
    <path style="fill:#9952E0; stroke-width:0.001; stroke:#4C0F8A; stroke-opacity:1; stroke-linecap:round; fill-opacity:0.6;" d="M 0 0.09600000000000002 C 0.02240000000000001 0.08760000000000001, 0.046400000000000004 0.15160000000000004, 0.024000000000000004 0.16000000000000003 C 0.0015999999999999938 0.16840000000000002, -0.022400000000000003 0.10440000000000002, 0 0.09600000000000002 Z" />
  </g>
  <gundefined>
    <path style="fill:#9952E0; stroke-width:0.001; stroke:#4C0F8A; stroke-opacity:1; stroke-linecap:round; fill-opacity:0.6;" d="M 0 0.09600000000000002 C 0.02240000000000001 0.08760000000000001, 0.046400000000000004 0.15160000000000004, 0.024000000000000004 0.16000000000000003 C 0.0015999999999999938 0.16840000000000002, -0.022400000000000003 0.10440000000000002, 0 0.09600000000000002 Z" />
  </g>
  <gundefined>
    <path style="fill:#9952E0; stroke-width:0.001; stroke:#4C0F8A; stroke-opacity:1; stroke-linecap:round; fill-opacity:0.6;" d="M 0 0.09600000000000002 C 0.02240000000000001 0.08760000000000001, 0.046400000000000004 0.15160000000000004, 0.024000000000000004 0.16000000000000003 C 0.0015999999999999938 0.16840000000000002, -0.022400000000000003 0.10440000000000002, 0 0.09600000000000002 Z" />
  </g>
  <gundefined>
    <path style="fill:#9952E0; stroke-width:0.001; stroke:#4C0F8A; stroke-opacity:1; stroke-linecap:round; fill-opacity:0.6;" d="M 0 0.09600000000000002 C 0.02240000000000001 0.08760000000000001, 0.046400000000000004 0.15160000000000004, 0.024000000000000004 0.16000000000000003 C 0.0015999999999999938 0.16840000000000002, -0.022400000000000003 0.10440000000000002, 0 0.09600000000000002 Z" />
  </g>
  <gundefined>
    <path style="fill:#9952E0; stroke-width:0.001; stroke:#4C0F8A; stroke-opacity:1; stroke-linecap:round; fill-opacity:0.6;" d="M 0 0.09600000000000002 C 0.02240000000000001 0.08760000000000001, 0.046400000000000004 0.15160000000000004, 0.024000000000000004 0.16000000000000003 C 0.0015999999999999938 0.16840000000000002, -0.022400000000000003 0.10440000000000002, 0 0.09600000000000002 Z" />
  </g>
  <gundefined>
    <path style="fill:#9952E0; stroke-width:0.001; stroke:#4C0F8A; stroke-opacity:1; stroke-linecap:round; fill-opacity:0.6;" d="M 0 0.09600000000000002 C 0.02240000000000001 0.08760000000000001, 0.046400000000000004 0.15160000000000004, 0.024000000000000004 0.16000000000000003 C 0.0015999999999999938 0.16840000000000002, -0.022400000000000003 0.10440000000000002, 0 0.09600000000000002 Z" />
  </g>
  <gundefined>
    <path style="fill:#9952E0; stroke-width:0.001; stroke:#4C0F8A; stroke-opacity:1; stroke-linecap:round; fill-opacity:0.6;" d="M 0 0.09600000000000002 C 0.02240000000000001 0.08760000000000001, 0.046400000000000004 0.15160000000000004, 0.024000000000000004 0.16000000000000003 C 0.0015999999999999938 0.16840000000000002, -0.022400000000000003 0.10440000000000002, 0 0.09600000000000002 Z" />
  </g>
  <gundefined>
    <path style="fill:#9952E0; stroke-width:0.001; stroke:#4C0F8A; stroke-opacity:1; stroke-linecap:round; fill-opacity:0.6;" d="M 0 0.09600000000000002 C 0.02240000000000001 0.08760000000000001, 0.046400000000000004 0.15160000000000004, 0.024000000000000004 0.16000000000000003 C 0.0015999999999999938 0.16840000000000002, -0.022400000000000003 0.10440000000000002, 0 0.09600000000000002 Z" />
  </g>
  <gundefined>
    <path style="fill:#9952E0; stroke-width:0.001; stroke:#4C0F8A; stroke-opacity:1; stroke-linecap:round; fill-opacity:0.6;" d="M 0 0.09600000000000002 C 0.02240000000000001 0.08760000000000001, 0.046400000000000004 0.15160000000000004, 0.024000000000000004 0.16000000000000003 C 0.0015999999999999938 0.16840000000000002, -0.022400000000000003 0.10440000000000002, 0 0.09600000000000002 Z" />
  </g>
  <gundefined>
    <path style="fill:#9952E0; stroke-width:0.001; stroke:#4C0F8A; stroke-opacity:1; stroke-linecap:round; fill-opacity:0.6;" d="M 0 0.09600000000000002 C 0.02240000000000001 0.08760000000000001, 0.046400000000000004 0.15160000000000004, 0.024000000000000004 0.16000000000000003 C 0.0015999999999999938 0.16840000000000002, -0.022400000000000003 0.10440000000000002, 0 0.09600000000000002 Z" />
  </g>
  <gundefined>
    <path style="fill:#9952E0; stroke-width:0.001; stroke:#4C0F8A; stroke-opacity:1; stroke-linecap:round; fill-opacity:0.6;" d="M 0 0.09600000000000002 C 0.02240000000000001 0.08760000000000001, 0.046400000000000004 0.15160000000000004, 0.024000000000000004 0.16000000000000003 C 0.0015999999999999938 0.16840000000000002, -0.022400000000000003 0.10440000000000002, 0 0.09600000000000002 Z" />
  </g>
  <gundefined>
    <path style="fill:#9952E0; stroke-width:0.001; stroke:#4C0F8A; stroke-opacity:1; stroke-linecap:round; fill-opacity:0.6;" d="M 0 0.09600000000000002 C 0.02240000000000001 0.08760000000000001, 0.046400000000000004 0.15160000000000004, 0.024000000000000004 0.16000000000000003 C 0.0015999999999999938 0.16840000000000002, -0.022400000000000003 0.10440000000000002, 0 0.09600000000000002 Z" />
  </g>
  <gundefined>
    <path style="fill:#9952E0; stroke-width:0.001; stroke:#4C0F8A; stroke-opacity:1; stroke-linecap:round; fill-opacity:0.6;" d="M 0 0.09600000000000002 C 0.02240000000000001 0.08760000000000001, 0.046400000000000004 0.15160000000000004, 0.024000000000000004 0.16000000000000003 C 0.0015999999999999938 0.16840000000000002, -0.022400000000000003 0.10440000000000002, 0 0.09600000000000002 Z" />
  </g>
  <gundefined>
    <path style="fill:#9952E0; stroke-width:0.001; stroke:#4C0F8A; stroke-opacity:1; stroke-linecap:round; fill-opacity:0.6;" d="M 0 0.09600000000000002 C 0.02240000000000001 0.08760000000000001, 0.046400000000000004 0.15160000000000004, 0.024000000000000004 0.16000000000000003 C 0.0015999999999999938 0.16840000000000002, -0.022400000000000003 0.10440000000000002, 0 0.09600000000000002 Z" />
  </g>
  <gundefined>
    <path style="fill:#9952E0; stroke-width:0.001; stroke:#4C0F8A; stroke-opacity:1; stroke-linecap:round; fill-opacity:0.6;" d="M 0 0.09600000000000002 C 0.02240000000000001 0.08760000000000001, 0.046400000000000004 0.15160000000000004, 0.024000000000000004 0.16000000000000003 C 0.0015999999999999938 0.16840000000000002, -0.022400000000000003 0.10440000000000002, 0 0.09600000000000002 Z" />
  </g>
  <gundefined>
    <path style="fill:#9952E0; stroke-width:0.001; stroke:#4C0F8A; stroke-opacity:1; stroke-linecap:round; fill-opacity:0.6;" d="M 0 0.09600000000000002 C 0.02240000000000001 0.08760000000000001, 0.046400000000000004 0.15160000000000004, 0.024000000000000004 0.16000000000000003 C 0.0015999999999999938 0.16840000000000002, -0.022400000000000003 0.10440000000000002, 0 0.09600000000000002 Z" />
  </g>
  <gundefined>
    <path style="fill:#9952E0; stroke-width:0.001; stroke:#4C0F8A; stroke-opacity:1; stroke-linecap:round; fill-opacity:0.6;" d="M 0 0.09600000000000002 C 0.02240000000000001 0.08760000000000001, 0.046400000000000004 0.15160000000000004, 0.024000000000000004 0.16000000000000003 C 0.0015999999999999938 0.16840000000000002, -0.022400000000000003 0.10440000000000002, 0 0.09600000000000002 Z" />
  </g>
  <gundefined>
    <path style="fill:#9952E0; stroke-width:0.001; stroke:#4C0F8A; stroke-opacity:1; stroke-linecap:round; fill-opacity:0.6;" d="M 0 0.09600000000000002 C 0.02240000000000001 0.08760000000000001, 0.046400000000000004 0.15160000000000004, 0.024000000000000004 0.16000000000000003 C 0.0015999999999999938 0.16840000000000002, -0.022400000000000003 0.10440000000000002, 0 0.09600000000000002 Z" />
  </g>
  <gundefined>
    <path style="fill:#9952E0; stroke-width:0.001; stroke:#4C0F8A; stroke-opacity:1; stroke-linecap:round; fill-opacity:0.6;" d="M 0 0.09600000000000002 C 0.02240000000000001 0.08760000000000001, 0.046400000000000004 0.15160000000000004, 0.024000000000000004 0.16000000000000003 C 0.0015999999999999938 0.16840000000000002, -0.022400000000000003 0.10440000000000002, 0 0.09600000000000002 Z" />
  </g>
  <gundefined>
    <path style="fill:#9952E0; stroke-width:0.001; stroke:#4C0F8A; stroke-opacity:1; stroke-linecap:round; fill-opacity:0.6;" d="M 0 0.09600000000000002 C 0.02240000000000001 0.08760000000000001, 0.046400000000000004 0.15160000000000004, 0.024000000000000004 0.16000000000000003 C 0.0015999999999999938 0.16840000000000002, -0.022400000000000003 0.10440000000000002, 0 0.09600000000000002 Z" />
  </g>
  <gundefined>
    <path style="fill:#9952E0; stroke-width:0.001; stroke:#4C0F8A; stroke-opacity:1; stroke-linecap:round; fill-opacity:0.6;" d="M 0 0.09600000000000002 C 0.02240000000000001 0.08760000000000001, 0.046400000000000004 0.15160000000000004, 0.024000000000000004 0.16000000000000003 C 0.0015999999999999938 0.16840000000000002, -0.022400000000000003 0.10440000000000002, 0 0.09600000000000002 Z" />
  </g>
  <gundefined>
    <path style="fill:#9952E0; stroke-width:0.001; stroke:#4C0F8A; stroke-opacity:1; stroke-linecap:round; fill-opacity:0.6;" d="M 0 0.09600000000000002 C 0.02240000000000001 0.08760000000000001, 0.046400000000000004 0.15160000000000004, 0.024000000000000004 0.16000000000000003 C 0.0015999999999999938 0.16840000000000002, -0.022400000000000003 0.10440000000000002, 0 0.09600000000000002 Z" />
  </g>
  <gundefined>
    <path style="fill:#9952E0; stroke-width:0.001; stroke:#4C0F8A; stroke-opacity:1; stroke-linecap:round; fill-opacity:0.6;" d="M 0 0.09600000000000002 C 0.02240000000000001 0.08760000000000001, 0.046400000000000004 0.15160000000000004, 0.024000000000000004 0.16000000000000003 C 0.0015999999999999938 0.16840000000000002, -0.022400000000000003 0.10440000000000002, 0 0.09600000000000002 Z" />
  </g>
  <gundefined>
    <path style="fill:#9952E0; stroke-width:0.001; stroke:#4C0F8A; stroke-opacity:1; stroke-linecap:round; fill-opacity:0.6;" d="M 0 0.09600000000000002 C 0.02240000000000001 0.08760000000000001, 0.046400000000000004 0.15160000000000004, 0.024000000000000004 0.16000000000000003 C 0.0015999999999999938 0.16840000000000002, -0.022400000000000003 0.10440000000000002, 0 0.09600000000000002 Z" />
  </g>
  <gundefined>
    <path style="fill:#9952E0; stroke-width:0.001; stroke:#4C0F8A; stroke-opacity:1; stroke-linecap:round; fill-opacity:0.6;" d="M 0 0.09600000000000002 C 0.02240000000000001 0.08760000000000001, 0.046400000000000004 0.15160000000000004, 0.024000000000000004 0.16000000000000003 C 0.0015999999999999938 0.16840000000000002, -0.022400000000000003 0.10440000000000002, 0 0.09600000000000002 Z" />
  </g>
  <gundefined>
    <path style="fill:#9952E0; stroke-width:0.001; stroke:#4C0F8A; stroke-opacity:1; stroke-linecap:round; fill-opacity:0.6;" d="M 0 0.09600000000000002 C 0.02240000000000001 0.08760000000000001, 0.046400000000000004 0.15160000000000004, 0.024000000000000004 0.16000000000000003 C 0.0015999999999999938 0.16840000000000002, -0.022400000000000003 0.10440000000000002, 0 0.09600000000000002 Z" />
  </g>
  <gundefined>
    <path style="fill:#9952E0; stroke-width:0.001; stroke:#4C0F8A; stroke-opacity:1; stroke-linecap:round; fill-opacity:0.6;" d="M 0 0.09600000000000002 C 0.02240000000000001 0.08760000000000001, 0.046400000000000004 0.15160000000000004, 0.024000000000000004 0.16000000000000003 C 0.0015999999999999938 0.16840000000000002, -0.022400000000000003 0.10440000000000002, 0 0.09600000000000002 Z" />
  </g>
  <gundefined>
    <path style="fill:#9952E0; stroke-width:0.001; stroke:#4C0F8A; stroke-opacity:1; stroke-linecap:round; fill-opacity:0.6;" d="M 0 0.09600000000000002 C 0.02240000000000001 0.08760000000000001, 0.046400000000000004 0.15160000000000004, 0.024000000000000004 0.16000000000000003 C 0.0015999999999999938 0.16840000000000002, -0.022400000000000003 0.10440000000000002, 0 0.09600000000000002 Z" />
  </g>
  <gundefined>
    <path style="fill:#9952E0; stroke-width:0.001; stroke:#4C0F8A; stroke-opacity:1; stroke-linecap:round; fill-opacity:0.6;" d="M 0 0.09600000000000002 C 0.02240000000000001 0.08760000000000001, 0.046400000000000004 0.15160000000000004, 0.024000000000000004 0.16000000000000003 C 0.0015999999999999938 0.16840000000000002, -0.022400000000000003 0.10440000000000002, 0 0.09600000000000002 Z" />
  </g>
  <gundefined>
    <path style="fill:#9952E0; stroke-width:0.001; stroke:#4C0F8A; stroke-opacity:1; stroke-linecap:round; fill-opacity:0.6;" d="M 0 0.09600000000000002 C 0.02240000000000001 0.08760000000000001, 0.046400000000000004 0.15160000000000004, 0.024000000000000004 0.16000000000000003 C 0.0015999999999999938 0.16840000000000002, -0.022400000000000003 0.10440000000000002, 0 0.09600000000000002 Z" />
  </g>
  <gundefined>
    <path style="fill:#9952E0; stroke-width:0.001; stroke:#4C0F8A; stroke-opacity:1; stroke-linecap:round; fill-opacity:0.6;" d="M 0 0.09600000000000002 C 0.02240000000000001 0.08760000000000001, 0.046400000000000004 0.15160000000000004, 0.024000000000000004 0.16000000000000003 C 0.0015999999999999938 0.16840000000000002, -0.022400000000000003 0.10440000000000002, 0 0.09600000000000002 Z" />
  </g>
  <path style="fill:none; stroke-width:0.001; stroke:#661FAD; stroke-opacity:1; stroke-linecap:round;" d="M 0.5 NaN A 0.04000000000000001 NaN 0 0 0 0.45999999999999996 NaN A 0.04000000000000001 NaN 0 0 0 0.54 NaN A 0.04000000000000001 NaN 0 0 0 0.45999999999999996 NaN A 0.04000000000000001 NaN 0 0 0 0.54 NaN" />
  <gundefined>
    <path style="fill:#E052BD; stroke-width:0.001; stroke:#8A0F6B; stroke-opacity:1; stroke-linecap:round; fill-opacity:0.6;" d="M 0 0.072 C 0.016800000000000002 0.06570000000000001, 0.03479999999999999 0.1137, 0.018 0.12 C 0.0011999999999999962 0.1263, -0.016799999999999995 0.07830000000000001, 0 0.072 Z" />
  </g>
  <gundefined>
    <path style="fill:#E052BD; stroke-width:0.001; stroke:#8A0F6B; stroke-opacity:1; stroke-linecap:round; fill-opacity:0.6;" d="M 0 0.072 C 0.016800000000000002 0.06570000000000001, 0.03479999999999999 0.1137, 0.018 0.12 C 0.0011999999999999962 0.1263, -0.016799999999999995 0.07830000000000001, 0 0.072 Z" />
  </g>
  <gundefined>
    <path style="fill:#E052BD; stroke-width:0.001; stroke:#8A0F6B; stroke-opacity:1; stroke-linecap:round; fill-opacity:0.6;" d="M 0 0.072 C 0.016800000000000002 0.06570000000000001, 0.03479999999999999 0.1137, 0.018 0.12 C 0.0011999999999999962 0.1263, -0.016799999999999995 0.07830000000000001, 0 0.072 Z" />
  </g>
  <gundefined>
    <path style="fill:#E052BD; stroke-width:0.001; stroke:#8A0F6B; stroke-opacity:1; stroke-linecap:round; fill-opacity:0.6;" d="M 0 0.072 C 0.016800000000000002 0.06570000000000001, 0.03479999999999999 0.1137, 0.018 0.12 C 0.0011999999999999962 0.1263, -0.016799999999999995 0.07830000000000001, 0 0.072 Z" />
  </g>
  <gundefined>
    <path style="fill:#E052BD; stroke-width:0.001; stroke:#8A0F6B; stroke-opacity:1; stroke-linecap:round; fill-opacity:0.6;" d="M 0 0.072 C 0.016800000000000002 0.06570000000000001, 0.03479999999999999 0.1137, 0.018 0.12 C 0.0011999999999999962 0.1263, -0.016799999999999995 0.07830000000000001, 0 0.072 Z" />
  </g>
  <gundefined>
    <path style="fill:#E052BD; stroke-width:0.001; stroke:#8A0F6B; stroke-opacity:1; stroke-linecap:round; fill-opacity:0.6;" d="M 0 0.072 C 0.016800000000000002 0.06570000000000001, 0.03479999999999999 0.1137, 0.018 0.12 C 0.0011999999999999962 0.1263, -0.016799999999999995 0.07830000000000001, 0 0.072 Z" />
  </g>
  <gundefined>
    <path style="fill:#E052BD; stroke-width:0.001; stroke:#8A0F6B; stroke-opacity:1; stroke-linecap:round; fill-opacity:0.6;" d="M 0 0.072 C 0.016800000000000002 0.06570000000000001, 0.03479999999999999 0.1137, 0.018 0.12 C 0.0011999999999999962 0.1263, -0.016799999999999995 0.07830000000000001, 0 0.072 Z" />
  </g>
  <gundefined>
    <path style="fill:#E052BD; stroke-width:0.001; stroke:#8A0F6B; stroke-opacity:1; stroke-linecap:round; fill-opacity:0.6;" d="M 0 0.072 C 0.016800000000000002 0.06570000000000001, 0.03479999999999999 0.1137, 0.018 0.12 C 0.0011999999999999962 0.1263, -0.016799999999999995 0.07830000000000001, 0 0.072 Z" />
  </g>
  <gundefined>
    <path style="fill:#E052BD; stroke-width:0.001; stroke:#8A0F6B; stroke-opacity:1; stroke-linecap:round; fill-opacity:0.6;" d="M 0 0.072 C 0.016800000000000002 0.06570000000000001, 0.03479999999999999 0.1137, 0.018 0.12 C 0.0011999999999999962 0.1263, -0.016799999999999995 0.07830000000000001, 0 0.072 Z" />
  </g>
  <gundefined>
    <path style="fill:#E052BD; stroke-width:0.001; stroke:#8A0F6B; stroke-opacity:1; stroke-linecap:round; fill-opacity:0.6;" d="M 0 0.072 C 0.016800000000000002 0.06570000000000001, 0.03479999999999999 0.1137, 0.018 0.12 C 0.0011999999999999962 0.1263, -0.016799999999999995 0.07830000000000001, 0 0.072 Z" />
  </g>
  <gundefined>
    <path style="fill:#E052BD; stroke-width:0.001; stroke:#8A0F6B; stroke-opacity:1; stroke-linecap:round; fill-opacity:0.6;" d="M 0 0.072 C 0.016800000000000002 0.06570000000000001, 0.03479999999999999 0.1137, 0.018 0.12 C 0.0011999999999999962 0.1263, -0.016799999999999995 0.07830000000000001, 0 0.072 Z" />
  </g>
  <gundefined>
    <path style="fill:#E052BD; stroke-width:0.001; stroke:#8A0F6B; stroke-opacity:1; stroke-linecap:round; fill-opacity:0.6;" d="M 0 0.072 C 0.016800000000000002 0.06570000000000001, 0.03479999999999999 0.1137, 0.018 0.12 C 0.0011999999999999962 0.1263, -0.016799999999999995 0.07830000000000001, 0 0.072 Z" />
  </g>
  <gundefined>
    <path style="fill:#E052BD; stroke-width:0.001; stroke:#8A0F6B; stroke-opacity:1; stroke-linecap:round; fill-opacity:0.6;" d="M 0 0.072 C 0.016800000000000002 0.06570000000000001, 0.03479999999999999 0.1137, 0.018 0.12 C 0.0011999999999999962 0.1263, -0.016799999999999995 0.07830000000000001, 0 0.072 Z" />
  </g>
  <gundefined>
    <path style="fill:#E052BD; stroke-width:0.001; stroke:#8A0F6B; stroke-opacity:1; stroke-linecap:round; fill-opacity:0.6;" d="M 0 0.072 C 0.016800000000000002 0.06570000000000001, 0.03479999999999999 0.1137, 0.018 0.12 C 0.0011999999999999962 0.1263, -0.016799999999999995 0.07830000000000001, 0 0.072 Z" />
  </g>
  <gundefined>
    <path style="fill:#E052BD; stroke-width:0.001; stroke:#8A0F6B; stroke-opacity:1; stroke-linecap:round; fill-opacity:0.6;" d="M 0 0.072 C 0.016800000000000002 0.06570000000000001, 0.03479999999999999 0.1137, 0.018 0.12 C 0.0011999999999999962 0.1263, -0.016799999999999995 0.07830000000000001, 0 0.072 Z" />
  </g>
  <gundefined>
    <path style="fill:#E052BD; stroke-width:0.001; stroke:#8A0F6B; stroke-opacity:1; stroke-linecap:round; fill-opacity:0.6;" d="M 0 0.072 C 0.016800000000000002 0.06570000000000001, 0.03479999999999999 0.1137, 0.018 0.12 C 0.0011999999999999962 0.1263, -0.016799999999999995 0.07830000000000001, 0 0.072 Z" />
  </g>
  <gundefined>
    <path style="fill:#E052BD; stroke-width:0.001; stroke:#8A0F6B; stroke-opacity:1; stroke-linecap:round; fill-opacity:0.6;" d="M 0 0.072 C 0.016800000000000002 0.06570000000000001, 0.03479999999999999 0.1137, 0.018 0.12 C 0.0011999999999999962 0.1263, -0.016799999999999995 0.07830000000000001, 0 0.072 Z" />
  </g>
  <gundefined>
    <path style="fill:#E052BD; stroke-width:0.001; stroke:#8A0F6B; stroke-opacity:1; stroke-linecap:round; fill-opacity:0.6;" d="M 0 0.072 C 0.016800000000000002 0.06570000000000001, 0.03479999999999999 0.1137, 0.018 0.12 C 0.0011999999999999962 0.1263, -0.016799999999999995 0.07830000000000001, 0 0.072 Z" />
  </g>
  <gundefined>
    <path style="fill:#E052BD; stroke-width:0.001; stroke:#8A0F6B; stroke-opacity:1; stroke-linecap:round; fill-opacity:0.6;" d="M 0 0.072 C 0.016800000000000002 0.06570000000000001, 0.03479999999999999 0.1137, 0.018 0.12 C 0.0011999999999999962 0.1263, -0.016799999999999995 0.07830000000000001, 0 0.072 Z" />
  </g>
  <gundefined>
    <path style="fill:#E052BD; stroke-width:0.001; stroke:#8A0F6B; stroke-opacity:1; stroke-linecap:round; fill-opacity:0.6;" d="M 0 0.072 C 0.016800000000000002 0.06570000000000001, 0.03479999999999999 0.1137, 0.018 0.12 C 0.0011999999999999962 0.1263, -0.016799999999999995 0.07830000000000001, 0 0.072 Z" />
  </g>
  <gundefined>
    <path style="fill:#E052BD; stroke-width:0.001; stroke:#8A0F6B; stroke-opacity:1; stroke-linecap:round; fill-opacity:0.6;" d="M 0 0.072 C 0.016800000000000002 0.06570000000000001, 0.03479999999999999 0.1137, 0.018 0.12 C 0.0011999999999999962 0.1263, -0.016799999999999995 0.07830000000000001, 0 0.072 Z" />
  </g>
  <gundefined>
    <path style="fill:#E052BD; stroke-width:0.001; stroke:#8A0F6B; stroke-opacity:1; stroke-linecap:round; fill-opacity:0.6;" d="M 0 0.072 C 0.016800000000000002 0.06570000000000001, 0.03479999999999999 0.1137, 0.018 0.12 C 0.0011999999999999962 0.1263, -0.016799999999999995 0.07830000000000001, 0 0.072 Z" />
  </g>
  <gundefined>
    <path style="fill:#E052BD; stroke-width:0.001; stroke:#8A0F6B; stroke-opacity:1; stroke-linecap:round; fill-opacity:0.6;" d="M 0 0.072 C 0.016800000000000002 0.06570000000000001, 0.03479999999999999 0.1137, 0.018 0.12 C 0.0011999999999999962 0.1263, -0.016799999999999995 0.07830000000000001, 0 0.072 Z" />
  </g>
  <gundefined>
    <path style="fill:#E052BD; stroke-width:0.001; stroke:#8A0F6B; stroke-opacity:1; stroke-linecap:round; fill-opacity:0.6;" d="M 0 0.072 C 0.016800000000000002 0.06570000000000001, 0.03479999999999999 0.1137, 0.018 0.12 C 0.0011999999999999962 0.1263, -0.016799999999999995 0.07830000000000001, 0 0.072 Z" />
  </g>
  <gundefined>
    <path style="fill:#E052BD; stroke-width:0.001; stroke:#8A0F6B; stroke-opacity:1; stroke-linecap:round; fill-opacity:0.6;" d="M 0 0.072 C 0.016800000000000002 0.06570000000000001, 0.03479999999999999 0.1137, 0.018 0.12 C 0.0011999999999999962 0.1263, -0.016799999999999995 0.07830000000000001, 0 0.072 Z" />
  </g>
  <gundefined>
    <path style="fill:#E052BD; stroke-width:0.001; stroke:#8A0F6B; stroke-opacity:1; stroke-linecap:round; fill-opacity:0.6;" d="M 0 0.072 C 0.016800000000000002 0.06570000000000001, 0.03479999999999999 0.1137, 0.018 0.12 C 0.0011999999999999962 0.1263, -0.016799999999999995 0.07830000000000001, 0 0.072 Z" />
  </g>
  <gundefined>
    <path style="fill:#E052BD; stroke-width:0.001; stroke:#8A0F6B; stroke-opacity:1; stroke-linecap:round; fill-opacity:0.6;" d="M 0 0.072 C 0.016800000000000002 0.06570000000000001, 0.03479999999999999 0.1137, 0.018 0.12 C 0.0011999999999999962 0.1263, -0.016799999999999995 0.07830000000000001, 0 0.072 Z" />
  </g>
  <gundefined>
    <path style="fill:#E052BD; stroke-width:0.001; stroke:#8A0F6B; stroke-opacity:1; stroke-linecap:round; fill-opacity:0.6;" d="M 0 0.072 C 0.016800000000000002 0.06570000000000001, 0.03479999999999999 0.1137, 0.018 0.12 C 0.0011999999999999962 0.1263, -0.016799999999999995 0.07830000000000001, 0 0.072 Z" />
  </g>
  <gundefined>
    <path style="fill:#E052BD; stroke-width:0.001; stroke:#8A0F6B; stroke-opacity:1; stroke-linecap:round; fill-opacity:0.6;" d="M 0 0.072 C 0.016800000000000002 0.06570000000000001, 0.03479999999999999 0.1137, 0.018 0.12 C 0.0011999999999999962 0.1263, -0.016799999999999995 0.07830000000000001, 0 0.072 Z" />
  </g>
  <gundefined>
    <path style="fill:#E052BD; stroke-width:0.001; stroke:#8A0F6B; stroke-opacity:1; stroke-linecap:round; fill-opacity:0.6;" d="M 0 0.072 C 0.016800000000000002 0.06570000000000001, 0.03479999999999999 0.1137, 0.018 0.12 C 0.0011999999999999962 0.1263, -0.016799999999999995 0.07830000000000001, 0 0.072 Z" />
  </g>
  <gundefined>
    <path style="fill:#E052BD; stroke-width:0.001; stroke:#8A0F6B; stroke-opacity:1; stroke-linecap:round; fill-opacity:0.6;" d="M 0 0.072 C 0.016800000000000002 0.06570000000000001, 0.03479999999999999 0.1137, 0.018 0.12 C 0.0011999999999999962 0.1263, -0.016799999999999995 0.07830000000000001, 0 0.072 Z" />
  </g>
  <gundefined>
    <path style="fill:#E052BD; stroke-width:0.001; stroke:#8A0F6B; stroke-opacity:1; stroke-linecap:round; fill-opacity:0.6;" d="M 0 0.072 C 0.016800000000000002 0.06570000000000001, 0.03479999999999999 0.1137, 0.018 0.12 C 0.0011999999999999962 0.1263, -0.016799999999999995 0.07830000000000001, 0 0.072 Z" />
  </g>
  <gundefined>
    <path style="fill:#E052BD; stroke-width:0.001; stroke:#8A0F6B; stroke-opacity:1; stroke-linecap:round; fill-opacity:0.6;" d="M 0 0.072 C 0.016800000000000002 0.06570000000000001, 0.03479999999999999 0.1137, 0.018 0.12 C 0.0011999999999999962 0.1263, -0.016799999999999995 0.07830000000000001, 0 0.072 Z" />
  </g>
  <gundefined>
    <path style="fill:#E052BD; stroke-width:0.001; stroke:#8A0F6B; stroke-opacity:1; stroke-linecap:round; fill-opacity:0.6;" d="M 0 0.072 C 0.016800000000000002 0.06570000000000001, 0.03479999999999999 0.1137, 0.018 0.12 C 0.0011999999999999962 0.1263, -0.016799999999999995 0.07830000000000001, 0 0.072 Z" />
  </g>
  <gundefined>
    <path style="fill:#E052BD; stroke-width:0.001; stroke:#8A0F6B; stroke-opacity:1; stroke-linecap:round; fill-opacity:0.6;" d="M 0 0.072 C 0.016800000000000002 0.06570000000000001, 0.03479999999999999 0.1137, 0.018 0.12 C 0.0011999999999999962 0.1263, -0.016799999999999995 0.07830000000000001, 0 0.072 Z" />
  </g>
  <gundefined>
    <path style="fill:#E052BD; stroke-width:0.001; stroke:#8A0F6B; stroke-opacity:1; stroke-linecap:round; fill-opacity:0.6;" d="M 0 0.072 C 0.016800000000000002 0.06570000000000001, 0.03479999999999999 0.1137, 0.018 0.12 C 0.0011999999999999962 0.1263, -0.016799999999999995 0.07830000000000001, 0 0.072 Z" />
  </g>
  <gundefined>
    <path style="fill:#E052BD; stroke-width:0.001; stroke:#8A0F6B; stroke-opacity:1; stroke-linecap:round; fill-opacity:0.6;" d="M 0 0.072 C 0.016800000000000002 0.06570000000000001, 0.03479999999999999 0.1137, 0.018 0.12 C 0.0011999999999999962 0.1263, -0.016799999999999995 0.07830000000000001, 0 0.072 Z" />
  </g>
  <gundefined>
    <path style="fill:#E052BD; stroke-width:0.001; stroke:#8A0F6B; stroke-opacity:1; stroke-linecap:round; fill-opacity:0.6;" d="M 0 0.072 C 0.016800000000000002 0.06570000000000001, 0.03479999999999999 0.1137, 0.018 0.12 C 0.0011999999999999962 0.1263, -0.016799999999999995 0.07830000000000001, 0 0.072 Z" />
  </g>
  <gundefined>
    <path style="fill:#E052BD; stroke-width:0.001; stroke:#8A0F6B; stroke-opacity:1; stroke-linecap:round; fill-opacity:0.6;" d="M 0 0.072 C 0.016800000000000002 0.06570000000000001, 0.03479999999999999 0.1137, 0.018 0.12 C 0.0011999999999999962 0.1263, -0.016799999999999995 0.07830000000000001, 0 0.072 Z" />
  </g>
  <gundefined>
    <path style="fill:#E052BD; stroke-width:0.001; stroke:#8A0F6B; stroke-opacity:1; stroke-linecap:round; fill-opacity:0.6;" d="M 0 0.072 C 0.016800000000000002 0.06570000000000001, 0.03479999999999999 0.1137, 0.018 0.12 C 0.0011999999999999962 0.1263, -0.016799999999999995 0.07830000000000001, 0 0.072 Z" />
  </g>
  <path style="fill:none; stroke-width:0.001; stroke:#AD1F8A; stroke-opacity:1; stroke-linecap:round;" d="M 0.5 NaN A 0.03 NaN 0 0 0 0.47 NaN A 0.03 NaN 0 0 0 0.53 NaN A 0.03 NaN 0 0 0 0.47 NaN A 0.03 NaN 0 0 0 0.53 NaN" />
  <path style="fill:#FFFFFF; stroke-width:0.001; stroke:#000000; stroke-opacity:1; stroke-linecap:round;" d="M 0.5 NaN A 0.025 NaN 0 0 0 0.475 NaN A 0.025 NaN 0 0 0 0.525 NaN A 0.025 NaN 0 0 0 0.475 NaN A 0.025 NaN 0 0 0 0.525 NaN" />
</svg>