<svg xmlns="http://www.w3.org/2000/svg" viewBox="0 0 1 1" width="800" height="800">
  <gundefined>
    <path style="fill:none; stroke-width:0.005; stroke:#D92626; stroke-opacity:1; stroke-linecap:round;" d="M 0.5 NaN A 0.2 NaN 0 0 0 0.3 NaN A 0.2 NaN 0 0 0 0.7 NaN A 0.2 NaN 0 0 0 0.3 NaN A 0.2 NaN 0 0 0 0.7 NaN" />
  </g>
  <gundefined>
    <path style="fill:none; stroke-width:0.005; stroke:#D97F26; stroke-opacity:1; stroke-linecap:round;" d="M 0.5 NaN A 0.2 NaN 0 0 0 0.3 NaN A 0.2 NaN 0 0 0 0.7 NaN A 0.2 NaN 0 0 0 0.3 NaN A 0.2 NaN 0 0 0 0.7 NaN" />
  </g>
  <gundefined>
    <path style="fill:none; stroke-width:0.005; stroke:#D9D926; stroke-opacity:1; stroke-linecap:round;" d="M 0.5 NaN A 0.2 NaN 0 0 0 0.3 NaN A 0.2 NaN 0 0 0 0.7 NaN A 0.2 NaN 0 0 0 0.3 NaN A 0.2 NaN 0 0 0 0.7 NaN" />
  </g>
  <gundefined>
    <path style="fill:none; stroke-width:0.005; stroke:#80D926; stroke-opacity:1; stroke-linecap:round;" d="M 0.5 NaN A 0.2 NaN 0 0 0 0.3 NaN A 0.2 NaN 0 0 0 0.7 NaN A 0.2 NaN 0 0 0 0.3 NaN A 0.2 NaN 0 0 0 0.7 NaN" />
  </g>
  <gundefined>
    <path style="fill:none; stroke-width:0.005; stroke:#26D926; stroke-opacity:1; stroke-linecap:round;" d="M 0.5 NaN A 0.2 NaN 0 0 0 0.3 NaN A 0.2 NaN 0 0 0 0.7 NaN A 0.2 NaN 0 0 0 0.3 NaN A 0.2 NaN 0 0 0 0.7 NaN" />
  </g>
  <gundefined>
    <path style="fill:none; stroke-width:0.005; stroke:#26D980; stroke-opacity:1; stroke-linecap:round;" d="M 0.5 NaN A 0.2 NaN 0 0 0 0.3 NaN A 0.2 NaN 0 0 0 0.7 NaN A 0.2 NaN 0 0 0 0.3 NaN A 0.2 NaN 0 0 0 0.7 NaN" />
  </g>
  <gundefined>
    <path style="fill:none; stroke-width:0.005; stroke:#26D9D9; stroke-opacity:1; stroke-linecap:round;" d="M 0.5 NaN A 0.2 NaN 0 0 0 0.3 NaN A 0.2 NaN 0 0 0 0.7 NaN A 0.2 NaN 0 0 0 0.3 NaN A 0.2 NaN 0 0 0 0.7 NaN" />
  </g>
  <gundefined>
    <path style="fill:none; stroke-width:0.005; stroke:#267FD9; stroke-opacity:1; stroke-linecap:round;" d="M 0.5 NaN A 0.2 NaN 0 0 0 0.3 NaN A 0.2 NaN 0 0 0 0.7 NaN A 0.2 NaN 0 0 0 0.3 NaN A 0.2 NaN 0 0 0 0.7 NaN" />
  </g>
  <gundefined>
    <path style="fill:none; stroke-width:0.005; stroke:#2626D9; stroke-opacity:1; stroke-linecap:round;" d="M 0.5 NaN A 0.2 NaN 0 0 0 0.3 NaN A 0.2 NaN 0 0 0 0.7 NaN A 0.2 NaN 0 0 0 0.3 NaN A 0.2 NaN 0 0 0 0.7 NaN" />
  </g>
  <gundefined>
    <path style="fill:none; stroke-width:0.005; stroke:#7F26D9; stroke-opacity:1; stroke-linecap:round;" d="M 0.5 NaN A 0.2 NaN 0 0 0 0.3 NaN A 0.2 NaN 0 0 0 0.7 NaN A 0.2 NaN 0 0 0 0.3 NaN A 0.2 NaN 0 0 0 0.7 NaN" />
  </g>
</svg>