<svg xmlns="http://www.w3.org/2000/svg" viewBox="0 0 1 1" width="800" height="800">
  <path style="fill:#9D26D9; stroke-width:0.005; stroke:#000000; stroke-opacity:1; stroke-linecap:round; fill-opacity:0.6652496999829212;" d="M 0.7397302147566239 NaN A 0.021850383933258624 NaN 0 0 0 0.7178798308233653 NaN A 0.021850383933258624 NaN 0 0 0 0.7615805986898826 NaN A 0.021850383933258624 NaN 0 0 0 0.7178798308233653 NaN A 0.021850383933258624 NaN 0 0 0 0.7615805986898826 NaN" />
  <path style="fill:#9D26D9; stroke-width:0.005; stroke:#000000; stroke-opacity:1; stroke-linecap:round; fill-opacity:0.6475229976601464;" d="M 0.3848794981468161 NaN A 0.01464726559647081 NaN 0 0 0 0.3702322325503453 NaN A 0.01464726559647081 NaN 0 0 0 0.3995267637432869 NaN A 0.01464726559647081 NaN 0 0 0 0.3702322325503453 NaN A 0.01464726559647081 NaN 0 0 0 0.3995267637432869 NaN" />
  <path style="fill:#9D26D9; stroke-width:0.005; stroke:#000000; stroke-opacity:1; stroke-linecap:round; fill-opacity:0.43673225736642934;" d="M 0.508408667601972 NaN A 0.02430351465027585 NaN 0 0 0 0.48410515295169615 NaN A 0.02430351465027585 NaN 0 0 0 0.5327121822522478 NaN A 0.02430351465027585 NaN 0 0 0 0.48410515295169615 NaN A 0.02430351465027585 NaN 0 0 0 0.5327121822522478 NaN" />
  <path style="fill:#9D26D9; stroke-width:0.005; stroke:#000000; stroke-opacity:1; stroke-linecap:round; fill-opacity:0.595819927422268;" d="M 0.11511588147746588 NaN A 0.030791466963424805 NaN 0 0 0 0.08432441451404107 NaN A 0.030791466963424805 NaN 0 0 0 0.14590734844089068 NaN A 0.030791466963424805 NaN 0 0 0 0.08432441451404107 NaN A 0.030791466963424805 NaN 0 0 0 0.14590734844089068 NaN" />
  <path style="fill:#D92626; stroke-width:0.005; stroke:#000000; stroke-opacity:1; stroke-linecap:round; fill-opacity:0.5053195912314128;" d="M 0.8389344540029023 NaN A 0.04422163859856352 NaN 0 0 0 0.7947128154043388 NaN A 0.04422163859856352 NaN 0 0 0 0.8831560926014659 NaN A 0.04422163859856352 NaN 0 0 0 0.7947128154043388 NaN A 0.04422163859856352 NaN 0 0 0 0.8831560926014659 NaN" />
  <path style="fill:#D92626; stroke-width:0.005; stroke:#000000; stroke-opacity:1; stroke-linecap:round; fill-opacity:0.5736014071736296;" d="M 0.15643535074878212 NaN A 0.04100736762994822 NaN 0 0 0 0.1154279831188339 NaN A 0.04100736762994822 NaN 0 0 0 0.19744271837873034 NaN A 0.04100736762994822 NaN 0 0 0 0.1154279831188339 NaN A 0.04100736762994822 NaN 0 0 0 0.19744271837873034 NaN" />
  <path style="fill:#D97F26; stroke-width:0.005; stroke:#000000; stroke-opacity:1; stroke-linecap:round; fill-opacity:0.32296002528572737;" d="M 0.08688461968798145 NaN A 0.04463874830145805 NaN 0 0 0 0.042245871386523394 NaN A 0.04463874830145805 NaN 0 0 0 0.1315233679894395 NaN A 0.04463874830145805 NaN 0 0 0 0.042245871386523394 NaN A 0.04463874830145805 NaN 0 0 0 0.1315233679894395 NaN" />
  <path style="fill:#9D26D9; stroke-width:0.005; stroke:#000000; stroke-opacity:1; stroke-linecap:round; fill-opacity:0.35014753430493;" d="M 0.877266404687484 NaN A 0.031870167822744 NaN 0 0 0 0.84539623686474 NaN A 0.031870167822744 NaN 0 0 0 0.909136572510228 NaN A 0.031870167822744 NaN 0 0 0 0.84539623686474 NaN A 0.031870167822744 NaN 0 0 0 0.909136572510228 NaN" />
  <path style="fill:#269DD9; stroke-width:0.005; stroke:#000000; stroke-opacity:1; stroke-linecap:round; fill-opacity:0.4111511181482423;" d="M 0.8436812706187168 NaN A 0.019698305773237647 NaN 0 0 0 0.8239829648454792 NaN A 0.019698305773237647 NaN 0 0 0 0.8633795763919544 NaN A 0.019698305773237647 NaN 0 0 0 0.8239829648454792 NaN A 0.019698305773237647 NaN 0 0 0 0.8633795763919544 NaN" />
  <path style="fill:#269DD9; stroke-width:0.005; stroke:#000000; stroke-opacity:1; stroke-linecap:round; fill-opacity:0.5731503096887105;" d="M 0.9413390004966 NaN A 0.03811961290044066 NaN 0 0 0 0.9032193875961594 NaN A 0.03811961290044066 NaN 0 0 0 0.9794586133970407 NaN A 0.03811961290044066 NaN 0 0 0 0.9032193875961594 NaN A 0.03811961290044066 NaN 0 0 0 0.9794586133970407 NaN" />
  <path style="fill:#269DD9; stroke-width:0.005; stroke:#000000; stroke-opacity:1; stroke-linecap:round; fill-opacity:0.608588060975118;" d="M 0.61670055432933 NaN A 0.03447490259170009 NaN 0 0 0 0.58222565173763 NaN A 0.03447490259170009 NaN 0 0 0 0.6511754569210301 NaN A 0.03447490259170009 NaN 0 0 0 0.58222565173763 NaN A 0.03447490259170009 NaN 0 0 0 0.6511754569210301 NaN" />
  <path style="fill:#D97F26; stroke-width:0.005; stroke:#000000; stroke-opacity:1; stroke-linecap:round; fill-opacity:0.6904470434496;" d="M 0.7395367488543049 NaN A 0.005059993910175669 NaN 0 0 0 0.7344767549441292 NaN A 0.005059993910175669 NaN 0 0 0 0.7445967427644805 NaN A 0.005059993910175669 NaN 0 0 0 0.7344767549441292 NaN A 0.005059993910175669 NaN 0 0 0 0.7445967427644805 NaN" />
  <path style="fill:#D92626; stroke-width:0.005; stroke:#000000; stroke-opacity:1; stroke-linecap:round; fill-opacity:0.7273368882992421;" d="M 0.27013077416598064 NaN A 0.017520211053645967 NaN 0 0 0 0.25261056311233465 NaN A 0.017520211053645967 NaN 0 0 0 0.2876509852196266 NaN A 0.017520211053645967 NaN 0 0 0 0.25261056311233465 NaN A 0.017520211053645967 NaN 0 0 0 0.2876509852196266 NaN" />
  <path style="fill:#9D26D9; stroke-width:0.005; stroke:#000000; stroke-opacity:1; stroke-linecap:round; fill-opacity:0.40451552066569574;" d="M 0.33739191682671255 NaN A 0.027699691294372816 NaN 0 0 0 0.3096922255323397 NaN A 0.027699691294372816 NaN 0 0 0 0.3650916081210854 NaN A 0.027699691294372816 NaN 0 0 0 0.3096922255323397 NaN A 0.027699691294372816 NaN 0 0 0 0.3650916081210854 NaN" />
  <path style="fill:#269DD9; stroke-width:0.005; stroke:#000000; stroke-opacity:1; stroke-linecap:round; fill-opacity:0.38797882272437373;" d="M 0.3432573599596147 NaN A 0.031733921278948085 NaN 0 0 0 0.3115234386806666 NaN A 0.031733921278948085 NaN 0 0 0 0.3749912812385628 NaN A 0.031733921278948085 NaN 0 0 0 0.3115234386806666 NaN A 0.031733921278948085 NaN 0 0 0 0.3749912812385628 NaN" />
  <path style="fill:#D92626; stroke-width:0.005; stroke:#000000; stroke-opacity:1; stroke-linecap:round; fill-opacity:0.43610603349554594;" d="M 0.5607016882458506 NaN A 0.008746813345842153 NaN 0 0 0 0.5519548749000085 NaN A 0.008746813345842153 NaN 0 0 0 0.5694485015916928 NaN A 0.008746813345842153 NaN 0 0 0 0.5519548749000085 NaN A 0.008746813345842153 NaN 0 0 0 0.5694485015916928 NaN" />
  <path style="fill:#D97F26; stroke-width:0.005; stroke:#000000; stroke-opacity:1; stroke-linecap:round; fill-opacity:0.5279138568230171;" d="M 0.7885472109253844 NaN A 0.038917258866880924 NaN 0 0 0 0.7496299520585035 NaN A 0.038917258866880924 NaN 0 0 0 0.8274644697922653 NaN A 0.038917258866880924 NaN 0 0 0 0.7496299520585035 NaN A 0.038917258866880924 NaN 0 0 0 0.8274644697922653 NaN" />
  <path style="fill:#9D26D9; stroke-width:0.005; stroke:#000000; stroke-opacity:1; stroke-linecap:round; fill-opacity:0.7523460753654923;" d="M 0.23516510936416368 NaN A 0.037256130531693105 NaN 0 0 0 0.19790897883247058 NaN A 0.037256130531693105 NaN 0 0 0 0.27242123989585676 NaN A 0.037256130531693105 NaN 0 0 0 0.19790897883247058 NaN A 0.037256130531693105 NaN 0 0 0 0.27242123989585676 NaN" />
  <path style="fill:#269DD9; stroke-width:0.005; stroke:#000000; stroke-opacity:1; stroke-linecap:round; fill-opacity:0.4924833736609732;" d="M 0.16894299601039786 NaN A 0.02337021450611883 NaN 0 0 0 0.14557278150427902 NaN A 0.02337021450611883 NaN 0 0 0 0.1923132105165167 NaN A 0.02337021450611883 NaN 0 0 0 0.14557278150427902 NaN A 0.02337021450611883 NaN 0 0 0 0.1923132105165167 NaN" />
  <path style="fill:#D92626; stroke-width:0.005; stroke:#000000; stroke-opacity:1; stroke-linecap:round; fill-opacity:0.547559269574443;" d="M 0.05938746530491279 NaN A 0.03371112173256962 NaN 0 0 0 0.02567634357234317 NaN A 0.03371112173256962 NaN 0 0 0 0.09309858703748242 NaN A 0.03371112173256962 NaN 0 0 0 0.02567634357234317 NaN A 0.03371112173256962 NaN 0 0 0 0.09309858703748242 NaN" />
  <path style="fill:#269DD9; stroke-width:0.005; stroke:#000000; stroke-opacity:1; stroke-linecap:round; fill-opacity:0.6546288737354395;" d="M 0.5323458138348043 NaN A 0.023841338453522636 NaN 0 0 0 0.5085044753812816 NaN A 0.023841338453522636 NaN 0 0 0 0.5561871522883269 NaN A 0.023841338453522636 NaN 0 0 0 0.5085044753812816 NaN A 0.023841338453522636 NaN 0 0 0 0.5561871522883269 NaN" />
  <path style="fill:#D97F26; stroke-width:0.005; stroke:#000000; stroke-opacity:1; stroke-linecap:round; fill-opacity:0.3342055658779733;" d="M 0.6084477461353882 NaN A 0.008833119752028194 NaN 0 0 0 0.59961462638336 NaN A 0.008833119752028194 NaN 0 0 0 0.6172808658874164 NaN A 0.008833119752028194 NaN 0 0 0 0.59961462638336 NaN A 0.008833119752028194 NaN 0 0 0 0.6172808658874164 NaN" />
  <path style="fill:#D92626; stroke-width:0.005; stroke:#000000; stroke-opacity:1; stroke-linecap:round; fill-opacity:0.6582158420304334;" d="M 0.8569586670430827 NaN A 0.014574072899033282 NaN 0 0 0 0.8423845941440494 NaN A 0.014574072899033282 NaN 0 0 0 0.8715327399421159 NaN A 0.014574072899033282 NaN 0 0 0 0.8423845941440494 NaN A 0.014574072899033282 NaN 0 0 0 0.8715327399421159 NaN" />
  <path style="fill:#D97F26; stroke-width:0.005; stroke:#000000; stroke-opacity:1; stroke-linecap:round; fill-opacity:0.5574886424830416;" d="M 0.34728200664384956 NaN A 0.02442180198237545 NaN 0 0 0 0.32286020466147414 NaN A 0.02442180198237545 NaN 0 0 0 0.371703808626225 NaN A 0.02442180198237545 NaN 0 0 0 0.32286020466147414 NaN A 0.02442180198237545 NaN 0 0 0 0.371703808626225 NaN" />
  <path style="fill:#D97F26; stroke-width:0.005; stroke:#000000; stroke-opacity:1; stroke-linecap:round; fill-opacity:0.4333110930338423;" d="M 0.5839274456291631 NaN A 0.02291004288892171 NaN 0 0 0 0.5610174027402414 NaN A 0.02291004288892171 NaN 0 0 0 0.6068374885180848 NaN A 0.02291004288892171 NaN 0 0 0 0.5610174027402414 NaN A 0.02291004288892171 NaN 0 0 0 0.6068374885180848 NaN" />
  <path style="fill:#9D26D9; stroke-width:0.005; stroke:#000000; stroke-opacity:1; stroke-linecap:round; fill-opacity:0.7593801657192412;" d="M 0.8830285467181012 NaN A 0.01696684106463867 NaN 0 0 0 0.8660617056534625 NaN A 0.01696684106463867 NaN 0 0 0 0.8999953877827398 NaN A 0.01696684106463867 NaN 0 0 0 0.8660617056534625 NaN A 0.01696684106463867 NaN 0 0 0 0.8999953877827398 NaN" />
  <path style="fill:#269DD9; stroke-width:0.005; stroke:#000000; stroke-opacity:1; stroke-linecap:round; fill-opacity:0.6970024368799286;" d="M 0.8300231927971543 NaN A 0.03950005340693263 NaN 0 0 0 0.7905231393902217 NaN A 0.03950005340693263 NaN 0 0 0 0.8695232462040869 NaN A 0.03950005340693263 NaN 0 0 0 0.7905231393902217 NaN A 0.03950005340693263 NaN 0 0 0 0.8695232462040869 NaN" />
  <path style="fill:#D92626; stroke-width:0.005; stroke:#000000; stroke-opacity:1; stroke-linecap:round; fill-opacity:0.3075461381769793;" d="M 0.8948638891698548 NaN A 0.005521673582421669 NaN 0 0 0 0.8893422155874332 NaN A 0.005521673582421669 NaN 0 0 0 0.9003855627522764 NaN A 0.005521673582421669 NaN 0 0 0 0.8893422155874332 NaN A 0.005521673582421669 NaN 0 0 0 0.9003855627522764 NaN" />
  <path style="fill:#D92626; stroke-width:0.005; stroke:#000000; stroke-opacity:1; stroke-linecap:round; fill-opacity:0.40485717115807696;" d="M 0.8969940372501922 NaN A 0.018462689618376195 NaN 0 0 0 0.8785313476318161 NaN A 0.018462689618376195 NaN 0 0 0 0.9154567268685684 NaN A 0.018462689618376195 NaN 0 0 0 0.8785313476318161 NaN A 0.018462689618376195 NaN 0 0 0 0.9154567268685684 NaN" />
  <path style="fill:#269DD9; stroke-width:0.005; stroke:#000000; stroke-opacity:1; stroke-linecap:round; fill-opacity:0.7770525050882467;" d="M 0.6549274891771841 NaN A 0.04273845061610596 NaN 0 0 0 0.6121890385610782 NaN A 0.04273845061610596 NaN 0 0 0 0.6976659397932901 NaN A 0.04273845061610596 NaN 0 0 0 0.6121890385610782 NaN A 0.04273845061610596 NaN 0 0 0 0.6976659397932901 NaN" />
  <path style="fill:#D97F26; stroke-width:0.005; stroke:#000000; stroke-opacity:1; stroke-linecap:round; fill-opacity:0.3271866059050427;" d="M 0.3135232050050405 NaN A 0.0337261745043104 NaN 0 0 0 0.2797970305007301 NaN A 0.0337261745043104 NaN 0 0 0 0.34724937950935086 NaN A 0.0337261745043104 NaN 0 0 0 0.2797970305007301 NaN A 0.0337261745043104 NaN 0 0 0 0.34724937950935086 NaN" />
  <path style="fill:#D92626; stroke-width:0.005; stroke:#000000; stroke-opacity:1; stroke-linecap:round; fill-opacity:0.4150542939781773;" d="M 0.3154561999185025 NaN A 0.009679067755328803 NaN 0 0 0 0.3057771321631737 NaN A 0.009679067755328803 NaN 0 0 0 0.3251352676738313 NaN A 0.009679067755328803 NaN 0 0 0 0.3057771321631737 NaN A 0.009679067755328803 NaN 0 0 0 0.3251352676738313 NaN" />
  <path style="fill:#D97F26; stroke-width:0.005; stroke:#000000; stroke-opacity:1; stroke-linecap:round; fill-opacity:0.7501527204453651;" d="M 0.1865101484378714 NaN A 0.015763666467053232 NaN 0 0 0 0.17074648197081815 NaN A 0.015763666467053232 NaN 0 0 0 0.20227381490492463 NaN A 0.015763666467053232 NaN 0 0 0 0.17074648197081815 NaN A 0.015763666467053232 NaN 0 0 0 0.20227381490492463 NaN" />
  <path style="fill:#9D26D9; stroke-width:0.005; stroke:#000000; stroke-opacity:1; stroke-linecap:round; fill-opacity:0.3030296380378947;" d="M 0.26266554250875707 NaN A 0.03644419708342087 NaN 0 0 0 0.2262213454253362 NaN A 0.03644419708342087 NaN 0 0 0 0.29910973959217796 NaN A 0.03644419708342087 NaN 0 0 0 0.2262213454253362 NaN A 0.03644419708342087 NaN 0 0 0 0.29910973959217796 NaN" />
  <path style="fill:#D92626; stroke-width:0.005; stroke:#000000; stroke-opacity:1; stroke-linecap:round; fill-opacity:0.6113194488404975;" d="M 0.3870304067661722 NaN A 0.00892452627982146 NaN 0 0 0 0.37810588048635074 NaN A 0.00892452627982146 NaN 0 0 0 0.3959549330459936 NaN A 0.00892452627982146 NaN 0 0 0 0.37810588048635074 NaN A 0.00892452627982146 NaN 0 0 0 0.3959549330459936 NaN" />
  <path style="fill:#9D26D9; stroke-width:0.005; stroke:#000000; stroke-opacity:1; stroke-linecap:round; fill-opacity:0.3194618640853227;" d="M 0.71935070513739 NaN A 0.04395192414152244 NaN 0 0 0 0.6753987809958675 NaN A 0.04395192414152244 NaN 0 0 0 0.7633026292789125 NaN A 0.04395192414152244 NaN 0 0 0 0.6753987809958675 NaN A 0.04395192414152244 NaN 0 0 0 0.7633026292789125 NaN" />
  <path style="fill:#D92626; stroke-width:0.005; stroke:#000000; stroke-opacity:1; stroke-linecap:round; fill-opacity:0.7348728731910983;" d="M 0.5956180454482531 NaN A 0.03621474569077462 NaN 0 0 0 0.5594032997574785 NaN A 0.03621474569077462 NaN 0 0 0 0.6318327911390278 NaN A 0.03621474569077462 NaN 0 0 0 0.5594032997574785 NaN A 0.03621474569077462 NaN 0 0 0 0.6318327911390278 NaN" />
  <path style="fill:#D92626; stroke-width:0.005; stroke:#000000; stroke-opacity:1; stroke-linecap:round; fill-opacity:0.6540331889947233;" d="M 0.48905135807726674 NaN A 0.008157606611939823 NaN 0 0 0 0.4808937514653269 NaN A 0.008157606611939823 NaN 0 0 0 0.49720896468920656 NaN A 0.008157606611939823 NaN 0 0 0 0.4808937514653269 NaN A 0.008157606611939823 NaN 0 0 0 0.49720896468920656 NaN" />
  <path style="fill:#D97F26; stroke-width:0.005; stroke:#000000; stroke-opacity:1; stroke-linecap:round; fill-opacity:0.39609467071124216;" d="M 0.4590467358111925 NaN A 0.04153579348638053 NaN 0 0 0 0.41751094232481195 NaN A 0.04153579348638053 NaN 0 0 0 0.500582529297573 NaN A 0.04153579348638053 NaN 0 0 0 0.41751094232481195 NaN A 0.04153579348638053 NaN 0 0 0 0.500582529297573 NaN" />
  <path style="fill:#9D26D9; stroke-width:0.005; stroke:#000000; stroke-opacity:1; stroke-linecap:round; fill-opacity:0.6085340364457146;" d="M 0.15929738816319616 NaN A 0.038585385700546655 NaN 0 0 0 0.12071200246264951 NaN A 0.038585385700546655 NaN 0 0 0 0.1978827738637428 NaN A 0.038585385700546655 NaN 0 0 0 0.12071200246264951 NaN A 0.038585385700546655 NaN 0 0 0 0.1978827738637428 NaN" />
  <path style="fill:#D92626; stroke-width:0.005; stroke:#000000; stroke-opacity:1; stroke-linecap:round; fill-opacity:0.5677680912240108;" d="M 0.6046494667908147 NaN A 0.03481299376763671 NaN 0 0 0 0.569836473023178 NaN A 0.03481299376763671 NaN 0 0 0 0.6394624605584514 NaN A 0.03481299376763671 NaN 0 0 0 0.569836473023178 NaN A 0.03481299376763671 NaN 0 0 0 0.6394624605584514 NaN" />
  <path style="fill:#D92626; stroke-width:0.005; stroke:#000000; stroke-opacity:1; stroke-linecap:round; fill-opacity:0.515322607920359;" d="M 0.3315321429129079 NaN A 0.023389000446582563 NaN 0 0 0 0.30814314246632535 NaN A 0.023389000446582563 NaN 0 0 0 0.35492114335949043 NaN A 0.023389000446582563 NaN 0 0 0 0.30814314246632535 NaN A 0.023389000446582563 NaN 0 0 0 0.35492114335949043 NaN" />
  <path style="fill:#D92626; stroke-width:0.005; stroke:#000000; stroke-opacity:1; stroke-linecap:round; fill-opacity:0.5760557749784743;" d="M 0.48221454312849 NaN A 0.03654666595922002 NaN 0 0 0 0.44566787716927 NaN A 0.03654666595922002 NaN 0 0 0 0.5187612090877101 NaN A 0.03654666595922002 NaN 0 0 0 0.44566787716927 NaN A 0.03654666595922002 NaN 0 0 0 0.5187612090877101 NaN" />
  <path style="fill:#D92626; stroke-width:0.005; stroke:#000000; stroke-opacity:1; stroke-linecap:round; fill-opacity:0.49489422008028505;" d="M 0.22618772275518706 NaN A 0.008879915348190744 NaN 0 0 0 0.21730780740699632 NaN A 0.008879915348190744 NaN 0 0 0 0.2350676381033778 NaN A 0.008879915348190744 NaN 0 0 0 0.21730780740699632 NaN A 0.008879915348190744 NaN 0 0 0 0.2350676381033778 NaN" />
  <path style="fill:#D97F26; stroke-width:0.005; stroke:#000000; stroke-opacity:1; stroke-linecap:round; fill-opacity:0.527138949256778;" d="M 0.4122394487109293 NaN A 0.009310186928675064 NaN 0 0 0 0.40292926178225424 NaN A 0.009310186928675064 NaN 0 0 0 0.4215496356396044 NaN A 0.009310186928675064 NaN 0 0 0 0.40292926178225424 NaN A 0.009310186928675064 NaN 0 0 0 0.4215496356396044 NaN" />
  <path style="fill:#D92626; stroke-width:0.005; stroke:#000000; stroke-opacity:1; stroke-linecap:round; fill-opacity:0.37190603965337443;" d="M 0.3786985635204141 NaN A 0.014925417667735023 NaN 0 0 0 0.36377314585267906 NaN A 0.014925417667735023 NaN 0 0 0 0.3936239811881491 NaN A 0.014925417667735023 NaN 0 0 0 0.36377314585267906 NaN A 0.014925417667735023 NaN 0 0 0 0.3936239811881491 NaN" />
  <path style="fill:#D97F26; stroke-width:0.005; stroke:#000000; stroke-opacity:1; stroke-linecap:round; fill-opacity:0.6470640049470555;" d="M 0.3783946221108312 NaN A 0.02228485535911804 NaN 0 0 0 0.35610976675171313 NaN A 0.02228485535911804 NaN 0 0 0 0.40067947746994925 NaN A 0.02228485535911804 NaN 0 0 0 0.35610976675171313 NaN A 0.02228485535911804 NaN 0 0 0 0.40067947746994925 NaN" />
  <path style="fill:#9D26D9; stroke-width:0.005; stroke:#000000; stroke-opacity:1; stroke-linecap:round; fill-opacity:0.5281214868932338;" d="M 0.14877936416267346 NaN A 0.008707404079412067 NaN 0 0 0 0.1400719600832614 NaN A 0.008707404079412067 NaN 0 0 0 0.15748676824208552 NaN A 0.008707404079412067 NaN 0 0 0 0.1400719600832614 NaN A 0.008707404079412067 NaN 0 0 0 0.15748676824208552 NaN" />
  <path style="fill:#D97F26; stroke-width:0.005; stroke:#000000; stroke-opacity:1; stroke-linecap:round; fill-opacity:0.36032340445444944;" d="M 0.29741321881925864 NaN A 0.018150151589024558 NaN 0 0 0 0.2792630672302341 NaN A 0.018150151589024558 NaN 0 0 0 0.3155633704082832 NaN A 0.018150151589024558 NaN 0 0 0 0.2792630672302341 NaN A 0.018150151589024558 NaN 0 0 0 0.3155633704082832 NaN" />
  <path style="fill:#9D26D9; stroke-width:0.005; stroke:#000000; stroke-opacity:1; stroke-linecap:round; fill-opacity:0.6762102584978565;" d="M 0.5386863665171867 NaN A 0.028053269427556586 NaN 0 0 0 0.5106330970896301 NaN A 0.028053269427556586 NaN 0 0 0 0.5667396359447433 NaN A 0.028053269427556586 NaN 0 0 0 0.5106330970896301 NaN A 0.028053269427556586 NaN 0 0 0 0.5667396359447433 NaN" />
  <path style="fill:#D97F26; stroke-width:0.005; stroke:#000000; stroke-opacity:1; stroke-linecap:round; fill-opacity:0.5604832402387021;" d="M 0.2527882480351752 NaN A 0.024022264215357778 NaN 0 0 0 0.22876598381981741 NaN A 0.024022264215357778 NaN 0 0 0 0.276810512250533 NaN A 0.024022264215357778 NaN 0 0 0 0.22876598381981741 NaN A 0.024022264215357778 NaN 0 0 0 0.276810512250533 NaN" />
  <path style="fill:#9D26D9; stroke-width:0.005; stroke:#000000; stroke-opacity:1; stroke-linecap:round; fill-opacity:0.7651255828435117;" d="M 0.9881515908755917 NaN A 0.00962020445835639 NaN 0 0 0 0.9785313864172352 NaN A 0.00962020445835639 NaN 0 0 0 0.9977717953339481 NaN A 0.00962020445835639 NaN 0 0 0 0.9785313864172352 NaN A 0.00962020445835639 NaN 0 0 0 0.9977717953339481 NaN" />
  <path style="fill:#9D26D9; stroke-width:0.005; stroke:#000000; stroke-opacity:1; stroke-linecap:round; fill-opacity:0.6796370434896877;" d="M 0.10146656652326302 NaN A 0.03724606064808625 NaN 0 0 0 0.06422050587517678 NaN A 0.03724606064808625 NaN 0 0 0 0.13871262717134927 NaN A 0.03724606064808625 NaN 0 0 0 0.06422050587517678 NaN A 0.03724606064808625 NaN 0 0 0 0.13871262717134927 NaN" />
  <path style="fill:#D92626; stroke-width:0.005; stroke:#000000; stroke-opacity:1; stroke-linecap:round; fill-opacity:0.5531949292111973;" d="M 0.3321728423273542 NaN A 0.009023784267012709 NaN 0 0 0 0.3231490580603415 NaN A 0.009023784267012709 NaN 0 0 0 0.34119662659436695 NaN A 0.009023784267012709 NaN 0 0 0 0.3231490580603415 NaN A 0.009023784267012709 NaN 0 0 0 0.34119662659436695 NaN" />
  <path style="fill:#269DD9; stroke-width:0.005; stroke:#000000; stroke-opacity:1; stroke-linecap:round; fill-opacity:0.5479654812266049;" d="M 0.9193845671568537 NaN A 0.04303460680981107 NaN 0 0 0 0.8763499603470426 NaN A 0.04303460680981107 NaN 0 0 0 0.9624191739666648 NaN A 0.04303460680981107 NaN 0 0 0 0.8763499603470426 NaN A 0.04303460680981107 NaN 0 0 0 0.9624191739666648 NaN" />
  <path style="fill:#D92626; stroke-width:0.005; stroke:#000000; stroke-opacity:1; stroke-linecap:round; fill-opacity:0.4728103430095023;" d="M 0.3373486659163576 NaN A 0.014771052294940898 NaN 0 0 0 0.3225776136214167 NaN A 0.014771052294940898 NaN 0 0 0 0.3521197182112985 NaN A 0.014771052294940898 NaN 0 0 0 0.3225776136214167 NaN A 0.014771052294940898 NaN 0 0 0 0.3521197182112985 NaN" />
  <path style="fill:#9D26D9; stroke-width:0.005; stroke:#000000; stroke-opacity:1; stroke-linecap:round; fill-opacity:0.7707341679858813;" d="M 0.4557570595945045 NaN A 0.025914314049395933 NaN 0 0 0 0.4298427455451086 NaN A 0.025914314049395933 NaN 0 0 0 0.48167137364390045 NaN A 0.025914314049395933 NaN 0 0 0 0.4298427455451086 NaN A 0.025914314049395933 NaN 0 0 0 0.48167137364390045 NaN" />
  <path style="fill:#269DD9; stroke-width:0.005; stroke:#000000; stroke-opacity:1; stroke-linecap:round; fill-opacity:0.5710947222376738;" d="M 0.7245600733735085 NaN A 0.04368273482159071 NaN 0 0 0 0.6808773385519178 NaN A 0.04368273482159071 NaN 0 0 0 0.7682428081950992 NaN A 0.04368273482159071 NaN 0 0 0 0.6808773385519178 NaN A 0.04368273482159071 NaN 0 0 0 0.7682428081950992 NaN" />
  <path style="fill:#D97F26; stroke-width:0.005; stroke:#000000; stroke-opacity:1; stroke-linecap:round; fill-opacity:0.335701304394677;" d="M 0.8927070026846303 NaN A 0.006118515571698766 NaN 0 0 0 0.8865884871129316 NaN A 0.006118515571698766 NaN 0 0 0 0.8988255182563291 NaN A 0.006118515571698766 NaN 0 0 0 0.8865884871129316 NaN A 0.006118515571698766 NaN 0 0 0 0.8988255182563291 NaN" />
  <path style="fill:#D97F26; stroke-width:0.005; stroke:#000000; stroke-opacity:1; stroke-linecap:round; fill-opacity:0.4873347831066309;" d="M 0.673685473798743 NaN A 0.0349059588122346 NaN 0 0 0 0.6387795149865084 NaN A 0.0349059588122346 NaN 0 0 0 0.7085914326109776 NaN A 0.0349059588122346 NaN 0 0 0 0.6387795149865084 NaN A 0.0349059588122346 NaN 0 0 0 0.7085914326109776 NaN" />
  <path style="fill:#269DD9; stroke-width:0.005; stroke:#000000; stroke-opacity:1; stroke-linecap:round; fill-opacity:0.33143684791326733;" d="M 0.42824661265915254 NaN A 0.027750187389716525 NaN 0 0 0 0.400496425269436 NaN A 0.027750187389716525 NaN 0 0 0 0.45599680004886906 NaN A 0.027750187389716525 NaN 0 0 0 0.400496425269436 NaN A 0.027750187389716525 NaN 0 0 0 0.45599680004886906 NaN" />
  <path style="fill:#269DD9; stroke-width:0.005; stroke:#000000; stroke-opacity:1; stroke-linecap:round; fill-opacity:0.3011166034181247;" d="M 0.5597669575363169 NaN A 0.03425399840251982 NaN 0 0 0 0.525512959133797 NaN A 0.03425399840251982 NaN 0 0 0 0.5940209559388367 NaN A 0.03425399840251982 NaN 0 0 0 0.525512959133797 NaN A 0.03425399840251982 NaN 0 0 0 0.5940209559388367 NaN" />
  <path style="fill:#269DD9; stroke-width:0.005; stroke:#000000; stroke-opacity:1; stroke-linecap:round; fill-opacity:0.4217894594190832;" d="M 0.8090329505439948 NaN A 0.03941827149905517 NaN 0 0 0 0.7696146790449396 NaN A 0.03941827149905517 NaN 0 0 0 0.84845122204305 NaN A 0.03941827149905517 NaN 0 0 0 0.7696146790449396 NaN A 0.03941827149905517 NaN 0 0 0 0.84845122204305 NaN" />
  <path style="fill:#269DD9; stroke-width:0.005; stroke:#000000; stroke-opacity:1; stroke-linecap:round; fill-opacity:0.3755668120296554;" d="M 0.7939970746582404 NaN A 0.018861610478791802 NaN 0 0 0 0.7751354641794487 NaN A 0.018861610478791802 NaN 0 0 0 0.8128586851370322 NaN A 0.018861610478791802 NaN 0 0 0 0.7751354641794487 NaN A 0.018861610478791802 NaN 0 0 0 0.8128586851370322 NaN" />
  <path style="fill:#9D26D9; stroke-width:0.005; stroke:#000000; stroke-opacity:1; stroke-linecap:round; fill-opacity:0.7294833837233003;" d="M 0.7914795469789745 NaN A 0.023324370778189035 NaN 0 0 0 0.7681551762007854 NaN A 0.023324370778189035 NaN 0 0 0 0.8148039177571635 NaN A 0.023324370778189035 NaN 0 0 0 0.7681551762007854 NaN A 0.023324370778189035 NaN 0 0 0 0.8148039177571635 NaN" />
  <path style="fill:#9D26D9; stroke-width:0.005; stroke:#000000; stroke-opacity:1; stroke-linecap:round; fill-opacity:0.3799551590168679;" d="M 0.4015031114577162 NaN A 0.028647500749594393 NaN 0 0 0 0.37285561070812184 NaN A 0.028647500749594393 NaN 0 0 0 0.4301506122073106 NaN A 0.028647500749594393 NaN 0 0 0 0.37285561070812184 NaN A 0.028647500749594393 NaN 0 0 0 0.4301506122073106 NaN" />
  <path style="fill:#D97F26; stroke-width:0.005; stroke:#000000; stroke-opacity:1; stroke-linecap:round; fill-opacity:0.6437057194789109;" d="M 0.7130196274298065 NaN A 0.032195766165967206 NaN 0 0 0 0.6808238612638393 NaN A 0.032195766165967206 NaN 0 0 0 0.7452153935957737 NaN A 0.032195766165967206 NaN 0 0 0 0.6808238612638393 NaN A 0.032195766165967206 NaN 0 0 0 0.7452153935957737 NaN" />
  <path style="fill:#D92626; stroke-width:0.005; stroke:#000000; stroke-opacity:1; stroke-linecap:round; fill-opacity:0.3788577848894946;" d="M 0.2511186406338036 NaN A 0.034453590802603185 NaN 0 0 0 0.21666504983120044 NaN A 0.034453590802603185 NaN 0 0 0 0.2855722314364068 NaN A 0.034453590802603185 NaN 0 0 0 0.21666504983120044 NaN A 0.034453590802603185 NaN 0 0 0 0.2855722314364068 NaN" />
  <path style="fill:#269DD9; stroke-width:0.005; stroke:#000000; stroke-opacity:1; stroke-linecap:round; fill-opacity:0.37904568616774137;" d="M 0.022196781880201244 NaN A 0.014535393611139452 NaN 0 0 0 0.007661388269061792 NaN A 0.014535393611139452 NaN 0 0 0 0.036732175491340696 NaN A 0.014535393611139452 NaN 0 0 0 0.007661388269061792 NaN A 0.014535393611139452 NaN 0 0 0 0.036732175491340696 NaN" />
  <path style="fill:#D97F26; stroke-width:0.005; stroke:#000000; stroke-opacity:1; stroke-linecap:round; fill-opacity:0.41646902422716553;" d="M 0.32935376276417017 NaN A 0.014247848221920715 NaN 0 0 0 0.31510591454224945 NaN A 0.014247848221920715 NaN 0 0 0 0.3436016109860909 NaN A 0.014247848221920715 NaN 0 0 0 0.31510591454224945 NaN A 0.014247848221920715 NaN 0 0 0 0.3436016109860909 NaN" />
  <path style="fill:#269DD9; stroke-width:0.005; stroke:#000000; stroke-opacity:1; stroke-linecap:round; fill-opacity:0.6893736711215552;" d="M 0.9044141729201184 NaN A 0.030200474827467884 NaN 0 0 0 0.8742136980926505 NaN A 0.030200474827467884 NaN 0 0 0 0.9346146477475863 NaN A 0.030200474827467884 NaN 0 0 0 0.8742136980926505 NaN A 0.030200474827467884 NaN 0 0 0 0.9346146477475863 NaN" />
  <path style="fill:#269DD9; stroke-width:0.005; stroke:#000000; stroke-opacity:1; stroke-linecap:round; fill-opacity:0.7867529841676726;" d="M 0.8714632840260003 NaN A 0.021159665554262536 NaN 0 0 0 0.8503036184717377 NaN A 0.021159665554262536 NaN 0 0 0 0.8926229495802628 NaN A 0.021159665554262536 NaN 0 0 0 0.8503036184717377 NaN A 0.021159665554262536 NaN 0 0 0 0.8926229495802628 NaN" />
  <path style="fill:#D92626; stroke-width:0.005; stroke:#000000; stroke-opacity:1; stroke-linecap:round; fill-opacity:0.33444427160573625;" d="M 0.2724342960060915 NaN A 0.029252936136780077 NaN 0 0 0 0.24318135986931141 NaN A 0.029252936136780077 NaN 0 0 0 0.3016872321428716 NaN A 0.029252936136780077 NaN 0 0 0 0.24318135986931141 NaN A 0.029252936136780077 NaN 0 0 0 0.3016872321428716 NaN" />
  <path style="fill:#9D26D9; stroke-width:0.005; stroke:#000000; stroke-opacity:1; stroke-linecap:round; fill-opacity:0.4489437811932916;" d="M 0.36347156075551357 NaN A 0.025814071996231702 NaN 0 0 0 0.33765748875928187 NaN A 0.025814071996231702 NaN 0 0 0 0.38928563275174527 NaN A 0.025814071996231702 NaN 0 0 0 0.33765748875928187 NaN A 0.025814071996231702 NaN 0 0 0 0.38928563275174527 NaN" />
  <path style="fill:#9D26D9; stroke-width:0.005; stroke:#000000; stroke-opacity:1; stroke-linecap:round; fill-opacity:0.5773081799321613;" d="M 0.6057587693801118 NaN A 0.019236441567574356 NaN 0 0 0 0.5865223278125374 NaN A 0.019236441567574356 NaN 0 0 0 0.6249952109476861 NaN A 0.019236441567574356 NaN 0 0 0 0.5865223278125374 NaN A 0.019236441567574356 NaN 0 0 0 0.6249952109476861 NaN" />
  <path style="fill:#9D26D9; stroke-width:0.005; stroke:#000000; stroke-opacity:1; stroke-linecap:round; fill-opacity:0.31229368351783415;" d="M 0.4501112823461978 NaN A 0.029886076007318532 NaN 0 0 0 0.4202252063388793 NaN A 0.029886076007318532 NaN 0 0 0 0.4799973583535163 NaN A 0.029886076007318532 NaN 0 0 0 0.4202252063388793 NaN A 0.029886076007318532 NaN 0 0 0 0.4799973583535163 NaN" />
  <path style="fill:#D92626; stroke-width:0.005; stroke:#000000; stroke-opacity:1; stroke-linecap:round; fill-opacity:0.36504144260281035;" d="M 0.22850907179124724 NaN A 0.032474291023157 NaN 0 0 0 0.19603478076809025 NaN A 0.032474291023157 NaN 0 0 0 0.26098336281440426 NaN A 0.032474291023157 NaN 0 0 0 0.19603478076809025 NaN A 0.032474291023157 NaN 0 0 0 0.26098336281440426 NaN" />
  <path style="fill:#D97F26; stroke-width:0.005; stroke:#000000; stroke-opacity:1; stroke-linecap:round; fill-opacity:0.7356861978193514;" d="M 0.9622350598625737 NaN A 0.01281589629134499 NaN 0 0 0 0.9494191635712288 NaN A 0.01281589629134499 NaN 0 0 0 0.9750509561539187 NaN A 0.01281589629134499 NaN 0 0 0 0.9494191635712288 NaN A 0.01281589629134499 NaN 0 0 0 0.9750509561539187 NaN" />
  <path style="fill:#D97F26; stroke-width:0.005; stroke:#000000; stroke-opacity:1; stroke-linecap:round; fill-opacity:0.6576007322778703;" d="M 0.8118931515244454 NaN A 0.008565594311305467 NaN 0 0 0 0.80332755721314 NaN A 0.008565594311305467 NaN 0 0 0 0.8204587458357508 NaN A 0.008565594311305467 NaN 0 0 0 0.80332755721314 NaN A 0.008565594311305467 NaN 0 0 0 0.8204587458357508 NaN" />
  <path style="fill:#269DD9; stroke-width:0.005; stroke:#000000; stroke-opacity:1; stroke-linecap:round; fill-opacity:0.5333734864682917;" d="M 0.3141043313427637 NaN A 0.026165896118874883 NaN 0 0 0 0.28793843522388884 NaN A 0.026165896118874883 NaN 0 0 0 0.3402702274616386 NaN A 0.026165896118874883 NaN 0 0 0 0.28793843522388884 NaN A 0.026165896118874883 NaN 0 0 0 0.3402702274616386 NaN" />
  <path style="fill:#D92626; stroke-width:0.005; stroke:#000000; stroke-opacity:1; stroke-linecap:round; fill-opacity:0.45588646839658664;" d="M 0.14325891164163296 NaN A 0.036721602647221796 NaN 0 0 0 0.10653730899441116 NaN A 0.036721602647221796 NaN 0 0 0 0.17998051428885475 NaN A 0.036721602647221796 NaN 0 0 0 0.10653730899441116 NaN A 0.036721602647221796 NaN 0 0 0 0.17998051428885475 NaN" />
  <path style="fill:#D97F26; stroke-width:0.005; stroke:#000000; stroke-opacity:1; stroke-linecap:round; fill-opacity:0.6859099426819206;" d="M 0.9489594841560036 NaN A 0.037769227750128136 NaN 0 0 0 0.9111902564058755 NaN A 0.037769227750128136 NaN 0 0 0 0.9867287119061318 NaN A 0.037769227750128136 NaN 0 0 0 0.9111902564058755 NaN A 0.037769227750128136 NaN 0 0 0 0.9867287119061318 NaN" />
  <path style="fill:#269DD9; stroke-width:0.005; stroke:#000000; stroke-opacity:1; stroke-linecap:round; fill-opacity:0.43246232939185053;" d="M 0.16644827783448934 NaN A 0.011571113641272359 NaN 0 0 0 0.15487716419321698 NaN A 0.011571113641272359 NaN 0 0 0 0.1780193914757617 NaN A 0.011571113641272359 NaN 0 0 0 0.15487716419321698 NaN A 0.011571113641272359 NaN 0 0 0 0.1780193914757617 NaN" />
  <path style="fill:#269DD9; stroke-width:0.005; stroke:#000000; stroke-opacity:1; stroke-linecap:round; fill-opacity:0.4257070155812999;" d="M 0.8071948725273965 NaN A 0.01897941363574212 NaN 0 0 0 0.7882154588916545 NaN A 0.01897941363574212 NaN 0 0 0 0.8261742861631386 NaN A 0.01897941363574212 NaN 0 0 0 0.7882154588916545 NaN A 0.01897941363574212 NaN 0 0 0 0.8261742861631386 NaN" />
  <path style="fill:#9D26D9; stroke-width:0.005; stroke:#000000; stroke-opacity:1; stroke-linecap:round; fill-opacity:0.6336265751626774;" d="M 0.8909018572668462 NaN A 0.007066532295260353 NaN 0 0 0 0.8838353249715859 NaN A 0.007066532295260353 NaN 0 0 0 0.8979683895621066 NaN A 0.007066532295260353 NaN 0 0 0 0.8838353249715859 NaN A 0.007066532295260353 NaN 0 0 0 0.8979683895621066 NaN" />
  <path style="fill:#9D26D9; stroke-width:0.005; stroke:#000000; stroke-opacity:1; stroke-linecap:round; fill-opacity:0.36628698688947103;" d="M 0.39582694645699623 NaN A 0.02815190717997609 NaN 0 0 0 0.36767503927702017 NaN A 0.02815190717997609 NaN 0 0 0 0.4239788536369723 NaN A 0.02815190717997609 NaN 0 0 0 0.36767503927702017 NaN A 0.02815190717997609 NaN 0 0 0 0.4239788536369723 NaN" />
  <path style="fill:#269DD9; stroke-width:0.005; stroke:#000000; stroke-opacity:1; stroke-linecap:round; fill-opacity:0.42174528024579594;" d="M 0.8403594155167237 NaN A 0.02448889561075173 NaN 0 0 0 0.8158705199059719 NaN A 0.02448889561075173 NaN 0 0 0 0.8648483111274754 NaN A 0.02448889561075173 NaN 0 0 0 0.8158705199059719 NaN A 0.02448889561075173 NaN 0 0 0 0.8648483111274754 NaN" />
  <path style="fill:#9D26D9; stroke-width:0.005; stroke:#000000; stroke-opacity:1; stroke-linecap:round; fill-opacity:0.3096031910424332;" d="M 0.7833688529701093 NaN A 0.018455274422719162 NaN 0 0 0 0.7649135785473901 NaN A 0.018455274422719162 NaN 0 0 0 0.8018241273928285 NaN A 0.018455274422719162 NaN 0 0 0 0.7649135785473901 NaN A 0.018455274422719162 NaN 0 0 0 0.8018241273928285 NaN" />
  <path style="fill:#D97F26; stroke-width:0.005; stroke:#000000; stroke-opacity:1; stroke-linecap:round; fill-opacity:0.6936794171953633;" d="M 0.19575142805611667 NaN A 0.02191349782420044 NaN 0 0 0 0.17383793023191624 NaN A 0.02191349782420044 NaN 0 0 0 0.2176649258803171 NaN A 0.02191349782420044 NaN 0 0 0 0.17383793023191624 NaN A 0.02191349782420044 NaN 0 0 0 0.2176649258803171 NaN" />
  <path style="fill:#D97F26; stroke-width:0.005; stroke:#000000; stroke-opacity:1; stroke-linecap:round; fill-opacity:0.6619621909411993;" d="M 0.648464789306049 NaN A 0.006526887409860463 NaN 0 0 0 0.6419379018961885 NaN A 0.006526887409860463 NaN 0 0 0 0.6549916767159095 NaN A 0.006526887409860463 NaN 0 0 0 0.6419379018961885 NaN A 0.006526887409860463 NaN 0 0 0 0.6549916767159095 NaN" />
  <path style="fill:#D97F26; stroke-width:0.005; stroke:#000000; stroke-opacity:1; stroke-linecap:round; fill-opacity:0.7975998065435643;" d="M 0.45256166187463054 NaN A 0.04401034697756993 NaN 0 0 0 0.4085513148970606 NaN A 0.04401034697756993 NaN 0 0 0 0.4965720088522005 NaN A 0.04401034697756993 NaN 0 0 0 0.4085513148970606 NaN A 0.04401034697756993 NaN 0 0 0 0.4965720088522005 NaN" />
  <path style="fill:#D92626; stroke-width:0.005; stroke:#000000; stroke-opacity:1; stroke-linecap:round; fill-opacity:0.7615565814451984;" d="M 0.570529355968352 NaN A 0.02649782661924197 NaN 0 0 0 0.54403152934911 NaN A 0.02649782661924197 NaN 0 0 0 0.5970271825875939 NaN A 0.02649782661924197 NaN 0 0 0 0.54403152934911 NaN A 0.02649782661924197 NaN 0 0 0 0.5970271825875939 NaN" />
  <path style="fill:#D97F26; stroke-width:0.005; stroke:#000000; stroke-opacity:1; stroke-linecap:round; fill-opacity:0.5142718943475821;" d="M 0.7184420950403562 NaN A 0.018243955681369425 NaN 0 0 0 0.7001981393589868 NaN A 0.018243955681369425 NaN 0 0 0 0.7366860507217255 NaN A 0.018243955681369425 NaN 0 0 0 0.7001981393589868 NaN A 0.018243955681369425 NaN 0 0 0 0.7366860507217255 NaN" />
  <path style="fill:#269DD9; stroke-width:0.005; stroke:#000000; stroke-opacity:1; stroke-linecap:round; fill-opacity:0.6995315036967626;" d="M 0.7807076242838961 NaN A 0.0356931895026929 NaN 0 0 0 0.7450144347812031 NaN A 0.0356931895026929 NaN 0 0 0 0.816400813786589 NaN A 0.0356931895026929 NaN 0 0 0 0.7450144347812031 NaN A 0.0356931895026929 NaN 0 0 0 0.816400813786589 NaN" />
  <path style="fill:#D97F26; stroke-width:0.005; stroke:#000000; stroke-opacity:1; stroke-linecap:round; fill-opacity:0.7201881911308492;" d="M 0.8324042374045003 NaN A 0.03502949896811927 NaN 0 0 0 0.7973747384363811 NaN A 0.03502949896811927 NaN 0 0 0 0.8674337363726196 NaN A 0.03502949896811927 NaN 0 0 0 0.7973747384363811 NaN A 0.03502949896811927 NaN 0 0 0 0.8674337363726196 NaN" />
  <path style="fill:#9D26D9; stroke-width:0.005; stroke:#000000; stroke-opacity:1; stroke-linecap:round; fill-opacity:0.7864765186971052;" d="M 0.23470415461810268 NaN A 0.03985841669209296 NaN 0 0 0 0.19484573792600973 NaN A 0.03985841669209296 NaN 0 0 0 0.2745625713101956 NaN A 0.03985841669209296 NaN 0 0 0 0.19484573792600973 NaN A 0.03985841669209296 NaN 0 0 0 0.2745625713101956 NaN" />
  <path style="fill:#D97F26; stroke-width:0.005; stroke:#000000; stroke-opacity:1; stroke-linecap:round; fill-opacity:0.6729501907806433;" d="M 0.2218573641501277 NaN A 0.016545204637937624 NaN 0 0 0 0.20531215951219006 NaN A 0.016545204637937624 NaN 0 0 0 0.23840256878806532 NaN A 0.016545204637937624 NaN 0 0 0 0.20531215951219006 NaN A 0.016545204637937624 NaN 0 0 0 0.23840256878806532 NaN" />
  <path style="fill:#D97F26; stroke-width:0.005; stroke:#000000; stroke-opacity:1; stroke-linecap:round; fill-opacity:0.5794533127046243;" d="M 0.883294656931858 NaN A 0.04053061002951522 NaN 0 0 0 0.8427640469023429 NaN A 0.04053061002951522 NaN 0 0 0 0.9238252669613732 NaN A 0.04053061002951522 NaN 0 0 0 0.8427640469023429 NaN A 0.04053061002951522 NaN 0 0 0 0.9238252669613732 NaN" />
  <path style="fill:#D97F26; stroke-width:0.005; stroke:#000000; stroke-opacity:1; stroke-linecap:round; fill-opacity:0.39804205295500994;" d="M 0.915767022025411 NaN A 0.007387618912857424 NaN 0 0 0 0.9083794031125536 NaN A 0.007387618912857424 NaN 0 0 0 0.9231546409382685 NaN A 0.007387618912857424 NaN 0 0 0 0.9083794031125536 NaN A 0.007387618912857424 NaN 0 0 0 0.9231546409382685 NaN" />
  <path style="fill:#9D26D9; stroke-width:0.005; stroke:#000000; stroke-opacity:1; stroke-linecap:round; fill-opacity:0.6277834784176279;" d="M 0.22252902376425376 NaN A 0.025011829684332618 NaN 0 0 0 0.19751719407992113 NaN A 0.025011829684332618 NaN 0 0 0 0.2475408534485864 NaN A 0.025011829684332618 NaN 0 0 0 0.19751719407992113 NaN A 0.025011829684332618 NaN 0 0 0 0.2475408534485864 NaN" />
  <path style="fill:#269DD9; stroke-width:0.005; stroke:#000000; stroke-opacity:1; stroke-linecap:round; fill-opacity:0.4368401496603026;" d="M 0.24671748427020224 NaN A 0.023196570188822974 NaN 0 0 0 0.22352091408137925 NaN A 0.023196570188822974 NaN 0 0 0 0.2699140544590252 NaN A 0.023196570188822974 NaN 0 0 0 0.22352091408137925 NaN A 0.023196570188822974 NaN 0 0 0 0.2699140544590252 NaN" />
  <path style="fill:#9D26D9; stroke-width:0.005; stroke:#000000; stroke-opacity:1; stroke-linecap:round; fill-opacity:0.4715432804022851;" d="M 0.6191264875035325 NaN A 0.031202090920384278 NaN 0 0 0 0.5879243965831482 NaN A 0.031202090920384278 NaN 0 0 0 0.6503285784239168 NaN A 0.031202090920384278 NaN 0 0 0 0.5879243965831482 NaN A 0.031202090920384278 NaN 0 0 0 0.6503285784239168 NaN" />
  <path style="fill:#269DD9; stroke-width:0.005; stroke:#000000; stroke-opacity:1; stroke-linecap:round; fill-opacity:0.5303852347061808;" d="M 0.02982394447705128 NaN A 0.010894985258418135 NaN 0 0 0 0.01892895921863314 NaN A 0.010894985258418135 NaN 0 0 0 0.040718929735469415 NaN A 0.010894985258418135 NaN 0 0 0 0.01892895921863314 NaN A 0.010894985258418135 NaN 0 0 0 0.040718929735469415 NaN" />
  <path style="fill:#269DD9; stroke-width:0.005; stroke:#000000; stroke-opacity:1; stroke-linecap:round; fill-opacity:0.6835568462726302;" d="M 0.6163362152808285 NaN A 0.01915024484529156 NaN 0 0 0 0.5971859704355369 NaN A 0.01915024484529156 NaN 0 0 0 0.6354864601261201 NaN A 0.01915024484529156 NaN 0 0 0 0.5971859704355369 NaN A 0.01915024484529156 NaN 0 0 0 0.6354864601261201 NaN" />
  <path style="fill:#D92626; stroke-width:0.005; stroke:#000000; stroke-opacity:1; stroke-linecap:round; fill-opacity:0.43258143209396915;" d="M 0.8853027452231429 NaN A 0.037033819417209145 NaN 0 0 0 0.8482689258059337 NaN A 0.037033819417209145 NaN 0 0 0 0.9223365646403521 NaN A 0.037033819417209145 NaN 0 0 0 0.8482689258059337 NaN A 0.037033819417209145 NaN 0 0 0 0.9223365646403521 NaN" />
  <path style="fill:#D92626; stroke-width:0.005; stroke:#000000; stroke-opacity:1; stroke-linecap:round; fill-opacity:0.6109012322886;" d="M 0.21450889698083542 NaN A 0.02926035133483273 NaN 0 0 0 0.18524854564600268 NaN A 0.02926035133483273 NaN 0 0 0 0.24376924831566815 NaN A 0.02926035133483273 NaN 0 0 0 0.18524854564600268 NaN A 0.02926035133483273 NaN 0 0 0 0.24376924831566815 NaN" />
  <path style="fill:#9D26D9; stroke-width:0.005; stroke:#000000; stroke-opacity:1; stroke-linecap:round; fill-opacity:0.45144817437068735;" d="M 0.09496041948856937 NaN A 0.03181224516132956 NaN 0 0 0 0.06314817432723982 NaN A 0.03181224516132956 NaN 0 0 0 0.12677266464989892 NaN A 0.03181224516132956 NaN 0 0 0 0.06314817432723982 NaN A 0.03181224516132956 NaN 0 0 0 0.12677266464989892 NaN" />
  <path style="fill:#269DD9; stroke-width:0.005; stroke:#000000; stroke-opacity:1; stroke-linecap:round; fill-opacity:0.3248040703586705;" d="M 0.6794616550635804 NaN A 0.019244070414586707 NaN 0 0 0 0.6602175846489936 NaN A 0.019244070414586707 NaN 0 0 0 0.6987057254781671 NaN A 0.019244070414586707 NaN 0 0 0 0.6602175846489936 NaN A 0.019244070414586707 NaN 0 0 0 0.6987057254781671 NaN" />
  <path style="fill:#9D26D9; stroke-width:0.005; stroke:#000000; stroke-opacity:1; stroke-linecap:round; fill-opacity:0.3781500822395931;" d="M 0.786589322373554 NaN A 0.03585731013203946 NaN 0 0 0 0.7507320122415145 NaN A 0.03585731013203946 NaN 0 0 0 0.8224466325055934 NaN A 0.03585731013203946 NaN 0 0 0 0.7507320122415145 NaN A 0.03585731013203946 NaN 0 0 0 0.8224466325055934 NaN" />
  <path style="fill:#9D26D9; stroke-width:0.005; stroke:#000000; stroke-opacity:1; stroke-linecap:round; fill-opacity:0.533293516165749;" d="M 0.3010227096754414 NaN A 0.013160866235288143 NaN 0 0 0 0.2878618434401533 NaN A 0.013160866235288143 NaN 0 0 0 0.31418357591072954 NaN A 0.013160866235288143 NaN 0 0 0 0.2878618434401533 NaN A 0.013160866235288143 NaN 0 0 0 0.31418357591072954 NaN" />
  <path style="fill:#D97F26; stroke-width:0.005; stroke:#000000; stroke-opacity:1; stroke-linecap:round; fill-opacity:0.6298633882780935;" d="M 0.7083274723448195 NaN A 0.038983767247920624 NaN 0 0 0 0.6693437050968989 NaN A 0.038983767247920624 NaN 0 0 0 0.7473112395927402 NaN A 0.038983767247920624 NaN 0 0 0 0.6693437050968989 NaN A 0.038983767247920624 NaN 0 0 0 0.7473112395927402 NaN" />
  <path style="fill:#D97F26; stroke-width:0.005; stroke:#000000; stroke-opacity:1; stroke-linecap:round; fill-opacity:0.4514361482687173;" d="M 0.40849012934606443 NaN A 0.02762440606674435 NaN 0 0 0 0.3808657232793201 NaN A 0.02762440606674435 NaN 0 0 0 0.43611453541280876 NaN A 0.02762440606674435 NaN 0 0 0 0.3808657232793201 NaN A 0.02762440606674435 NaN 0 0 0 0.43611453541280876 NaN" />
  <path style="fill:#269DD9; stroke-width:0.005; stroke:#000000; stroke-opacity:1; stroke-linecap:round; fill-opacity:0.404816824257025;" d="M 0.026686059884372226 NaN A 0.0437540992043767 NaN 0 0 0 -0.017068039320004474 NaN A 0.0437540992043767 NaN 0 0 0 0.07044015908874893 NaN A 0.0437540992043767 NaN 0 0 0 -0.017068039320004474 NaN A 0.0437540992043767 NaN 0 0 0 0.07044015908874893 NaN" />
  <path style="fill:#D92626; stroke-width:0.005; stroke:#000000; stroke-opacity:1; stroke-linecap:round; fill-opacity:0.4580503525131952;" d="M 0.7535597871626558 NaN A 0.008755246246152298 NaN 0 0 0 0.7448045409165035 NaN A 0.008755246246152298 NaN 0 0 0 0.7623150334088081 NaN A 0.008755246246152298 NaN 0 0 0 0.7448045409165035 NaN A 0.008755246246152298 NaN 0 0 0 0.7623150334088081 NaN" />
  <path style="fill:#D97F26; stroke-width:0.005; stroke:#000000; stroke-opacity:1; stroke-linecap:round; fill-opacity:0.3596170210291334;" d="M 0.9642993739243675 NaN A 0.016805611582097382 NaN 0 0 0 0.9474937623422701 NaN A 0.016805611582097382 NaN 0 0 0 0.9811049855064649 NaN A 0.016805611582097382 NaN 0 0 0 0.9474937623422701 NaN A 0.016805611582097382 NaN 0 0 0 0.9811049855064649 NaN" />
  <path style="fill:#D92626; stroke-width:0.005; stroke:#000000; stroke-opacity:1; stroke-linecap:round; fill-opacity:0.4362924990274831;" d="M 0.11659318758550008 NaN A 0.04056937093373391 NaN 0 0 0 0.07602381665176616 NaN A 0.04056937093373391 NaN 0 0 0 0.157162558519234 NaN A 0.04056937093373391 NaN 0 0 0 0.07602381665176616 NaN A 0.04056937093373391 NaN 0 0 0 0.157162558519234 NaN" />
  <path style="fill:#D97F26; stroke-width:0.005; stroke:#000000; stroke-opacity:1; stroke-linecap:round; fill-opacity:0.42630295717182887;" d="M 0.09577471133025028 NaN A 0.01710266204611969 NaN 0 0 0 0.0786720492841306 NaN A 0.01710266204611969 NaN 0 0 0 0.11287737337636997 NaN A 0.01710266204611969 NaN 0 0 0 0.0786720492841306 NaN A 0.01710266204611969 NaN 0 0 0 0.11287737337636997 NaN" />
  <path style="fill:#D92626; stroke-width:0.005; stroke:#000000; stroke-opacity:1; stroke-linecap:round; fill-opacity:0.5802197147170559;" d="M 0.32883204235714103 NaN A 0.03266598511221734 NaN 0 0 0 0.2961660572449237 NaN A 0.03266598511221734 NaN 0 0 0 0.3614980274693584 NaN A 0.03266598511221734 NaN 0 0 0 0.2961660572449237 NaN A 0.03266598511221734 NaN 0 0 0 0.3614980274693584 NaN" />
  <path style="fill:#D97F26; stroke-width:0.005; stroke:#000000; stroke-opacity:1; stroke-linecap:round; fill-opacity:0.3475525270164452;" d="M 0.028151659086497305 NaN A 0.010976013281493401 NaN 0 0 0 0.017175645805003904 NaN A 0.010976013281493401 NaN 0 0 0 0.03912767236799071 NaN A 0.010976013281493401 NaN 0 0 0 0.017175645805003904 NaN A 0.010976013281493401 NaN 0 0 0 0.03912767236799071 NaN" />
  <path style="fill:#9D26D9; stroke-width:0.005; stroke:#000000; stroke-opacity:1; stroke-linecap:round; fill-opacity:0.6471599711294749;" d="M 0.3514851909270358 NaN A 0.012824025177732047 NaN 0 0 0 0.3386611657493037 NaN A 0.012824025177732047 NaN 0 0 0 0.36430921610476785 NaN A 0.012824025177732047 NaN 0 0 0 0.3386611657493037 NaN A 0.012824025177732047 NaN 0 0 0 0.36430921610476785 NaN" />
  <path style="fill:#269DD9; stroke-width:0.005; stroke:#000000; stroke-opacity:1; stroke-linecap:round; fill-opacity:0.7202438948388922;" d="M 0.248222935421751 NaN A 0.007055209583933233 NaN 0 0 0 0.24116772583781776 NaN A 0.007055209583933233 NaN 0 0 0 0.25527814500568424 NaN A 0.007055209583933233 NaN 0 0 0 0.24116772583781776 NaN A 0.007055209583933233 NaN 0 0 0 0.25527814500568424 NaN" />
  <path style="fill:#9D26D9; stroke-width:0.005; stroke:#000000; stroke-opacity:1; stroke-linecap:round; fill-opacity:0.4974430671579899;" d="M 0.3647304800300937 NaN A 0.04365078632469387 NaN 0 0 0 0.3210796937053998 NaN A 0.04365078632469387 NaN 0 0 0 0.40838126635478755 NaN A 0.04365078632469387 NaN 0 0 0 0.3210796937053998 NaN A 0.04365078632469387 NaN 0 0 0 0.40838126635478755 NaN" />
  <path style="fill:#D97F26; stroke-width:0.005; stroke:#000000; stroke-opacity:1; stroke-linecap:round; fill-opacity:0.7037697959140862;" d="M 0.7792852417118172 NaN A 0.013498987313778604 NaN 0 0 0 0.7657862543980386 NaN A 0.013498987313778604 NaN 0 0 0 0.7927842290255959 NaN A 0.013498987313778604 NaN 0 0 0 0.7657862543980386 NaN A 0.013498987313778604 NaN 0 0 0 0.7927842290255959 NaN" />
  <path style="fill:#D97F26; stroke-width:0.005; stroke:#000000; stroke-opacity:1; stroke-linecap:round; fill-opacity:0.7949506313995328;" d="M 0.5004736151906667 NaN A 0.016085833346578343 NaN 0 0 0 0.48438778184408837 NaN A 0.016085833346578343 NaN 0 0 0 0.516559448537245 NaN A 0.016085833346578343 NaN 0 0 0 0.48438778184408837 NaN A 0.016085833346578343 NaN 0 0 0 0.516559448537245 NaN" />
  <path style="fill:#D92626; stroke-width:0.005; stroke:#000000; stroke-opacity:1; stroke-linecap:round; fill-opacity:0.49653344755761647;" d="M 0.5644258193005656 NaN A 0.009674558484449558 NaN 0 0 0 0.554751260816116 NaN A 0.009674558484449558 NaN 0 0 0 0.5741003777850151 NaN A 0.009674558484449558 NaN 0 0 0 0.554751260816116 NaN A 0.009674558484449558 NaN 0 0 0 0.5741003777850151 NaN" />
  <path style="fill:#D97F26; stroke-width:0.005; stroke:#000000; stroke-opacity:1; stroke-linecap:round; fill-opacity:0.4359513484549052;" d="M 0.21793898673479195 NaN A 0.04189632633778138 NaN 0 0 0 0.17604266039701058 NaN A 0.04189632633778138 NaN 0 0 0 0.25983531307257335 NaN A 0.04189632633778138 NaN 0 0 0 0.17604266039701058 NaN A 0.04189632633778138 NaN 0 0 0 0.25983531307257335 NaN" />
  <path style="fill:#9D26D9; stroke-width:0.005; stroke:#000000; stroke-opacity:1; stroke-linecap:round; fill-opacity:0.41667659063627255;" d="M 0.21646013635904382 NaN A 0.025755605769364642 NaN 0 0 0 0.19070453058967918 NaN A 0.025755605769364642 NaN 0 0 0 0.24221574212840846 NaN A 0.025755605769364642 NaN 0 0 0 0.19070453058967918 NaN A 0.025755605769364642 NaN 0 0 0 0.24221574212840846 NaN" />
  <path style="fill:#D92626; stroke-width:0.005; stroke:#000000; stroke-opacity:1; stroke-linecap:round; fill-opacity:0.6845601794295;" d="M 0.8445559179933905 NaN A 0.025359395916339067 NaN 0 0 0 0.8191965220770514 NaN A 0.025359395916339067 NaN 0 0 0 0.8699153139097295 NaN A 0.025359395916339067 NaN 0 0 0 0.8191965220770514 NaN A 0.025359395916339067 NaN 0 0 0 0.8699153139097295 NaN" />
  <path style="fill:#9D26D9; stroke-width:0.005; stroke:#000000; stroke-opacity:1; stroke-linecap:round; fill-opacity:0.7571727842250345;" d="M 0.8591865624691494 NaN A 0.028592189771568924 NaN 0 0 0 0.8305943726975804 NaN A 0.028592189771568924 NaN 0 0 0 0.8877787522407183 NaN A 0.028592189771568924 NaN 0 0 0 0.8305943726975804 NaN A 0.028592189771568924 NaN 0 0 0 0.8877787522407183 NaN" />
  <path style="fill:#9D26D9; stroke-width:0.005; stroke:#000000; stroke-opacity:1; stroke-linecap:round; fill-opacity:0.6275133426704552;" d="M 0.42366434306530143 NaN A 0.01164976458453524 NaN 0 0 0 0.41201457848076617 NaN A 0.01164976458453524 NaN 0 0 0 0.4353141076498367 NaN A 0.01164976458453524 NaN 0 0 0 0.41201457848076617 NaN A 0.01164976458453524 NaN 0 0 0 0.4353141076498367 NaN" />
  <path style="fill:#D97F26; stroke-width:0.005; stroke:#000000; stroke-opacity:1; stroke-linecap:round; fill-opacity:0.5856671488463097;" d="M 0.9082229096785607 NaN A 0.022357059338337107 NaN 0 0 0 0.8858658503402236 NaN A 0.022357059338337107 NaN 0 0 0 0.9305799690168978 NaN A 0.022357059338337107 NaN 0 0 0 0.8858658503402236 NaN A 0.022357059338337107 NaN 0 0 0 0.9305799690168978 NaN" />
  <path style="fill:#9D26D9; stroke-width:0.005; stroke:#000000; stroke-opacity:1; stroke-linecap:round; fill-opacity:0.4063294370361911;" d="M 0.2512822483496633 NaN A 0.007697414421553401 NaN 0 0 0 0.2435848339281099 NaN A 0.007697414421553401 NaN 0 0 0 0.2589796627712167 NaN A 0.007697414421553401 NaN 0 0 0 0.2435848339281099 NaN A 0.007697414421553401 NaN 0 0 0 0.2589796627712167 NaN" />
  <path style="fill:#D97F26; stroke-width:0.005; stroke:#000000; stroke-opacity:1; stroke-linecap:round; fill-opacity:0.5918338700141834;" d="M 0.059140485315261615 NaN A 0.008990994190497759 NaN 0 0 0 0.050149491124763856 NaN A 0.008990994190497759 NaN 0 0 0 0.06813147950575937 NaN A 0.008990994190497759 NaN 0 0 0 0.050149491124763856 NaN A 0.008990994190497759 NaN 0 0 0 0.06813147950575937 NaN" />
  <path style="fill:#9D26D9; stroke-width:0.005; stroke:#000000; stroke-opacity:1; stroke-linecap:round; fill-opacity:0.6293925612235747;" d="M 0.15440192370671346 NaN A 0.018841117602683956 NaN 0 0 0 0.1355608061040295 NaN A 0.018841117602683956 NaN 0 0 0 0.1732430413093974 NaN A 0.018841117602683956 NaN 0 0 0 0.1355608061040295 NaN A 0.018841117602683956 NaN 0 0 0 0.1732430413093974 NaN" />
  <path style="fill:#9D26D9; stroke-width:0.005; stroke:#000000; stroke-opacity:1; stroke-linecap:round; fill-opacity:0.37601842717446715;" d="M 0.7349960653495917 NaN A 0.034082657816691585 NaN 0 0 0 0.7009134075329001 NaN A 0.034082657816691585 NaN 0 0 0 0.7690787231662833 NaN A 0.034082657816691585 NaN 0 0 0 0.7009134075329001 NaN A 0.034082657816691585 NaN 0 0 0 0.7690787231662833 NaN" />
  <path style="fill:#D97F26; stroke-width:0.005; stroke:#000000; stroke-opacity:1; stroke-linecap:round; fill-opacity:0.44504423045623476;" d="M 0.8965972864080305 NaN A 0.02516409554863119 NaN 0 0 0 0.8714331908593993 NaN A 0.02516409554863119 NaN 0 0 0 0.9217613819566617 NaN A 0.02516409554863119 NaN 0 0 0 0.8714331908593993 NaN A 0.02516409554863119 NaN 0 0 0 0.9217613819566617 NaN" />
  <path style="fill:#9D26D9; stroke-width:0.005; stroke:#000000; stroke-opacity:1; stroke-linecap:round; fill-opacity:0.3300191917142951;" d="M 0.18304064852616686 NaN A 0.036956415887362454 NaN 0 0 0 0.1460842326388044 NaN A 0.036956415887362454 NaN 0 0 0 0.21999706441352931 NaN A 0.036956415887362454 NaN 0 0 0 0.1460842326388044 NaN A 0.036956415887362454 NaN 0 0 0 0.21999706441352931 NaN" />
  <path style="fill:#9D26D9; stroke-width:0.005; stroke:#000000; stroke-opacity:1; stroke-linecap:round; fill-opacity:0.7216772931803477;" d="M 0.7108460201358262 NaN A 0.025597323843664792 NaN 0 0 0 0.6852486962921615 NaN A 0.025597323843664792 NaN 0 0 0 0.736443343979491 NaN A 0.025597323843664792 NaN 0 0 0 0.6852486962921615 NaN A 0.025597323843664792 NaN 0 0 0 0.736443343979491 NaN" />
  <path style="fill:#269DD9; stroke-width:0.005; stroke:#000000; stroke-opacity:1; stroke-linecap:round; fill-opacity:0.347886598373311;" d="M 0.9475973095801383 NaN A 0.007614007815826787 NaN 0 0 0 0.9399833017643116 NaN A 0.007614007815826787 NaN 0 0 0 0.9552113173959651 NaN A 0.007614007815826787 NaN 0 0 0 0.9399833017643116 NaN A 0.007614007815826787 NaN 0 0 0 0.9552113173959651 NaN" />
  <path style="fill:#D97F26; stroke-width:0.005; stroke:#000000; stroke-opacity:1; stroke-linecap:round; fill-opacity:0.40568173290752124;" d="M 0.2622150840866607 NaN A 0.03955114976581862 NaN 0 0 0 0.2226639343208421 NaN A 0.03955114976581862 NaN 0 0 0 0.30176623385247936 NaN A 0.03955114976581862 NaN 0 0 0 0.2226639343208421 NaN A 0.03955114976581862 NaN 0 0 0 0.30176623385247936 NaN" />
  <path style="fill:#D97F26; stroke-width:0.005; stroke:#000000; stroke-opacity:1; stroke-linecap:round; fill-opacity:0.34510486290468456;" d="M 0.6044979167705461 NaN A 0.04216482097370815 NaN 0 0 0 0.562333095796838 NaN A 0.04216482097370815 NaN 0 0 0 0.6466627377442542 NaN A 0.04216482097370815 NaN 0 0 0 0.562333095796838 NaN A 0.04216482097370815 NaN 0 0 0 0.6466627377442542 NaN" />
  <path style="fill:#269DD9; stroke-width:0.005; stroke:#000000; stroke-opacity:1; stroke-linecap:round; fill-opacity:0.36792210592130886;" d="M 0.4013839512518963 NaN A 0.023289229059075156 NaN 0 0 0 0.37809472219282114 NaN A 0.023289229059075156 NaN 0 0 0 0.42467318031097145 NaN A 0.023289229059075156 NaN 0 0 0 0.37809472219282114 NaN A 0.023289229059075156 NaN 0 0 0 0.42467318031097145 NaN" />
  <path style="fill:#9D26D9; stroke-width:0.005; stroke:#000000; stroke-opacity:1; stroke-linecap:round; fill-opacity:0.4231957658382359;" d="M 0.9264792298807317 NaN A 0.043853033210754386 NaN 0 0 0 0.8826261966699773 NaN A 0.043853033210754386 NaN 0 0 0 0.9703322630914861 NaN A 0.043853033210754386 NaN 0 0 0 0.8826261966699773 NaN A 0.043853033210754386 NaN 0 0 0 0.9703322630914861 NaN" />
  <path style="fill:#9D26D9; stroke-width:0.005; stroke:#000000; stroke-opacity:1; stroke-linecap:round; fill-opacity:0.6835558868431788;" d="M 0.15053213564985868 NaN A 0.03484278787731979 NaN 0 0 0 0.11568934777253889 NaN A 0.03484278787731979 NaN 0 0 0 0.18537492352717846 NaN A 0.03484278787731979 NaN 0 0 0 0.11568934777253889 NaN A 0.03484278787731979 NaN 0 0 0 0.18537492352717846 NaN" />
  <path style="fill:#9D26D9; stroke-width:0.005; stroke:#000000; stroke-opacity:1; stroke-linecap:round; fill-opacity:0.7022099237852446;" d="M 0.5547757908623401 NaN A 0.01584518722337799 NaN 0 0 0 0.5389306036389621 NaN A 0.01584518722337799 NaN 0 0 0 0.5706209780857181 NaN A 0.01584518722337799 NaN 0 0 0 0.5389306036389621 NaN A 0.01584518722337799 NaN 0 0 0 0.5706209780857181 NaN" />
  <path style="fill:#D97F26; stroke-width:0.005; stroke:#000000; stroke-opacity:1; stroke-linecap:round; fill-opacity:0.6810521773709595;" d="M 0.6820586133982575 NaN A 0.03204453026391692 NaN 0 0 0 0.6500140831343405 NaN A 0.03204453026391692 NaN 0 0 0 0.7141031436621744 NaN A 0.03204453026391692 NaN 0 0 0 0.6500140831343405 NaN A 0.03204453026391692 NaN 0 0 0 0.7141031436621744 NaN" />
  <path style="fill:#D97F26; stroke-width:0.005; stroke:#000000; stroke-opacity:1; stroke-linecap:round; fill-opacity:0.43693150042917234;" d="M 0.6350336552166505 NaN A 0.03489462906614228 NaN 0 0 0 0.6001390261505082 NaN A 0.03489462906614228 NaN 0 0 0 0.6699282842827927 NaN A 0.03489462906614228 NaN 0 0 0 0.6001390261505082 NaN A 0.03489462906614228 NaN 0 0 0 0.6699282842827927 NaN" />
  <path style="fill:#9D26D9; stroke-width:0.005; stroke:#000000; stroke-opacity:1; stroke-linecap:round; fill-opacity:0.5573867008577649;" d="M 0.21022414525153021 NaN A 0.00666529794378123 NaN 0 0 0 0.20355884730774898 NaN A 0.00666529794378123 NaN 0 0 0 0.21688944319531145 NaN A 0.00666529794378123 NaN 0 0 0 0.20355884730774898 NaN A 0.00666529794378123 NaN 0 0 0 0.21688944319531145 NaN" />
  <path style="fill:#D92626; stroke-width:0.005; stroke:#000000; stroke-opacity:1; stroke-linecap:round; fill-opacity:0.4909914359019877;" d="M 0.454139294162632 NaN A 0.025116837805270527 NaN 0 0 0 0.42902245635736147 NaN A 0.025116837805270527 NaN 0 0 0 0.4792561319679025 NaN A 0.025116837805270527 NaN 0 0 0 0.42902245635736147 NaN A 0.025116837805270527 NaN 0 0 0 0.4792561319679025 NaN" />
  <path style="fill:#9D26D9; stroke-width:0.005; stroke:#000000; stroke-opacity:1; stroke-linecap:round; fill-opacity:0.7732004379214639;" d="M 0.053224585262639956 NaN A 0.016375518301574334 NaN 0 0 0 0.03684906696106562 NaN A 0.016375518301574334 NaN 0 0 0 0.06960010356421428 NaN A 0.016375518301574334 NaN 0 0 0 0.03684906696106562 NaN A 0.016375518301574334 NaN 0 0 0 0.06960010356421428 NaN" />
</svg>