<svg xmlns="http://www.w3.org/2000/svg" viewBox="0 0 1 1" width="800" height="800">
  <path style="fill:#EB4747; stroke-width:0.002; stroke:#000000; stroke-opacity:1; stroke-linecap:round; fill-opacity:0.5;" d="M 0.7397302147566239 0.679392270986327 A 0.3184706164251584 0.2651312533886405 0 0 0 0.42125959833146553 0.9445235243749676" />
  <path style="fill:#EB6347; stroke-width:0.002; stroke:#000000; stroke-opacity:1; stroke-linecap:round; fill-opacity:0.5;" d="M 0.7304993999658423 0.3848794981468161 A 0.14231176347218255 0.14369785823504588 0 0 0 0.5881876364936598 0.24118163991177022" />
  <path style="fill:#EB7E47; stroke-width:0.002; stroke:#000000; stroke-opacity:1; stroke-linecap:round; fill-opacity:0.5;" d="M 0.9969896448519155 0.6950459953202928 A 0.48858097724994354 0.1459223769974728 0 0 0 0.508408667601972 0.8409683723177656" />
  <path style="fill:#EB9947; stroke-width:0.002; stroke:#000000; stroke-opacity:1; stroke-linecap:round; fill-opacity:0.5;" d="M 0.4825878662568962 0.7754961556501202 A 0.2091233515240375 0.6603802741726543 0 0 0 0.2734645147328587 0.11511588147746588" />
  <path style="fill:#EBB447; stroke-width:0.002; stroke:#000000; stroke-opacity:1; stroke-linecap:round; fill-opacity:0.5;" d="M 0.9443081455501072 0.6447866740856201 A 0.07281536424592516 0.053146819241084 0 0 0 0.8714927813041821 0.5916398548445361" />
  <path style="fill:#EBCF47; stroke-width:0.002; stroke:#000000; stroke-opacity:1; stroke-linecap:round; fill-opacity:0.5;" d="M 0.8389344540029023 0.3138730518509365 A 0.1416065109611856 0.09739192949977094 0 0 0 0.9805409649640879 0.21648112235116557" />
  <path style="fill:#EBEB47; stroke-width:0.002; stroke:#000000; stroke-opacity:1; stroke-linecap:round; fill-opacity:0.5;" d="M 0.4106391824628256 0.15643535074878212 A 0.2850321265393436 0.7437488399999235 0 0 0 0.12560705592348198 0.9001841907487056" />
  <path style="fill:#CFEB47; stroke-width:0.002; stroke:#000000; stroke-opacity:1; stroke-linecap:round; fill-opacity:0.5;" d="M 0.2467796682700114 0.5472028143472593 A 0.15989504858202996 0.4725856462345326 0 0 0 0.08688461968798145 0.07461716811272667" />
  <path style="fill:#B4EB47; stroke-width:0.002; stroke:#000000; stroke-opacity:1; stroke-linecap:round; fill-opacity:0.5;" d="M 0.9909687075364513 0.37290042565115833 A 0.9450486569649965 0.5043659790363256 0 0 0 0.04592005057145476 0.877266404687484" />
  <path style="fill:#99EB47; stroke-width:0.002; stroke:#000000; stroke-opacity:1; stroke-linecap:round; fill-opacity:0.5;" d="M 0.8421691193898784 0.6717541955686 A 0.06365432336006194 0.57145912695874 0 0 0 0.7785147960298164 0.10029506860986004" />
  <path style="fill:#7EEB47; stroke-width:0.002; stroke:#000000; stroke-opacity:1; stroke-linecap:round; fill-opacity:0.5;" d="M 0.8436812706187168 0.16943452088712252 A 0.4762236262877756 0.49155473278925677 0 0 0 0.3674576443309412 0.6609892536763793" />
  <path style="fill:#63EB47; stroke-width:0.002; stroke:#000000; stroke-opacity:1; stroke-linecap:round; fill-opacity:0.5;" d="M 0.2223022362964846 0.9413390004966 A 0.2128921965950591 0.11334867798558357 0 0 0 0.00941003970142551 0.8279903225110165" />
  <path style="fill:#47EB47; stroke-width:0.002; stroke:#000000; stroke-opacity:1; stroke-linecap:round; fill-opacity:0.5;" d="M 0.5381027429765688 0.5463006193774211 A 0.07859781135276123 0.013691313823552487 0 0 0 0.61670055432933 0.5326093055538687" />
  <path style="fill:#47EB63; stroke-width:0.002; stroke:#000000; stroke-opacity:1; stroke-linecap:round; fill-opacity:0.5;" d="M 0.7368725647925024 0.5371476233025734 A 0.11969644284226633 0.2023891255517315 0 0 0 0.6171761219502361 0.7395367488543049" />
  <path style="fill:#47EB7E; stroke-width:0.002; stroke:#000000; stroke-opacity:1; stroke-linecap:round; fill-opacity:0.5;" d="M 0.9793023409713884 0.0014998477543917144 A 0.5805102000687242 0.7793942391448083 0 0 0 0.3987921409026641 0.7808940868992" />
  <path style="fill:#47EB99; stroke-width:0.002; stroke:#000000; stroke-opacity:1; stroke-linecap:round; fill-opacity:0.5;" d="M 0.27013077416598064 0.44047329037614635 A 0.04287450217516853 0.4018759681935359 0 0 0 0.31300527634114916 0.03859732218261047" />
  <path style="fill:#47EBB4; stroke-width:0.002; stroke:#000000; stroke-opacity:1; stroke-linecap:round; fill-opacity:0.5;" d="M 0.8546737765984842 0.33739191682671255 A 0.8254553207202543 0.23010036553260782 0 0 0 0.02921845587822991 0.5674922823593204" />
  <path style="fill:#47EBCF; stroke-width:0.002; stroke:#000000; stroke-opacity:1; stroke-linecap:round; fill-opacity:0.5;" d="M 0.7504305600036459 0.2090310413313915 A 0.40717320004403124 0.12621257437342737 0 0 0 0.3432573599596147 0.08281846695796413" />
  <path style="fill:#47EBEB; stroke-width:0.002; stroke:#000000; stroke-opacity:1; stroke-linecap:round; fill-opacity:0.5;" d="M 0.6683480319737021 0.7491913598974667 A 0.4923903865249546 0.188489671651616 0 0 0 0.17595764544874748 0.5607016882458506" />
  <path style="fill:#47CFEB; stroke-width:0.002; stroke:#000000; stroke-opacity:1; stroke-linecap:round; fill-opacity:0.5;" d="M 0.10851503393298678 0.09367033364605382 A 0.0585643457833076 0.1785417333450381 0 0 0 0.16707937971629439 0.2722120669910919" />
  <path style="fill:#47B4EB; stroke-width:0.002; stroke:#000000; stroke-opacity:1; stroke-linecap:round; fill-opacity:0.5;" d="M 0.7885472109253844 0.040420261839264504 A 0.05938426074663883 0.2927768178289599 0 0 0 0.8479314716720232 0.3331970796682244" />
  <path style="fill:#4799EB; stroke-width:0.002; stroke:#000000; stroke-opacity:1; stroke-linecap:round; fill-opacity:0.5;" d="M 0.45582771364603425 0.23516510936416368 A 0.5333265581839872 0.571238153928164 0 0 0 0.9891542718300215 0.8064032632923277" />
  <path style="fill:#477EEB; stroke-width:0.002; stroke:#000000; stroke-opacity:1; stroke-linecap:round; fill-opacity:0.5;" d="M 0.9151969900850352 0.9046921507309845 A 0.7462539940746373 0.3284729217251582 0 0 0 0.16894299601039786 0.5762192290058263" />
  <path style="fill:#4763EB; stroke-width:0.002; stroke:#000000; stroke-opacity:1; stroke-linecap:round; fill-opacity:0.5;" d="M 0.45925536265297073 0.676292792827382 A 0.07428861533102427 0.6169053275224692 0 0 0 0.38496674732194647 0.05938746530491279" />
  <path style="fill:#4747EB; stroke-width:0.002; stroke:#000000; stroke-opacity:1; stroke-linecap:round; fill-opacity:0.5;" d="M 0.24092532758212104 0.7177780433142404 A 0.06034894620116904 0.2226595041653544 0 0 0 0.180576381380952 0.49511853914888604" />
</svg>