<svg xmlns="http://www.w3.org/2000/svg" viewBox="0 0 1 1" width="800" height="800">
  <path style="fill:none; stroke-width:0.005; stroke:#000000; stroke-opacity:1; stroke-linecap:round;" d="M 0.7397302147566239 NaN A 0.021062979916573278 NaN 0 0 0 0.7186672348400507 NaN A 0.021062979916573278 NaN 0 0 0 0.7607931946731972 NaN A 0.021062979916573278 NaN 0 0 0 0.7186672348400507 NaN A 0.021062979916573278 NaN 0 0 0 0.7607931946731972 NaN" />
  <path style="fill:none; stroke-width:0.005; stroke:#000000; stroke-opacity:1; stroke-linecap:round;" d="M 0.9445235243749676 NaN A 0.019243974907340807 NaN 0 0 0 0.9252795494676268 NaN A 0.019243974907340807 NaN 0 0 0 0.9637674992823083 NaN A 0.019243974907340807 NaN 0 0 0 0.9252795494676268 NaN A 0.019243974907340807 NaN 0 0 0 0.9637674992823083 NaN" />
  <path style="fill:none; stroke-width:0.005; stroke:#000000; stroke-opacity:1; stroke-linecap:round;" d="M 0.5881876364936598 NaN A 0.04984948224259578 NaN 0 0 0 0.538338154251064 NaN A 0.04984948224259578 NaN 0 0 0 0.6380371187362556 NaN A 0.04984948224259578 NaN 0 0 0 0.538338154251064 NaN A 0.04984948224259578 NaN 0 0 0 0.6380371187362556 NaN" />
  <path style="fill:none; stroke-width:0.005; stroke:#000000; stroke-opacity:1; stroke-linecap:round;" d="M 0.6950459953202928 NaN A 0.04204841861588828 NaN 0 0 0 0.6529975767044045 NaN A 0.04204841861588828 NaN 0 0 0 0.737094413936181 NaN A 0.04204841861588828 NaN 0 0 0 0.6529975767044045 NaN A 0.04204841861588828 NaN 0 0 0 0.737094413936181 NaN" />
  <path style="fill:none; stroke-width:0.005; stroke:#000000; stroke-opacity:1; stroke-linecap:round;" d="M 0.4825878662568962 NaN A 0.013673225736642937 NaN 0 0 0 0.4689146405202533 NaN A 0.013673225736642937 NaN 0 0 0 0.4962610919935391 NaN A 0.013673225736642937 NaN 0 0 0 0.4689146405202533 NaN A 0.013673225736642937 NaN 0 0 0 0.4962610919935391 NaN" />
  <path style="fill:none; stroke-width:0.005; stroke:#000000; stroke-opacity:1; stroke-linecap:round;" d="M 0.11511588147746588 NaN A 0.032239333704281004 NaN 0 0 0 0.08287654777318487 NaN A 0.032239333704281004 NaN 0 0 0 0.14735521518174688 NaN A 0.032239333704281004 NaN 0 0 0 0.08287654777318487 NaN A 0.032239333704281004 NaN 0 0 0 0.14735521518174688 NaN" />
  <path style="fill:none; stroke-width:0.005; stroke:#000000; stroke-opacity:1; stroke-linecap:round;" d="M 0.8714927813041821 NaN A 0.04194672270014512 NaN 0 0 0 0.829546058604037 NaN A 0.04194672270014512 NaN 0 0 0 0.9134395040043272 NaN A 0.04194672270014512 NaN 0 0 0 0.829546058604037 NaN A 0.04194672270014512 NaN 0 0 0 0.9134395040043272 NaN" />
  <path style="fill:none; stroke-width:0.005; stroke:#000000; stroke-opacity:1; stroke-linecap:round;" d="M 0.3138730518509365 NaN A 0.01082405611755828 NaN 0 0 0 0.30304899573337823 NaN A 0.01082405611755828 NaN 0 0 0 0.32469710796849477 NaN A 0.01082405611755828 NaN 0 0 0 0.30304899573337823 NaN A 0.01082405611755828 NaN 0 0 0 0.32469710796849477 NaN" />
  <path style="fill:none; stroke-width:0.005; stroke:#000000; stroke-opacity:1; stroke-linecap:round;" d="M 0.4106391824628256 NaN A 0.006280352796174099 NaN 0 0 0 0.4043588296666515 NaN A 0.006280352796174099 NaN 0 0 0 0.4169195352589997 NaN A 0.006280352796174099 NaN 0 0 0 0.4043588296666515 NaN A 0.006280352796174099 NaN 0 0 0 0.4169195352589997 NaN" />
  <path style="fill:none; stroke-width:0.005; stroke:#000000; stroke-opacity:1; stroke-linecap:round;" d="M 0.9001841907487056 NaN A 0.027360140717362966 NaN 0 0 0 0.8728240500313427 NaN A 0.027360140717362966 NaN 0 0 0 0.9275443314660685 NaN A 0.027360140717362966 NaN 0 0 0 0.8728240500313427 NaN A 0.027360140717362966 NaN 0 0 0 0.9275443314660685 NaN" />
  <path style="fill:none; stroke-width:0.005; stroke:#000000; stroke-opacity:1; stroke-linecap:round;" d="M 0.08688461968798145 NaN A 0.04954843537682257 NaN 0 0 0 0.03733618431115888 NaN A 0.04954843537682257 NaN 0 0 0 0.13643305506480402 NaN A 0.04954843537682257 NaN 0 0 0 0.03733618431115888 NaN A 0.04954843537682257 NaN 0 0 0 0.13643305506480402 NaN" />
  <path style="fill:none; stroke-width:0.005; stroke:#000000; stroke-opacity:1; stroke-linecap:round;" d="M 0.37290042565115833 NaN A 0.0438633202343742 NaN 0 0 0 0.3290371054167841 NaN A 0.0438633202343742 NaN 0 0 0 0.41676374588553255 NaN A 0.0438633202343742 NaN 0 0 0 0.3290371054167841 NaN A 0.0438633202343742 NaN 0 0 0 0.41676374588553255 NaN" />
  <path style="fill:none; stroke-width:0.005; stroke:#000000; stroke-opacity:1; stroke-linecap:round;" d="M 0.8421691193898784 NaN A 0.038925739801490826 NaN 0 0 0 0.8032433795883875 NaN A 0.038925739801490826 NaN 0 0 0 0.8810948591913692 NaN A 0.038925739801490826 NaN 0 0 0 0.8032433795883875 NaN A 0.038925739801490826 NaN 0 0 0 0.8810948591913692 NaN" />
  <path style="fill:none; stroke-width:0.005; stroke:#000000; stroke-opacity:1; stroke-linecap:round;" d="M 0.10029506860986004 NaN A 0.008471726044356127 NaN 0 0 0 0.09182334256550391 NaN A 0.008471726044356127 NaN 0 0 0 0.10876679465421617 NaN A 0.008471726044356127 NaN 0 0 0 0.09182334256550391 NaN A 0.008471726044356127 NaN 0 0 0 0.10876679465421617 NaN" />
  <path style="fill:none; stroke-width:0.005; stroke:#000000; stroke-opacity:1; stroke-linecap:round;" d="M 0.3674576443309412 NaN A 0.011115111814824231 NaN 0 0 0 0.35634253251611697 NaN A 0.011115111814824231 NaN 0 0 0 0.3785727561457654 NaN A 0.011115111814824231 NaN 0 0 0 0.35634253251611697 NaN A 0.011115111814824231 NaN 0 0 0 0.3785727561457654 NaN" />
  <path style="fill:none; stroke-width:0.005; stroke:#000000; stroke-opacity:1; stroke-linecap:round;" d="M 0.9413390004966 NaN A 0.041399516125550824 NaN 0 0 0 0.8999394843710492 NaN A 0.041399516125550824 NaN 0 0 0 0.9827385166221508 NaN A 0.041399516125550824 NaN 0 0 0 0.8999394843710492 NaN A 0.041399516125550824 NaN 0 0 0 0.9827385166221508 NaN" />
  <path style="fill:none; stroke-width:0.005; stroke:#000000; stroke-opacity:1; stroke-linecap:round;" d="M 0.5381027429765688 NaN A 0.0308350277164665 NaN 0 0 0 0.5072677152601023 NaN A 0.0308350277164665 NaN 0 0 0 0.5689377706930353 NaN A 0.0308350277164665 NaN 0 0 0 0.5072677152601023 NaN A 0.0308350277164665 NaN 0 0 0 0.5689377706930353 NaN" />
  <path style="fill:none; stroke-width:0.005; stroke:#000000; stroke-opacity:1; stroke-linecap:round;" d="M 0.5326093055538687 NaN A 0.02685738116512867 NaN 0 0 0 0.50575192438874 NaN A 0.02685738116512867 NaN 0 0 0 0.5594666867189974 NaN A 0.02685738116512867 NaN 0 0 0 0.50575192438874 NaN A 0.02685738116512867 NaN 0 0 0 0.5594666867189974 NaN" />
  <path style="fill:none; stroke-width:0.005; stroke:#000000; stroke-opacity:1; stroke-linecap:round;" d="M 0.6171761219502361 NaN A 0.04896511704856942 NaN 0 0 0 0.5682110049016666 NaN A 0.04896511704856942 NaN 0 0 0 0.6661412389988055 NaN A 0.04896511704856942 NaN 0 0 0 0.5682110049016666 NaN A 0.04896511704856942 NaN 0 0 0 0.6661412389988055 NaN" />
  <path style="fill:none; stroke-width:0.005; stroke:#000000; stroke-opacity:1; stroke-linecap:round;" d="M 0.0014998477543917144 NaN A 0.039044704344960005 NaN 0 0 0 -0.03754485659056829 NaN A 0.039044704344960005 NaN 0 0 0 0.04054455209935172 NaN A 0.039044704344960005 NaN 0 0 0 -0.03754485659056829 NaN A 0.039044704344960005 NaN 0 0 0 0.04054455209935172 NaN" />
  <path style="fill:none; stroke-width:0.005; stroke:#000000; stroke-opacity:1; stroke-linecap:round;" d="M 0.27013077416598064 NaN A 0.015650263817057457 NaN 0 0 0 0.25448051034892316 NaN A 0.015650263817057457 NaN 0 0 0 0.2857810379830381 NaN A 0.015650263817057457 NaN 0 0 0 0.25448051034892316 NaN A 0.015650263817057457 NaN 0 0 0 0.2857810379830381 NaN" />
  <path style="fill:none; stroke-width:0.005; stroke:#000000; stroke-opacity:1; stroke-linecap:round;" d="M 0.03859732218261047 NaN A 0.016869595841335627 NaN 0 0 0 0.021727726341274844 NaN A 0.016869595841335627 NaN 0 0 0 0.0554669180239461 NaN A 0.016869595841335627 NaN 0 0 0 0.021727726341274844 NaN A 0.016869595841335627 NaN 0 0 0 0.0554669180239461 NaN" />
  <path style="fill:none; stroke-width:0.005; stroke:#000000; stroke-opacity:1; stroke-linecap:round;" d="M 0.02921845587822991 NaN A 0.0375215280001823 NaN 0 0 0 -0.008303072121952387 NaN A 0.0375215280001823 NaN 0 0 0 0.0667399838784122 NaN A 0.0375215280001823 NaN 0 0 0 -0.008303072121952387 NaN A 0.0375215280001823 NaN 0 0 0 0.0667399838784122 NaN" />
  <path style="fill:none; stroke-width:0.005; stroke:#000000; stroke-opacity:1; stroke-linecap:round;" d="M 0.2090310413313915 NaN A 0.004140923347898207 NaN 0 0 0 0.2048901179834933 NaN A 0.004140923347898207 NaN 0 0 0 0.2131719646792897 NaN A 0.004140923347898207 NaN 0 0 0 0.2048901179834933 NaN A 0.004140923347898207 NaN 0 0 0 0.2131719646792897 NaN" />
  <path style="fill:none; stroke-width:0.005; stroke:#000000; stroke-opacity:1; stroke-linecap:round;" d="M 0.6683480319737021 NaN A 0.008797882272437375 NaN 0 0 0 0.6595501497012647 NaN A 0.008797882272437375 NaN 0 0 0 0.6771459142461395 NaN A 0.008797882272437375 NaN 0 0 0 0.6595501497012647 NaN A 0.008797882272437375 NaN 0 0 0 0.6771459142461395 NaN" />
  <path style="fill:none; stroke-width:0.005; stroke:#000000; stroke-opacity:1; stroke-linecap:round;" d="M 0.5607016882458506 NaN A 0.004683516682302691 NaN 0 0 0 0.5560181715635479 NaN A 0.004683516682302691 NaN 0 0 0 0.5653852049281534 NaN A 0.004683516682302691 NaN 0 0 0 0.5560181715635479 NaN A 0.004683516682302691 NaN 0 0 0 0.5653852049281534 NaN" />
  <path style="fill:none; stroke-width:0.005; stroke:#000000; stroke-opacity:1; stroke-linecap:round;" d="M 0.16707937971629439 NaN A 0.03942736054626922 NaN 0 0 0 0.12765201917002517 NaN A 0.03942736054626922 NaN 0 0 0 0.2065067402625636 NaN A 0.03942736054626922 NaN 0 0 0 0.12765201917002517 NaN A 0.03942736054626922 NaN 0 0 0 0.2065067402625636 NaN" />
  <path style="fill:none; stroke-width:0.005; stroke:#000000; stroke-opacity:1; stroke-linecap:round;" d="M 0.040420261839264504 NaN A 0.016659853983411223 NaN 0 0 0 0.02376040785585328 NaN A 0.016659853983411223 NaN 0 0 0 0.05708011582267573 NaN A 0.016659853983411223 NaN 0 0 0 0.02376040785585328 NaN A 0.016659853983411223 NaN 0 0 0 0.05708011582267573 NaN" />
  <path style="fill:none; stroke-width:0.005; stroke:#000000; stroke-opacity:1; stroke-linecap:round;" d="M 0.45582771364603425 NaN A 0.04945771359150108 NaN 0 0 0 0.40637000005453316 NaN A 0.04945771359150108 NaN 0 0 0 0.5052854272375353 NaN A 0.04945771359150108 NaN 0 0 0 0.40637000005453316 NaN A 0.04945771359150108 NaN 0 0 0 0.5052854272375353 NaN" />
  <path style="fill:none; stroke-width:0.005; stroke:#000000; stroke-opacity:1; stroke-linecap:round;" d="M 0.8064032632923277 NaN A 0.04523460753654923 NaN 0 0 0 0.7611686557557784 NaN A 0.04523460753654923 NaN 0 0 0 0.851637870828877 NaN A 0.04523460753654923 NaN 0 0 0 0.7611686557557784 NaN A 0.04523460753654923 NaN 0 0 0 0.851637870828877 NaN" />
  <path style="fill:none; stroke-width:0.005; stroke:#000000; stroke-opacity:1; stroke-linecap:round;" d="M 0.16894299601039786 NaN A 0.02296276813264854 NaN 0 0 0 0.14598022787774934 NaN A 0.02296276813264854 NaN 0 0 0 0.1919057641430464 NaN A 0.02296276813264854 NaN 0 0 0 0.14598022787774934 NaN A 0.02296276813264854 NaN 0 0 0 0.1919057641430464 NaN" />
  <path style="fill:none; stroke-width:0.005; stroke:#000000; stroke-opacity:1; stroke-linecap:round;" d="M 0.676292792827382 NaN A 0.0029693732652456397 NaN 0 0 0 0.6733234195621364 NaN A 0.0029693732652456397 NaN 0 0 0 0.6792621660926276 NaN A 0.0029693732652456397 NaN 0 0 0 0.6733234195621364 NaN A 0.0029693732652456397 NaN 0 0 0 0.6792621660926276 NaN" />
  <path style="fill:none; stroke-width:0.005; stroke:#000000; stroke-opacity:1; stroke-linecap:round;" d="M 0.24092532758212104 NaN A 0.0090288190690476 NaN 0 0 0 0.23189650851307345 NaN A 0.0090288190690476 NaN 0 0 0 0.24995414665116863 NaN A 0.0090288190690476 NaN 0 0 0 0.23189650851307345 NaN A 0.0090288190690476 NaN 0 0 0 0.24995414665116863 NaN" />
  <path style="fill:none; stroke-width:0.005; stroke:#000000; stroke-opacity:1; stroke-linecap:round;" d="M 0.49511853914888604 NaN A 0.015211026951549845 NaN 0 0 0 0.4799075121973362 NaN A 0.015211026951549845 NaN 0 0 0 0.5103295661004359 NaN A 0.015211026951549845 NaN 0 0 0 0.4799075121973362 NaN A 0.015211026951549845 NaN 0 0 0 0.5103295661004359 NaN" />
  <path style="fill:none; stroke-width:0.005; stroke:#000000; stroke-opacity:1; stroke-linecap:round;" d="M 0.4710334613380659 NaN A 0.035462887373543965 NaN 0 0 0 0.4355705739645219 NaN A 0.035462887373543965 NaN 0 0 0 0.5064963487116099 NaN A 0.035462887373543965 NaN 0 0 0 0.4355705739645219 NaN A 0.035462887373543965 NaN 0 0 0 0.5064963487116099 NaN" />
  <path style="fill:none; stroke-width:0.005; stroke:#000000; stroke-opacity:1; stroke-linecap:round;" d="M 0.6084477461353882 NaN A 0.0047913996900352425 NaN 0 0 0 0.6036563464453529 NaN A 0.0047913996900352425 NaN 0 0 0 0.6132391458254235 NaN A 0.0047913996900352425 NaN 0 0 0 0.6036563464453529 NaN A 0.0047913996900352425 NaN 0 0 0 0.6132391458254235 NaN" />
  <path style="fill:none; stroke-width:0.005; stroke:#000000; stroke-opacity:1; stroke-linecap:round;" d="M 0.35939450767043735 NaN A 0.04284793335215414 NaN 0 0 0 0.3165465743182832 NaN A 0.04284793335215414 NaN 0 0 0 0.4022424410225915 NaN A 0.04284793335215414 NaN 0 0 0 0.3165465743182832 NaN A 0.04284793335215414 NaN 0 0 0 0.4022424410225915 NaN" />
  <path style="fill:none; stroke-width:0.005; stroke:#000000; stroke-opacity:1; stroke-linecap:round;" d="M 0.23718555497444438 NaN A 0.005212374359636552 NaN 0 0 0 0.23197318061480782 NaN A 0.005212374359636552 NaN 0 0 0 0.24239792933408094 NaN A 0.005212374359636552 NaN 0 0 0 0.23197318061480782 NaN A 0.005212374359636552 NaN 0 0 0 0.24239792933408094 NaN" />
  <path style="fill:none; stroke-width:0.005; stroke:#000000; stroke-opacity:1; stroke-linecap:round;" d="M 0.7164316840608667 NaN A 0.047614089370783264 NaN 0 0 0 0.6688175946900834 NaN A 0.047614089370783264 NaN 0 0 0 0.7640457734316499 NaN A 0.047614089370783264 NaN 0 0 0 0.6688175946900834 NaN A 0.047614089370783264 NaN 0 0 0 0.7640457734316499 NaN" />
  <path style="fill:none; stroke-width:0.005; stroke:#000000; stroke-opacity:1; stroke-linecap:round;" d="M 0.48554504955938615 NaN A 0.025748864248304172 NaN 0 0 0 0.45979618531108196 NaN A 0.025748864248304172 NaN 0 0 0 0.5112939138076903 NaN A 0.025748864248304172 NaN 0 0 0 0.45979618531108196 NaN A 0.025748864248304172 NaN 0 0 0 0.5112939138076903 NaN" />
  <path style="fill:none; stroke-width:0.005; stroke:#000000; stroke-opacity:1; stroke-linecap:round;" d="M 0.5839274456291631 NaN A 0.022387553611152133 NaN 0 0 0 0.561539892018011 NaN A 0.022387553611152133 NaN 0 0 0 0.6063149992403152 NaN A 0.022387553611152133 NaN 0 0 0 0.561539892018011 NaN A 0.022387553611152133 NaN 0 0 0 0.6063149992403152 NaN" />
  <path style="fill:none; stroke-width:0.005; stroke:#000000; stroke-opacity:1; stroke-linecap:round;" d="M 0.3029626662120032 NaN A 0.04415142733590506 NaN 0 0 0 0.25881123887609814 NaN A 0.04415142733590506 NaN 0 0 0 0.34711409354790823 NaN A 0.04415142733590506 NaN 0 0 0 0.25881123887609814 NaN A 0.04415142733590506 NaN 0 0 0 0.34711409354790823 NaN" />
  <path style="fill:none; stroke-width:0.005; stroke:#000000; stroke-opacity:1; stroke-linecap:round;" d="M 0.26077813176126274 NaN A 0.04972497142325971 NaN 0 0 0 0.21105316033800303 NaN A 0.04972497142325971 NaN 0 0 0 0.31050310318452246 NaN A 0.04972497142325971 NaN 0 0 0 0.21105316033800303 NaN A 0.04972497142325971 NaN 0 0 0 0.31050310318452246 NaN" />
  <path style="fill:none; stroke-width:0.005; stroke:#000000; stroke-opacity:1; stroke-linecap:round;" d="M 0.9187603314384823 NaN A 0.02971358796671879 NaN 0 0 0 0.8890467434717636 NaN A 0.02971358796671879 NaN 0 0 0 0.9484739194052011 NaN A 0.02971358796671879 NaN 0 0 0 0.8890467434717636 NaN A 0.02971358796671879 NaN 0 0 0 0.9484739194052011 NaN" />
  <path style="fill:none; stroke-width:0.005; stroke:#000000; stroke-opacity:1; stroke-linecap:round;" d="M 0.8625013351733157 NaN A 0.03970024368799285 NaN 0 0 0 0.8228010914853229 NaN A 0.03970024368799285 NaN 0 0 0 0.9022015788613086 NaN A 0.03970024368799285 NaN 0 0 0 0.8228010914853229 NaN A 0.03970024368799285 NaN 0 0 0 0.9022015788613086 NaN" />
  <path style="fill:none; stroke-width:0.005; stroke:#000000; stroke-opacity:1; stroke-linecap:round;" d="M 0.8948638891698548 NaN A 0.0006520919780270862 NaN 0 0 0 0.8942117971918278 NaN A 0.0006520919780270862 NaN 0 0 0 0.8955159811478819 NaN A 0.0006520919780270862 NaN 0 0 0 0.8942117971918278 NaN A 0.0006520919780270862 NaN 0 0 0 0.8955159811478819 NaN" />
  <path style="fill:none; stroke-width:0.005; stroke:#000000; stroke-opacity:1; stroke-linecap:round;" d="M 0.19594107213675938 NaN A 0.04484970186250961 NaN 0 0 0 0.15109137027424976 NaN A 0.04484970186250961 NaN 0 0 0 0.240790773999269 NaN A 0.04484970186250961 NaN 0 0 0 0.15109137027424976 NaN A 0.04484970186250961 NaN 0 0 0 0.240790773999269 NaN" />
  <path style="fill:none; stroke-width:0.005; stroke:#000000; stroke-opacity:1; stroke-linecap:round;" d="M 0.09796893073795143 NaN A 0.010795721479332228 NaN 0 0 0 0.08717320925861921 NaN A 0.010795721479332228 NaN 0 0 0 0.10876465221728365 NaN A 0.010795721479332228 NaN 0 0 0 0.08717320925861921 NaN A 0.010795721479332228 NaN 0 0 0 0.10876465221728365 NaN" />
  <path style="fill:none; stroke-width:0.005; stroke:#000000; stroke-opacity:1; stroke-linecap:round;" d="M 0.20971434231615393 NaN A 0.018038605834082955 NaN 0 0 0 0.19167573648207098 NaN A 0.018038605834082955 NaN 0 0 0 0.2277529481502369 NaN A 0.018038605834082955 NaN 0 0 0 0.19167573648207098 NaN A 0.018038605834082955 NaN 0 0 0 0.2277529481502369 NaN" />
  <path style="fill:none; stroke-width:0.005; stroke:#000000; stroke-opacity:1; stroke-linecap:round;" d="M 0.9434612654026491 NaN A 0.04770525050882468 NaN 0 0 0 0.8957560148938244 NaN A 0.04770525050882468 NaN 0 0 0 0.9911665159114738 NaN A 0.04770525050882468 NaN 0 0 0 0.8957560148938244 NaN A 0.04770525050882468 NaN 0 0 0 0.9911665159114738 NaN" />
</svg>