<svg xmlns="http://www.w3.org/2000/svg" viewBox="0 0 1 1" width="800" height="800">
  <path style="fill:none; stroke-width:0.005; stroke:#000000; stroke-opacity:1; stroke-linecap:round;" d="M 0.1 0.5 C 0.1 0.4925, 0.13 0.4925, 0.13 0.5" />
  <path style="fill:none; stroke-width:0.005; stroke:#000000; stroke-opacity:1; stroke-linecap:round;" d="M 0.13 0.5 C 0.13 0.4925, 0.16000000000000003 0.4925, 0.16 0.5" />
  <path style="fill:none; stroke-width:0.005; stroke:#000000; stroke-opacity:1; stroke-linecap:round;" d="M 0.16 0.5 C 0.15999999999999998 0.5075, 0.19 0.5075, 0.19 0.5" />
  <path style="fill:none; stroke-width:0.005; stroke:#000000; stroke-opacity:1; stroke-linecap:round;" d="M 0.19 0.5 C 0.19 0.4925, 0.22000000000000003 0.4925, 0.22 0.5" />
  <path style="fill:none; stroke-width:0.005; stroke:#000000; stroke-opacity:1; stroke-linecap:round;" d="M 0.22 0.5 C 0.21999999999999997 0.4925, 0.25 0.4925, 0.25 0.5" />
  <path style="fill:none; stroke-width:0.005; stroke:#000000; stroke-opacity:1; stroke-linecap:round;" d="M 0.25 0.5 C 0.25 0.5075000000000001, 0.28 0.5075000000000001, 0.28 0.5" />
  <path style="fill:none; stroke-width:0.005; stroke:#000000; stroke-opacity:1; stroke-linecap:round;" d="M 0.28 0.5 C 0.28 0.4925, 0.31000000000000005 0.4925, 0.31 0.5" />
  <path style="fill:none; stroke-width:0.005; stroke:#000000; stroke-opacity:1; stroke-linecap:round;" d="M 0.31 0.5 C 0.30999999999999994 0.5075, 0.33999999999999997 0.5075, 0.33999999999999997 0.5" />
  <path style="fill:none; stroke-width:0.005; stroke:#000000; stroke-opacity:1; stroke-linecap:round;" d="M 0.33999999999999997 0.5 C 0.33999999999999997 0.4925, 0.37 0.4925, 0.37 0.5" />
  <path style="fill:none; stroke-width:0.005; stroke:#000000; stroke-opacity:1; stroke-linecap:round;" d="M 0.37 0.5 C 0.37 0.4925, 0.4 0.4925, 0.4 0.5" />
  <path style="fill:none; stroke-width:0.005; stroke:#000000; stroke-opacity:1; stroke-linecap:round;" d="M 0.4 0.5 C 0.4 0.49250000000000005, 0.42999999999999994 0.49250000000000005, 0.42999999999999994 0.5" />
  <path style="fill:none; stroke-width:0.005; stroke:#000000; stroke-opacity:1; stroke-linecap:round;" d="M 0.42999999999999994 0.5 C 0.42999999999999994 0.4925, 0.45999999999999996 0.4925, 0.45999999999999996 0.5" />
  <path style="fill:none; stroke-width:0.005; stroke:#000000; stroke-opacity:1; stroke-linecap:round;" d="M 0.45999999999999996 0.5 C 0.45999999999999996 0.5075000000000001, 0.49 0.5075000000000001, 0.49 0.5" />
  <path style="fill:none; stroke-width:0.005; stroke:#000000; stroke-opacity:1; stroke-linecap:round;" d="M 0.49 0.5 C 0.49 0.4925, 0.52 0.4925, 0.52 0.5" />
  <path style="fill:none; stroke-width:0.005; stroke:#000000; stroke-opacity:1; stroke-linecap:round;" d="M 0.52 0.5 C 0.52 0.5075, 0.5499999999999998 0.5075, 0.5499999999999999 0.5" />
  <path style="fill:none; stroke-width:0.005; stroke:#000000; stroke-opacity:1; stroke-linecap:round;" d="M 0.5499999999999999 0.5 C 0.5499999999999999 0.5075000000000001, 0.58 0.5075000000000001, 0.58 0.5" />
  <path style="fill:none; stroke-width:0.005; stroke:#000000; stroke-opacity:1; stroke-linecap:round;" d="M 0.58 0.5 C 0.58 0.4925, 0.61 0.4925, 0.61 0.5" />
  <path style="fill:none; stroke-width:0.005; stroke:#000000; stroke-opacity:1; stroke-linecap:round;" d="M 0.61 0.5 C 0.61 0.4925, 0.64 0.4925, 0.64 0.5" />
  <path style="fill:none; stroke-width:0.005; stroke:#000000; stroke-opacity:1; stroke-linecap:round;" d="M 0.64 0.5 C 0.6400000000000001 0.49250000000000005, 0.6699999999999999 0.49250000000000005, 0.6699999999999999 0.5" />
  <path style="fill:none; stroke-width:0.005; stroke:#000000; stroke-opacity:1; stroke-linecap:round;" d="M 0.6699999999999999 0.5 C 0.6699999999999999 0.4925, 0.7 0.4925, 0.7 0.5" />
  <path style="fill:none; stroke-width:0.005; stroke:#000000; stroke-opacity:1; stroke-linecap:round;" d="M 0.7 0.5 C 0.7 0.4925, 0.73 0.4925, 0.73 0.5" />
  <path style="fill:none; stroke-width:0.005; stroke:#000000; stroke-opacity:1; stroke-linecap:round;" d="M 0.73 0.5 C 0.73 0.5075, 0.7599999999999998 0.5075, 0.7599999999999999 0.5" />
  <path style="fill:none; stroke-width:0.005; stroke:#000000; stroke-opacity:1; stroke-linecap:round;" d="M 0.7599999999999999 0.5 C 0.7599999999999999 0.4925, 0.7899999999999999 0.4925, 0.7899999999999999 0.5" />
  <path style="fill:none; stroke-width:0.005; stroke:#000000; stroke-opacity:1; stroke-linecap:round;" d="M 0.7899999999999999 0.5 C 0.7899999999999999 0.5075000000000001, 0.82 0.5075000000000001, 0.82 0.5" />
  <path style="fill:none; stroke-width:0.005; stroke:#000000; stroke-opacity:1; stroke-linecap:round;" d="M 0.82 0.5 C 0.82 0.5075000000000001, 0.85 0.5075000000000001, 0.85 0.5" />
  <path style="fill:none; stroke-width:0.005; stroke:#000000; stroke-opacity:1; stroke-linecap:round;" d="M 0.85 0.5 C 0.85 0.5075000000000001, 0.88 0.5075000000000001, 0.88 0.5" />
  <path style="fill:none; stroke-width:0.005; stroke:#000000; stroke-opacity:1; stroke-linecap:round;" d="M 0.88 0.5 C 0.8800000000000001 0.5075, 0.9099999999999999 0.5075, 0.9099999999999999 0.5" />
  <path style="fill:none; stroke-width:0.005; stroke:#000000; stroke-opacity:1; stroke-linecap:round;" d="M 0.9099999999999999 0.5 C 0.9099999999999999 0.4925, 0.94 0.4925, 0.94 0.5" />
  <path style="fill:none; stroke-width:0.005; stroke:#000000; stroke-opacity:1; stroke-linecap:round;" d="M 0.94 0.5 C 0.94 0.5075000000000001, 0.97 0.5075000000000001, 0.97 0.5" />
  <path style="fill:none; stroke-width:0.005; stroke:#000000; stroke-opacity:1; stroke-linecap:round;" d="M 0.97 0.5 C 0.97 0.49250000000000005, 0.9999999999999998 0.49250000000000005, 0.9999999999999999 0.5" />
</svg>