<svg xmlns="http://www.w3.org/2000/svg" viewBox="0 0 1 1" width="800" height="800">
  <path style="fill:#E05252; stroke-width:0.005; stroke:#000000; stroke-opacity:1; stroke-linecap:round; fill-opacity:0.6;" d="M 0.5 0.5 C 0.5 0.38, 0.8 0.38, 0.8 0.5 C 0.8 0.62, 0.5 0.62, 0.5 0.5 Z" />
  <path style="fill:#E09952; stroke-width:0.005; stroke:#000000; stroke-opacity:1; stroke-linecap:round; fill-opacity:0.6;" d="M 0.5 0.5 C 0.5848528137423857 0.41514718625761426, 0.79698484809835 0.6272792206135785, 0.7121320343559643 0.7121320343559643 C 0.6272792206135785 0.79698484809835, 0.41514718625761426 0.5848528137423857, 0.5 0.5 Z" />
  <path style="fill:#E0E052; stroke-width:0.005; stroke:#000000; stroke-opacity:1; stroke-linecap:round; fill-opacity:0.6;" d="M 0.5 0.5 C 0.62 0.5, 0.62 0.8, 0.5 0.8 C 0.38 0.8, 0.38 0.5, 0.5 0.5 Z" />
  <path style="fill:#99E052; stroke-width:0.005; stroke:#000000; stroke-opacity:1; stroke-linecap:round; fill-opacity:0.6;" d="M 0.5 0.5 C 0.5848528137423857 0.5848528137423857, 0.37272077938642145 0.79698484809835, 0.2878679656440358 0.7121320343559643 C 0.20301515190165 0.6272792206135785, 0.41514718625761426 0.41514718625761426, 0.5 0.5 Z" />
  <path style="fill:#52E052; stroke-width:0.005; stroke:#000000; stroke-opacity:1; stroke-linecap:round; fill-opacity:0.6;" d="M 0.5 0.5 C 0.5 0.62, 0.19999999999999998 0.62, 0.2 0.5 C 0.19999999999999998 0.38, 0.5 0.38, 0.5 0.5 Z" />
  <path style="fill:#52E099; stroke-width:0.005; stroke:#000000; stroke-opacity:1; stroke-linecap:round; fill-opacity:0.6;" d="M 0.5 0.5 C 0.4151471862576143 0.5848528137423857, 0.20301515190165004 0.37272077938642145, 0.2878679656440357 0.2878679656440358 C 0.3727207793864214 0.20301515190165, 0.5848528137423857 0.41514718625761426, 0.5 0.5 Z" />
  <path style="fill:#52E0E0; stroke-width:0.005; stroke:#000000; stroke-opacity:1; stroke-linecap:round; fill-opacity:0.6;" d="M 0.5 0.5 C 0.38 0.5, 0.38 0.19999999999999998, 0.49999999999999994 0.2 C 0.62 0.19999999999999998, 0.62 0.5, 0.5 0.5 Z" />
  <path style="fill:#5299E0; stroke-width:0.005; stroke:#000000; stroke-opacity:1; stroke-linecap:round; fill-opacity:0.6;" d="M 0.5 0.5 C 0.4151471862576143 0.4151471862576143, 0.6272792206135784 0.20301515190165004, 0.7121320343559642 0.2878679656440357 C 0.7969848480983499 0.3727207793864214, 0.5848528137423858 0.5848528137423856, 0.5 0.5 Z" />
  <path style="fill:#4D4D4D; stroke-width:0.005; stroke:#000000; stroke-opacity:1; stroke-linecap:round;" d="M 0.5 NaN A 0.025 NaN 0 0 0 0.475 NaN A 0.025 NaN 0 0 0 0.525 NaN A 0.025 NaN 0 0 0 0.475 NaN A 0.025 NaN 0 0 0 0.525 NaN" />
</svg>