<svg xmlns="http://www.w3.org/2000/svg" viewBox="0 0 1 1" width="800" height="800">
  <path style="fill:none; stroke-width:0.003; stroke:#1F7EAD; stroke-opacity:1; stroke-linecap:round;" d="M NaN NaN L NaN0.275,0.275 NaN L NaN0.275,0.275 NaN L NaN NaN L NaN NaN" />
  <gundefined>
    <path style="fill:none; stroke-width:0.003; stroke:#1F7EAD; stroke-opacity:1; stroke-linecap:round;" d="M NaN NaN L NaN0.0675,0.0675 NaN L NaN0.0675,0.0675 NaN L NaN NaN L NaN NaN" />
  </g>
  <path style="fill:#52B1E0; stroke-width:0.001; stroke:#000000; stroke-opacity:1; stroke-linecap:round; fill-opacity:0.7;" d="M 0.21875 0.16249999999999998 L 0.18744474737780475 0.1728324526738574 L 0.2022747564417433 0.20227475644174328 L 0.17283245267385744 0.18744474737780473 L 0.1625 0.21874999999999997 L 0.15216754732614257 0.18744474737780473 L 0.1227252435582567 0.20227475644174328 L 0.13755525262219526 0.1728324526738574 L 0.10625000000000001 0.16249999999999998 L 0.13755525262219526 0.15216754732614257 L 0.1227252435582567 0.12272524355825667 L 0.15216754732614257 0.13755525262219526 L 0.1625 0.10624999999999998 L 0.17283245267385744 0.13755525262219523 L 0.2022747564417433 0.12272524355825667 L 0.18744474737780475 0.15216754732614254 Z" />
  <path style="fill:#269DD9; stroke-width:0.005; stroke:#000000; stroke-opacity:1; stroke-linecap:round; fill-opacity:0.5;" d="M 0.05 NaN A 0.009000000000000001 NaN 0 0 0 0.041 NaN A 0.009000000000000001 NaN 0 0 0 0.059000000000000004 NaN A 0.009000000000000001 NaN 0 0 0 0.041 NaN A 0.009000000000000001 NaN 0 0 0 0.059000000000000004 NaN" />
  <path style="fill:#269DD9; stroke-width:0.005; stroke:#000000; stroke-opacity:1; stroke-linecap:round; fill-opacity:0.5;" d="M 0.275 NaN A 0.009000000000000001 NaN 0 0 0 0.266 NaN A 0.009000000000000001 NaN 0 0 0 0.28400000000000003 NaN A 0.009000000000000001 NaN 0 0 0 0.266 NaN A 0.009000000000000001 NaN 0 0 0 0.28400000000000003 NaN" />
  <path style="fill:#269DD9; stroke-width:0.005; stroke:#000000; stroke-opacity:1; stroke-linecap:round; fill-opacity:0.5;" d="M 0.275 NaN A 0.009000000000000001 NaN 0 0 0 0.266 NaN A 0.009000000000000001 NaN 0 0 0 0.28400000000000003 NaN A 0.009000000000000001 NaN 0 0 0 0.266 NaN A 0.009000000000000001 NaN 0 0 0 0.28400000000000003 NaN" />
  <path style="fill:#269DD9; stroke-width:0.005; stroke:#000000; stroke-opacity:1; stroke-linecap:round; fill-opacity:0.5;" d="M 0.05 NaN A 0.009000000000000001 NaN 0 0 0 0.041 NaN A 0.009000000000000001 NaN 0 0 0 0.059000000000000004 NaN A 0.009000000000000001 NaN 0 0 0 0.041 NaN A 0.009000000000000001 NaN 0 0 0 0.059000000000000004 NaN" />
  <path style="fill:none; stroke-width:0.003; stroke:#1F7EAD; stroke-opacity:1; stroke-linecap:round;" d="M NaN NaN L NaN0.275,0.5 NaN L NaN0.275,0.5 NaN L NaN NaN L NaN NaN" />
  <gundefined>
    <path style="fill:none; stroke-width:0.003; stroke:#1F7EAD; stroke-opacity:1; stroke-linecap:round;" d="M NaN NaN L NaN0.0675,0.0675 NaN L NaN0.0675,0.0675 NaN L NaN NaN L NaN NaN" />
  </g>
  <path style="fill:#52B1E0; stroke-width:0.001; stroke:#000000; stroke-opacity:1; stroke-linecap:round; fill-opacity:0.7;" d="M 0.21875 0.3875 L 0.18744474737780475 0.3978324526738574 L 0.2022747564417433 0.4272747564417433 L 0.17283245267385744 0.41244474737780473 L 0.1625 0.44375000000000003 L 0.15216754732614257 0.41244474737780473 L 0.1227252435582567 0.4272747564417433 L 0.13755525262219526 0.3978324526738574 L 0.10625000000000001 0.3875 L 0.13755525262219526 0.3771675473261426 L 0.1227252435582567 0.34772524355825674 L 0.15216754732614257 0.3625552526221953 L 0.1625 0.33125 L 0.17283245267385744 0.3625552526221953 L 0.2022747564417433 0.3477252435582567 L 0.18744474737780475 0.37716754732614255 Z" />
  <path style="fill:#269DD9; stroke-width:0.005; stroke:#000000; stroke-opacity:1; stroke-linecap:round; fill-opacity:0.5;" d="M 0.05 NaN A 0.009000000000000001 NaN 0 0 0 0.041 NaN A 0.009000000000000001 NaN 0 0 0 0.059000000000000004 NaN A 0.009000000000000001 NaN 0 0 0 0.041 NaN A 0.009000000000000001 NaN 0 0 0 0.059000000000000004 NaN" />
  <path style="fill:#269DD9; stroke-width:0.005; stroke:#000000; stroke-opacity:1; stroke-linecap:round; fill-opacity:0.5;" d="M 0.275 NaN A 0.009000000000000001 NaN 0 0 0 0.266 NaN A 0.009000000000000001 NaN 0 0 0 0.28400000000000003 NaN A 0.009000000000000001 NaN 0 0 0 0.266 NaN A 0.009000000000000001 NaN 0 0 0 0.28400000000000003 NaN" />
  <path style="fill:#269DD9; stroke-width:0.005; stroke:#000000; stroke-opacity:1; stroke-linecap:round; fill-opacity:0.5;" d="M 0.275 NaN A 0.009000000000000001 NaN 0 0 0 0.266 NaN A 0.009000000000000001 NaN 0 0 0 0.28400000000000003 NaN A 0.009000000000000001 NaN 0 0 0 0.266 NaN A 0.009000000000000001 NaN 0 0 0 0.28400000000000003 NaN" />
  <path style="fill:#269DD9; stroke-width:0.005; stroke:#000000; stroke-opacity:1; stroke-linecap:round; fill-opacity:0.5;" d="M 0.05 NaN A 0.009000000000000001 NaN 0 0 0 0.041 NaN A 0.009000000000000001 NaN 0 0 0 0.059000000000000004 NaN A 0.009000000000000001 NaN 0 0 0 0.041 NaN A 0.009000000000000001 NaN 0 0 0 0.059000000000000004 NaN" />
  <path style="fill:none; stroke-width:0.003; stroke:#1F7EAD; stroke-opacity:1; stroke-linecap:round;" d="M NaN NaN L NaN0.275,0.725 NaN L NaN0.275,0.725 NaN L NaN NaN L NaN NaN" />
  <gundefined>
    <path style="fill:none; stroke-width:0.003; stroke:#1F7EAD; stroke-opacity:1; stroke-linecap:round;" d="M NaN NaN L NaN0.0675,0.0675 NaN L NaN0.0675,0.0675 NaN L NaN NaN L NaN NaN" />
  </g>
  <path style="fill:#52B1E0; stroke-width:0.001; stroke:#000000; stroke-opacity:1; stroke-linecap:round; fill-opacity:0.7;" d="M 0.21875 0.6125 L 0.18744474737780475 0.6228324526738575 L 0.2022747564417433 0.6522747564417434 L 0.17283245267385744 0.6374447473778048 L 0.1625 0.6687500000000001 L 0.15216754732614257 0.6374447473778048 L 0.1227252435582567 0.6522747564417434 L 0.13755525262219526 0.6228324526738575 L 0.10625000000000001 0.6125 L 0.13755525262219526 0.6021675473261426 L 0.1227252435582567 0.5727252435582567 L 0.15216754732614257 0.5875552526221953 L 0.1625 0.55625 L 0.17283245267385744 0.5875552526221953 L 0.2022747564417433 0.5727252435582567 L 0.18744474737780475 0.6021675473261426 Z" />
  <path style="fill:#269DD9; stroke-width:0.005; stroke:#000000; stroke-opacity:1; stroke-linecap:round; fill-opacity:0.5;" d="M 0.05 NaN A 0.009000000000000001 NaN 0 0 0 0.041 NaN A 0.009000000000000001 NaN 0 0 0 0.059000000000000004 NaN A 0.009000000000000001 NaN 0 0 0 0.041 NaN A 0.009000000000000001 NaN 0 0 0 0.059000000000000004 NaN" />
  <path style="fill:#269DD9; stroke-width:0.005; stroke:#000000; stroke-opacity:1; stroke-linecap:round; fill-opacity:0.5;" d="M 0.275 NaN A 0.009000000000000001 NaN 0 0 0 0.266 NaN A 0.009000000000000001 NaN 0 0 0 0.28400000000000003 NaN A 0.009000000000000001 NaN 0 0 0 0.266 NaN A 0.009000000000000001 NaN 0 0 0 0.28400000000000003 NaN" />
  <path style="fill:#269DD9; stroke-width:0.005; stroke:#000000; stroke-opacity:1; stroke-linecap:round; fill-opacity:0.5;" d="M 0.275 NaN A 0.009000000000000001 NaN 0 0 0 0.266 NaN A 0.009000000000000001 NaN 0 0 0 0.28400000000000003 NaN A 0.009000000000000001 NaN 0 0 0 0.266 NaN A 0.009000000000000001 NaN 0 0 0 0.28400000000000003 NaN" />
  <path style="fill:#269DD9; stroke-width:0.005; stroke:#000000; stroke-opacity:1; stroke-linecap:round; fill-opacity:0.5;" d="M 0.05 NaN A 0.009000000000000001 NaN 0 0 0 0.041 NaN A 0.009000000000000001 NaN 0 0 0 0.059000000000000004 NaN A 0.009000000000000001 NaN 0 0 0 0.041 NaN A 0.009000000000000001 NaN 0 0 0 0.059000000000000004 NaN" />
  <path style="fill:none; stroke-width:0.003; stroke:#1F7EAD; stroke-opacity:1; stroke-linecap:round;" d="M NaN NaN L NaN0.275,0.9500000000000001 NaN L NaN0.275,0.9500000000000001 NaN L NaN NaN L NaN NaN" />
  <gundefined>
    <path style="fill:none; stroke-width:0.003; stroke:#1F7EAD; stroke-opacity:1; stroke-linecap:round;" d="M NaN NaN L NaN0.0675,0.0675 NaN L NaN0.0675,0.0675 NaN L NaN NaN L NaN NaN" />
  </g>
  <path style="fill:#52B1E0; stroke-width:0.001; stroke:#000000; stroke-opacity:1; stroke-linecap:round; fill-opacity:0.7;" d="M 0.21875 0.8375000000000001 L 0.18744474737780475 0.8478324526738575 L 0.2022747564417433 0.8772747564417435 L 0.17283245267385744 0.8624447473778049 L 0.1625 0.8937500000000002 L 0.15216754732614257 0.8624447473778049 L 0.1227252435582567 0.8772747564417435 L 0.13755525262219526 0.8478324526738575 L 0.10625000000000001 0.8375000000000001 L 0.13755525262219526 0.8271675473261427 L 0.1227252435582567 0.7977252435582568 L 0.15216754732614257 0.8125552526221954 L 0.1625 0.7812500000000001 L 0.17283245267385744 0.8125552526221954 L 0.2022747564417433 0.7977252435582568 L 0.18744474737780475 0.8271675473261427 Z" />
  <path style="fill:#269DD9; stroke-width:0.005; stroke:#000000; stroke-opacity:1; stroke-linecap:round; fill-opacity:0.5;" d="M 0.05 NaN A 0.009000000000000001 NaN 0 0 0 0.041 NaN A 0.009000000000000001 NaN 0 0 0 0.059000000000000004 NaN A 0.009000000000000001 NaN 0 0 0 0.041 NaN A 0.009000000000000001 NaN 0 0 0 0.059000000000000004 NaN" />
  <path style="fill:#269DD9; stroke-width:0.005; stroke:#000000; stroke-opacity:1; stroke-linecap:round; fill-opacity:0.5;" d="M 0.275 NaN A 0.009000000000000001 NaN 0 0 0 0.266 NaN A 0.009000000000000001 NaN 0 0 0 0.28400000000000003 NaN A 0.009000000000000001 NaN 0 0 0 0.266 NaN A 0.009000000000000001 NaN 0 0 0 0.28400000000000003 NaN" />
  <path style="fill:#269DD9; stroke-width:0.005; stroke:#000000; stroke-opacity:1; stroke-linecap:round; fill-opacity:0.5;" d="M 0.275 NaN A 0.009000000000000001 NaN 0 0 0 0.266 NaN A 0.009000000000000001 NaN 0 0 0 0.28400000000000003 NaN A 0.009000000000000001 NaN 0 0 0 0.266 NaN A 0.009000000000000001 NaN 0 0 0 0.28400000000000003 NaN" />
  <path style="fill:#269DD9; stroke-width:0.005; stroke:#000000; stroke-opacity:1; stroke-linecap:round; fill-opacity:0.5;" d="M 0.05 NaN A 0.009000000000000001 NaN 0 0 0 0.041 NaN A 0.009000000000000001 NaN 0 0 0 0.059000000000000004 NaN A 0.009000000000000001 NaN 0 0 0 0.041 NaN A 0.009000000000000001 NaN 0 0 0 0.059000000000000004 NaN" />
  <path style="fill:none; stroke-width:0.003; stroke:#1F7EAD; stroke-opacity:1; stroke-linecap:round;" d="M NaN NaN L NaN0.5,0.275 NaN L NaN0.5,0.275 NaN L NaN NaN L NaN NaN" />
  <gundefined>
    <path style="fill:none; stroke-width:0.003; stroke:#1F7EAD; stroke-opacity:1; stroke-linecap:round;" d="M NaN NaN L NaN0.0675,0.0675 NaN L NaN0.0675,0.0675 NaN L NaN NaN L NaN NaN" />
  </g>
  <path style="fill:#52B1E0; stroke-width:0.001; stroke:#000000; stroke-opacity:1; stroke-linecap:round; fill-opacity:0.7;" d="M 0.44375000000000003 0.16249999999999998 L 0.41244474737780473 0.1728324526738574 L 0.4272747564417433 0.20227475644174328 L 0.3978324526738574 0.18744474737780473 L 0.3875 0.21874999999999997 L 0.3771675473261426 0.18744474737780473 L 0.34772524355825674 0.20227475644174328 L 0.3625552526221953 0.1728324526738574 L 0.33125 0.16249999999999998 L 0.3625552526221953 0.15216754732614257 L 0.3477252435582567 0.12272524355825667 L 0.37716754732614255 0.13755525262219526 L 0.3875 0.10624999999999998 L 0.3978324526738574 0.13755525262219523 L 0.4272747564417433 0.12272524355825667 L 0.41244474737780473 0.15216754732614254 Z" />
  <path style="fill:#269DD9; stroke-width:0.005; stroke:#000000; stroke-opacity:1; stroke-linecap:round; fill-opacity:0.5;" d="M 0.275 NaN A 0.009000000000000001 NaN 0 0 0 0.266 NaN A 0.009000000000000001 NaN 0 0 0 0.28400000000000003 NaN A 0.009000000000000001 NaN 0 0 0 0.266 NaN A 0.009000000000000001 NaN 0 0 0 0.28400000000000003 NaN" />
  <path style="fill:#269DD9; stroke-width:0.005; stroke:#000000; stroke-opacity:1; stroke-linecap:round; fill-opacity:0.5;" d="M 0.5 NaN A 0.009000000000000001 NaN 0 0 0 0.491 NaN A 0.009000000000000001 NaN 0 0 0 0.509 NaN A 0.009000000000000001 NaN 0 0 0 0.491 NaN A 0.009000000000000001 NaN 0 0 0 0.509 NaN" />
  <path style="fill:#269DD9; stroke-width:0.005; stroke:#000000; stroke-opacity:1; stroke-linecap:round; fill-opacity:0.5;" d="M 0.5 NaN A 0.009000000000000001 NaN 0 0 0 0.491 NaN A 0.009000000000000001 NaN 0 0 0 0.509 NaN A 0.009000000000000001 NaN 0 0 0 0.491 NaN A 0.009000000000000001 NaN 0 0 0 0.509 NaN" />
  <path style="fill:#269DD9; stroke-width:0.005; stroke:#000000; stroke-opacity:1; stroke-linecap:round; fill-opacity:0.5;" d="M 0.275 NaN A 0.009000000000000001 NaN 0 0 0 0.266 NaN A 0.009000000000000001 NaN 0 0 0 0.28400000000000003 NaN A 0.009000000000000001 NaN 0 0 0 0.266 NaN A 0.009000000000000001 NaN 0 0 0 0.28400000000000003 NaN" />
  <path style="fill:none; stroke-width:0.003; stroke:#1F7EAD; stroke-opacity:1; stroke-linecap:round;" d="M NaN NaN L NaN0.5,0.5 NaN L NaN0.5,0.5 NaN L NaN NaN L NaN NaN" />
  <gundefined>
    <path style="fill:none; stroke-width:0.003; stroke:#1F7EAD; stroke-opacity:1; stroke-linecap:round;" d="M NaN NaN L NaN0.0675,0.0675 NaN L NaN0.0675,0.0675 NaN L NaN NaN L NaN NaN" />
  </g>
  <path style="fill:#52B1E0; stroke-width:0.001; stroke:#000000; stroke-opacity:1; stroke-linecap:round; fill-opacity:0.7;" d="M 0.44375000000000003 0.3875 L 0.41244474737780473 0.3978324526738574 L 0.4272747564417433 0.4272747564417433 L 0.3978324526738574 0.41244474737780473 L 0.3875 0.44375000000000003 L 0.3771675473261426 0.41244474737780473 L 0.34772524355825674 0.4272747564417433 L 0.3625552526221953 0.3978324526738574 L 0.33125 0.3875 L 0.3625552526221953 0.3771675473261426 L 0.3477252435582567 0.34772524355825674 L 0.37716754732614255 0.3625552526221953 L 0.3875 0.33125 L 0.3978324526738574 0.3625552526221953 L 0.4272747564417433 0.3477252435582567 L 0.41244474737780473 0.37716754732614255 Z" />
  <path style="fill:#269DD9; stroke-width:0.005; stroke:#000000; stroke-opacity:1; stroke-linecap:round; fill-opacity:0.5;" d="M 0.275 NaN A 0.009000000000000001 NaN 0 0 0 0.266 NaN A 0.009000000000000001 NaN 0 0 0 0.28400000000000003 NaN A 0.009000000000000001 NaN 0 0 0 0.266 NaN A 0.009000000000000001 NaN 0 0 0 0.28400000000000003 NaN" />
  <path style="fill:#269DD9; stroke-width:0.005; stroke:#000000; stroke-opacity:1; stroke-linecap:round; fill-opacity:0.5;" d="M 0.5 NaN A 0.009000000000000001 NaN 0 0 0 0.491 NaN A 0.009000000000000001 NaN 0 0 0 0.509 NaN A 0.009000000000000001 NaN 0 0 0 0.491 NaN A 0.009000000000000001 NaN 0 0 0 0.509 NaN" />
  <path style="fill:#269DD9; stroke-width:0.005; stroke:#000000; stroke-opacity:1; stroke-linecap:round; fill-opacity:0.5;" d="M 0.5 NaN A 0.009000000000000001 NaN 0 0 0 0.491 NaN A 0.009000000000000001 NaN 0 0 0 0.509 NaN A 0.009000000000000001 NaN 0 0 0 0.491 NaN A 0.009000000000000001 NaN 0 0 0 0.509 NaN" />
  <path style="fill:#269DD9; stroke-width:0.005; stroke:#000000; stroke-opacity:1; stroke-linecap:round; fill-opacity:0.5;" d="M 0.275 NaN A 0.009000000000000001 NaN 0 0 0 0.266 NaN A 0.009000000000000001 NaN 0 0 0 0.28400000000000003 NaN A 0.009000000000000001 NaN 0 0 0 0.266 NaN A 0.009000000000000001 NaN 0 0 0 0.28400000000000003 NaN" />
  <path style="fill:none; stroke-width:0.003; stroke:#1F7EAD; stroke-opacity:1; stroke-linecap:round;" d="M NaN NaN L NaN0.5,0.725 NaN L NaN0.5,0.725 NaN L NaN NaN L NaN NaN" />
  <gundefined>
    <path style="fill:none; stroke-width:0.003; stroke:#1F7EAD; stroke-opacity:1; stroke-linecap:round;" d="M NaN NaN L NaN0.0675,0.0675 NaN L NaN0.0675,0.0675 NaN L NaN NaN L NaN NaN" />
  </g>
  <path style="fill:#52B1E0; stroke-width:0.001; stroke:#000000; stroke-opacity:1; stroke-linecap:round; fill-opacity:0.7;" d="M 0.44375000000000003 0.6125 L 0.41244474737780473 0.6228324526738575 L 0.4272747564417433 0.6522747564417434 L 0.3978324526738574 0.6374447473778048 L 0.3875 0.6687500000000001 L 0.3771675473261426 0.6374447473778048 L 0.34772524355825674 0.6522747564417434 L 0.3625552526221953 0.6228324526738575 L 0.33125 0.6125 L 0.3625552526221953 0.6021675473261426 L 0.3477252435582567 0.5727252435582567 L 0.37716754732614255 0.5875552526221953 L 0.3875 0.55625 L 0.3978324526738574 0.5875552526221953 L 0.4272747564417433 0.5727252435582567 L 0.41244474737780473 0.6021675473261426 Z" />
  <path style="fill:#269DD9; stroke-width:0.005; stroke:#000000; stroke-opacity:1; stroke-linecap:round; fill-opacity:0.5;" d="M 0.275 NaN A 0.009000000000000001 NaN 0 0 0 0.266 NaN A 0.009000000000000001 NaN 0 0 0 0.28400000000000003 NaN A 0.009000000000000001 NaN 0 0 0 0.266 NaN A 0.009000000000000001 NaN 0 0 0 0.28400000000000003 NaN" />
  <path style="fill:#269DD9; stroke-width:0.005; stroke:#000000; stroke-opacity:1; stroke-linecap:round; fill-opacity:0.5;" d="M 0.5 NaN A 0.009000000000000001 NaN 0 0 0 0.491 NaN A 0.009000000000000001 NaN 0 0 0 0.509 NaN A 0.009000000000000001 NaN 0 0 0 0.491 NaN A 0.009000000000000001 NaN 0 0 0 0.509 NaN" />
  <path style="fill:#269DD9; stroke-width:0.005; stroke:#000000; stroke-opacity:1; stroke-linecap:round; fill-opacity:0.5;" d="M 0.5 NaN A 0.009000000000000001 NaN 0 0 0 0.491 NaN A 0.009000000000000001 NaN 0 0 0 0.509 NaN A 0.009000000000000001 NaN 0 0 0 0.491 NaN A 0.009000000000000001 NaN 0 0 0 0.509 NaN" />
  <path style="fill:#269DD9; stroke-width:0.005; stroke:#000000; stroke-opacity:1; stroke-linecap:round; fill-opacity:0.5;" d="M 0.275 NaN A 0.009000000000000001 NaN 0 0 0 0.266 NaN A 0.009000000000000001 NaN 0 0 0 0.28400000000000003 NaN A 0.009000000000000001 NaN 0 0 0 0.266 NaN A 0.009000000000000001 NaN 0 0 0 0.28400000000000003 NaN" />
  <path style="fill:none; stroke-width:0.003; stroke:#1F7EAD; stroke-opacity:1; stroke-linecap:round;" d="M NaN NaN L NaN0.5,0.9500000000000001 NaN L NaN0.5,0.9500000000000001 NaN L NaN NaN L NaN NaN" />
  <gundefined>
    <path style="fill:none; stroke-width:0.003; stroke:#1F7EAD; stroke-opacity:1; stroke-linecap:round;" d="M NaN NaN L NaN0.0675,0.0675 NaN L NaN0.0675,0.0675 NaN L NaN NaN L NaN NaN" />
  </g>
  <path style="fill:#52B1E0; stroke-width:0.001; stroke:#000000; stroke-opacity:1; stroke-linecap:round; fill-opacity:0.7;" d="M 0.44375000000000003 0.8375000000000001 L 0.41244474737780473 0.8478324526738575 L 0.4272747564417433 0.8772747564417435 L 0.3978324526738574 0.8624447473778049 L 0.3875 0.8937500000000002 L 0.3771675473261426 0.8624447473778049 L 0.34772524355825674 0.8772747564417435 L 0.3625552526221953 0.8478324526738575 L 0.33125 0.8375000000000001 L 0.3625552526221953 0.8271675473261427 L 0.3477252435582567 0.7977252435582568 L 0.37716754732614255 0.8125552526221954 L 0.3875 0.7812500000000001 L 0.3978324526738574 0.8125552526221954 L 0.4272747564417433 0.7977252435582568 L 0.41244474737780473 0.8271675473261427 Z" />
  <path style="fill:#269DD9; stroke-width:0.005; stroke:#000000; stroke-opacity:1; stroke-linecap:round; fill-opacity:0.5;" d="M 0.275 NaN A 0.009000000000000001 NaN 0 0 0 0.266 NaN A 0.009000000000000001 NaN 0 0 0 0.28400000000000003 NaN A 0.009000000000000001 NaN 0 0 0 0.266 NaN A 0.009000000000000001 NaN 0 0 0 0.28400000000000003 NaN" />
  <path style="fill:#269DD9; stroke-width:0.005; stroke:#000000; stroke-opacity:1; stroke-linecap:round; fill-opacity:0.5;" d="M 0.5 NaN A 0.009000000000000001 NaN 0 0 0 0.491 NaN A 0.009000000000000001 NaN 0 0 0 0.509 NaN A 0.009000000000000001 NaN 0 0 0 0.491 NaN A 0.009000000000000001 NaN 0 0 0 0.509 NaN" />
  <path style="fill:#269DD9; stroke-width:0.005; stroke:#000000; stroke-opacity:1; stroke-linecap:round; fill-opacity:0.5;" d="M 0.5 NaN A 0.009000000000000001 NaN 0 0 0 0.491 NaN A 0.009000000000000001 NaN 0 0 0 0.509 NaN A 0.009000000000000001 NaN 0 0 0 0.491 NaN A 0.009000000000000001 NaN 0 0 0 0.509 NaN" />
  <path style="fill:#269DD9; stroke-width:0.005; stroke:#000000; stroke-opacity:1; stroke-linecap:round; fill-opacity:0.5;" d="M 0.275 NaN A 0.009000000000000001 NaN 0 0 0 0.266 NaN A 0.009000000000000001 NaN 0 0 0 0.28400000000000003 NaN A 0.009000000000000001 NaN 0 0 0 0.266 NaN A 0.009000000000000001 NaN 0 0 0 0.28400000000000003 NaN" />
  <path style="fill:none; stroke-width:0.003; stroke:#1F7EAD; stroke-opacity:1; stroke-linecap:round;" d="M NaN NaN L NaN0.725,0.275 NaN L NaN0.725,0.275 NaN L NaN NaN L NaN NaN" />
  <gundefined>
    <path style="fill:none; stroke-width:0.003; stroke:#1F7EAD; stroke-opacity:1; stroke-linecap:round;" d="M NaN NaN L NaN0.0675,0.0675 NaN L NaN0.0675,0.0675 NaN L NaN NaN L NaN NaN" />
  </g>
  <path style="fill:#52B1E0; stroke-width:0.001; stroke:#000000; stroke-opacity:1; stroke-linecap:round; fill-opacity:0.7;" d="M 0.6687500000000001 0.16249999999999998 L 0.6374447473778048 0.1728324526738574 L 0.6522747564417434 0.20227475644174328 L 0.6228324526738575 0.18744474737780473 L 0.6125 0.21874999999999997 L 0.6021675473261426 0.18744474737780473 L 0.5727252435582567 0.20227475644174328 L 0.5875552526221953 0.1728324526738574 L 0.55625 0.16249999999999998 L 0.5875552526221953 0.15216754732614257 L 0.5727252435582567 0.12272524355825667 L 0.6021675473261426 0.13755525262219526 L 0.6125 0.10624999999999998 L 0.6228324526738575 0.13755525262219523 L 0.6522747564417434 0.12272524355825667 L 0.6374447473778048 0.15216754732614254 Z" />
  <path style="fill:#269DD9; stroke-width:0.005; stroke:#000000; stroke-opacity:1; stroke-linecap:round; fill-opacity:0.5;" d="M 0.5 NaN A 0.009000000000000001 NaN 0 0 0 0.491 NaN A 0.009000000000000001 NaN 0 0 0 0.509 NaN A 0.009000000000000001 NaN 0 0 0 0.491 NaN A 0.009000000000000001 NaN 0 0 0 0.509 NaN" />
  <path style="fill:#269DD9; stroke-width:0.005; stroke:#000000; stroke-opacity:1; stroke-linecap:round; fill-opacity:0.5;" d="M 0.725 NaN A 0.009000000000000001 NaN 0 0 0 0.716 NaN A 0.009000000000000001 NaN 0 0 0 0.734 NaN A 0.009000000000000001 NaN 0 0 0 0.716 NaN A 0.009000000000000001 NaN 0 0 0 0.734 NaN" />
  <path style="fill:#269DD9; stroke-width:0.005; stroke:#000000; stroke-opacity:1; stroke-linecap:round; fill-opacity:0.5;" d="M 0.725 NaN A 0.009000000000000001 NaN 0 0 0 0.716 NaN A 0.009000000000000001 NaN 0 0 0 0.734 NaN A 0.009000000000000001 NaN 0 0 0 0.716 NaN A 0.009000000000000001 NaN 0 0 0 0.734 NaN" />
  <path style="fill:#269DD9; stroke-width:0.005; stroke:#000000; stroke-opacity:1; stroke-linecap:round; fill-opacity:0.5;" d="M 0.5 NaN A 0.009000000000000001 NaN 0 0 0 0.491 NaN A 0.009000000000000001 NaN 0 0 0 0.509 NaN A 0.009000000000000001 NaN 0 0 0 0.491 NaN A 0.009000000000000001 NaN 0 0 0 0.509 NaN" />
  <path style="fill:none; stroke-width:0.003; stroke:#1F7EAD; stroke-opacity:1; stroke-linecap:round;" d="M NaN NaN L NaN0.725,0.5 NaN L NaN0.725,0.5 NaN L NaN NaN L NaN NaN" />
  <gundefined>
    <path style="fill:none; stroke-width:0.003; stroke:#1F7EAD; stroke-opacity:1; stroke-linecap:round;" d="M NaN NaN L NaN0.0675,0.0675 NaN L NaN0.0675,0.0675 NaN L NaN NaN L NaN NaN" />
  </g>
  <path style="fill:#52B1E0; stroke-width:0.001; stroke:#000000; stroke-opacity:1; stroke-linecap:round; fill-opacity:0.7;" d="M 0.6687500000000001 0.3875 L 0.6374447473778048 0.3978324526738574 L 0.6522747564417434 0.4272747564417433 L 0.6228324526738575 0.41244474737780473 L 0.6125 0.44375000000000003 L 0.6021675473261426 0.41244474737780473 L 0.5727252435582567 0.4272747564417433 L 0.5875552526221953 0.3978324526738574 L 0.55625 0.3875 L 0.5875552526221953 0.3771675473261426 L 0.5727252435582567 0.34772524355825674 L 0.6021675473261426 0.3625552526221953 L 0.6125 0.33125 L 0.6228324526738575 0.3625552526221953 L 0.6522747564417434 0.3477252435582567 L 0.6374447473778048 0.37716754732614255 Z" />
  <path style="fill:#269DD9; stroke-width:0.005; stroke:#000000; stroke-opacity:1; stroke-linecap:round; fill-opacity:0.5;" d="M 0.5 NaN A 0.009000000000000001 NaN 0 0 0 0.491 NaN A 0.009000000000000001 NaN 0 0 0 0.509 NaN A 0.009000000000000001 NaN 0 0 0 0.491 NaN A 0.009000000000000001 NaN 0 0 0 0.509 NaN" />
  <path style="fill:#269DD9; stroke-width:0.005; stroke:#000000; stroke-opacity:1; stroke-linecap:round; fill-opacity:0.5;" d="M 0.725 NaN A 0.009000000000000001 NaN 0 0 0 0.716 NaN A 0.009000000000000001 NaN 0 0 0 0.734 NaN A 0.009000000000000001 NaN 0 0 0 0.716 NaN A 0.009000000000000001 NaN 0 0 0 0.734 NaN" />
  <path style="fill:#269DD9; stroke-width:0.005; stroke:#000000; stroke-opacity:1; stroke-linecap:round; fill-opacity:0.5;" d="M 0.725 NaN A 0.009000000000000001 NaN 0 0 0 0.716 NaN A 0.009000000000000001 NaN 0 0 0 0.734 NaN A 0.009000000000000001 NaN 0 0 0 0.716 NaN A 0.009000000000000001 NaN 0 0 0 0.734 NaN" />
  <path style="fill:#269DD9; stroke-width:0.005; stroke:#000000; stroke-opacity:1; stroke-linecap:round; fill-opacity:0.5;" d="M 0.5 NaN A 0.009000000000000001 NaN 0 0 0 0.491 NaN A 0.009000000000000001 NaN 0 0 0 0.509 NaN A 0.009000000000000001 NaN 0 0 0 0.491 NaN A 0.009000000000000001 NaN 0 0 0 0.509 NaN" />
  <path style="fill:none; stroke-width:0.003; stroke:#1F7EAD; stroke-opacity:1; stroke-linecap:round;" d="M NaN NaN L NaN0.725,0.725 NaN L NaN0.725,0.725 NaN L NaN NaN L NaN NaN" />
  <gundefined>
    <path style="fill:none; stroke-width:0.003; stroke:#1F7EAD; stroke-opacity:1; stroke-linecap:round;" d="M NaN NaN L NaN0.0675,0.0675 NaN L NaN0.0675,0.0675 NaN L NaN NaN L NaN NaN" />
  </g>
  <path style="fill:#52B1E0; stroke-width:0.001; stroke:#000000; stroke-opacity:1; stroke-linecap:round; fill-opacity:0.7;" d="M 0.6687500000000001 0.6125 L 0.6374447473778048 0.6228324526738575 L 0.6522747564417434 0.6522747564417434 L 0.6228324526738575 0.6374447473778048 L 0.6125 0.6687500000000001 L 0.6021675473261426 0.6374447473778048 L 0.5727252435582567 0.6522747564417434 L 0.5875552526221953 0.6228324526738575 L 0.55625 0.6125 L 0.5875552526221953 0.6021675473261426 L 0.5727252435582567 0.5727252435582567 L 0.6021675473261426 0.5875552526221953 L 0.6125 0.55625 L 0.6228324526738575 0.5875552526221953 L 0.6522747564417434 0.5727252435582567 L 0.6374447473778048 0.6021675473261426 Z" />
  <path style="fill:#269DD9; stroke-width:0.005; stroke:#000000; stroke-opacity:1; stroke-linecap:round; fill-opacity:0.5;" d="M 0.5 NaN A 0.009000000000000001 NaN 0 0 0 0.491 NaN A 0.009000000000000001 NaN 0 0 0 0.509 NaN A 0.009000000000000001 NaN 0 0 0 0.491 NaN A 0.009000000000000001 NaN 0 0 0 0.509 NaN" />
  <path style="fill:#269DD9; stroke-width:0.005; stroke:#000000; stroke-opacity:1; stroke-linecap:round; fill-opacity:0.5;" d="M 0.725 NaN A 0.009000000000000001 NaN 0 0 0 0.716 NaN A 0.009000000000000001 NaN 0 0 0 0.734 NaN A 0.009000000000000001 NaN 0 0 0 0.716 NaN A 0.009000000000000001 NaN 0 0 0 0.734 NaN" />
  <path style="fill:#269DD9; stroke-width:0.005; stroke:#000000; stroke-opacity:1; stroke-linecap:round; fill-opacity:0.5;" d="M 0.725 NaN A 0.009000000000000001 NaN 0 0 0 0.716 NaN A 0.009000000000000001 NaN 0 0 0 0.734 NaN A 0.009000000000000001 NaN 0 0 0 0.716 NaN A 0.009000000000000001 NaN 0 0 0 0.734 NaN" />
  <path style="fill:#269DD9; stroke-width:0.005; stroke:#000000; stroke-opacity:1; stroke-linecap:round; fill-opacity:0.5;" d="M 0.5 NaN A 0.009000000000000001 NaN 0 0 0 0.491 NaN A 0.009000000000000001 NaN 0 0 0 0.509 NaN A 0.009000000000000001 NaN 0 0 0 0.491 NaN A 0.009000000000000001 NaN 0 0 0 0.509 NaN" />
  <path style="fill:none; stroke-width:0.003; stroke:#1F7EAD; stroke-opacity:1; stroke-linecap:round;" d="M NaN NaN L NaN0.725,0.9500000000000001 NaN L NaN0.725,0.9500000000000001 NaN L NaN NaN L NaN NaN" />
  <gundefined>
    <path style="fill:none; stroke-width:0.003; stroke:#1F7EAD; stroke-opacity:1; stroke-linecap:round;" d="M NaN NaN L NaN0.0675,0.0675 NaN L NaN0.0675,0.0675 NaN L NaN NaN L NaN NaN" />
  </g>
  <path style="fill:#52B1E0; stroke-width:0.001; stroke:#000000; stroke-opacity:1; stroke-linecap:round; fill-opacity:0.7;" d="M 0.6687500000000001 0.8375000000000001 L 0.6374447473778048 0.8478324526738575 L 0.6522747564417434 0.8772747564417435 L 0.6228324526738575 0.8624447473778049 L 0.6125 0.8937500000000002 L 0.6021675473261426 0.8624447473778049 L 0.5727252435582567 0.8772747564417435 L 0.5875552526221953 0.8478324526738575 L 0.55625 0.8375000000000001 L 0.5875552526221953 0.8271675473261427 L 0.5727252435582567 0.7977252435582568 L 0.6021675473261426 0.8125552526221954 L 0.6125 0.7812500000000001 L 0.6228324526738575 0.8125552526221954 L 0.6522747564417434 0.7977252435582568 L 0.6374447473778048 0.8271675473261427 Z" />
  <path style="fill:#269DD9; stroke-width:0.005; stroke:#000000; stroke-opacity:1; stroke-linecap:round; fill-opacity:0.5;" d="M 0.5 NaN A 0.009000000000000001 NaN 0 0 0 0.491 NaN A 0.009000000000000001 NaN 0 0 0 0.509 NaN A 0.009000000000000001 NaN 0 0 0 0.491 NaN A 0.009000000000000001 NaN 0 0 0 0.509 NaN" />
  <path style="fill:#269DD9; stroke-width:0.005; stroke:#000000; stroke-opacity:1; stroke-linecap:round; fill-opacity:0.5;" d="M 0.725 NaN A 0.009000000000000001 NaN 0 0 0 0.716 NaN A 0.009000000000000001 NaN 0 0 0 0.734 NaN A 0.009000000000000001 NaN 0 0 0 0.716 NaN A 0.009000000000000001 NaN 0 0 0 0.734 NaN" />
  <path style="fill:#269DD9; stroke-width:0.005; stroke:#000000; stroke-opacity:1; stroke-linecap:round; fill-opacity:0.5;" d="M 0.725 NaN A 0.009000000000000001 NaN 0 0 0 0.716 NaN A 0.009000000000000001 NaN 0 0 0 0.734 NaN A 0.009000000000000001 NaN 0 0 0 0.716 NaN A 0.009000000000000001 NaN 0 0 0 0.734 NaN" />
  <path style="fill:#269DD9; stroke-width:0.005; stroke:#000000; stroke-opacity:1; stroke-linecap:round; fill-opacity:0.5;" d="M 0.5 NaN A 0.009000000000000001 NaN 0 0 0 0.491 NaN A 0.009000000000000001 NaN 0 0 0 0.509 NaN A 0.009000000000000001 NaN 0 0 0 0.491 NaN A 0.009000000000000001 NaN 0 0 0 0.509 NaN" />
  <path style="fill:none; stroke-width:0.003; stroke:#1F7EAD; stroke-opacity:1; stroke-linecap:round;" d="M NaN NaN L NaN0.9500000000000001,0.275 NaN L NaN0.9500000000000001,0.275 NaN L NaN NaN L NaN NaN" />
  <gundefined>
    <path style="fill:none; stroke-width:0.003; stroke:#1F7EAD; stroke-opacity:1; stroke-linecap:round;" d="M NaN NaN L NaN0.0675,0.0675 NaN L NaN0.0675,0.0675 NaN L NaN NaN L NaN NaN" />
  </g>
  <path style="fill:#52B1E0; stroke-width:0.001; stroke:#000000; stroke-opacity:1; stroke-linecap:round; fill-opacity:0.7;" d="M 0.8937500000000002 0.16249999999999998 L 0.8624447473778049 0.1728324526738574 L 0.8772747564417435 0.20227475644174328 L 0.8478324526738575 0.18744474737780473 L 0.8375000000000001 0.21874999999999997 L 0.8271675473261427 0.18744474737780473 L 0.7977252435582568 0.20227475644174328 L 0.8125552526221954 0.1728324526738574 L 0.7812500000000001 0.16249999999999998 L 0.8125552526221954 0.15216754732614257 L 0.7977252435582568 0.12272524355825667 L 0.8271675473261427 0.13755525262219526 L 0.8375000000000001 0.10624999999999998 L 0.8478324526738575 0.13755525262219523 L 0.8772747564417435 0.12272524355825667 L 0.8624447473778049 0.15216754732614254 Z" />
  <path style="fill:#269DD9; stroke-width:0.005; stroke:#000000; stroke-opacity:1; stroke-linecap:round; fill-opacity:0.5;" d="M 0.7250000000000001 NaN A 0.009000000000000001 NaN 0 0 0 0.7160000000000001 NaN A 0.009000000000000001 NaN 0 0 0 0.7340000000000001 NaN A 0.009000000000000001 NaN 0 0 0 0.7160000000000001 NaN A 0.009000000000000001 NaN 0 0 0 0.7340000000000001 NaN" />
  <path style="fill:#269DD9; stroke-width:0.005; stroke:#000000; stroke-opacity:1; stroke-linecap:round; fill-opacity:0.5;" d="M 0.9500000000000001 NaN A 0.009000000000000001 NaN 0 0 0 0.9410000000000001 NaN A 0.009000000000000001 NaN 0 0 0 0.9590000000000001 NaN A 0.009000000000000001 NaN 0 0 0 0.9410000000000001 NaN A 0.009000000000000001 NaN 0 0 0 0.9590000000000001 NaN" />
  <path style="fill:#269DD9; stroke-width:0.005; stroke:#000000; stroke-opacity:1; stroke-linecap:round; fill-opacity:0.5;" d="M 0.9500000000000001 NaN A 0.009000000000000001 NaN 0 0 0 0.9410000000000001 NaN A 0.009000000000000001 NaN 0 0 0 0.9590000000000001 NaN A 0.009000000000000001 NaN 0 0 0 0.9410000000000001 NaN A 0.009000000000000001 NaN 0 0 0 0.9590000000000001 NaN" />
  <path style="fill:#269DD9; stroke-width:0.005; stroke:#000000; stroke-opacity:1; stroke-linecap:round; fill-opacity:0.5;" d="M 0.7250000000000001 NaN A 0.009000000000000001 NaN 0 0 0 0.7160000000000001 NaN A 0.009000000000000001 NaN 0 0 0 0.7340000000000001 NaN A 0.009000000000000001 NaN 0 0 0 0.7160000000000001 NaN A 0.009000000000000001 NaN 0 0 0 0.7340000000000001 NaN" />
  <path style="fill:none; stroke-width:0.003; stroke:#1F7EAD; stroke-opacity:1; stroke-linecap:round;" d="M NaN NaN L NaN0.9500000000000001,0.5 NaN L NaN0.9500000000000001,0.5 NaN L NaN NaN L NaN NaN" />
  <gundefined>
    <path style="fill:none; stroke-width:0.003; stroke:#1F7EAD; stroke-opacity:1; stroke-linecap:round;" d="M NaN NaN L NaN0.0675,0.0675 NaN L NaN0.0675,0.0675 NaN L NaN NaN L NaN NaN" />
  </g>
  <path style="fill:#52B1E0; stroke-width:0.001; stroke:#000000; stroke-opacity:1; stroke-linecap:round; fill-opacity:0.7;" d="M 0.8937500000000002 0.3875 L 0.8624447473778049 0.3978324526738574 L 0.8772747564417435 0.4272747564417433 L 0.8478324526738575 0.41244474737780473 L 0.8375000000000001 0.44375000000000003 L 0.8271675473261427 0.41244474737780473 L 0.7977252435582568 0.4272747564417433 L 0.8125552526221954 0.3978324526738574 L 0.7812500000000001 0.3875 L 0.8125552526221954 0.3771675473261426 L 0.7977252435582568 0.34772524355825674 L 0.8271675473261427 0.3625552526221953 L 0.8375000000000001 0.33125 L 0.8478324526738575 0.3625552526221953 L 0.8772747564417435 0.3477252435582567 L 0.8624447473778049 0.37716754732614255 Z" />
  <path style="fill:#269DD9; stroke-width:0.005; stroke:#000000; stroke-opacity:1; stroke-linecap:round; fill-opacity:0.5;" d="M 0.7250000000000001 NaN A 0.009000000000000001 NaN 0 0 0 0.7160000000000001 NaN A 0.009000000000000001 NaN 0 0 0 0.7340000000000001 NaN A 0.009000000000000001 NaN 0 0 0 0.7160000000000001 NaN A 0.009000000000000001 NaN 0 0 0 0.7340000000000001 NaN" />
  <path style="fill:#269DD9; stroke-width:0.005; stroke:#000000; stroke-opacity:1; stroke-linecap:round; fill-opacity:0.5;" d="M 0.9500000000000001 NaN A 0.009000000000000001 NaN 0 0 0 0.9410000000000001 NaN A 0.009000000000000001 NaN 0 0 0 0.9590000000000001 NaN A 0.009000000000000001 NaN 0 0 0 0.9410000000000001 NaN A 0.009000000000000001 NaN 0 0 0 0.9590000000000001 NaN" />
  <path style="fill:#269DD9; stroke-width:0.005; stroke:#000000; stroke-opacity:1; stroke-linecap:round; fill-opacity:0.5;" d="M 0.9500000000000001 NaN A 0.009000000000000001 NaN 0 0 0 0.9410000000000001 NaN A 0.009000000000000001 NaN 0 0 0 0.9590000000000001 NaN A 0.009000000000000001 NaN 0 0 0 0.9410000000000001 NaN A 0.009000000000000001 NaN 0 0 0 0.9590000000000001 NaN" />
  <path style="fill:#269DD9; stroke-width:0.005; stroke:#000000; stroke-opacity:1; stroke-linecap:round; fill-opacity:0.5;" d="M 0.7250000000000001 NaN A 0.009000000000000001 NaN 0 0 0 0.7160000000000001 NaN A 0.009000000000000001 NaN 0 0 0 0.7340000000000001 NaN A 0.009000000000000001 NaN 0 0 0 0.7160000000000001 NaN A 0.009000000000000001 NaN 0 0 0 0.7340000000000001 NaN" />
  <path style="fill:none; stroke-width:0.003; stroke:#1F7EAD; stroke-opacity:1; stroke-linecap:round;" d="M NaN NaN L NaN0.9500000000000001,0.725 NaN L NaN0.9500000000000001,0.725 NaN L NaN NaN L NaN NaN" />
  <gundefined>
    <path style="fill:none; stroke-width:0.003; stroke:#1F7EAD; stroke-opacity:1; stroke-linecap:round;" d="M NaN NaN L NaN0.0675,0.0675 NaN L NaN0.0675,0.0675 NaN L NaN NaN L NaN NaN" />
  </g>
  <path style="fill:#52B1E0; stroke-width:0.001; stroke:#000000; stroke-opacity:1; stroke-linecap:round; fill-opacity:0.7;" d="M 0.8937500000000002 0.6125 L 0.8624447473778049 0.6228324526738575 L 0.8772747564417435 0.6522747564417434 L 0.8478324526738575 0.6374447473778048 L 0.8375000000000001 0.6687500000000001 L 0.8271675473261427 0.6374447473778048 L 0.7977252435582568 0.6522747564417434 L 0.8125552526221954 0.6228324526738575 L 0.7812500000000001 0.6125 L 0.8125552526221954 0.6021675473261426 L 0.7977252435582568 0.5727252435582567 L 0.8271675473261427 0.5875552526221953 L 0.8375000000000001 0.55625 L 0.8478324526738575 0.5875552526221953 L 0.8772747564417435 0.5727252435582567 L 0.8624447473778049 0.6021675473261426 Z" />
  <path style="fill:#269DD9; stroke-width:0.005; stroke:#000000; stroke-opacity:1; stroke-linecap:round; fill-opacity:0.5;" d="M 0.7250000000000001 NaN A 0.009000000000000001 NaN 0 0 0 0.7160000000000001 NaN A 0.009000000000000001 NaN 0 0 0 0.7340000000000001 NaN A 0.009000000000000001 NaN 0 0 0 0.7160000000000001 NaN A 0.009000000000000001 NaN 0 0 0 0.7340000000000001 NaN" />
  <path style="fill:#269DD9; stroke-width:0.005; stroke:#000000; stroke-opacity:1; stroke-linecap:round; fill-opacity:0.5;" d="M 0.9500000000000001 NaN A 0.009000000000000001 NaN 0 0 0 0.9410000000000001 NaN A 0.009000000000000001 NaN 0 0 0 0.9590000000000001 NaN A 0.009000000000000001 NaN 0 0 0 0.9410000000000001 NaN A 0.009000000000000001 NaN 0 0 0 0.9590000000000001 NaN" />
  <path style="fill:#269DD9; stroke-width:0.005; stroke:#000000; stroke-opacity:1; stroke-linecap:round; fill-opacity:0.5;" d="M 0.9500000000000001 NaN A 0.009000000000000001 NaN 0 0 0 0.9410000000000001 NaN A 0.009000000000000001 NaN 0 0 0 0.9590000000000001 NaN A 0.009000000000000001 NaN 0 0 0 0.9410000000000001 NaN A 0.009000000000000001 NaN 0 0 0 0.9590000000000001 NaN" />
  <path style="fill:#269DD9; stroke-width:0.005; stroke:#000000; stroke-opacity:1; stroke-linecap:round; fill-opacity:0.5;" d="M 0.7250000000000001 NaN A 0.009000000000000001 NaN 0 0 0 0.7160000000000001 NaN A 0.009000000000000001 NaN 0 0 0 0.7340000000000001 NaN A 0.009000000000000001 NaN 0 0 0 0.7160000000000001 NaN A 0.009000000000000001 NaN 0 0 0 0.7340000000000001 NaN" />
  <path style="fill:none; stroke-width:0.003; stroke:#1F7EAD; stroke-opacity:1; stroke-linecap:round;" d="M NaN NaN L NaN0.9500000000000001,0.9500000000000001 NaN L NaN0.9500000000000001,0.9500000000000001 NaN L NaN NaN L NaN NaN" />
  <gundefined>
    <path style="fill:none; stroke-width:0.003; stroke:#1F7EAD; stroke-opacity:1; stroke-linecap:round;" d="M NaN NaN L NaN0.0675,0.0675 NaN L NaN0.0675,0.0675 NaN L NaN NaN L NaN NaN" />
  </g>
  <path style="fill:#52B1E0; stroke-width:0.001; stroke:#000000; stroke-opacity:1; stroke-linecap:round; fill-opacity:0.7;" d="M 0.8937500000000002 0.8375000000000001 L 0.8624447473778049 0.8478324526738575 L 0.8772747564417435 0.8772747564417435 L 0.8478324526738575 0.8624447473778049 L 0.8375000000000001 0.8937500000000002 L 0.8271675473261427 0.8624447473778049 L 0.7977252435582568 0.8772747564417435 L 0.8125552526221954 0.8478324526738575 L 0.7812500000000001 0.8375000000000001 L 0.8125552526221954 0.8271675473261427 L 0.7977252435582568 0.7977252435582568 L 0.8271675473261427 0.8125552526221954 L 0.8375000000000001 0.7812500000000001 L 0.8478324526738575 0.8125552526221954 L 0.8772747564417435 0.7977252435582568 L 0.8624447473778049 0.8271675473261427 Z" />
  <path style="fill:#269DD9; stroke-width:0.005; stroke:#000000; stroke-opacity:1; stroke-linecap:round; fill-opacity:0.5;" d="M 0.7250000000000001 NaN A 0.009000000000000001 NaN 0 0 0 0.7160000000000001 NaN A 0.009000000000000001 NaN 0 0 0 0.7340000000000001 NaN A 0.009000000000000001 NaN 0 0 0 0.7160000000000001 NaN A 0.009000000000000001 NaN 0 0 0 0.7340000000000001 NaN" />
  <path style="fill:#269DD9; stroke-width:0.005; stroke:#000000; stroke-opacity:1; stroke-linecap:round; fill-opacity:0.5;" d="M 0.9500000000000001 NaN A 0.009000000000000001 NaN 0 0 0 0.9410000000000001 NaN A 0.009000000000000001 NaN 0 0 0 0.9590000000000001 NaN A 0.009000000000000001 NaN 0 0 0 0.9410000000000001 NaN A 0.009000000000000001 NaN 0 0 0 0.9590000000000001 NaN" />
  <path style="fill:#269DD9; stroke-width:0.005; stroke:#000000; stroke-opacity:1; stroke-linecap:round; fill-opacity:0.5;" d="M 0.9500000000000001 NaN A 0.009000000000000001 NaN 0 0 0 0.9410000000000001 NaN A 0.009000000000000001 NaN 0 0 0 0.9590000000000001 NaN A 0.009000000000000001 NaN 0 0 0 0.9410000000000001 NaN A 0.009000000000000001 NaN 0 0 0 0.9590000000000001 NaN" />
  <path style="fill:#269DD9; stroke-width:0.005; stroke:#000000; stroke-opacity:1; stroke-linecap:round; fill-opacity:0.5;" d="M 0.7250000000000001 NaN A 0.009000000000000001 NaN 0 0 0 0.7160000000000001 NaN A 0.009000000000000001 NaN 0 0 0 0.7340000000000001 NaN A 0.009000000000000001 NaN 0 0 0 0.7160000000000001 NaN A 0.009000000000000001 NaN 0 0 0 0.7340000000000001 NaN" />
</svg>