<svg xmlns="http://www.w3.org/2000/svg" viewBox="0 0 1 1" width="800" height="800">
  <path style="fill:#172F5E; stroke-width:0.005; stroke:#000000; stroke-opacity:1; stroke-linecap:round;" d="M NaN NaN L NaN0.14,0.14000000000000004 NaN L NaN0.14,0.14000000000000004 NaN L NaN NaN L NaN NaN" />
  <path style="fill:#1A3469; stroke-width:0.005; stroke:#000000; stroke-opacity:1; stroke-linecap:round;" d="M NaN NaN L NaN0.14,0.23000000000000004 NaN L NaN0.14,0.23000000000000004 NaN L NaN NaN L NaN NaN" />
  <path style="fill:#1D3A74; stroke-width:0.005; stroke:#000000; stroke-opacity:1; stroke-linecap:round;" d="M NaN NaN L NaN0.14,0.32000000000000006 NaN L NaN0.14,0.32000000000000006 NaN L NaN NaN L NaN NaN" />
  <path style="fill:#203F7F; stroke-width:0.005; stroke:#000000; stroke-opacity:1; stroke-linecap:round;" d="M NaN NaN L NaN0.14,0.41000000000000003 NaN L NaN0.14,0.41000000000000003 NaN L NaN NaN L NaN NaN" />
  <path style="fill:#22458A; stroke-width:0.005; stroke:#000000; stroke-opacity:1; stroke-linecap:round;" d="M NaN NaN L NaN0.14,0.5 NaN L NaN0.14,0.5 NaN L NaN NaN L NaN NaN" />
  <path style="fill:#254A95; stroke-width:0.005; stroke:#000000; stroke-opacity:1; stroke-linecap:round;" d="M NaN NaN L NaN0.14,0.59 NaN L NaN0.14,0.59 NaN L NaN NaN L NaN NaN" />
  <path style="fill:#2850A0; stroke-width:0.005; stroke:#000000; stroke-opacity:1; stroke-linecap:round;" d="M NaN NaN L NaN0.14,0.68 NaN L NaN0.14,0.68 NaN L NaN NaN L NaN NaN" />
  <path style="fill:#2B55AB; stroke-width:0.005; stroke:#000000; stroke-opacity:1; stroke-linecap:round;" d="M NaN NaN L NaN0.14,0.77 NaN L NaN0.14,0.77 NaN L NaN NaN L NaN NaN" />
  <path style="fill:#2D5BB6; stroke-width:0.005; stroke:#000000; stroke-opacity:1; stroke-linecap:round;" d="M NaN NaN L NaN0.14,0.86 NaN L NaN0.14,0.86 NaN L NaN NaN L NaN NaN" />
  <path style="fill:#3060C1; stroke-width:0.005; stroke:#000000; stroke-opacity:1; stroke-linecap:round;" d="M NaN NaN L NaN0.14,0.95 NaN L NaN0.14,0.95 NaN L NaN NaN L NaN NaN" />
  <path style="fill:#1A3469; stroke-width:0.005; stroke:#000000; stroke-opacity:1; stroke-linecap:round;" d="M NaN NaN L NaN0.23,0.14000000000000004 NaN L NaN0.23,0.14000000000000004 NaN L NaN NaN L NaN NaN" />
  <path style="fill:#1D3A74; stroke-width:0.005; stroke:#000000; stroke-opacity:1; stroke-linecap:round;" d="M NaN NaN L NaN0.23,0.23000000000000004 NaN L NaN0.23,0.23000000000000004 NaN L NaN NaN L NaN NaN" />
  <path style="fill:#203F7F; stroke-width:0.005; stroke:#000000; stroke-opacity:1; stroke-linecap:round;" d="M NaN NaN L NaN0.23,0.32000000000000006 NaN L NaN0.23,0.32000000000000006 NaN L NaN NaN L NaN NaN" />
  <path style="fill:#22458A; stroke-width:0.005; stroke:#000000; stroke-opacity:1; stroke-linecap:round;" d="M NaN NaN L NaN0.23,0.41000000000000003 NaN L NaN0.23,0.41000000000000003 NaN L NaN NaN L NaN NaN" />
  <path style="fill:#254A95; stroke-width:0.005; stroke:#000000; stroke-opacity:1; stroke-linecap:round;" d="M NaN NaN L NaN0.23,0.5 NaN L NaN0.23,0.5 NaN L NaN NaN L NaN NaN" />
  <path style="fill:#2850A0; stroke-width:0.005; stroke:#000000; stroke-opacity:1; stroke-linecap:round;" d="M NaN NaN L NaN0.23,0.59 NaN L NaN0.23,0.59 NaN L NaN NaN L NaN NaN" />
  <path style="fill:#2B55AB; stroke-width:0.005; stroke:#000000; stroke-opacity:1; stroke-linecap:round;" d="M NaN NaN L NaN0.23,0.68 NaN L NaN0.23,0.68 NaN L NaN NaN L NaN NaN" />
  <path style="fill:#2D5BB6; stroke-width:0.005; stroke:#000000; stroke-opacity:1; stroke-linecap:round;" d="M NaN NaN L NaN0.23,0.77 NaN L NaN0.23,0.77 NaN L NaN NaN L NaN NaN" />
  <path style="fill:#3060C1; stroke-width:0.005; stroke:#000000; stroke-opacity:1; stroke-linecap:round;" d="M NaN NaN L NaN0.23,0.86 NaN L NaN0.23,0.86 NaN L NaN NaN L NaN NaN" />
  <path style="fill:#3366CC; stroke-width:0.005; stroke:#000000; stroke-opacity:1; stroke-linecap:round;" d="M NaN NaN L NaN0.23,0.95 NaN L NaN0.23,0.95 NaN L NaN NaN L NaN NaN" />
  <path style="fill:#1D3A74; stroke-width:0.005; stroke:#000000; stroke-opacity:1; stroke-linecap:round;" d="M NaN NaN L NaN0.31999999999999995,0.14000000000000004 NaN L NaN0.31999999999999995,0.14000000000000004 NaN L NaN NaN L NaN NaN" />
  <path style="fill:#203F7F; stroke-width:0.005; stroke:#000000; stroke-opacity:1; stroke-linecap:round;" d="M NaN NaN L NaN0.31999999999999995,0.23000000000000004 NaN L NaN0.31999999999999995,0.23000000000000004 NaN L NaN NaN L NaN NaN" />
  <path style="fill:#22458A; stroke-width:0.005; stroke:#000000; stroke-opacity:1; stroke-linecap:round;" d="M NaN NaN L NaN0.31999999999999995,0.32000000000000006 NaN L NaN0.31999999999999995,0.32000000000000006 NaN L NaN NaN L NaN NaN" />
  <path style="fill:#254A95; stroke-width:0.005; stroke:#000000; stroke-opacity:1; stroke-linecap:round;" d="M NaN NaN L NaN0.31999999999999995,0.41000000000000003 NaN L NaN0.31999999999999995,0.41000000000000003 NaN L NaN NaN L NaN NaN" />
  <path style="fill:#2850A0; stroke-width:0.005; stroke:#000000; stroke-opacity:1; stroke-linecap:round;" d="M NaN NaN L NaN0.31999999999999995,0.5 NaN L NaN0.31999999999999995,0.5 NaN L NaN NaN L NaN NaN" />
  <path style="fill:#2B55AB; stroke-width:0.005; stroke:#000000; stroke-opacity:1; stroke-linecap:round;" d="M NaN NaN L NaN0.31999999999999995,0.59 NaN L NaN0.31999999999999995,0.59 NaN L NaN NaN L NaN NaN" />
  <path style="fill:#2D5BB6; stroke-width:0.005; stroke:#000000; stroke-opacity:1; stroke-linecap:round;" d="M NaN NaN L NaN0.31999999999999995,0.68 NaN L NaN0.31999999999999995,0.68 NaN L NaN NaN L NaN NaN" />
  <path style="fill:#3060C1; stroke-width:0.005; stroke:#000000; stroke-opacity:1; stroke-linecap:round;" d="M NaN NaN L NaN0.31999999999999995,0.77 NaN L NaN0.31999999999999995,0.77 NaN L NaN NaN L NaN NaN" />
  <path style="fill:#3366CC; stroke-width:0.005; stroke:#000000; stroke-opacity:1; stroke-linecap:round;" d="M NaN NaN L NaN0.31999999999999995,0.86 NaN L NaN0.31999999999999995,0.86 NaN L NaN NaN L NaN NaN" />
  <path style="fill:#3E6ECF; stroke-width:0.005; stroke:#000000; stroke-opacity:1; stroke-linecap:round;" d="M NaN NaN L NaN0.31999999999999995,0.95 NaN L NaN0.31999999999999995,0.95 NaN L NaN NaN L NaN NaN" />
  <path style="fill:#203F7F; stroke-width:0.005; stroke:#000000; stroke-opacity:1; stroke-linecap:round;" d="M NaN NaN L NaN0.41000000000000003,0.14000000000000004 NaN L NaN0.41000000000000003,0.14000000000000004 NaN L NaN NaN L NaN NaN" />
  <path style="fill:#22458A; stroke-width:0.005; stroke:#000000; stroke-opacity:1; stroke-linecap:round;" d="M NaN NaN L NaN0.41000000000000003,0.23000000000000004 NaN L NaN0.41000000000000003,0.23000000000000004 NaN L NaN NaN L NaN NaN" />
  <path style="fill:#254A95; stroke-width:0.005; stroke:#000000; stroke-opacity:1; stroke-linecap:round;" d="M NaN NaN L NaN0.41000000000000003,0.32000000000000006 NaN L NaN0.41000000000000003,0.32000000000000006 NaN L NaN NaN L NaN NaN" />
  <path style="fill:#2850A0; stroke-width:0.005; stroke:#000000; stroke-opacity:1; stroke-linecap:round;" d="M NaN NaN L NaN0.41000000000000003,0.41000000000000003 NaN L NaN0.41000000000000003,0.41000000000000003 NaN L NaN NaN L NaN NaN" />
  <path style="fill:#2B55AB; stroke-width:0.005; stroke:#000000; stroke-opacity:1; stroke-linecap:round;" d="M NaN NaN L NaN0.41000000000000003,0.5 NaN L NaN0.41000000000000003,0.5 NaN L NaN NaN L NaN NaN" />
  <path style="fill:#2D5BB6; stroke-width:0.005; stroke:#000000; stroke-opacity:1; stroke-linecap:round;" d="M NaN NaN L NaN0.41000000000000003,0.59 NaN L NaN0.41000000000000003,0.59 NaN L NaN NaN L NaN NaN" />
  <path style="fill:#3060C1; stroke-width:0.005; stroke:#000000; stroke-opacity:1; stroke-linecap:round;" d="M NaN NaN L NaN0.41000000000000003,0.68 NaN L NaN0.41000000000000003,0.68 NaN L NaN NaN L NaN NaN" />
  <path style="fill:#3366CC; stroke-width:0.005; stroke:#000000; stroke-opacity:1; stroke-linecap:round;" d="M NaN NaN L NaN0.41000000000000003,0.77 NaN L NaN0.41000000000000003,0.77 NaN L NaN NaN L NaN NaN" />
  <path style="fill:#3E6ECF; stroke-width:0.005; stroke:#000000; stroke-opacity:1; stroke-linecap:round;" d="M NaN NaN L NaN0.41000000000000003,0.86 NaN L NaN0.41000000000000003,0.86 NaN L NaN NaN L NaN NaN" />
  <path style="fill:#4977D2; stroke-width:0.005; stroke:#000000; stroke-opacity:1; stroke-linecap:round;" d="M NaN NaN L NaN0.41000000000000003,0.95 NaN L NaN0.41000000000000003,0.95 NaN L NaN NaN L NaN NaN" />
  <path style="fill:#22458A; stroke-width:0.005; stroke:#000000; stroke-opacity:1; stroke-linecap:round;" d="M NaN NaN L NaN0.5,0.14000000000000004 NaN L NaN0.5,0.14000000000000004 NaN L NaN NaN L NaN NaN" />
  <path style="fill:#254A95; stroke-width:0.005; stroke:#000000; stroke-opacity:1; stroke-linecap:round;" d="M NaN NaN L NaN0.5,0.23000000000000004 NaN L NaN0.5,0.23000000000000004 NaN L NaN NaN L NaN NaN" />
  <path style="fill:#2850A0; stroke-width:0.005; stroke:#000000; stroke-opacity:1; stroke-linecap:round;" d="M NaN NaN L NaN0.5,0.32000000000000006 NaN L NaN0.5,0.32000000000000006 NaN L NaN NaN L NaN NaN" />
  <path style="fill:#2B55AB; stroke-width:0.005; stroke:#000000; stroke-opacity:1; stroke-linecap:round;" d="M NaN NaN L NaN0.5,0.41000000000000003 NaN L NaN0.5,0.41000000000000003 NaN L NaN NaN L NaN NaN" />
  <path style="fill:#2D5BB6; stroke-width:0.005; stroke:#000000; stroke-opacity:1; stroke-linecap:round;" d="M NaN NaN L NaN0.5,0.5 NaN L NaN0.5,0.5 NaN L NaN NaN L NaN NaN" />
  <path style="fill:#3060C1; stroke-width:0.005; stroke:#000000; stroke-opacity:1; stroke-linecap:round;" d="M NaN NaN L NaN0.5,0.59 NaN L NaN0.5,0.59 NaN L NaN NaN L NaN NaN" />
  <path style="fill:#3366CC; stroke-width:0.005; stroke:#000000; stroke-opacity:1; stroke-linecap:round;" d="M NaN NaN L NaN0.5,0.68 NaN L NaN0.5,0.68 NaN L NaN NaN L NaN NaN" />
  <path style="fill:#3E6ECF; stroke-width:0.005; stroke:#000000; stroke-opacity:1; stroke-linecap:round;" d="M NaN NaN L NaN0.5,0.77 NaN L NaN0.5,0.77 NaN L NaN NaN L NaN NaN" />
  <path style="fill:#4977D2; stroke-width:0.005; stroke:#000000; stroke-opacity:1; stroke-linecap:round;" d="M NaN NaN L NaN0.5,0.86 NaN L NaN0.5,0.86 NaN L NaN NaN L NaN NaN" />
  <path style="fill:#547FD4; stroke-width:0.005; stroke:#000000; stroke-opacity:1; stroke-linecap:round;" d="M NaN NaN L NaN0.5,0.95 NaN L NaN0.5,0.95 NaN L NaN NaN L NaN NaN" />
  <path style="fill:#254A95; stroke-width:0.005; stroke:#000000; stroke-opacity:1; stroke-linecap:round;" d="M NaN NaN L NaN0.59,0.14000000000000004 NaN L NaN0.59,0.14000000000000004 NaN L NaN NaN L NaN NaN" />
  <path style="fill:#2850A0; stroke-width:0.005; stroke:#000000; stroke-opacity:1; stroke-linecap:round;" d="M NaN NaN L NaN0.59,0.23000000000000004 NaN L NaN0.59,0.23000000000000004 NaN L NaN NaN L NaN NaN" />
  <path style="fill:#2B55AB; stroke-width:0.005; stroke:#000000; stroke-opacity:1; stroke-linecap:round;" d="M NaN NaN L NaN0.59,0.32000000000000006 NaN L NaN0.59,0.32000000000000006 NaN L NaN NaN L NaN NaN" />
  <path style="fill:#2D5BB6; stroke-width:0.005; stroke:#000000; stroke-opacity:1; stroke-linecap:round;" d="M NaN NaN L NaN0.59,0.41000000000000003 NaN L NaN0.59,0.41000000000000003 NaN L NaN NaN L NaN NaN" />
  <path style="fill:#3060C1; stroke-width:0.005; stroke:#000000; stroke-opacity:1; stroke-linecap:round;" d="M NaN NaN L NaN0.59,0.5 NaN L NaN0.59,0.5 NaN L NaN NaN L NaN NaN" />
  <path style="fill:#3366CC; stroke-width:0.005; stroke:#000000; stroke-opacity:1; stroke-linecap:round;" d="M NaN NaN L NaN0.59,0.59 NaN L NaN0.59,0.59 NaN L NaN NaN L NaN NaN" />
  <path style="fill:#3E6ECF; stroke-width:0.005; stroke:#000000; stroke-opacity:1; stroke-linecap:round;" d="M NaN NaN L NaN0.59,0.68 NaN L NaN0.59,0.68 NaN L NaN NaN L NaN NaN" />
  <path style="fill:#4977D2; stroke-width:0.005; stroke:#000000; stroke-opacity:1; stroke-linecap:round;" d="M NaN NaN L NaN0.59,0.77 NaN L NaN0.59,0.77 NaN L NaN NaN L NaN NaN" />
  <path style="fill:#547FD4; stroke-width:0.005; stroke:#000000; stroke-opacity:1; stroke-linecap:round;" d="M NaN NaN L NaN0.59,0.86 NaN L NaN0.59,0.86 NaN L NaN NaN L NaN NaN" />
  <path style="fill:#5F87D7; stroke-width:0.005; stroke:#000000; stroke-opacity:1; stroke-linecap:round;" d="M NaN NaN L NaN0.59,0.95 NaN L NaN0.59,0.95 NaN L NaN NaN L NaN NaN" />
  <path style="fill:#2850A0; stroke-width:0.005; stroke:#000000; stroke-opacity:1; stroke-linecap:round;" d="M NaN NaN L NaN0.68,0.14000000000000004 NaN L NaN0.68,0.14000000000000004 NaN L NaN NaN L NaN NaN" />
  <path style="fill:#2B55AB; stroke-width:0.005; stroke:#000000; stroke-opacity:1; stroke-linecap:round;" d="M NaN NaN L NaN0.68,0.23000000000000004 NaN L NaN0.68,0.23000000000000004 NaN L NaN NaN L NaN NaN" />
  <path style="fill:#2D5BB6; stroke-width:0.005; stroke:#000000; stroke-opacity:1; stroke-linecap:round;" d="M NaN NaN L NaN0.68,0.32000000000000006 NaN L NaN0.68,0.32000000000000006 NaN L NaN NaN L NaN NaN" />
  <path style="fill:#3060C1; stroke-width:0.005; stroke:#000000; stroke-opacity:1; stroke-linecap:round;" d="M NaN NaN L NaN0.68,0.41000000000000003 NaN L NaN0.68,0.41000000000000003 NaN L NaN NaN L NaN NaN" />
  <path style="fill:#3366CC; stroke-width:0.005; stroke:#000000; stroke-opacity:1; stroke-linecap:round;" d="M NaN NaN L NaN0.68,0.5 NaN L NaN0.68,0.5 NaN L NaN NaN L NaN NaN" />
  <path style="fill:#3E6ECF; stroke-width:0.005; stroke:#000000; stroke-opacity:1; stroke-linecap:round;" d="M NaN NaN L NaN0.68,0.59 NaN L NaN0.68,0.59 NaN L NaN NaN L NaN NaN" />
  <path style="fill:#4977D2; stroke-width:0.005; stroke:#000000; stroke-opacity:1; stroke-linecap:round;" d="M NaN NaN L NaN0.68,0.68 NaN L NaN0.68,0.68 NaN L NaN NaN L NaN NaN" />
  <path style="fill:#547FD4; stroke-width:0.005; stroke:#000000; stroke-opacity:1; stroke-linecap:round;" d="M NaN NaN L NaN0.68,0.77 NaN L NaN0.68,0.77 NaN L NaN NaN L NaN NaN" />
  <path style="fill:#5F87D7; stroke-width:0.005; stroke:#000000; stroke-opacity:1; stroke-linecap:round;" d="M NaN NaN L NaN0.68,0.86 NaN L NaN0.68,0.86 NaN L NaN NaN L NaN NaN" />
  <path style="fill:#6A8FDA; stroke-width:0.005; stroke:#000000; stroke-opacity:1; stroke-linecap:round;" d="M NaN NaN L NaN0.68,0.95 NaN L NaN0.68,0.95 NaN L NaN NaN L NaN NaN" />
  <path style="fill:#2B55AB; stroke-width:0.005; stroke:#000000; stroke-opacity:1; stroke-linecap:round;" d="M NaN NaN L NaN0.77,0.14000000000000004 NaN L NaN0.77,0.14000000000000004 NaN L NaN NaN L NaN NaN" />
  <path style="fill:#2D5BB6; stroke-width:0.005; stroke:#000000; stroke-opacity:1; stroke-linecap:round;" d="M NaN NaN L NaN0.77,0.23000000000000004 NaN L NaN0.77,0.23000000000000004 NaN L NaN NaN L NaN NaN" />
  <path style="fill:#3060C1; stroke-width:0.005; stroke:#000000; stroke-opacity:1; stroke-linecap:round;" d="M NaN NaN L NaN0.77,0.32000000000000006 NaN L NaN0.77,0.32000000000000006 NaN L NaN NaN L NaN NaN" />
  <path style="fill:#3366CC; stroke-width:0.005; stroke:#000000; stroke-opacity:1; stroke-linecap:round;" d="M NaN NaN L NaN0.77,0.41000000000000003 NaN L NaN0.77,0.41000000000000003 NaN L NaN NaN L NaN NaN" />
  <path style="fill:#3E6ECF; stroke-width:0.005; stroke:#000000; stroke-opacity:1; stroke-linecap:round;" d="M NaN NaN L NaN0.77,0.5 NaN L NaN0.77,0.5 NaN L NaN NaN L NaN NaN" />
  <path style="fill:#4977D2; stroke-width:0.005; stroke:#000000; stroke-opacity:1; stroke-linecap:round;" d="M NaN NaN L NaN0.77,0.59 NaN L NaN0.77,0.59 NaN L NaN NaN L NaN NaN" />
  <path style="fill:#547FD4; stroke-width:0.005; stroke:#000000; stroke-opacity:1; stroke-linecap:round;" d="M NaN NaN L NaN0.77,0.68 NaN L NaN0.77,0.68 NaN L NaN NaN L NaN NaN" />
  <path style="fill:#5F87D7; stroke-width:0.005; stroke:#000000; stroke-opacity:1; stroke-linecap:round;" d="M NaN NaN L NaN0.77,0.77 NaN L NaN0.77,0.77 NaN L NaN NaN L NaN NaN" />
  <path style="fill:#6A8FDA; stroke-width:0.005; stroke:#000000; stroke-opacity:1; stroke-linecap:round;" d="M NaN NaN L NaN0.77,0.86 NaN L NaN0.77,0.86 NaN L NaN NaN L NaN NaN" />
  <path style="fill:#7598DD; stroke-width:0.005; stroke:#000000; stroke-opacity:1; stroke-linecap:round;" d="M NaN NaN L NaN0.77,0.95 NaN L NaN0.77,0.95 NaN L NaN NaN L NaN NaN" />
  <path style="fill:#2D5BB6; stroke-width:0.005; stroke:#000000; stroke-opacity:1; stroke-linecap:round;" d="M NaN NaN L NaN0.86,0.14000000000000004 NaN L NaN0.86,0.14000000000000004 NaN L NaN NaN L NaN NaN" />
  <path style="fill:#3060C1; stroke-width:0.005; stroke:#000000; stroke-opacity:1; stroke-linecap:round;" d="M NaN NaN L NaN0.86,0.23000000000000004 NaN L NaN0.86,0.23000000000000004 NaN L NaN NaN L NaN NaN" />
  <path style="fill:#3366CC; stroke-width:0.005; stroke:#000000; stroke-opacity:1; stroke-linecap:round;" d="M NaN NaN L NaN0.86,0.32000000000000006 NaN L NaN0.86,0.32000000000000006 NaN L NaN NaN L NaN NaN" />
  <path style="fill:#3E6ECF; stroke-width:0.005; stroke:#000000; stroke-opacity:1; stroke-linecap:round;" d="M NaN NaN L NaN0.86,0.41000000000000003 NaN L NaN0.86,0.41000000000000003 NaN L NaN NaN L NaN NaN" />
  <path style="fill:#4977D2; stroke-width:0.005; stroke:#000000; stroke-opacity:1; stroke-linecap:round;" d="M NaN NaN L NaN0.86,0.5 NaN L NaN0.86,0.5 NaN L NaN NaN L NaN NaN" />
  <path style="fill:#547FD4; stroke-width:0.005; stroke:#000000; stroke-opacity:1; stroke-linecap:round;" d="M NaN NaN L NaN0.86,0.59 NaN L NaN0.86,0.59 NaN L NaN NaN L NaN NaN" />
  <path style="fill:#5F87D7; stroke-width:0.005; stroke:#000000; stroke-opacity:1; stroke-linecap:round;" d="M NaN NaN L NaN0.86,0.68 NaN L NaN0.86,0.68 NaN L NaN NaN L NaN NaN" />
  <path style="fill:#6A8FDA; stroke-width:0.005; stroke:#000000; stroke-opacity:1; stroke-linecap:round;" d="M NaN NaN L NaN0.86,0.77 NaN L NaN0.86,0.77 NaN L NaN NaN L NaN NaN" />
  <path style="fill:#7598DD; stroke-width:0.005; stroke:#000000; stroke-opacity:1; stroke-linecap:round;" d="M NaN NaN L NaN0.86,0.86 NaN L NaN0.86,0.86 NaN L NaN NaN L NaN NaN" />
  <path style="fill:#80A0DF; stroke-width:0.005; stroke:#000000; stroke-opacity:1; stroke-linecap:round;" d="M NaN NaN L NaN0.86,0.95 NaN L NaN0.86,0.95 NaN L NaN NaN L NaN NaN" />
  <path style="fill:#3060C1; stroke-width:0.005; stroke:#000000; stroke-opacity:1; stroke-linecap:round;" d="M NaN NaN L NaN0.95,0.14000000000000004 NaN L NaN0.95,0.14000000000000004 NaN L NaN NaN L NaN NaN" />
  <path style="fill:#3366CC; stroke-width:0.005; stroke:#000000; stroke-opacity:1; stroke-linecap:round;" d="M NaN NaN L NaN0.95,0.23000000000000004 NaN L NaN0.95,0.23000000000000004 NaN L NaN NaN L NaN NaN" />
  <path style="fill:#3E6ECF; stroke-width:0.005; stroke:#000000; stroke-opacity:1; stroke-linecap:round;" d="M NaN NaN L NaN0.95,0.32000000000000006 NaN L NaN0.95,0.32000000000000006 NaN L NaN NaN L NaN NaN" />
  <path style="fill:#4977D2; stroke-width:0.005; stroke:#000000; stroke-opacity:1; stroke-linecap:round;" d="M NaN NaN L NaN0.95,0.41000000000000003 NaN L NaN0.95,0.41000000000000003 NaN L NaN NaN L NaN NaN" />
  <path style="fill:#547FD4; stroke-width:0.005; stroke:#000000; stroke-opacity:1; stroke-linecap:round;" d="M NaN NaN L NaN0.95,0.5 NaN L NaN0.95,0.5 NaN L NaN NaN L NaN NaN" />
  <path style="fill:#5F87D7; stroke-width:0.005; stroke:#000000; stroke-opacity:1; stroke-linecap:round;" d="M NaN NaN L NaN0.95,0.59 NaN L NaN0.95,0.59 NaN L NaN NaN L NaN NaN" />
  <path style="fill:#6A8FDA; stroke-width:0.005; stroke:#000000; stroke-opacity:1; stroke-linecap:round;" d="M NaN NaN L NaN0.95,0.68 NaN L NaN0.95,0.68 NaN L NaN NaN L NaN NaN" />
  <path style="fill:#7598DD; stroke-width:0.005; stroke:#000000; stroke-opacity:1; stroke-linecap:round;" d="M NaN NaN L NaN0.95,0.77 NaN L NaN0.95,0.77 NaN L NaN NaN L NaN NaN" />
  <path style="fill:#80A0DF; stroke-width:0.005; stroke:#000000; stroke-opacity:1; stroke-linecap:round;" d="M NaN NaN L NaN0.95,0.86 NaN L NaN0.95,0.86 NaN L NaN NaN L NaN NaN" />
  <path style="fill:#8BA8E2; stroke-width:0.005; stroke:#000000; stroke-opacity:1; stroke-linecap:round;" d="M NaN NaN L NaN0.95,0.95 NaN L NaN0.95,0.95 NaN L NaN NaN L NaN NaN" />
</svg>