<svg xmlns="http://www.w3.org/2000/svg" viewBox="0 0 1 1" width="800" height="800">
  <path style="fill:none; stroke-width:0.003; stroke:#269DD9; stroke-opacity:1; stroke-linecap:round;" d="M 0.1 0.5 L 0.1 0.5479425538604203 L 0.116 0.5841470984807897 L 0.132 0.5997494986604055 L 0.14800000000000002 0.5909297426825681 L 0.164 0.5598472144103956 L 0.18000000000000002 0.5141120008059867 L 0.196 0.464921677231038 L 0.21200000000000002 0.42431975046920717 L 0.228 0.4022469882334903 L 0.244 0.4041075725336861 L 0.26 0.4294459674429608 L 0.276 0.4720584501801074 L 0.29200000000000004 0.5215119988087815 L 0.30800000000000005 0.565698659871879 L 0.32400000000000007 0.5937999976774739 L 0.33999999999999997 0.5989358246623382 L 0.356 0.579848711262349 L 0.372 0.5412118485241757 L 0.388 0.49248488795381906 L 0.404 0.445597888911063 L 0.42000000000000004 0.41203042400283296 L 0.43600000000000005 0.4000009793449296 L 0.45200000000000007 0.41245478253115714 L 0.4680000000000001 0.4463427081999565 L 0.484 0.4933678102648799 L 0.5 0.5420167036826641 L 0.516 0.5803784426551621 L 0.532 0.599060735569487 L 0.548 0.5934895055524683 L 0.564 0.5650287840157117 L 0.58 0.5206467481937797 L 0.596 0.4712096683334935 L 0.612 0.42882146576308766 L 0.628 0.4038602508120443 L 0.644 0.40243739945318424 L 0.6599999999999999 0.4249012753228324 L 0.6759999999999999 0.4657519381530387 L 0.692 0.5149877209662952 L 0.7080000000000001 0.5605539869719601 L 0.7240000000000001 0.5912945250727628 L 0.7400000000000001 0.59968297942788 L 0.756 0.5836655638536056 L 0.772 0.5471639003094196 L 0.788 0.4991148690709596 L 0.804 0.451282548753949 L 0.8200000000000001 0.4153779595824829 L 0.8360000000000001 0.4001917972020604 L 0.852 0.4094421637993376 L 0.868 0.4408642470134876 L 0.884 0.4867648249902227" />
</svg>