<svg xmlns="http://www.w3.org/2000/svg" viewBox="0 0 1 1" width="480" height="480"><path fill="hsla(20, 90%, 50%, 0.2)" stroke-width="0.005" stroke="hsla(0, 0%, 0%, 1)" d="M 0.500062950304724 0.5157397988987481 A 0.42260265383464346 0.2002340499777892 0 0 0 0.9226656041393675 0.3155057489209589" />,<path fill="hsla(20, 90%, 50%, 0.2)" stroke-width="0.005" stroke="hsla(0, 0%, 0%, 1)" d="M 0.1551597700815554 0.9486529105223372 A 0.21972555253182668 0.5762763073612647 0 0 0 0.3748853226133821 0.3723766031610725" />,<path fill="hsla(20, 90%, 50%, 0.2)" stroke-width="0.005" stroke="hsla(0, 0%, 0%, 1)" d="M 0.48958173894546503 0.6052440010489067 A 0.4836860016183196 0.03440355324056088 0 0 0 0.9732677405637846 0.5708404478083459" />,<path fill="hsla(20, 90%, 50%, 0.2)" stroke-width="0.005" stroke="hsla(0, 0%, 0%, 1)" d="M 0.8774761540995623 0.6556249872445187 A 0.29768789077589475 0.07240429126480696 0 0 0 0.5797882633236675 0.7280292785093256" />,<path fill="hsla(20, 90%, 50%, 0.2)" stroke-width="0.005" stroke="hsla(0, 0%, 0%, 1)" d="M 0.4521097546564671 0.4648158653790168 A 0.4074640682450179 0.4243424014245026 0 0 0 0.859573822901485 0.8891582668035194" />,<path fill="hsla(20, 90%, 50%, 0.2)" stroke-width="0.005" stroke="hsla(0, 0%, 0%, 1)" d="M 0.9271907452324384 0.6900451108091615 A 0.6050285302579935 0.17800571703771273 0 0 0 0.32216221497444486 0.8680508278468743" />,<path fill="hsla(20, 90%, 50%, 0.2)" stroke-width="0.005" stroke="hsla(0, 0%, 0%, 1)" d="M 0.3568342931933781 0.9051884226280238 A 0.5649881152354619 0.704132833449201 0 0 0 0.92182240842884 0.20105558917882285" />,<path fill="hsla(20, 90%, 50%, 0.2)" stroke-width="0.005" stroke="hsla(0, 0%, 0%, 1)" d="M 0.8296190874720036 0.8107620167571031 A 0.23371030162873452 0.0008196420969487361 0 0 0 0.5959087858432691 0.8115816588540519" />,<path fill="hsla(20, 90%, 50%, 0.2)" stroke-width="0.005" stroke="hsla(0, 0%, 0%, 1)" d="M 0.05682079658303894 0.6141124178222642 A 0.030435061089330126 0.07833382419271717 0 0 0 0.08725585767236907 0.535778593629547" />,<path fill="hsla(20, 90%, 50%, 0.2)" stroke-width="0.005" stroke="hsla(0, 0%, 0%, 1)" d="M 0.5696225144363992 0.9244432078964178 A 0.2657319578029523 0.32264080674449 0 0 0 0.30389055663344694 0.6018024011519277" />,<path fill="hsla(20, 90%, 50%, 0.2)" stroke-width="0.005" stroke="hsla(0, 0%, 0%, 1)" d="M 0.8110106563686884 0.3872020145382737 A 0.4564405042809529 0.43307734663437064 0 0 0 0.3545701520877355 0.8202793611726443" />,<path fill="hsla(20, 90%, 50%, 0.2)" stroke-width="0.005" stroke="hsla(0, 0%, 0%, 1)" d="M 0.018840244742771666 0.07497812786022623 A 0.34626904347591775 0.17381250350126357 0 0 0 0.36510928821868943 0.2487906313614898" />,<path fill="hsla(20, 90%, 50%, 0.2)" stroke-width="0.005" stroke="hsla(0, 0%, 0%, 1)" d="M 0.1514134675151234 0.7437129741869198 A 0.7623178373934509 0.055909849716329396 0 0 0 0.9137313049085743 0.6878031244705904" />,<path fill="hsla(20, 90%, 50%, 0.2)" stroke-width="0.005" stroke="hsla(0, 0%, 0%, 1)" d="M 0.7482042847546293 0.27855777327869036 A 0.3694085214215816 0.1548852846387041 0 0 0 0.3787957633330477 0.43344305791739446" />,<path fill="hsla(20, 90%, 50%, 0.2)" stroke-width="0.005" stroke="hsla(0, 0%, 0%, 1)" d="M 0.05064203800881329 0.8106524098689324 A 0.2320706744752989 0.026095092768337325 0 0 0 0.28271271248411217 0.7845573171005951" />,<path fill="hsla(20, 90%, 50%, 0.2)" stroke-width="0.005" stroke="hsla(0, 0%, 0%, 1)" d="M 0.22828393597814345 0.1794430579010963 A 0.28953108989855536 0.8187683498996237 0 0 0 0.5178150258766988 0.9982114078007199" />,<path fill="hsla(20, 90%, 50%, 0.2)" stroke-width="0.005" stroke="hsla(0, 0%, 0%, 1)" d="M 0.46199795730924187 0.9337707012737567 A 0.3386668535737942 0.7010465447560527 0 0 0 0.12333110373544766 0.23272415651770406" />,<path fill="hsla(20, 90%, 50%, 0.2)" stroke-width="0.005" stroke="hsla(0, 0%, 0%, 1)" d="M 0.05376861594937942 0.827918750426713 A 0.006492404501534162 0.08978061845753826 0 0 0 0.04727621144784526 0.9176993688842513" />,<path fill="hsla(20, 90%, 50%, 0.2)" stroke-width="0.005" stroke="hsla(0, 0%, 0%, 1)" d="M 0.1174549216212367 0.9635400304020243 A 0.19028138955828766 0.6288314379353149 0 0 0 0.3077363111795244 0.33470859246670936" />,<path fill="hsla(20, 90%, 50%, 0.2)" stroke-width="0.005" stroke="hsla(0, 0%, 0%, 1)" d="M 0.8432821577515645 0.35426942779549153 A 0.11446248067413978 0.22202570555313159 0 0 0 0.7288196770774247 0.13224372224235995" />,<path fill="hsla(20, 90%, 50%, 0.2)" stroke-width="0.005" stroke="hsla(0, 0%, 0%, 1)" d="M 0.6576348852034739 0.9424616475455606 A 0.1790801894802322 0.34489833408615045 0 0 0 0.8367150746837061 0.5975633134594102" />,<path fill="hsla(20, 90%, 50%, 0.2)" stroke-width="0.005" stroke="hsla(0, 0%, 0%, 1)" d="M 0.10155851955096203 0.14565709702336627 A 0.4890835512171228 0.5962765083173934 0 0 0 0.5906420707680848 0.7419336053407597" />,<path fill="hsla(20, 90%, 50%, 0.2)" stroke-width="0.005" stroke="hsla(0, 0%, 0%, 1)" d="M 0.6050583367713397 0.0495463153462732 A 0.3565779291923572 0.8444577916163155 0 0 0 0.24848040757898252 0.8940041069625887" />,<path fill="hsla(20, 90%, 50%, 0.2)" stroke-width="0.005" stroke="hsla(0, 0%, 0%, 1)" d="M 0.007638264216398416 0.9951602430071589 A 0.20216840091211918 0.30163797673341763 0 0 0 0.2098066651285176 0.6935222662737413" />,<path fill="hsla(20, 90%, 50%, 0.2)" stroke-width="0.005" stroke="hsla(0, 0%, 0%, 1)" d="M 0.39921214161422386 0.9129177352676442 A 0.25816982198929644 0.5685665990618445 0 0 0 0.6573819636035203 0.34435113620579966" /></svg>