<svg xmlns="http://www.w3.org/2000/svg" viewBox="0 0 1 1" width="480" height="480">
  <path style="fill:#F20D0D; stroke-width:0.005; stroke:#000000; stroke-opacity:1; stroke-linecap:round; fill-opacity:0.2;" d="M 0.8524066905232036 0.09944275337972996 A 0.5049568353782959 0.47311225162644455 0 0 0 0.34744985514490767 0.5725550050061745" />
  <path style="fill:#F2A60D; stroke-width:0.005; stroke:#000000; stroke-opacity:1; stroke-linecap:round; fill-opacity:0.2;" d="M 0.6573349311638774 0.20303111900929582 A 0.24001308260805365 0.27180832760929863 0 0 0 0.8973480137719311 0.47483944661859445" />
  <path style="fill:#F2A60D; stroke-width:0.005; stroke:#000000; stroke-opacity:1; stroke-linecap:round; fill-opacity:0.2;" d="M 0.02903786154381316 0.574475479991576 A 0.532736938698678 0.4441875507836399 0 0 0 0.5617748002424912 0.13028792920793608" />
  <path style="fill:#F2A60D; stroke-width:0.005; stroke:#000000; stroke-opacity:1; stroke-linecap:round; fill-opacity:0.2;" d="M 0.655927532192757 0.41673635600032277 A 0.5877592747070431 0.1128804743500782 0 0 0 0.06816825748571387 0.3038558816502446" />
  <path style="fill:#F20D0D; stroke-width:0.005; stroke:#000000; stroke-opacity:1; stroke-linecap:round; fill-opacity:0.2;" d="M 0.10755393026357174 0.5515478627817397 A 0.644556953124173 0.18380505112917878 0 0 0 0.7521108833877448 0.36774281165256095" />
  <path style="fill:#F2A60D; stroke-width:0.005; stroke:#000000; stroke-opacity:1; stroke-linecap:round; fill-opacity:0.2;" d="M 0.12905380291276958 0.6271727093622822 A 0.4667441442563104 0.624646582620379 0 0 0 0.59579794716908 0.002526126741903223" />
  <path style="fill:#F20D0D; stroke-width:0.005; stroke:#000000; stroke-opacity:1; stroke-linecap:round; fill-opacity:0.2;" d="M 0.9335189261611082 0.028006334025534763 A 0.44107488685905727 0.8981305038527561 0 0 0 0.49244403930205094 0.9261368378782908" />
  <path style="fill:#F2590D; stroke-width:0.005; stroke:#000000; stroke-opacity:1; stroke-linecap:round; fill-opacity:0.2;" d="M 0.41120679107075986 0.3991711302056353 A 0.45773979796410236 0.16230711165099243 0 0 0 0.8689465890348622 0.2368640185546429" />
  <path style="fill:#F2590D; stroke-width:0.005; stroke:#000000; stroke-opacity:1; stroke-linecap:round; fill-opacity:0.2;" d="M 0.6668278598929124 0.6270023497474585 A 0.13297458887966418 0.25777774773630624 0 0 0 0.7998024487725766 0.8847800974837647" />
  <path style="fill:#F2590D; stroke-width:0.005; stroke:#000000; stroke-opacity:1; stroke-linecap:round; fill-opacity:0.2;" d="M 0.49251879345395355 0.36389375533511703 A 0.1110845201566738 0.15907452533341582 0 0 0 0.6036033136106274 0.2048192300017012" />
  <path style="fill:#F2590D; stroke-width:0.005; stroke:#000000; stroke-opacity:1; stroke-linecap:round; fill-opacity:0.2;" d="M 0.2948056511202173 0.4259208507257348 A 0.03810648019910934 0.27060273013200664 0 0 0 0.3329121313193266 0.6965235808577415" />
  <path style="fill:#F2590D; stroke-width:0.005; stroke:#000000; stroke-opacity:1; stroke-linecap:round; fill-opacity:0.2;" d="M 0.3584351135078616 0.8653700632474164 A 0.026775797053683714 0.7939287301245151 0 0 0 0.3316593164541779 0.07144133312290124" />
  <path style="fill:#F2590D; stroke-width:0.005; stroke:#000000; stroke-opacity:1; stroke-linecap:round; fill-opacity:0.2;" d="M 0.14034819241844798 0.2048719416132575 A 0.18437765138888484 0.05116961169391865 0 0 0 0.3247258438073328 0.15370232991933885" />
  <path style="fill:#F20D0D; stroke-width:0.005; stroke:#000000; stroke-opacity:1; stroke-linecap:round; fill-opacity:0.2;" d="M 0.20352107545715148 0.07590978238289892 A 0.4320927630642811 0.5665777024857949 0 0 0 0.6356138385214326 0.6424874848686938" />
  <path style="fill:#F2590D; stroke-width:0.005; stroke:#000000; stroke-opacity:1; stroke-linecap:round; fill-opacity:0.2;" d="M 0.44445574790714915 0.28227782940041835 A 0.4067312270119555 0.20121074898130653 0 0 0 0.8511869749191047 0.08106708041911181" />
  <path style="fill:#F2A60D; stroke-width:0.005; stroke:#000000; stroke-opacity:1; stroke-linecap:round; fill-opacity:0.2;" d="M 0.3172675496505517 0.4304974466353013 A 0.05522504428344366 0.5228409896779923 0 0 0 0.37249259393399536 0.9533384363132936" />
  <path style="fill:#F20D0D; stroke-width:0.005; stroke:#000000; stroke-opacity:1; stroke-linecap:round; fill-opacity:0.2;" d="M 0.8668730733684342 0.136562558895726 A 0.732589613616287 0.2595036763928791 0 0 0 0.13428345975214717 0.3960662352886051" />
  <path style="fill:#F2A60D; stroke-width:0.005; stroke:#000000; stroke-opacity:1; stroke-linecap:round; fill-opacity:0.2;" d="M 0.6045953862211971 0.5936099510645684 A 0.1444290490327057 0.3366748973198349 0 0 0 0.7490244352539028 0.9302848483844033" />
  <path style="fill:#F2A60D; stroke-width:0.005; stroke:#000000; stroke-opacity:1; stroke-linecap:round; fill-opacity:0.2;" d="M 0.8751948999280613 0.31042123727113846 A 0.11831732738675216 0.14005694288668735 0 0 0 0.9935122273148135 0.1703642943844511" />
  <path style="fill:#F2A60D; stroke-width:0.005; stroke:#000000; stroke-opacity:1; stroke-linecap:round; fill-opacity:0.2;" d="M 0.8117437424813501 0.43862553363326895 A 0.19208327607165365 0.10485822500971598 0 0 0 0.6196604664096964 0.33376730862355297" />
  <path style="fill:#F2A60D; stroke-width:0.005; stroke:#000000; stroke-opacity:1; stroke-linecap:round; fill-opacity:0.2;" d="M 0.5875392550176559 0.9815381872803515 A 0.002728552725133948 0.4860328071035954 0 0 0 0.584810702292522 0.49550538017675605" />
  <path style="fill:#F20D0D; stroke-width:0.005; stroke:#000000; stroke-opacity:1; stroke-linecap:round; fill-opacity:0.2;" d="M 0.6482977998288354 0.8071291450996848 A 0.02592159749298162 0.8064457335179277 0 0 0 0.6223762023358538 0.0006834115817571096" />
  <path style="fill:#F2A60D; stroke-width:0.005; stroke:#000000; stroke-opacity:1; stroke-linecap:round; fill-opacity:0.2;" d="M 0.9881928436917231 0.8444423732024743 A 0.25856083996277557 0.06494229544339869 0 0 0 0.7296320037289475 0.909384668645873" />
  <path style="fill:#F2A60D; stroke-width:0.005; stroke:#000000; stroke-opacity:1; stroke-linecap:round; fill-opacity:0.2;" d="M 0.4072013852256168 0.5398642126324416 A 0.28783892283239154 0.004471406435773373 0 0 0 0.11936246239322523 0.5353928061966682" />
  <path style="fill:#F20D0D; stroke-width:0.005; stroke:#000000; stroke-opacity:1; stroke-linecap:round; fill-opacity:0.2;" d="M 0.8011739541559316 0.14635576395688243 A 0.7749341116854371 0.5621495900850373 0 0 0 0.02623984247049449 0.7085053540419197" />
  <path style="fill:#F20D0D; stroke-width:0.005; stroke:#000000; stroke-opacity:1; stroke-linecap:round; fill-opacity:0.2;" d="M 0.7425823696669631 0.695228673822406 A 0.16101781302594265 0.045353052784771086 0 0 0 0.9036001826929058 0.7405817266071771" />
  <path style="fill:#F2590D; stroke-width:0.005; stroke:#000000; stroke-opacity:1; stroke-linecap:round; fill-opacity:0.2;" d="M 0.9150625026384847 0.40612875909448387 A 0.36431806674237577 0.06096952754831242 0 0 0 0.5507444358961089 0.4670982866427963" />
  <path style="fill:#F20D0D; stroke-width:0.005; stroke:#000000; stroke-opacity:1; stroke-linecap:round; fill-opacity:0.2;" d="M 0.3299091911560219 0.35935967885290376 A 0.18791323803936577 0.4175516881210378 0 0 0 0.5178224291953877 0.7769113669739416" />
  <path style="fill:#F2590D; stroke-width:0.005; stroke:#000000; stroke-opacity:1; stroke-linecap:round; fill-opacity:0.2;" d="M 0.2964939341072994 0.821929037858418 A 0.13543525974616633 0.12528033566857433 0 0 0 0.43192919385346573 0.9472093735269923" />
  <path style="fill:#F2590D; stroke-width:0.005; stroke:#000000; stroke-opacity:1; stroke-linecap:round; fill-opacity:0.2;" d="M 0.462945119028198 0.5160820958158958 A 0.4992937269738269 0.16761617945207308 0 0 0 0.9622388460020249 0.34846591636382274" />
  <path style="fill:#F2590D; stroke-width:0.005; stroke:#000000; stroke-opacity:1; stroke-linecap:round; fill-opacity:0.2;" d="M 0.5726431713879433 0.4128881623771463 A 0.23789814979945734 0.1709077855962473 0 0 0 0.33474502158848596 0.5837959479733936" />
  <path style="fill:#F2A60D; stroke-width:0.005; stroke:#000000; stroke-opacity:1; stroke-linecap:round; fill-opacity:0.2;" d="M 0.29999194193637657 0.732561098248921 A 0.36388535877593553 0.22398521662095983 0 0 0 0.6638773007123121 0.5085758816279612" />
  <path style="fill:#F2590D; stroke-width:0.005; stroke:#000000; stroke-opacity:1; stroke-linecap:round; fill-opacity:0.2;" d="M 0.10568167678316809 0.3217354266355483 A 0.06471761353750394 0.14980788413210244 0 0 0 0.17039929032067203 0.17192754250344588" />
  <path style="fill:#F2590D; stroke-width:0.005; stroke:#000000; stroke-opacity:1; stroke-linecap:round; fill-opacity:0.2;" d="M 0.7779550166443845 0.10688108059946966 A 0.2013205973443355 0.7474288527433953 0 0 0 0.97927561398872 0.854309933342865" />
  <path style="fill:#F2590D; stroke-width:0.005; stroke:#000000; stroke-opacity:1; stroke-linecap:round; fill-opacity:0.2;" d="M 0.65517943535384 0.896633145713568 A 0.047856675508519575 0.8203169155200577 0 0 0 0.6073227598453205 0.0763162301935103" />
  <path style="fill:#F2590D; stroke-width:0.005; stroke:#000000; stroke-opacity:1; stroke-linecap:round; fill-opacity:0.2;" d="M 0.13052095881319203 0.6750054211187437 A 0.052341295807524446 0.3045526003870376 0 0 0 0.18286225462071648 0.9795580215057813" />
  <path style="fill:#F20D0D; stroke-width:0.005; stroke:#000000; stroke-opacity:1; stroke-linecap:round; fill-opacity:0.2;" d="M 0.5413605501229076 0.5741892171292848 A 0.2263850557127811 0.031970615549071546 0 0 0 0.7677456058356887 0.5422186015802133" />
  <path style="fill:#F2A60D; stroke-width:0.005; stroke:#000000; stroke-opacity:1; stroke-linecap:round; fill-opacity:0.2;" d="M 0.2209916929803898 0.6435855517005203 A 0.031819774153245106 0.10001270859862976 0 0 0 0.18917191882714468 0.5435728431018906" />
  <path style="fill:#F2A60D; stroke-width:0.005; stroke:#000000; stroke-opacity:1; stroke-linecap:round; fill-opacity:0.2;" d="M 0.13447014586588624 0.2637751732941723 A 0.33296920494626525 0.23576710664492806 0 0 0 0.4674393508121515 0.4995422799391004" />
  <path style="fill:#F2590D; stroke-width:0.005; stroke:#000000; stroke-opacity:1; stroke-linecap:round; fill-opacity:0.2;" d="M 0.684555915905938 0.15328889107275756 A 0.2419973760092391 0.3088237000370557 0 0 0 0.4425585398966989 0.4621125911098133" />
  <path style="fill:#F2590D; stroke-width:0.005; stroke:#000000; stroke-opacity:1; stroke-linecap:round; fill-opacity:0.2;" d="M 0.7081666986220299 0.5734154875218156 A 0.15940326920058 0.22374984598273284 0 0 0 0.8675699678226099 0.34966564153908275" />
  <path style="fill:#F2A60D; stroke-width:0.005; stroke:#000000; stroke-opacity:1; stroke-linecap:round; fill-opacity:0.2;" d="M 0.09528119377846034 0.5848677789048685 A 0.30046289056916 0.3011276588573746 0 0 0 0.3957440843476203 0.8859954377622431" />
  <path style="fill:#F2A60D; stroke-width:0.005; stroke:#000000; stroke-opacity:1; stroke-linecap:round; fill-opacity:0.2;" d="M 0.5835475328825661 0.44422779375119403 A 0.39422861735654613 0.2549180976314207 0 0 0 0.9777761502391122 0.6991458913826147" />
  <path style="fill:#F2590D; stroke-width:0.005; stroke:#000000; stroke-opacity:1; stroke-linecap:round; fill-opacity:0.2;" d="M 0.6969229824574787 0.9160790380378407 A 0.00032318148089260923 0.05705924285612307 0 0 0 0.6972461639383714 0.9731382808939638" />
  <path style="fill:#F2590D; stroke-width:0.005; stroke:#000000; stroke-opacity:1; stroke-linecap:round; fill-opacity:0.2;" d="M 0.9017237215615017 0.09470304183912348 A 0.3278873130978943 0.25820865701433604 0 0 0 0.5738364084636074 0.3529116988534595" />
  <path style="fill:#F20D0D; stroke-width:0.005; stroke:#000000; stroke-opacity:1; stroke-linecap:round; fill-opacity:0.2;" d="M 0.22632919148332542 0.3246441287056073 A 0.0987209317008827 0.22334920542482406 0 0 0 0.12760825978244272 0.5479933341304314" />
  <path style="fill:#F20D0D; stroke-width:0.005; stroke:#000000; stroke-opacity:1; stroke-linecap:round; fill-opacity:0.2;" d="M 0.28421911386413723 0.7455653513802758 A 0.13500155350240006 0.020098981723300935 0 0 0 0.14921756036173717 0.7656643331035767" />
  <path style="fill:#F2590D; stroke-width:0.005; stroke:#000000; stroke-opacity:1; stroke-linecap:round; fill-opacity:0.2;" d="M 0.6420643064257439 0.8052698348562064 A 0.1881319456686663 0.04273730637967743 0 0 0 0.45393236075707755 0.762532528476529" />
  <path style="fill:#F2590D; stroke-width:0.005; stroke:#000000; stroke-opacity:1; stroke-linecap:round; fill-opacity:0.2;" d="M 0.3564640064130842 0.3961779783899383 A 0.2957128212728871 0.20936418846120775 0 0 0 0.06075118514019706 0.605542166851146" />
  <path style="fill:#F2A60D; stroke-width:0.005; stroke:#000000; stroke-opacity:1; stroke-linecap:round; fill-opacity:0.2;" d="M 0.8490790752267872 0.19683547101714793 A 0.6566462686149485 0.45129982575750605 0 0 0 0.1924328066118387 0.648135296774654" />
</svg>