<svg xmlns="http://www.w3.org/2000/svg" viewBox="0 0 1 1" width="128" height="128">  <path style="fill:#F20D59; fill-opacity:0.5;" d="M 0.06347124545466509 0.26667051953278875 C 0.4157072697298418 0.34269540495076967, 0.4826930932310964 0.32237547754295726, 0.7333294804672112 0.06347124545466509 C 0.6573045950492303 0.4157072697298418, 0.6776245224570426 0.4826930932310964, 0.9365287545453349 0.7333294804672112 C 0.5842927302701583 0.6573045950492303, 0.5173069067689037 0.6776245224570426, 0.26667051953278875 0.9365287545453349 C 0.34269540495076967 0.5842927302701583, 0.32237547754295726 0.5173069067689037, 0.06347124545466509 0.26667051953278875" />  <path style="fill:#DF0DF2; fill-opacity:0.5;" d="M 0.11737934654938487 0.18599134478007728 C 0.4445849350972654 0.2944418073103733, 0.5142478659643192 0.2875806074873041, 0.8140086552199227 0.11737934654938487 C 0.7055581926896267 0.4445849350972654, 0.7124193925126959 0.5142478659643192, 0.8826206534506151 0.8140086552199227 C 0.5554150649027346 0.7055581926896267, 0.48575213403568085 0.7124193925126959, 0.18599134478007728 0.8826206534506151 C 0.2944418073103733 0.5554150649027346, 0.2875806074873041 0.48575213403568085, 0.11737934654938487 0.18599134478007728" />  <path style="fill:#330DF2; fill-opacity:0.5;" d="M 0.18599134478007728 0.11737934654938487 C 0.48918273394721545 0.25274914205377713, 0.5588456648142692 0.25961034187684634, 0.8826206534506151 0.18599134478007728 C 0.7472508579462228 0.48918273394721545, 0.7403896581231536 0.5588456648142692, 0.8140086552199227 0.8826206534506151 C 0.5108172660527845 0.7472508579462228, 0.4411543351857308 0.7403896581231536, 0.11737934654938487 0.8140086552199227 C 0.25274914205377713 0.5108172660527845, 0.25961034187684634 0.4411543351857308, 0.18599134478007728 0.11737934654938487" />  <path style="fill:#0D93F2; fill-opacity:0.5;" d="M 0.26667051953278875 0.06347124545466509 C 0.5477867978806221 0.22189674229107534, 0.6147726213818767 0.2422166696988877, 0.9365287545453349 0.26667051953278875 C 0.7781032577089246 0.5477867978806221, 0.7577833303011123 0.6147726213818767, 0.7333294804672112 0.9365287545453349 C 0.4522132021193778 0.7781032577089246, 0.38522737861812323 0.7577833303011123, 0.06347124545466509 0.7333294804672112 C 0.22189674229107534 0.4522132021193778, 0.2422166696988877 0.38522737861812323, 0.26667051953278875 0.06347124545466509" /></svg>