<svg xmlns="http://www.w3.org/2000/svg" viewBox="0 0 1 1" width="128" height="128">
  <path transform="scale(1.897877393744441, 1.897877393744441) rotate(271.4835747249559)" transform-origin="center" style="fill:#F20D3E; fill-opacity:0.5;" d="M 0.18 0.18 C 0.30000000000000004 0.24666666666666665, 0.32666666666666666 0.24666666666666665, 0.44666666666666666 0.18 C 0.38 0.30000000000000004, 0.38 0.32666666666666666, 0.44666666666666666 0.44666666666666666 C 0.32666666666666666 0.38, 0.30000000000000004 0.38, 0.18 0.44666666666666666 C 0.24666666666666665 0.32666666666666666, 0.24666666666666665 0.30000000000000004, 0.18 0.18" />
  <path transform="scale(2.487225019420662, 2.487225019420662) rotate(259.5623120450143)" transform-origin="center" style="fill:#F20D27; fill-opacity:0.5;" d="M 0.18 0.36666666666666664 C 0.30000000000000004 0.4333333333333333, 0.32666666666666666 0.4333333333333333, 0.44666666666666666 0.36666666666666664 C 0.38 0.4866666666666667, 0.38 0.5133333333333333, 0.44666666666666666 0.6333333333333333 C 0.32666666666666666 0.5666666666666667, 0.30000000000000004 0.5666666666666667, 0.18 0.6333333333333333 C 0.24666666666666665 0.5133333333333333, 0.24666666666666665 0.4866666666666667, 0.18 0.36666666666666664" />
  <path transform="scale(2.377619614717717, 2.377619614717717) rotate(287.369183389555)" transform-origin="center" style="fill:#F2470D; fill-opacity:0.5;" d="M 0.18 0.5533333333333333 C 0.30000000000000004 0.62, 0.32666666666666666 0.62, 0.44666666666666666 0.5533333333333333 C 0.38 0.6733333333333335, 0.38 0.7000000000000001, 0.44666666666666666 0.8200000000000001 C 0.32666666666666666 0.7533333333333334, 0.30000000000000004 0.7533333333333334, 0.18 0.8200000000000001 C 0.24666666666666667 0.7000000000000001, 0.24666666666666667 0.6733333333333335, 0.18 0.5533333333333333" />
  <path transform="scale(2.089072753940852, 2.089072753940852) rotate(72.16793304142995)" transform-origin="center" style="fill:#F20D55; fill-opacity:0.5;" d="M 0.3666666666666667 0.18 C 0.4866666666666667 0.24666666666666665, 0.5133333333333333 0.24666666666666665, 0.6333333333333333 0.18 C 0.5666666666666667 0.30000000000000004, 0.5666666666666667 0.32666666666666666, 0.6333333333333333 0.44666666666666666 C 0.5133333333333333 0.38, 0.4866666666666667 0.38, 0.3666666666666667 0.44666666666666666 C 0.43333333333333335 0.32666666666666666, 0.43333333333333335 0.30000000000000004, 0.3666666666666667 0.18" />
  <path transform="scale(1.730340868822741, 1.730340868822741) rotate(168.0265903117288)" transform-origin="center" style="fill:#F20D7A; fill-opacity:0.5;" d="M 0.3666666666666667 0.36666666666666664 C 0.4866666666666667 0.4333333333333333, 0.5133333333333333 0.4333333333333333, 0.6333333333333333 0.36666666666666664 C 0.5666666666666667 0.4866666666666667, 0.5666666666666667 0.5133333333333333, 0.6333333333333333 0.6333333333333333 C 0.5133333333333333 0.5666666666666667, 0.4866666666666667 0.5666666666666667, 0.3666666666666667 0.6333333333333333 C 0.43333333333333335 0.5133333333333333, 0.43333333333333335 0.4866666666666667, 0.3666666666666667 0.36666666666666664" />
  <path transform="scale(0.8119312932786162, 0.8119312932786162) rotate(148.610400809299)" transform-origin="center" style="fill:#F27E0D; fill-opacity:0.5;" d="M 0.3666666666666667 0.5533333333333333 C 0.4866666666666667 0.62, 0.5133333333333333 0.62, 0.6333333333333333 0.5533333333333333 C 0.5666666666666667 0.6733333333333335, 0.5666666666666667 0.7000000000000001, 0.6333333333333333 0.8200000000000001 C 0.5133333333333333 0.7533333333333334, 0.4866666666666667 0.7533333333333334, 0.3666666666666667 0.8200000000000001 C 0.43333333333333335 0.7000000000000001, 0.43333333333333335 0.6733333333333335, 0.3666666666666667 0.5533333333333333" />
  <path transform="scale(2.336254022545974, 2.336254022545974) rotate(245.40520322017443)" transform-origin="center" style="fill:#F21E0D; fill-opacity:0.5;" d="M 0.5533333333333333 0.18 C 0.6733333333333335 0.24666666666666667, 0.7000000000000001 0.24666666666666667, 0.8200000000000001 0.18 C 0.7533333333333334 0.30000000000000004, 0.7533333333333334 0.32666666666666666, 0.8200000000000001 0.44666666666666666 C 0.7000000000000001 0.38, 0.6733333333333335 0.38, 0.5533333333333333 0.44666666666666666 C 0.62 0.32666666666666666, 0.62 0.30000000000000004, 0.5533333333333333 0.18" />
  <path transform="scale(2.106978992635664, 2.106978992635664) rotate(310.4360818477512)" transform-origin="center" style="fill:#F26A0D; fill-opacity:0.5;" d="M 0.5533333333333333 0.36666666666666664 C 0.6733333333333335 0.43333333333333335, 0.7000000000000001 0.43333333333333335, 0.8200000000000001 0.36666666666666664 C 0.7533333333333334 0.4866666666666667, 0.7533333333333334 0.5133333333333333, 0.8200000000000001 0.6333333333333333 C 0.7000000000000001 0.5666666666666667, 0.6733333333333335 0.5666666666666667, 0.5533333333333333 0.6333333333333333 C 0.62 0.5133333333333333, 0.62 0.4866666666666667, 0.5533333333333333 0.36666666666666664" />
  <path transform="scale(2.0095419605161293, 2.0095419605161293) rotate(237.89865839862063)" transform-origin="center" style="fill:#F2200D; fill-opacity:0.5;" d="M 0.5533333333333333 0.5533333333333333 C 0.6733333333333335 0.62, 0.7000000000000001 0.62, 0.8200000000000001 0.5533333333333333 C 0.7533333333333334 0.6733333333333335, 0.7533333333333334 0.7000000000000001, 0.8200000000000001 0.8200000000000001 C 0.7000000000000001 0.7533333333333334, 0.6733333333333335 0.7533333333333334, 0.5533333333333333 0.8200000000000001 C 0.62 0.7000000000000001, 0.62 0.6733333333333335, 0.5533333333333333 0.5533333333333333" />
</svg>